<svg width="17" height="14" viewBox="0 0 17 14" fill="none" xmlns="http://www.w3.org/2000/svg">
<path d="M7.408 0.263998C7.568 0.743998 7.648 1.144 7.648 1.464C7.648 1.752 7.6 2.136 7.504 2.616C5.36 2.616 4.288 3.72 4.288 5.928C4.288 6.728 4.704 7.176 5.536 7.272C6.752 7.368 7.36 8.152 7.36 9.624C7.36 10.744 7.088 11.608 6.544 12.216C6.032 12.792 5.088 13.08 3.712 13.08C1.824 13.08 0.88 11.8 0.88 9.24C0.88 6.68 1.392 4.552 2.416 2.856C3.44 1.128 5.104 0.263998 7.408 0.263998ZM16.096 0.263998C16.256 0.743998 16.336 1.144 16.336 1.464C16.336 1.752 16.288 2.136 16.192 2.616C14.048 2.616 12.976 3.72 12.976 5.928C12.976 6.728 13.392 7.176 14.224 7.272C15.44 7.368 16.048 8.152 16.048 9.624C16.048 10.744 15.776 11.608 15.232 12.216C14.72 12.792 13.776 13.08 12.4 13.08C10.512 13.08 9.568 11.8 9.568 9.24C9.568 6.68 10.08 4.552 11.104 2.856C12.128 1.128 13.792 0.263998 16.096 0.263998Z" fill="url(#paint0_linear_965_9102)"/>
<defs>
<linearGradient id="paint0_linear_965_9102" x1="-8.6" y1="-19" x2="33.1965" y2="-2.5211" gradientUnits="userSpaceOnUse">
<stop stop-color="#8F7047"/>
<stop offset="0.509514" stop-color="#DABD9A"/>
<stop offset="1" stop-color="#A58A63"/>
</linearGradient>
</defs>
</svg>
