<svg width="17" height="14" viewBox="0 0 17 14" fill="none" xmlns="http://www.w3.org/2000/svg">
<path d="M9.592 13.2463C9.432 12.7663 9.352 12.3663 9.352 12.0463C9.352 11.7583 9.4 11.3743 9.496 10.8943C11.64 10.8943 12.712 9.79025 12.712 7.58225C12.712 6.78225 12.296 6.33425 11.464 6.23825C10.248 6.14226 9.64 5.35826 9.64 3.88625C9.64 2.76625 9.912 1.90225 10.456 1.29425C10.968 0.718255 11.912 0.430255 13.288 0.430255C15.176 0.430255 16.12 1.71026 16.12 4.27026C16.12 6.83026 15.608 8.95826 14.584 10.6543C13.56 12.3823 11.896 13.2463 9.592 13.2463ZM0.904003 13.2463C0.744002 12.7663 0.664002 12.3663 0.664002 12.0463C0.664002 11.7583 0.712002 11.3743 0.808003 10.8943C2.952 10.8943 4.024 9.79025 4.024 7.58225C4.024 6.78225 3.608 6.33425 2.776 6.23825C1.56 6.14225 0.952003 5.35825 0.952004 3.88625C0.952004 2.76625 1.224 1.90225 1.768 1.29425C2.28 0.718254 3.224 0.430254 4.6 0.430254C6.488 0.430254 7.432 1.71025 7.432 4.27025C7.432 6.83026 6.92 8.95826 5.896 10.6543C4.872 12.3823 3.208 13.2463 0.904003 13.2463Z" fill="url(#paint0_linear_965_9103)"/>
<defs>
<linearGradient id="paint0_linear_965_9103" x1="30.4776" y1="32.5103" x2="-44.7657" y2="6.86482" gradientUnits="userSpaceOnUse">
<stop stop-color="#8F7047"/>
<stop offset="0.509514" stop-color="#DABD9A"/>
<stop offset="1" stop-color="#A58A63"/>
</linearGradient>
</defs>
</svg>
