<svg width="17" height="14" viewBox="0 0 17 14" fill="none" xmlns="http://www.w3.org/2000/svg">
<path d="M9.592 13.736C9.432 13.256 9.352 12.856 9.352 12.536C9.352 12.248 9.4 11.864 9.496 11.384C11.64 11.384 12.712 10.28 12.712 8.072C12.712 7.272 12.296 6.824 11.464 6.728C10.248 6.632 9.64 5.848 9.64 4.376C9.64 3.256 9.912 2.392 10.456 1.784C10.968 1.208 11.912 0.92 13.288 0.920001C15.176 0.920001 16.12 2.2 16.12 4.76C16.12 7.32 15.608 9.448 14.584 11.144C13.56 12.872 11.896 13.736 9.592 13.736ZM0.904001 13.736C0.744001 13.256 0.664 12.856 0.664 12.536C0.664 12.248 0.712001 11.864 0.808002 11.384C2.952 11.384 4.024 10.28 4.024 8.072C4.024 7.272 3.608 6.824 2.776 6.728C1.56 6.632 0.952002 5.848 0.952002 4.376C0.952002 3.256 1.224 2.392 1.768 1.784C2.28 1.208 3.224 0.92 4.6 0.92C6.488 0.92 7.432 2.2 7.432 4.76C7.432 7.32 6.92 9.448 5.896 11.144C4.872 12.872 3.208 13.736 0.904001 13.736Z" fill="#8F8F8F"/>
</svg>
