<svg width="26" height="26" viewBox="0 0 26 26" fill="none" xmlns="http://www.w3.org/2000/svg">
<mask id="path-1-inside-1_1158_5196" fill="white">
<path d="M18.1551 24.1433C14.4111 24.1433 10.4129 22.7675 7.28684 19.6415C4.16599 16.5207 2.78516 12.5252 2.78516 8.77335C2.78516 5.46679 5.46031 2.78613 8.77237 2.78613C9.02824 2.78613 9.25829 2.94189 9.35331 3.17945L12.0341 9.88138C12.1624 10.2022 12.0064 10.5663 11.6856 10.6947L8.74075 11.8726C8.94907 15.2605 11.6685 17.9797 15.0558 18.1878L16.2338 15.2429C16.3618 14.9226 16.7258 14.766 17.0471 14.8944L23.7489 17.5751C23.9865 17.6701 24.1423 17.9002 24.1423 18.1561C24.1423 21.4626 21.4671 24.1433 18.1551 24.1433ZM8.35595 4.05546C5.95961 4.26282 4.03655 6.27231 4.03655 8.77335C4.03655 12.5446 5.50511 16.09 8.17174 18.7566C10.8383 21.4233 14.3838 22.8919 18.1551 22.8919C20.6553 22.8919 22.6655 20.9699 22.873 18.5725L17.1633 16.2886L16.0552 19.0586C15.9603 19.2962 15.7302 19.4519 15.4743 19.4519C11.064 19.4519 7.47651 15.8644 7.47651 11.4548C7.47651 11.199 7.63227 10.9682 7.86982 10.8732L10.6398 9.76516L8.35595 4.05546Z"/>
</mask>
<path d="M18.1551 24.1433C14.4111 24.1433 10.4129 22.7675 7.28684 19.6415C4.16599 16.5207 2.78516 12.5252 2.78516 8.77335C2.78516 5.46679 5.46031 2.78613 8.77237 2.78613C9.02824 2.78613 9.25829 2.94189 9.35331 3.17945L12.0341 9.88138C12.1624 10.2022 12.0064 10.5663 11.6856 10.6947L8.74075 11.8726C8.94907 15.2605 11.6685 17.9797 15.0558 18.1878L16.2338 15.2429C16.3618 14.9226 16.7258 14.766 17.0471 14.8944L23.7489 17.5751C23.9865 17.6701 24.1423 17.9002 24.1423 18.1561C24.1423 21.4626 21.4671 24.1433 18.1551 24.1433ZM8.35595 4.05546C5.95961 4.26282 4.03655 6.27231 4.03655 8.77335C4.03655 12.5446 5.50511 16.09 8.17174 18.7566C10.8383 21.4233 14.3838 22.8919 18.1551 22.8919C20.6553 22.8919 22.6655 20.9699 22.873 18.5725L17.1633 16.2886L16.0552 19.0586C15.9603 19.2962 15.7302 19.4519 15.4743 19.4519C11.064 19.4519 7.47651 15.8644 7.47651 11.4548C7.47651 11.199 7.63227 10.9682 7.86982 10.8732L10.6398 9.76516L8.35595 4.05546Z" fill="url(#paint0_linear_1158_5196)"/>
<path d="M7.28684 19.6415L4.4584 22.47L4.45845 22.47L7.28684 19.6415ZM9.35331 3.17945L5.63941 4.66501L5.63941 4.66501L9.35331 3.17945ZM12.0341 9.88138L8.32019 11.3669L8.32022 11.367L12.0341 9.88138ZM11.6856 10.6947L13.1711 14.4086L13.1714 14.4085L11.6856 10.6947ZM8.74075 11.8726L7.25523 8.15867L4.57086 9.23239L4.74829 12.1181L8.74075 11.8726ZM15.0558 18.1878L14.8106 22.1802L17.6961 22.3574L18.7697 19.6733L15.0558 18.1878ZM16.2338 15.2429L19.9477 16.7285L19.9479 16.7278L16.2338 15.2429ZM17.0471 14.8944L18.5327 11.1805L18.5315 11.18L17.0471 14.8944ZM23.7489 17.5751L22.2634 21.289L23.7489 17.5751ZM8.35595 4.05546L12.0699 2.5699L10.9677 -0.185479L8.01112 0.0703559L8.35595 4.05546ZM8.17174 18.7566L11.0002 15.9282L11.0001 15.9282L8.17174 18.7566ZM22.873 18.5725L26.8581 18.9174L27.114 15.9608L24.3586 14.8586L22.873 18.5725ZM17.1633 16.2886L18.6488 12.5747L14.9349 11.0892L13.4494 14.803L17.1633 16.2886ZM16.0552 19.0586L12.3413 17.573L12.3411 17.5736L16.0552 19.0586ZM7.86982 10.8732L9.35483 14.5873L9.35542 14.5871L7.86982 10.8732ZM10.6398 9.76516L12.1254 13.4791L15.8393 11.9935L14.3537 8.2796L10.6398 9.76516ZM18.1551 20.1433C15.3766 20.1433 12.4263 19.1241 10.1152 16.8131L4.45845 22.47C8.39949 26.4109 13.4456 28.1433 18.1551 28.1433V20.1433ZM10.1153 16.8131C7.80801 14.5058 6.78516 11.5575 6.78516 8.77335H-1.21484C-1.21484 13.4928 0.523963 18.5355 4.4584 22.47L10.1153 16.8131ZM6.78516 8.77335C6.78516 7.67353 7.67184 6.78613 8.77237 6.78613V-1.21387C3.24877 -1.21387 -1.21484 3.26005 -1.21484 8.77335H6.78516ZM8.77237 6.78613C7.39259 6.78613 6.15183 5.94606 5.63941 4.66501L13.0672 1.69388C12.3648 -0.0622807 10.6639 -1.21387 8.77237 -1.21387V6.78613ZM5.63941 4.66501L8.32019 11.3669L15.748 8.39581L13.0672 1.69388L5.63941 4.66501ZM8.32022 11.367C7.62808 9.63678 8.46962 7.67309 10.1998 6.98089L13.1714 14.4085C15.5432 13.4596 16.6968 10.7677 15.748 8.39573L8.32022 11.367ZM10.2001 6.98078L7.25523 8.15867L10.2263 15.5865L13.1711 14.4086L10.2001 6.98078ZM4.74829 12.1181C5.08055 17.5216 9.40715 21.8484 14.8106 22.1802L15.301 14.1953C13.9299 14.1111 12.8176 12.9993 12.7332 11.6271L4.74829 12.1181ZM18.7697 19.6733L19.9477 16.7285L12.5199 13.7574L11.3419 16.7022L18.7697 19.6733ZM19.9479 16.7278C19.2566 18.4572 17.294 19.3007 15.5627 18.6088L18.5315 11.18C16.1576 10.2313 13.4671 11.3881 12.5196 13.758L19.9479 16.7278ZM15.5615 18.6083L22.2634 21.289L25.2345 13.8612L18.5327 11.1805L15.5615 18.6083ZM22.2634 21.289C20.9827 20.7768 20.1423 19.5363 20.1423 18.1561H28.1423C28.1423 16.2641 26.9903 14.5635 25.2345 13.8612L22.2634 21.289ZM20.1423 18.1561C20.1423 19.2559 19.2556 20.1433 18.1551 20.1433V28.1433C23.6787 28.1433 28.1423 23.6694 28.1423 18.1561H20.1423ZM8.01112 0.0703559C3.58888 0.453014 0.0365512 4.15508 0.0365512 8.77335H8.03655C8.03655 8.38954 8.33034 8.07263 8.70078 8.04057L8.01112 0.0703559ZM0.0365512 8.77335C0.0365512 13.6054 1.92651 18.1683 5.34334 21.5851L11.0001 15.9282C9.0837 14.0118 8.03655 11.4837 8.03655 8.77335H0.0365512ZM5.3433 21.585C8.76005 25.0019 13.323 26.8919 18.1551 26.8919V18.8919C15.4447 18.8919 12.9166 17.8447 11.0002 15.9282L5.3433 21.585ZM18.1551 26.8919C22.7716 26.8919 26.4751 23.3416 26.8581 18.9174L18.8879 18.2275C18.8558 18.5982 18.539 18.8919 18.1551 18.8919V26.8919ZM24.3586 14.8586L18.6488 12.5747L15.6777 20.0025L21.3875 22.2864L24.3586 14.8586ZM13.4494 14.803L12.3413 17.573L19.7691 20.5442L20.8772 17.7742L13.4494 14.803ZM12.3411 17.5736C12.8537 16.2917 14.095 15.4519 15.4743 15.4519V23.4519C17.3654 23.4519 19.0669 22.3007 19.7694 20.5436L12.3411 17.5736ZM15.4743 15.4519C13.2729 15.4519 11.4765 13.6551 11.4765 11.4548H3.47651C3.47651 18.0738 8.85509 23.4519 15.4743 23.4519V15.4519ZM11.4765 11.4548C11.4765 12.8291 10.6415 14.0729 9.35483 14.5873L6.38482 7.15906C4.62307 7.86345 3.47651 9.56881 3.47651 11.4548H11.4765ZM9.35542 14.5871L12.1254 13.4791L9.15424 6.05127L6.38423 7.15929L9.35542 14.5871ZM14.3537 8.2796L12.0699 2.5699L4.64204 5.54103L6.92592 11.2507L14.3537 8.2796Z" fill="url(#paint1_linear_1158_5196)" mask="url(#path-1-inside-1_1158_5196)"/>
<defs>
<linearGradient id="paint0_linear_1158_5196" x1="1.29016" y1="13.4647" x2="25.2102" y2="13.4647" gradientUnits="userSpaceOnUse">
<stop stop-color="#8F7047"/>
<stop offset="0.509514" stop-color="#DABD9A"/>
<stop offset="1" stop-color="#A58A63"/>
</linearGradient>
<linearGradient id="paint1_linear_1158_5196" x1="-3.62198" y1="2.78613" x2="29.4816" y2="24.1433" gradientUnits="userSpaceOnUse">
<stop stop-color="#8F7047"/>
<stop offset="0.509514" stop-color="#DABD9A"/>
<stop offset="1" stop-color="#A58A63"/>
</linearGradient>
</defs>
</svg>
