<svg width="47" height="46" viewBox="0 0 47 46" fill="none" xmlns="http://www.w3.org/2000/svg">
<ellipse opacity="0.8" cx="23.5" cy="23" rx="23.5" ry="23" fill="url(#paint0_linear_1158_5215)"/>
<path d="M22.51 32.0499V22.1799H18.3516V20.4999H22.51V18.3264C22.51 16.5204 22.6867 15.8589 23.0402 15.1869C23.3728 14.5464 23.8927 14.0214 24.5268 13.6854C25.1818 13.3284 25.8471 13.1499 27.6352 13.1499C28.0927 13.1499 28.4981 13.1919 28.8516 13.2654V14.8299H27.6352C26.3045 14.8299 25.8055 14.9034 25.3169 15.1659C24.9634 15.3549 24.6931 15.6279 24.506 15.9849C24.2461 16.4784 24.1733 16.9824 24.1733 18.3264V20.4999H28.7892L28.3733 22.1799H24.1733V32.0499H22.51Z" fill="white"/>
<defs>
<linearGradient id="paint0_linear_1158_5215" x1="-14.1" y1="-5.25128e-06" x2="57.821" y2="47.4093" gradientUnits="userSpaceOnUse">
<stop stop-color="#8F7047"/>
<stop offset="0.509514" stop-color="#DABD9A"/>
<stop offset="1" stop-color="#A58A63"/>
</linearGradient>
</defs>
</svg>
