<svg width="47" height="46" viewBox="0 0 47 46" fill="none" xmlns="http://www.w3.org/2000/svg">
<ellipse opacity="0.8" cx="23.5" cy="23" rx="23.5" ry="23" fill="url(#paint0_linear_1158_5212)"/>
<path d="M20.2105 31.7277C17.549 31.7277 14.6424 31.0505 13.1016 30.1438C14.4206 29.9602 16.6502 29.5125 18.1093 28.4566L18.5646 28.1237L17.9342 27.7105C16.1949 26.5972 10.9887 23.2572 14.3272 14.6718C16.1366 16.646 17.9809 18.0233 19.8486 18.7694C21.0393 19.2514 21.4712 19.3088 21.9615 19.3662L22.6035 19.4465L22.6152 19.0104C22.6269 18.0118 22.942 17.0592 23.514 16.2442C24.086 15.4293 24.8914 14.798 25.8253 14.4308C26.4323 14.1897 27.0743 14.075 27.728 14.075C28.0782 14.075 28.4284 14.1094 28.7669 14.1783C29.7592 14.3849 30.658 14.8669 31.37 15.5671L31.4868 15.6818C31.4868 15.6818 32.2339 15.6933 32.3623 15.6933C32.8292 15.6933 33.3662 15.6359 34.1016 15.3145C33.8214 16.5771 33.5996 17.1969 32.9693 18.0348L32.8992 18.1381V18.2643C32.8992 28.6746 24.9848 31.0391 22.5685 31.5097C21.8681 31.6589 21.0743 31.7277 20.2105 31.7277ZM14.8759 18.0463C14.1872 21.7765 15.4595 24.4967 18.8681 26.6087L20.8409 27.8253C20.8759 27.8482 20.9109 27.8827 20.9342 27.9171C20.9576 27.9515 20.9693 27.9975 20.9693 28.0434C20.9693 28.0893 20.9576 28.1352 20.9459 28.1696C20.9226 28.2041 20.8992 28.25 20.8642 28.2729L18.1911 30.1897L19.2883 30.2586C19.6035 30.2815 19.9187 30.2815 20.2222 30.2815C20.9926 30.2815 21.693 30.2241 22.3117 30.0979C28.1366 28.9501 31.4751 24.6345 31.4751 18.2643C31.4751 17.5527 30.2027 15.5097 27.7747 15.5097C26.8058 15.5097 25.8953 15.877 25.2066 16.5427C24.5179 17.2084 24.1327 18.0922 24.1093 19.0448L24.0743 20.7894C24.0743 20.8239 24.0627 20.8698 24.051 20.9042C24.0393 20.9386 24.016 20.9616 23.9809 20.996C23.9459 21.019 23.9109 21.0419 23.8759 21.0534L23.7591 21.0649L21.9965 20.8353C19.7903 20.5369 17.6191 19.5269 15.5412 17.8282L15.016 17.4035L14.8759 18.0463Z" fill="white"/>
<defs>
<linearGradient id="paint0_linear_1158_5212" x1="-14.1" y1="-5.25128e-06" x2="57.821" y2="47.4093" gradientUnits="userSpaceOnUse">
<stop stop-color="#8F7047"/>
<stop offset="0.509514" stop-color="#DABD9A"/>
<stop offset="1" stop-color="#A58A63"/>
</linearGradient>
</defs>
</svg>
