<svg width="47" height="46" viewBox="0 0 47 46" fill="none" xmlns="http://www.w3.org/2000/svg">
<ellipse opacity="0.8" cx="23.5" cy="23" rx="23.5" ry="23" fill="url(#paint0_linear_1158_5218)"/>
<path d="M23.5979 18.2395C20.7395 18.2395 18.4141 20.5096 18.4141 23.3C18.4141 26.0903 20.7395 28.3604 23.5979 28.3604C26.4563 28.3604 28.7819 26.0903 28.7819 23.2999C28.7819 20.5096 26.4563 18.2395 23.5979 18.2395ZM23.5979 27.2709C21.355 27.2709 19.5302 25.4895 19.5302 23.2999C19.5302 21.1104 21.355 19.329 23.5979 19.329C25.841 19.329 27.6658 21.1104 27.6658 23.3C27.6658 25.4895 25.841 27.2709 23.5979 27.2709Z" fill="white" stroke="white" stroke-width="0.2"/>
<path d="M27.5859 18.4353C27.5859 17.8382 28.0818 17.3542 28.6934 17.3542C29.305 17.3542 29.8008 17.8382 29.8008 18.4353C29.8008 19.0324 29.305 19.5164 28.6934 19.5164C28.0818 19.5164 27.5859 19.0324 27.5859 18.4353Z" fill="white"/>
<path d="M27.8673 14.075H19.3296C16.4727 14.075 14.1484 16.3439 14.1484 19.1328V27.4672C14.1484 30.2561 16.4727 32.5249 19.3296 32.5249H27.8673C30.7242 32.5249 33.0484 30.2561 33.0484 27.4672V19.1328C33.0484 16.3439 30.7242 14.075 27.8673 14.075ZM31.9323 27.4672C31.9323 29.6553 30.1088 31.4354 27.8673 31.4354H19.3296C17.0881 31.4354 15.2646 29.6553 15.2646 27.4672V19.1328C15.2646 16.9446 17.0881 15.1645 19.3296 15.1645H27.8673C30.1088 15.1645 31.9323 16.9446 31.9323 19.1328V27.4672Z" fill="white" stroke="white" stroke-width="0.2"/>
<defs>
<linearGradient id="paint0_linear_1158_5218" x1="-14.1" y1="-5.25128e-06" x2="57.821" y2="47.4093" gradientUnits="userSpaceOnUse">
<stop stop-color="#8F7047"/>
<stop offset="0.509514" stop-color="#DABD9A"/>
<stop offset="1" stop-color="#A58A63"/>
</linearGradient>
</defs>
</svg>
