<svg width="26" height="26" viewBox="0 0 26 26" fill="none" xmlns="http://www.w3.org/2000/svg">
<path d="M21.8534 5.79112L21.9852 5.7H21.825H4.675H4.51485L4.64655 5.79112L13.2216 11.7236L13.25 11.7433L13.2784 11.7236L21.8534 5.79112ZM2.7 19.75V19.8H2.75H23.75H23.8V19.75V6.54625V6.45084L23.7215 6.50514L13.7203 13.4264L13.7203 13.4264C13.5821 13.5222 13.4181 13.5736 13.25 13.5736C13.0819 13.5736 12.9179 13.5222 12.7797 13.4264L12.7797 13.4264L2.77845 6.50514L2.7 6.45084V6.54625V19.75ZM2.75 4.05H23.75C24.2009 4.05 24.6333 4.22911 24.9521 4.54792C25.2709 4.86673 25.45 5.29913 25.45 5.75V19.75C25.45 20.2009 25.2709 20.6333 24.9521 20.9521C24.6333 21.2709 24.2009 21.45 23.75 21.45H2.75C2.29913 21.45 1.86673 21.2709 1.54792 20.9521C1.22911 20.6333 1.05 20.2009 1.05 19.75V5.75C1.05 5.29913 1.22911 4.86673 1.54792 4.54792C1.86673 4.22911 2.29913 4.05 2.75 4.05Z" fill="url(#paint0_linear_1158_5202)" stroke="white" stroke-width="0.1"/>
<defs>
<linearGradient id="paint0_linear_1158_5202" x1="-6.35" y1="4" x2="23.2683" y2="30.752" gradientUnits="userSpaceOnUse">
<stop stop-color="#8F7047"/>
<stop offset="0.509514" stop-color="#DABD9A"/>
<stop offset="1" stop-color="#A58A63"/>
</linearGradient>
</defs>
</svg>
