<svg width="248" height="155" viewBox="0 0 248 155" fill="none" xmlns="http://www.w3.org/2000/svg">
<path d="M150.44 100.581C148.134 96.7846 146.898 92.627 144.689 88.9144C142.224 84.553 139.33 80.4492 136.049 76.6639C134.91 75.3847 133.896 75.0926 132.493 76.4136C126.354 82.2677 119.519 87.4404 114.755 94.6293C113.658 96.2701 112.588 97.9388 111.518 99.6074C110.449 101.276 111.046 102.235 112.991 102.222C116.686 102.222 120.367 102.222 124.103 102.027C126.659 101.916 130.799 106.004 130.396 108.548C130.187 109.939 129.007 109.55 128.104 109.55C121.964 109.55 115.811 109.55 109.671 109.55C109.066 109.499 108.457 109.581 107.887 109.79C107.317 109.999 106.799 110.331 106.371 110.761C105.942 111.192 105.613 111.711 105.405 112.282C105.198 112.853 105.118 113.463 105.171 114.069C105.171 115.932 106.671 115.459 107.685 115.459C114.63 115.459 121.672 115.459 128.673 115.459C132.688 115.459 134.716 117.74 134.41 121.8C134.299 123.19 133.202 123.19 132.327 123.19C127.215 123.19 122.117 123.121 117.047 123.051C113.074 123.051 109.102 122.982 105.143 122.898C101.892 122.898 102.74 125.554 102.365 127.195C101.948 129.253 103.754 129.045 105.032 129.045C114.213 129.045 123.381 129.045 132.549 129.045C135.688 129.045 135.521 129.045 135.73 133.703C135.855 136.289 134.757 136.595 132.59 136.567C123.506 136.47 114.435 136.567 105.351 136.567C101.642 136.567 101.559 136.678 102.156 140.502C102.629 143.464 103.101 146.44 103.643 149.902C101.267 147.914 101.059 145.341 100.378 143.214C95.8117 129.6 95.9732 114.842 100.837 101.332C105.184 89.0812 112.949 79.5979 122.742 71.3522C132.354 62.9713 139.409 52.0451 143.095 39.8297C146.78 27.6143 146.948 14.6057 143.578 2.2993C143.05 0.436011 143.731 0.171816 145.286 0.171816C160.705 0.171816 176.123 -0.134106 191.528 0.380384C200.318 0.430059 209.022 2.11332 217.198 5.34452C228.421 10.1696 236.269 17.734 238.117 30.6102C239.673 41.5118 238.02 51.4678 231.172 60.1586C227.124 65.2026 221.715 68.9768 215.586 71.0323L213.989 71.6024C213.392 71.8388 212.489 71.8806 212.53 72.701C212.572 73.5214 213.503 73.3823 214.114 73.5214C222.018 75.2873 229.491 77.971 235.742 83.3801C240.678 87.5441 244.262 93.0876 246.034 99.3015C248.809 108.734 248.209 118.839 244.34 127.877C239.936 138.305 231.672 144.855 221.323 148.845C211.947 152.384 201.991 154.129 191.972 153.99C177.79 153.99 163.608 153.99 149.426 153.99C146.203 153.99 146.287 153.99 147.481 151.14C149.058 147.419 150.304 143.566 151.204 139.626C151.662 137.499 152.44 136.275 155.107 136.317C166.456 136.484 177.804 136.526 189.153 136.317C196.529 136.164 203.807 135.149 210.489 131.561C218.739 127.112 222.782 120.104 223.254 110.926C223.948 97.3547 216.6 87.7602 203.418 84.5064C197.456 83.0367 191.335 82.3081 185.194 82.3372C174.693 82.3372 164.205 82.4206 153.704 82.3372C151.245 82.3372 150.343 83.0742 150.412 85.5771C150.537 90.5691 150.44 95.5749 150.44 100.581ZM172.97 18.1651H154.162C150.384 18.1651 150.19 18.1651 150.44 21.8221C150.994 26.4352 151.139 31.0886 150.87 35.7272C149.954 44.6126 150.69 53.498 150.412 62.3833C150.412 63.9824 150.509 65.0948 152.607 65.0809C164.816 64.9836 177.012 65.1783 189.208 64.8863C195.111 64.8024 200.846 62.9097 205.641 59.4633C212.211 54.7077 214.156 47.9081 214.17 40.0796C214.17 28.149 206.724 21.5996 196.334 19.347C188.222 17.5254 179.985 18.4988 172.97 18.1651Z" fill="#F2F2F2"/>
<path d="M95.4605 95.7274C95.28 90.7076 95.28 90.7076 90.071 90.7076C82.8896 90.7076 75.7082 90.7076 68.5129 90.7076C67.6391 90.611 66.7566 90.7827 65.9826 91.2C65.2085 91.6172 64.5795 92.2602 64.1791 93.0437C52.3721 112.511 40.454 131.909 28.6193 151.362C28.2048 152.252 27.5298 152.994 26.6838 153.491C25.8377 153.988 24.8608 154.215 23.8827 154.143C16.604 154.004 9.32537 154.143 2.04674 154.059C1.40777 154.059 0.463198 154.143 0.185388 153.781C-0.370234 153.058 0.463214 152.391 0.852149 151.807C13.9926 131.598 27.1377 111.403 40.2874 91.2221C42.1626 88.3438 42.0931 88.3159 38.8983 87.4121C22.0491 82.7122 10.3672 72.325 6.86675 54.9575C3.61637 38.8276 6.4917 23.7266 19.8127 12.3801C27.8137 5.55265 37.4815 2.32667 47.7605 1.08911C64.6236 -0.954943 81.57 0.602422 98.4748 0.101837C100.322 0.101837 100.711 0.658046 100.225 2.45181C98.5304 8.72302 98.5859 8.73693 104.989 8.73693C114.546 8.73693 124.089 8.73693 133.646 8.73693C134.59 8.73693 135.979 8.26416 136.257 9.69638C136.646 11.6987 137.466 13.8679 136.479 15.7729C136.049 16.6628 134.743 16.2596 133.826 16.2596L100.92 16.2596C97.9886 16.2596 96.6135 18.401 97.7803 21.0708C98.3498 22.4613 99.5305 21.9607 100.475 21.9607C109.184 21.9607 117.88 21.9607 126.575 21.9607C129.353 21.9607 132.048 22.1971 134.799 22.1971C136.618 22.1971 137.479 22.7811 137.035 24.7278C136.885 25.4692 136.81 26.224 136.813 26.9804C136.729 28.9411 135.868 29.7615 133.785 29.692C123.283 29.5807 112.787 29.5807 102.295 29.692C101.003 29.692 98.7248 28.5239 98.6832 31.3328C98.6137 34.6144 99.5861 35.5043 102.698 35.5043C112.518 35.5043 122.353 35.7268 132.187 35.6433C134.965 35.6433 135.062 36.6028 134.465 38.7859C133.326 42.9574 133.146 43.1938 128.77 43.1799C121.2 43.1799 113.629 43.1799 106.073 43.1799C104.92 43.1799 102.961 42.137 102.628 44.2923C102.562 45.4612 102.941 46.6115 103.689 47.5119C104.436 48.4123 105.496 48.9959 106.656 49.1452C112.421 49.1452 118.199 49.1452 123.964 49.1452C125.895 49.1452 128.77 48.1719 129.52 49.6875C130.27 51.2032 127.95 53.2194 127.103 55.0688C126.847 55.633 126.41 56.0954 125.861 56.3826C125.313 56.6698 124.684 56.7653 124.075 56.654C119.908 56.654 115.741 56.654 111.574 56.654C110.851 56.654 109.935 56.4176 109.601 57.3214C109.268 58.2253 109.935 58.559 110.337 59.0596C112.157 61.3539 113.991 63.6482 115.894 65.9009C116.644 66.8047 117.088 67.4722 115.894 68.4594C107.358 75.7091 100.552 84.7791 95.9745 95.0043C95.8357 95.2669 95.6629 95.51 95.4605 95.7274ZM74.2497 73.2011C80.3893 73.2011 86.5428 73.1176 92.6824 73.2011C94.8216 73.2011 95.4605 72.4224 95.4605 70.42C95.3772 63.8985 95.4605 57.377 95.4605 50.8416C95.4432 49.9014 95.3079 48.9671 95.0577 48.0606C92.718 38.9769 92.3063 29.5031 93.8492 20.2504C94.0993 18.5539 93.6548 18.0256 92.0157 18.0395C80.306 18.1368 68.5546 17.6779 56.8866 18.4149C43.2877 19.277 32.3975 26.1739 30.7029 40.6631C29.5916 50.2298 31.3835 59.0317 38.9122 65.6923C43.6167 69.6793 49.4402 72.1083 55.5808 72.6449C61.7876 73.1958 68.0202 73.4 74.2497 73.2567V73.2011Z" fill="#F2F2F2"/>
<path d="M142.884 150.723C144.221 143.95 144.739 137.04 144.426 130.143C143.57 116.657 138.682 103.741 130.396 93.0724C129.007 91.3343 129.229 90.4166 130.785 89.179C138.217 83.2693 136.008 82.6297 140.953 90.8615C148.398 103.251 150.801 116.934 149.051 131.256C148.281 137.166 146.667 142.936 144.259 148.387C143.855 149.196 143.395 149.977 142.884 150.723Z" fill="#F2F2F2"/>
</svg>
