<svg width="22" height="22" viewBox="0 0 22 22" fill="none" xmlns="http://www.w3.org/2000/svg">
<path d="M9.60292 18.3942V10.163H6.13495V8.76196H9.60292V6.94934C9.60292 5.4432 9.75031 4.89153 10.0451 4.33111C10.3225 3.79695 10.756 3.35912 11.2849 3.07891C11.8311 2.78119 12.386 2.63232 13.8772 2.63232C14.2587 2.63232 14.5968 2.66735 14.8916 2.72865V4.03338H13.8772C12.7674 4.03338 12.3513 4.09468 11.9438 4.3136C11.649 4.47121 11.4236 4.69889 11.2675 4.99661C11.0508 5.40817 10.9901 5.82849 10.9901 6.94934V8.76196H14.8396L14.4928 10.163H10.9901V18.3942H9.60292Z" fill="url(#paint0_linear_701_472)"/>
<defs>
<linearGradient id="paint0_linear_701_472" x1="3.50796" y1="2.63232" x2="20.5419" y2="8.73766" gradientUnits="userSpaceOnUse">
<stop stop-color="#8F7047"/>
<stop offset="0.509514" stop-color="#DABD9A"/>
<stop offset="1" stop-color="#A58A63"/>
</linearGradient>
</defs>
</svg>
