<svg width="292" height="187" viewBox="0 0 292 187" fill="none" xmlns="http://www.w3.org/2000/svg">
<path d="M158.481 47.1846C157.408 45.4216 156.833 43.4908 155.806 41.7666C154.659 39.7411 153.313 37.8353 151.788 36.0774C151.258 35.4833 150.786 35.3476 150.134 35.9611C147.279 38.6798 144.1 41.0821 141.884 44.4207C141.374 45.1827 140.877 45.9576 140.379 46.7325C139.882 47.5075 140.159 47.953 141.064 47.9466C142.782 47.9466 144.494 47.9466 146.232 47.8562C147.421 47.8045 149.346 49.7031 149.158 50.8848C149.062 51.5306 148.512 51.3498 148.093 51.3498C145.237 51.3498 142.375 51.3498 139.52 51.3498C139.238 51.3261 138.955 51.3642 138.69 51.4614C138.425 51.5586 138.184 51.7126 137.985 51.9125C137.786 52.1124 137.632 52.3535 137.536 52.6188C137.44 52.8841 137.402 53.1673 137.427 53.4485C137.427 54.3139 138.125 54.0943 138.596 54.0943C141.826 54.0943 145.101 54.0943 148.357 54.0943C150.224 54.0943 151.168 55.1534 151.025 57.039C150.974 57.6848 150.463 57.6848 150.056 57.6848C147.679 57.6848 145.308 57.6525 142.95 57.6202C141.103 57.6202 139.255 57.5879 137.414 57.5492C135.902 57.5492 136.296 58.7826 136.122 59.5446C135.928 60.5003 136.768 60.4034 137.362 60.4034C141.632 60.4034 145.896 60.4034 150.16 60.4034C151.62 60.4034 151.542 60.4035 151.639 62.5668C151.697 63.7679 151.187 63.91 150.179 63.8971C145.954 63.8519 141.736 63.8971 137.511 63.8971C135.786 63.8971 135.747 63.9487 136.025 65.7246C136.245 67.1001 136.464 68.482 136.716 70.09C135.611 69.1665 135.515 67.9719 135.198 66.9838C133.074 60.6616 133.149 53.8075 135.411 47.5333C137.433 41.8441 141.044 37.4399 145.599 33.6105C150.069 29.7183 153.35 24.6441 155.064 18.9712C156.779 13.2982 156.857 7.25688 155.289 1.54167C155.044 0.676337 155.36 0.553642 156.084 0.553642C163.255 0.553642 170.425 0.411569 177.59 0.650504C181.678 0.673573 185.726 1.45529 189.528 2.9559C194.748 5.19672 198.398 8.70971 199.257 14.6895C199.981 19.7523 199.212 24.376 196.027 28.4121C194.145 30.7546 191.629 32.5074 188.779 33.462L188.036 33.7268C187.758 33.8365 187.338 33.8559 187.357 34.2369C187.377 34.6179 187.81 34.5533 188.094 34.6179C191.77 35.438 195.245 36.6844 198.152 39.1964C200.448 41.1302 202.115 43.7047 202.939 46.5905C204.23 50.9709 203.951 55.664 202.151 59.861C200.103 64.7043 196.26 67.7458 191.447 69.5992C187.086 71.2426 182.456 72.0531 177.796 71.9885C171.201 71.9885 164.605 71.9885 158.009 71.9885C156.51 71.9885 156.549 71.9885 157.104 70.6647C157.838 68.9368 158.417 67.1475 158.836 65.3178C159.049 64.3297 159.411 63.7614 160.651 63.7808C165.929 63.8583 171.207 63.8777 176.485 63.7808C179.915 63.7098 183.3 63.2384 186.408 61.5723C190.245 59.5058 192.125 56.2512 192.345 51.9891C192.668 45.6864 189.25 41.2306 183.12 39.7195C180.346 39.0369 177.5 38.6986 174.644 38.7121C169.76 38.7121 164.883 38.7508 159.999 38.7121C158.855 38.7121 158.435 39.0544 158.468 40.2167C158.526 42.535 158.481 44.8598 158.481 47.1846ZM168.959 8.90989H160.212C158.455 8.90989 158.364 8.90989 158.481 10.6083C158.738 12.7506 158.805 14.9117 158.681 17.0659C158.254 21.1924 158.597 25.3189 158.468 29.4453C158.468 30.1879 158.513 30.7046 159.488 30.6981C165.167 30.6529 170.839 30.7433 176.511 30.6077C179.256 30.5687 181.923 29.6898 184.153 28.0892C187.209 25.8807 188.113 22.7229 188.12 19.0872C188.12 13.5465 184.657 10.5049 179.825 9.45879C176.052 8.61284 172.221 9.06487 168.959 8.90989Z" fill="white"/>
<path d="M132.912 44.9309C132.828 42.5997 132.828 42.5997 130.406 42.5997C127.066 42.5997 123.726 42.5997 120.379 42.5997C119.973 42.5548 119.563 42.6346 119.203 42.8283C118.843 43.0221 118.55 43.3207 118.364 43.6846C112.873 52.7253 107.33 61.7338 101.826 70.7681C101.633 71.1813 101.319 71.5262 100.926 71.7569C100.532 71.9876 100.078 72.0932 99.6229 72.0596C96.2378 71.995 92.8526 72.0596 89.4675 72.0209C89.1703 72.0209 88.731 72.0596 88.6018 71.8917C88.3434 71.5559 88.7311 71.2459 88.9119 70.9747C95.0233 61.5895 101.137 52.2109 107.252 42.8386C108.125 41.5019 108.092 41.4889 106.606 41.0692C98.7702 38.8865 93.3372 34.0626 91.7092 25.997C90.1975 18.5061 91.5348 11.493 97.7301 6.22355C101.451 3.05283 105.947 1.55465 110.728 0.979915C118.571 0.030636 126.452 0.753892 134.314 0.521415C135.173 0.521415 135.354 0.779724 135.128 1.61277C134.34 4.52518 134.366 4.53164 137.344 4.53164C141.788 4.53164 146.227 4.53164 150.671 4.53164C151.111 4.53164 151.757 4.31208 151.886 4.97722C152.067 5.90713 152.448 6.91452 151.989 7.79922C151.789 8.21252 151.182 8.02525 150.755 8.02525H135.451C134.088 8.02525 133.448 9.01972 133.991 10.2596C134.256 10.9054 134.805 10.6729 135.244 10.6729C139.295 10.6729 143.339 10.6729 147.383 10.6729C148.675 10.6729 149.928 10.7827 151.207 10.7827C152.054 10.7827 152.454 11.0539 152.248 11.958C152.178 12.3023 152.143 12.6528 152.144 13.0041C152.105 13.9146 151.705 14.2957 150.736 14.2634C145.852 14.2117 140.97 14.2117 136.091 14.2634C135.49 14.2634 134.43 13.7209 134.411 15.0254C134.379 16.5494 134.831 16.9627 136.278 16.9627C140.845 16.9627 145.419 17.066 149.993 17.0273C151.285 17.0273 151.33 17.4728 151.052 18.4867C150.523 20.424 150.439 20.5338 148.404 20.5273C144.883 20.5273 141.362 20.5273 137.848 20.5273C137.312 20.5273 136.401 20.043 136.246 21.0439C136.215 21.5868 136.391 22.121 136.739 22.5391C137.087 22.9573 137.58 23.2283 138.119 23.2977C140.8 23.2977 143.488 23.2977 146.168 23.2977C147.066 23.2977 148.404 22.8456 148.753 23.5495C149.101 24.2534 148.023 25.1898 147.628 26.0486C147.509 26.3107 147.306 26.5254 147.051 26.6588C146.796 26.7921 146.503 26.8365 146.22 26.7848C144.282 26.7848 142.344 26.7848 140.406 26.7848C140.07 26.7848 139.644 26.675 139.489 27.0948C139.334 27.5145 139.644 27.6695 139.831 27.902C140.677 28.9675 141.53 30.033 142.415 31.0792C142.764 31.4989 142.971 31.8089 142.415 32.2674C138.446 35.6342 135.28 39.8464 133.151 44.5951C133.087 44.717 133.006 44.8299 132.912 44.9309ZM123.048 34.4694C125.903 34.4694 128.765 34.4307 131.62 34.4694C132.615 34.4694 132.912 34.1078 132.912 33.1779C132.873 30.1493 132.912 27.1206 132.912 24.0855C132.904 23.6488 132.841 23.2149 132.725 22.794C131.637 18.5754 131.445 14.1757 132.163 9.8786C132.279 9.09076 132.072 8.84537 131.31 8.85183C125.864 8.89703 120.399 8.68392 114.972 9.02618C108.648 9.42656 103.583 12.6296 102.795 19.3585C102.278 23.8014 103.111 27.8891 106.613 30.9823C108.801 32.8339 111.509 33.9619 114.365 34.2111C117.252 34.467 120.15 34.5618 123.048 34.4953V34.4694Z" fill="white"/>
<path d="M71.166 126.162C71.166 119.395 71.166 112.601 71.166 105.859C71.166 104.768 71.4696 104.432 72.5743 104.445C77.8523 104.51 83.1303 104.445 88.4018 104.523C91.5608 104.587 94.6875 104.988 97.6075 106.408C99.1677 107.087 100.494 108.209 101.422 109.635C102.35 111.061 102.839 112.728 102.827 114.429C102.982 119.085 101.031 122.456 96.6579 124.309C96.3607 124.432 95.831 124.419 95.8374 124.839C95.8439 125.258 96.3995 125.329 96.7483 125.413C99.4392 125.958 101.841 127.461 103.506 129.643C106.878 134.028 105.657 142.19 100.166 145.271C97.5272 146.786 94.5515 147.619 91.5091 147.692C85.0942 147.808 78.6727 147.725 72.2578 147.776C71.2112 147.776 71.166 147.26 71.1725 146.485C71.1725 139.717 71.1725 132.949 71.1725 126.182L71.166 126.162ZM77.82 135.171C77.82 137.321 77.82 139.478 77.82 141.628C77.82 142.513 78.1688 142.92 79.0668 142.92C82.1031 142.92 85.1394 142.991 88.1757 142.881C89.7596 142.908 91.3404 142.73 92.8787 142.352C95.4627 141.57 97.4719 140.13 98.2019 137.386C98.9319 134.641 98.5765 132.065 96.3542 130.024C94.9952 128.819 93.2859 128.082 91.4768 127.919C87.2325 127.402 82.9558 127.777 78.6986 127.686C77.8911 127.686 77.8071 128.203 77.8135 128.836C77.8329 130.947 77.82 133.059 77.82 135.171ZM77.82 116.108C77.82 117.948 77.82 119.795 77.82 121.636C77.82 122.52 78.1947 122.927 79.112 122.927C82.7039 122.811 86.3022 123.134 89.8876 122.675C93.6927 122.191 96.0571 119.595 95.9796 115.733C95.902 112.085 93.9381 110.264 89.8424 109.721C86.2635 109.243 82.6522 109.598 79.0604 109.482C78.1495 109.482 77.8135 109.818 77.8394 110.729C77.8781 112.504 77.8394 114.306 77.8394 116.108H77.82Z" fill="white"/>
<path d="M33.0961 104.484C35.9063 104.484 38.7229 104.484 41.5331 104.484C42.4311 104.484 42.8251 104.729 42.7928 105.659C42.7541 108.959 42.7928 112.252 42.7928 115.552C42.7971 115.834 42.7256 116.111 42.5858 116.355C42.446 116.6 42.243 116.802 41.9982 116.941C37.9219 119.873 35.8998 123.973 35.4411 128.881C35.3507 129.811 35.0342 130.076 34.1491 130.063C32.3467 130.063 30.5443 130.166 28.7484 130.114C28.3388 130.074 27.9267 130.16 27.5676 130.361C27.2084 130.562 26.9194 130.868 26.7393 131.238C23.6965 136.275 20.5892 141.267 17.5723 146.317C16.9263 147.415 16.2092 147.97 14.8655 147.86C13.2408 147.776 11.6128 147.776 9.98805 147.86C9.12885 147.86 8.96734 147.653 9.45832 146.904C12.275 142.599 15.0744 138.294 17.8565 133.989C18.6447 132.781 19.3941 131.542 20.2404 130.366C20.8282 129.553 20.544 129.249 19.7106 129.004C16.5258 128.061 13.8512 126.362 12.2362 123.373C8.67018 116.747 10.7891 107.784 19.6977 105.356C21.5262 104.887 23.4046 104.639 25.2922 104.619C27.8763 104.548 30.4604 104.619 33.0444 104.619L33.0961 104.484ZM35.8546 117.257C35.8546 115.062 35.8158 112.866 35.8546 110.677C35.8546 109.76 35.5639 109.424 34.6465 109.45C31.3519 109.566 28.0636 109.353 24.7754 109.631C19.3747 110.076 16.2544 114.693 17.9599 119.84C19.0323 123.069 21.6939 124.89 25.7121 125.006C28.7355 125.09 31.7718 125.006 34.8016 125.058C35.6091 125.058 35.8675 124.78 35.8546 123.98C35.8223 121.778 35.8546 119.517 35.8546 117.257Z" fill="white"/>
<path d="M175.47 141.796C174.288 143.314 173.345 144.676 171.995 145.709C170.11 147.165 167.853 148.06 165.483 148.293C163.093 148.625 160.66 148.458 158.338 147.802C156.734 147.296 155.318 146.324 154.271 145.009C153.223 143.694 152.592 142.096 152.459 140.421C151.904 134.247 155.476 131.076 160.593 129.765C164.908 128.655 169.307 128.823 173.694 128.777C175.445 128.777 175.593 128.655 175.477 126.892C175.283 123.947 174.521 121.319 171.297 120.292C168.768 119.46 166.018 119.605 163.59 120.699C162.915 120.98 162.319 121.421 161.852 121.983C161.385 122.546 161.062 123.213 160.909 123.928C160.657 125.116 160.05 125.426 158.971 125.219C157.672 124.984 156.35 124.893 155.03 124.948C154.029 124.993 153.9 124.451 154.126 123.702C154.463 122.397 155.075 121.18 155.921 120.131C156.766 119.082 157.826 118.225 159.029 117.619C163.984 115.197 169.236 115.119 174.437 116.527C179.398 117.87 182.008 121.648 182.027 126.788C182.027 131.094 182.027 135.399 182.027 139.704C182.017 140.583 182.159 141.457 182.447 142.287C182.587 142.731 182.853 143.125 183.214 143.419C183.574 143.714 184.013 143.898 184.476 143.947C185.122 144.043 185.445 144.289 185.264 144.986C185.22 145.246 185.204 145.511 185.219 145.774C185.219 147.924 185.219 147.996 183.061 148.099C179.095 148.286 176.569 147.162 175.845 142.933C175.738 142.548 175.613 142.169 175.47 141.796ZM170.722 132.633V132.678C169.579 132.678 168.435 132.626 167.298 132.678C165.364 132.721 163.466 133.214 161.755 134.118C160.748 134.705 159.958 135.602 159.504 136.676C159.05 137.749 158.956 138.941 159.236 140.072C159.843 142.513 161.458 143.759 164.107 143.811C164.753 143.811 165.399 143.811 166.084 143.811C167.389 143.79 168.677 143.502 169.867 142.966C171.057 142.43 172.125 141.656 173.006 140.692C173.886 139.728 174.56 138.594 174.986 137.36C175.412 136.127 175.581 134.819 175.483 133.517C175.438 132.826 175.193 132.594 174.54 132.613C173.267 132.626 171.995 132.607 170.722 132.607V132.633Z" fill="white"/>
<path d="M130.062 141.971C128.932 143.21 128.014 144.65 126.632 145.703C123.621 147.996 120.172 148.532 116.554 148.383C114.748 148.353 112.976 147.89 111.386 147.033C108.569 145.471 107.335 143.01 107.07 139.962C106.592 134.286 110.152 131.07 115.146 129.772C119.461 128.655 123.86 128.836 128.247 128.778C130.069 128.778 130.081 128.777 130.062 126.937C130.004 121.416 126.671 119.407 121.418 119.918C120.585 119.967 119.76 120.118 118.964 120.37C118.121 120.636 117.361 121.116 116.76 121.763C116.159 122.411 115.736 123.203 115.533 124.063C115.255 125.129 114.713 125.355 113.737 125.277C112.387 125.142 111.03 125.019 109.674 124.987C108.698 124.987 108.53 124.47 108.763 123.695C109.139 122.338 109.806 121.078 110.716 120.002C111.626 118.926 112.758 118.06 114.034 117.464C115.77 116.615 117.651 116.107 119.577 115.965C123.531 115.668 127.446 115.559 131.147 117.425C134.849 119.291 136.49 122.275 136.593 126.201C136.71 130.773 136.645 135.345 136.632 139.917C136.637 140.753 136.797 141.58 137.104 142.358C137.42 143.178 137.931 143.882 138.854 143.953C139.888 144.037 140.011 144.599 140.004 145.451C140.004 148.092 139.92 148.131 137.297 148.209C133.15 148.318 130.76 146.31 130.501 142.829C130.513 142.66 130.478 142.49 130.401 142.339C130.323 142.188 130.206 142.06 130.062 141.971ZM125.398 132.607V132.652C124.164 132.652 122.93 132.6 121.703 132.652C119.532 132.775 117.445 133.201 115.656 134.589C113.718 136.055 113.673 138.122 113.944 140.208C114.177 141.996 115.417 143.062 117.071 143.611C118.298 144.024 119.597 143.83 120.863 143.805C126.231 143.675 130.417 139.284 130.282 133.537C130.282 132.859 130.023 132.594 129.351 132.613C128.034 132.626 126.716 132.607 125.398 132.607Z" fill="white"/>
<path d="M56.1009 133.24C52.4509 133.24 48.8074 133.24 45.1574 133.24C44.576 133.24 43.7684 133.072 43.8653 134.047C44.1173 137.308 44.6599 140.505 47.7414 142.442C50.6937 144.308 53.9174 144.218 57.1475 143.282C58.0877 143.048 58.9684 142.62 59.7329 142.024C60.4973 141.429 61.1285 140.681 61.5856 139.827C61.6282 139.715 61.6928 139.614 61.7756 139.528C61.8584 139.442 61.9577 139.374 62.0675 139.328C62.1773 139.281 62.2954 139.258 62.4146 139.258C62.5338 139.258 62.6518 139.283 62.7614 139.33C63.9888 139.646 65.2485 139.859 66.5018 140.072C67.3481 140.214 67.6065 140.434 67.1155 141.364C66.33 142.841 65.2528 144.143 63.9492 145.192C62.6456 146.241 61.1426 147.015 59.5313 147.466C54.2598 149.068 49.0076 148.997 44.0268 146.465C40.2993 144.56 38.3419 141.228 37.5667 137.179C36.9989 134.329 36.9137 131.404 37.3147 128.526C38.4711 120.744 43.5165 116.217 51.3914 115.849C54.473 115.701 57.5415 115.798 60.4357 117.173C65.4165 119.563 67.5419 123.831 68.2331 129.036C68.3559 129.947 68.3623 130.876 68.498 131.787C68.666 132.93 68.2848 133.33 67.0832 133.305C63.3944 133.195 59.7509 133.24 56.1009 133.24ZM53.0969 129.217H60.9977C61.5791 129.217 62.251 129.217 62.1606 128.371C61.8376 125.374 60.8685 122.611 58.0131 121.183C53.3683 118.865 45.2349 119.556 43.9041 127.538C43.6651 128.978 43.7555 129.197 45.1961 129.21C47.8061 129.236 50.4612 129.217 53.0969 129.217Z" fill="white"/>
<path d="M270.572 133.221C266.967 133.221 263.362 133.221 259.757 133.221C258.795 133.221 258.465 133.453 258.465 134.473C258.549 138.852 260.461 142.119 264.182 143.333C265.916 143.933 267.769 144.105 269.584 143.834C271.398 143.563 273.12 142.857 274.603 141.777C275.028 141.464 275.373 141.054 275.61 140.582C276.256 139.323 277.2 139.168 278.44 139.575C279.231 139.838 280.051 140.007 280.882 140.079C282.064 140.156 282.084 140.724 281.605 141.525C280.325 143.744 278.411 145.529 276.108 146.652C272.077 148.629 267.755 148.861 263.498 148.112C257.341 147.027 253.407 143.682 252.083 136.733C251.299 133.07 251.437 129.269 252.483 125.671C253.218 123.126 254.693 120.857 256.721 119.152C258.749 117.447 261.238 116.383 263.872 116.095C266.909 115.707 269.919 115.565 272.878 116.411C279.047 118.174 282.032 122.953 282.755 128.874C282.885 129.921 282.936 130.973 282.994 132.026C283.04 132.878 282.717 133.279 281.767 133.272C278.027 133.221 274.293 133.272 270.552 133.272L270.572 133.221ZM267.652 129.243H274.112C277.29 129.243 277.096 129.565 276.295 126.246C275.087 121.235 271.127 119.64 266.263 120.157C260.972 120.712 258.73 124.619 258.51 128.016C258.452 128.92 258.698 129.275 259.654 129.255C262.283 129.21 264.977 129.243 267.652 129.243Z" fill="white"/>
<path d="M188.055 130.573C187.945 127.389 188.307 122.333 187.893 117.29C187.835 116.54 188.326 116.392 188.895 116.379C189.902 116.379 190.917 116.379 191.925 116.379C193.863 116.379 194.186 116.599 194.037 118.542C193.966 119.524 194.211 120.48 194.16 121.429C194.16 121.681 194.16 122.01 194.431 122.113C194.702 122.217 194.974 121.913 195.142 121.674C195.858 120.519 196.728 119.466 197.726 118.542C200.956 115.843 204.683 115.423 208.643 115.959C210.353 116.133 211.984 116.765 213.364 117.788C214.744 118.81 215.823 120.187 216.486 121.771C217.171 123.246 217.545 124.847 217.584 126.472C217.623 133.201 217.584 139.924 217.655 146.653C217.655 147.563 217.287 147.77 216.467 147.738C215.175 147.692 213.831 147.667 212.513 147.738C211.525 147.796 211.221 147.46 211.221 146.446C211.266 141.215 211.266 135.985 211.253 130.754C211.297 128.782 211.009 126.818 210.401 124.942C209.218 121.481 205.413 120.254 202.519 120.635C197.351 121.28 194.528 125.549 194.405 130.457C194.276 135.726 194.334 141.002 194.405 146.278C194.405 147.46 194.05 147.822 192.9 147.731C191.67 147.647 190.435 147.647 189.205 147.731C188.262 147.783 188.016 147.415 188.023 146.511C188.074 141.848 188.055 137.147 188.055 130.573Z" fill="white"/>
<path d="M220.002 132.465C219.918 128.254 220.609 124.554 223.031 121.358C224.101 119.909 225.454 118.692 227.009 117.783C228.564 116.874 230.288 116.29 232.076 116.069C235.513 115.584 238.885 115.597 242.192 116.818C244.007 117.442 245.639 118.504 246.946 119.908C248.253 121.312 249.194 123.017 249.686 124.871C249.886 125.516 249.738 125.994 248.937 126.039C247.354 126.13 245.778 126.24 244.201 126.33C243.991 126.378 243.771 126.345 243.583 126.239C243.395 126.133 243.254 125.96 243.187 125.755C241.023 121.08 237.489 119.524 232.489 120.97C229.259 121.9 227.657 124.238 226.895 127.331C226.052 130.766 226.153 134.364 227.185 137.747C228.477 142.184 232.457 144.205 236.817 143.656C240.048 143.262 242.496 141.68 243.368 138.29C243.388 138.148 243.437 138.012 243.511 137.89C243.586 137.769 243.685 137.663 243.802 137.581C243.918 137.499 244.051 137.441 244.191 137.412C244.331 137.383 244.475 137.383 244.615 137.411C246.146 137.553 247.684 137.637 249.215 137.747C250.293 137.831 250.054 138.483 249.861 139.168C248.569 143.585 245.558 146.355 241.23 147.563C236.708 148.854 232.095 148.816 227.728 146.807C223.755 144.98 221.507 141.686 220.493 137.489C220.098 135.845 219.933 134.154 220.002 132.465Z" fill="white"/>
<path d="M142.396 125.303C142.396 118.316 142.396 111.329 142.396 104.342C142.396 103.192 142.686 102.773 143.869 102.863C145.139 102.966 146.416 102.966 147.686 102.863C148.907 102.76 149.153 103.257 149.121 104.368C149.05 107.002 149.121 109.637 149.121 112.278C149.121 123.566 149.121 134.88 149.121 146.155C149.121 147.447 148.791 147.866 147.512 147.75C146.33 147.637 145.141 147.637 143.959 147.75C142.628 147.886 142.376 147.35 142.389 146.123C142.428 139.213 142.396 132.245 142.396 125.303Z" fill="white"/>
<path d="M154.967 70.4711C155.589 67.3256 155.829 64.1168 155.684 60.9138C155.286 54.6507 153.012 48.6521 149.159 43.6976C148.513 42.8904 148.616 42.4642 149.34 41.8894C152.796 39.1449 151.769 38.8479 154.069 42.6708C157.531 48.4246 158.649 54.779 157.835 61.4304C157.477 64.1753 156.726 66.8545 155.606 69.3862C155.418 69.7621 155.205 70.1245 154.967 70.4711Z" fill="white"/>
<path d="M221.209 161.253C223.27 161.253 223.535 161.602 222.98 163.494C222.495 165.16 221.041 166.129 219.032 166.129C216.804 166.129 214.937 164.837 214.51 162.861C214.116 161.124 214.291 159.451 215.667 158.102C216.278 157.498 217.043 157.072 217.878 156.871C218.714 156.669 219.589 156.7 220.408 156.959C220.635 156.995 220.854 157.072 221.054 157.185C221.558 157.533 222.495 157.798 222.166 158.534C221.771 159.419 221.067 158.883 220.421 158.534C219.893 158.256 219.293 158.141 218.699 158.206C218.105 158.27 217.544 158.51 217.088 158.896C216.595 159.305 216.235 159.851 216.053 160.465C215.871 161.079 215.876 161.733 216.067 162.344C216.17 162.934 216.464 163.474 216.904 163.881C217.344 164.287 217.906 164.537 218.503 164.592C219.601 164.727 220.731 164.766 221.423 163.617C221.713 163.145 221.868 162.706 221.061 162.629C220.499 162.57 219.614 162.88 219.678 161.925C219.698 160.795 220.731 161.46 221.209 161.253Z" fill="white"/>
<path d="M22.4434 161.428C22.4975 160.208 23.0228 159.057 23.9087 158.217C24.7947 157.376 25.9722 156.912 27.1934 156.923C28.4147 156.933 29.5844 157.416 30.4564 158.271C31.3284 159.125 31.8347 160.285 31.8688 161.505C31.8147 162.725 31.2893 163.876 30.4034 164.716C29.5174 165.556 28.3399 166.02 27.1187 166.01C25.8974 166 24.7277 165.517 23.8557 164.662C22.9837 163.808 22.4774 162.648 22.4434 161.428ZM30.2925 161.486C30.3107 161.072 30.2456 160.659 30.1011 160.271C29.9566 159.883 29.7356 159.528 29.4512 159.227C29.1669 158.925 28.8249 158.684 28.4456 158.518C28.0664 158.351 27.6575 158.263 27.2433 158.257C26.8152 158.243 26.3887 158.316 25.9903 158.473C25.5919 158.631 25.2301 158.868 24.9272 159.171C24.6244 159.473 24.3869 159.835 24.2297 160.233C24.0725 160.632 23.9988 161.058 24.0132 161.486C23.9915 161.909 24.0559 162.333 24.2025 162.731C24.349 163.128 24.5747 163.493 24.866 163.801C25.1572 164.109 25.5079 164.355 25.8969 164.524C26.2859 164.693 26.7052 164.782 27.1293 164.784C27.5535 164.787 27.9738 164.704 28.3649 164.54C28.7559 164.375 29.1096 164.134 29.4047 163.829C29.6997 163.524 29.9299 163.163 30.0814 162.767C30.2328 162.371 30.3025 161.948 30.286 161.525L30.2925 161.486Z" fill="white"/>
<path d="M187.52 156.746C188.764 156.759 189.953 157.262 190.83 158.146C191.707 159.029 192.2 160.222 192.203 161.466C192.158 162.707 191.642 163.884 190.76 164.758C189.878 165.632 188.696 166.139 187.455 166.174C186.19 166.153 184.984 165.635 184.1 164.73C183.215 163.825 182.724 162.608 182.733 161.344C182.744 160.727 182.878 160.119 183.125 159.555C183.372 158.99 183.728 158.479 184.172 158.052C184.617 157.625 185.141 157.29 185.716 157.066C186.29 156.842 186.903 156.733 187.52 156.746ZM187.52 164.598C187.937 164.603 188.351 164.523 188.737 164.364C189.123 164.205 189.473 163.97 189.766 163.673C190.059 163.376 190.289 163.023 190.442 162.635C190.596 162.247 190.67 161.832 190.659 161.415C190.662 160.987 190.578 160.563 190.413 160.169C190.247 159.774 190.003 159.417 189.696 159.12C189.389 158.822 189.024 158.59 188.625 158.437C188.225 158.285 187.798 158.214 187.371 158.231C186.952 158.229 186.538 158.315 186.154 158.482C185.771 158.65 185.426 158.896 185.143 159.204C184.86 159.512 184.644 159.876 184.509 160.272C184.374 160.668 184.324 161.088 184.361 161.505C184.334 161.922 184.398 162.341 184.547 162.731C184.697 163.122 184.929 163.476 185.227 163.77C185.525 164.063 185.883 164.289 186.277 164.432C186.67 164.575 187.089 164.631 187.507 164.598H187.52Z" fill="white"/>
<path d="M155.916 161.589C155.84 162.82 155.295 163.975 154.392 164.816C153.489 165.657 152.298 166.12 151.065 166.109C149.821 166.086 148.637 165.57 147.774 164.674C146.911 163.779 146.439 162.577 146.462 161.334C146.485 160.09 147.001 158.907 147.897 158.044C148.793 157.181 149.995 156.71 151.239 156.733C152.502 156.762 153.702 157.288 154.578 158.198C155.454 159.107 155.935 160.326 155.916 161.589ZM151.129 164.605C151.56 164.63 151.991 164.564 152.395 164.411C152.798 164.257 153.164 164.02 153.47 163.715C153.775 163.41 154.012 163.044 154.165 162.641C154.319 162.238 154.385 161.806 154.359 161.376C154.36 160.96 154.278 160.548 154.119 160.164C153.959 159.78 153.724 159.431 153.428 159.139C153.133 158.846 152.782 158.615 152.396 158.459C152.01 158.303 151.597 158.226 151.181 158.231C150.754 158.213 150.328 158.285 149.93 158.441C149.532 158.598 149.171 158.836 148.871 159.14C148.57 159.444 148.337 159.807 148.185 160.207C148.033 160.606 147.967 161.033 147.99 161.46C147.964 161.879 148.028 162.298 148.177 162.691C148.325 163.084 148.556 163.44 148.852 163.737C149.149 164.035 149.505 164.266 149.898 164.415C150.29 164.564 150.71 164.629 151.129 164.605Z" fill="white"/>
<path d="M207.269 161.537C207.269 162.635 207.269 163.733 207.269 164.831C207.269 165.16 207.449 165.619 207.068 165.786C206.687 165.954 206.422 165.464 206.144 165.212C204.613 163.765 203.102 162.306 201.584 160.853C201.403 160.672 201.254 160.362 200.97 160.446C200.686 160.53 200.699 160.956 200.699 161.24C200.699 162.467 200.699 163.694 200.699 164.921C200.699 165.438 200.666 165.896 199.969 165.916C199.271 165.935 199.239 165.451 199.239 164.953C199.239 162.538 199.239 160.13 199.239 157.714C199.239 157.469 199.142 157.14 199.426 157.01C199.71 156.881 199.981 157.178 200.188 157.379C201.668 158.812 203.121 160.272 204.613 161.692C204.878 161.944 205.15 162.422 205.57 162.261C205.989 162.099 205.828 161.57 205.834 161.195C205.834 160.142 205.834 159.09 205.834 158.037C205.834 157.475 205.834 156.965 206.623 156.972C207.411 156.978 207.307 157.495 207.307 157.986V161.537H207.269Z" fill="white"/>
<path d="M111.496 161.447C111.496 160.22 111.496 158.993 111.496 157.76C111.496 157.211 111.703 156.959 112.265 156.965C112.827 156.972 113.105 157.166 113.066 157.74C113.059 157.785 113.059 157.831 113.066 157.876C113.202 158.625 112.633 159.813 113.357 160.059C114.371 160.414 115.598 160.201 116.735 160.181C117.207 160.181 117.188 159.736 117.2 159.381C117.2 158.735 117.2 158.154 117.246 157.54C117.291 156.927 117.672 156.965 118.092 156.965C118.512 156.965 118.77 157.12 118.77 157.572C118.77 160.155 118.77 162.739 118.77 165.322C118.77 165.877 118.357 165.896 117.937 165.903C117.414 165.903 117.239 165.593 117.226 165.147C117.226 164.275 117.188 163.397 117.226 162.519C117.226 161.873 116.968 161.621 116.29 161.583C113.131 161.395 113.131 161.369 113.059 164.573C113.059 164.747 113.059 164.921 113.059 165.096C113.059 165.638 112.853 165.896 112.291 165.903C111.729 165.909 111.503 165.664 111.509 165.115C111.509 163.888 111.509 162.661 111.509 161.434L111.496 161.447Z" fill="white"/>
<path d="M38.9551 160.446C38.9551 159.523 38.9551 158.6 38.9551 157.683C38.9551 157.037 39.2781 156.953 39.7884 156.966C40.2988 156.979 40.4991 157.334 40.4926 157.838C40.4926 159.42 40.4474 161.002 40.4926 162.577C40.5572 164.295 41.9397 165.161 43.5353 164.482C43.8862 164.346 44.1839 164.1 44.384 163.782C44.5842 163.463 44.6762 163.088 44.6465 162.713C44.6465 161.131 44.6917 159.555 44.6852 157.973C44.6852 157.373 44.7692 156.946 45.5251 156.959C46.2809 156.972 46.2486 157.418 46.2486 157.934C46.2486 159.6 46.2874 161.267 46.2486 162.933C46.184 164.954 44.7563 166.161 42.534 166.123C40.3117 166.084 39.0068 164.915 38.9615 162.816C38.9615 162.022 38.9615 161.234 38.9615 160.446H38.9551Z" fill="white"/>
<path d="M59.8661 165.87C56.9074 166.09 56.9268 163.197 55.0533 162.273V164.979C55.0533 165.425 55.0985 165.883 54.4073 165.909C53.716 165.935 53.6191 165.541 53.6191 164.986C53.6191 162.616 53.6191 160.246 53.6191 157.882C53.6191 157.236 53.8582 156.92 54.5429 156.965C55.1114 156.965 55.6864 156.965 56.2549 156.965C57.3467 157.004 58.2963 157.378 58.5935 158.515C58.8906 159.652 58.9359 160.846 57.6955 161.531C56.888 161.97 57.2045 162.428 57.5599 162.9C58.2511 163.81 58.9552 164.695 59.8661 165.87ZM55.1567 159.413C55.2665 159.865 54.8207 160.665 55.8996 160.665C56.6748 160.665 57.1916 160.388 57.1529 159.542C57.1141 158.696 56.636 158.405 55.8931 158.328C55.0275 158.224 55.1631 158.825 55.1567 159.4V159.413Z" fill="white"/>
<path d="M230.098 161.492C230.098 160.31 230.13 159.122 230.098 157.94C230.098 157.191 230.369 156.927 231.099 156.952C232.197 156.998 233.295 156.952 234.394 156.952C234.865 156.952 235.156 157.14 235.13 157.656C235.104 158.173 234.846 158.263 234.432 158.263C233.903 158.263 233.379 158.263 232.85 158.263C232.204 158.263 231.655 158.218 231.674 159.174C231.674 160.02 231.945 160.394 232.811 160.317C233.25 160.278 233.69 160.317 234.103 160.317C234.652 160.317 235.098 160.42 235.098 161.066C235.098 161.712 234.575 161.776 234.064 161.77C233.713 161.789 233.362 161.789 233.011 161.77C231.874 161.634 231.616 162.17 231.642 163.216C231.667 164.263 231.958 164.585 232.934 164.463C233.458 164.411 233.986 164.411 234.51 164.463C234.943 164.463 235.111 164.779 235.091 165.186C235.072 165.593 234.936 165.877 234.484 165.883C233.192 165.883 231.939 165.883 230.666 165.883C230.098 165.883 230.098 165.438 230.098 165.037V161.492Z" fill="white"/>
<path d="M93.8919 165.405C93.9371 165.754 93.7885 165.87 93.5366 165.903C93.2796 165.964 93.0093 165.933 92.7731 165.815C92.5368 165.697 92.3497 165.499 92.2445 165.257C91.9671 164.562 91.431 164.003 90.7489 163.695C90.0669 163.388 89.2922 163.358 88.5881 163.61C88.4212 163.657 88.2686 163.744 88.1445 163.865C88.0203 163.986 87.9285 164.136 87.8775 164.301C87.6707 164.734 87.4382 165.153 87.1927 165.593C87.0566 165.799 86.8455 165.944 86.6043 165.997C86.3631 166.05 86.1107 166.007 85.9006 165.877C85.3838 165.677 85.7908 165.231 85.9006 164.992C87.0182 162.519 88.1746 160.065 89.3116 157.604C89.5959 156.959 89.9576 156.817 90.2806 157.508C91.4693 160.039 92.6192 162.59 93.7821 165.134C93.8237 165.222 93.8604 165.313 93.8919 165.405ZM89.7961 160.052C89.5636 160.775 88.7367 161.343 89.0597 162.099C89.2147 162.441 90.4292 162.441 90.5778 162.099C90.9202 161.382 90.2419 160.736 89.7961 160.052Z" fill="white"/>
<path d="M75.3202 161.434C75.3202 160.252 75.3202 159.07 75.3202 157.889C75.3202 157.243 75.5269 156.914 76.2311 156.952C76.9352 156.991 77.8138 156.952 78.5955 157.01C79.195 157.092 79.7433 157.392 80.1357 157.853C80.5281 158.313 80.737 158.902 80.7226 159.507C80.7083 160.111 80.4715 160.689 80.0577 161.131C79.6439 161.572 79.082 161.845 78.4792 161.899C76.6833 162.073 76.7544 162.08 76.651 163.92C76.6187 164.566 77.297 165.857 75.9533 165.857C74.7969 165.825 75.4236 164.618 75.3073 163.92C75.2523 163.09 75.2523 162.257 75.3073 161.427L75.3202 161.434ZM76.819 159.4C76.819 159.981 76.6252 160.691 77.6588 160.62C78.3823 160.569 78.9896 160.414 79.009 159.542C79.0283 158.67 78.4082 158.392 77.6329 158.302C76.7091 158.199 76.806 158.825 76.819 159.4Z" fill="white"/>
<path d="M245.009 162.286C245.869 161.079 246.198 159.658 246.786 158.36C246.931 157.952 247.127 157.564 247.367 157.204C247.524 157.047 247.731 156.948 247.952 156.924C248.173 156.901 248.395 156.954 248.582 157.075C248.97 157.275 248.711 157.631 248.582 157.889C247.516 160.381 246.424 162.861 245.352 165.36C245.022 166.129 244.706 165.806 244.506 165.36C243.407 162.835 242.354 160.298 241.275 157.76C241.153 157.463 241.075 157.114 241.515 157.023C241.637 156.975 241.768 156.951 241.9 156.954C242.031 156.956 242.161 156.985 242.282 157.039C242.402 157.092 242.51 157.17 242.601 157.266C242.691 157.362 242.761 157.475 242.807 157.598C243.272 158.728 243.73 159.865 244.221 160.988C244.359 161.486 244.632 161.935 245.009 162.286Z" fill="white"/>
<path d="M278.744 160.194C279.382 159.593 279.907 158.882 280.294 158.095C280.465 157.794 280.657 157.504 280.869 157.23C281.02 157.063 281.225 156.954 281.448 156.922C281.671 156.89 281.898 156.937 282.09 157.056C282.633 157.379 282.09 157.702 281.922 158.018C281.737 158.37 281.521 158.705 281.276 159.019C279.952 160.691 279.164 162.519 279.48 164.721C279.558 165.257 279.668 165.909 278.737 165.929C277.807 165.948 277.891 165.283 277.988 164.753C278.44 162.17 277.109 160.233 275.753 158.244C275.54 157.94 274.855 157.463 275.52 157.056C275.648 156.989 275.788 156.948 275.931 156.936C276.075 156.924 276.22 156.941 276.356 156.986C276.493 157.032 276.62 157.104 276.728 157.199C276.836 157.294 276.924 157.41 276.987 157.54C277.568 158.418 277.956 159.426 278.744 160.194Z" fill="white"/>
<path d="M16.5833 157.378C16.5175 157.522 16.4442 157.662 16.3636 157.798C16.1333 158.221 15.8788 158.631 15.6013 159.025C14.2705 160.743 13.4501 162.596 13.799 164.837C13.8765 165.341 13.9411 165.928 13.0948 165.922C12.2485 165.915 12.1774 165.386 12.2679 164.863C12.7266 162.196 11.3893 160.162 10.0262 158.108C9.83241 157.818 9.21869 157.398 9.83887 157.056C9.95362 156.987 10.081 156.942 10.2135 156.924C10.3459 156.906 10.4807 156.914 10.6097 156.949C10.7388 156.984 10.8594 157.045 10.9645 157.127C11.0696 157.21 11.157 157.313 11.2213 157.43C11.6283 158.076 12.0806 158.754 12.4682 159.432C12.8558 160.11 13.2692 160.284 13.7602 159.464C14.1736 158.747 14.6323 158.05 15.0975 157.359C15.2333 157.186 15.4181 157.058 15.6277 156.991C15.8374 156.924 16.0622 156.922 16.2732 156.984C16.4476 157.01 16.551 157.133 16.5833 157.378Z" fill="white"/>
<path d="M101.082 162.08C101.082 161.157 101.037 160.233 101.082 159.316C101.14 158.509 100.862 158.212 100.042 158.251C99.5446 158.251 98.75 158.561 98.75 157.65C98.75 156.74 99.6157 157.005 100.152 157.005C101.444 156.959 102.788 157.005 104.105 157.005C104.571 157.005 105.023 157.037 105.016 157.65C105.01 158.264 104.538 158.367 104.086 158.296C102.826 158.083 102.639 158.703 102.678 159.781C102.742 161.493 102.678 163.204 102.678 164.947C102.678 165.516 102.678 165.994 101.87 165.981C101.063 165.968 101.095 165.451 101.095 164.909C101.095 163.985 101.095 163.062 101.095 162.138L101.082 162.08Z" fill="white"/>
<path d="M136.819 161.983C136.819 161.415 136.787 160.846 136.819 160.278C136.897 159.064 136.948 157.928 135.146 158.257C134.726 158.334 134.5 157.999 134.5 157.611C134.5 157.224 134.745 156.965 135.146 156.965H140.011C140.095 156.972 140.178 156.995 140.254 157.033C140.33 157.071 140.398 157.124 140.453 157.189C140.509 157.253 140.551 157.328 140.577 157.409C140.604 157.49 140.614 157.575 140.608 157.66C140.602 157.744 140.579 157.827 140.54 157.903C140.502 157.979 140.449 158.047 140.385 158.102C140.32 158.157 140.245 158.2 140.165 158.226C140.084 158.253 139.998 158.263 139.914 158.257C138.35 157.973 138.234 158.812 138.312 160.052C138.408 161.667 138.312 163.281 138.312 164.908C138.312 165.406 138.312 165.883 137.594 165.909C136.877 165.935 136.774 165.431 136.774 164.87L136.819 161.983Z" fill="white"/>
<path d="M266.489 156.965H268.86C269.332 156.965 269.596 157.198 269.577 157.695C269.582 157.784 269.565 157.874 269.528 157.955C269.492 158.036 269.435 158.108 269.365 158.163C269.295 158.218 269.212 158.255 269.124 158.272C269.036 158.288 268.946 158.283 268.86 158.257C267.322 157.966 267.271 158.857 267.316 160C267.381 161.621 267.316 163.229 267.316 164.87C267.316 165.438 267.316 165.916 266.508 165.922C265.701 165.929 265.733 165.412 265.727 164.87C265.727 163.023 265.669 161.182 265.727 159.342C265.727 158.573 265.559 158.199 264.706 158.257C264.202 158.289 263.414 158.522 263.414 157.611C263.414 156.591 264.28 157.017 264.809 156.965C265.369 156.937 265.93 156.937 266.489 156.965Z" fill="white"/>
<path d="M172.203 161.305C172.203 160.291 172.203 159.283 172.203 158.276C172.203 157.695 172.009 156.933 173.01 156.984C174.011 157.036 173.721 157.811 173.727 158.36C173.727 159.942 173.727 161.524 173.695 163.106C173.656 164.088 173.94 164.54 175.032 164.521C175.678 164.521 176.893 163.875 176.854 165.231C176.815 166.587 175.62 165.877 174.974 165.877C172.19 165.941 172.19 165.877 172.196 163.151L172.203 161.305Z" fill="white"/>
<path d="M255.268 161.395C255.268 160.252 255.268 159.116 255.268 157.979C255.268 157.424 255.268 156.946 256.049 156.952C256.76 156.952 256.954 157.256 256.947 157.901C256.947 160.31 256.947 162.712 256.947 165.115C256.947 165.76 256.676 165.935 256.075 165.948C255.474 165.961 255.268 165.644 255.28 165.063C255.28 163.843 255.28 162.616 255.28 161.395H255.268Z" fill="white"/>
</svg>
