<svg width="184" height="114" viewBox="0 0 184 114" fill="none" xmlns="http://www.w3.org/2000/svg">
<path d="M111.122 74.2927C109.419 71.4887 108.506 68.4177 106.874 65.6754C105.054 62.454 102.916 59.4227 100.493 56.6268C99.6514 55.6819 98.9024 55.4661 97.8661 56.4419C93.3312 60.7659 88.2832 64.5867 84.764 69.8967C83.9534 71.1087 83.1634 72.3412 82.3734 73.5737C81.5833 74.8062 82.0245 75.5149 83.4609 75.5047C86.1901 75.5047 88.9091 75.5046 91.669 75.3609C93.5569 75.2787 96.6144 78.2983 96.3169 80.1779C96.163 81.205 95.2908 80.9174 94.6239 80.9174C90.089 80.9174 85.5438 80.9174 81.0088 80.9174C80.5619 80.8798 80.1121 80.9404 79.6911 81.095C79.27 81.2496 78.8877 81.4944 78.5711 81.8124C78.2544 82.1304 78.011 82.5138 77.8579 82.9358C77.7047 83.3577 77.6456 83.8082 77.6845 84.2554C77.6845 85.6317 78.7926 85.2825 79.5416 85.2825C84.6717 85.2825 89.8735 85.2825 95.0446 85.2825C98.0098 85.2825 99.5077 86.9669 99.282 89.966C99.1999 90.9931 98.3894 90.9931 97.743 90.9931C93.9673 90.9931 90.2018 90.9418 86.4569 90.8904C83.5225 90.8904 80.5881 90.8391 77.664 90.7775C75.2631 90.7775 75.889 92.7392 75.612 93.9512C75.3042 95.4712 76.638 95.3172 77.5819 95.3172C84.3639 95.3172 91.1355 95.3172 97.9072 95.3172C100.226 95.3172 100.103 95.3172 100.257 98.7579C100.349 100.668 99.5385 100.894 97.938 100.874C91.2279 100.802 84.528 100.874 77.8179 100.874C75.0784 100.874 75.0169 100.956 75.4581 103.78C75.8069 105.968 76.1558 108.166 76.5559 110.723C74.8014 109.255 74.6475 107.355 74.1448 105.783C70.7717 95.7277 70.891 84.8264 74.4834 74.8473C77.6948 65.7987 83.4302 58.7939 90.6635 52.7033C97.7635 46.5128 102.974 38.4423 105.697 29.4195C108.419 20.3968 108.543 10.7881 106.054 1.69809C105.664 0.321791 106.167 0.126646 107.316 0.126646C118.704 0.126646 130.093 -0.0993197 141.472 0.280703C147.964 0.317395 154.393 1.56071 160.432 3.94742C168.722 7.51141 174.519 13.0988 175.884 22.6096C177.033 30.662 175.812 38.0159 170.754 44.4352C167.764 48.161 163.769 50.9488 159.242 52.467L158.062 52.8882C157.621 53.0628 156.954 53.0936 156.985 53.6996C157.016 54.3055 157.703 54.2028 158.154 54.3055C163.992 55.6099 169.512 57.5922 174.129 61.5876C177.776 64.6633 180.423 68.7579 181.732 73.3478C183.781 80.3148 183.339 87.7791 180.48 94.4544C177.228 102.158 171.123 106.995 163.479 109.943C156.554 112.557 149.2 113.846 141.8 113.743C131.324 113.743 120.849 113.743 110.373 113.743C107.993 113.743 108.054 113.743 108.937 111.638C110.102 108.889 111.022 106.044 111.686 103.133C112.025 101.562 112.6 100.658 114.57 100.689C122.952 100.812 131.335 100.843 139.717 100.689C145.165 100.576 150.541 99.8261 155.477 97.1762C161.571 93.8895 164.557 88.713 164.906 81.9342C165.419 71.9098 159.991 64.8229 150.254 62.4195C145.85 61.3339 141.329 60.7958 136.793 60.8173C129.036 60.8173 121.29 60.8789 113.533 60.8173C111.717 60.8173 111.05 61.3617 111.102 63.2104C111.194 66.8977 111.122 70.5952 111.122 74.2927ZM127.764 13.4172H113.872C111.081 13.4172 110.938 13.4172 111.122 16.1184C111.532 19.5259 111.638 22.963 111.44 26.3893C110.763 32.9524 111.307 39.5155 111.102 46.0786C111.102 47.2597 111.173 48.0814 112.723 48.0711C121.741 47.9992 130.75 48.143 139.758 47.9273C144.118 47.8653 148.354 46.4674 151.896 43.9217C156.749 40.4091 158.185 35.3866 158.196 29.6041C158.196 20.7917 152.696 15.9541 145.022 14.2902C139.03 12.9447 132.945 13.6637 127.764 13.4172Z" fill="white"/>
<path d="M70.511 70.7081C70.3776 67.0003 70.3776 67.0003 66.53 67.0003C61.2256 67.0003 55.9211 67.0003 50.6064 67.0003C49.9609 66.9289 49.3091 67.0557 48.7374 67.3639C48.1656 67.6721 47.701 68.1471 47.4052 68.7258C38.6841 83.105 29.881 97.4329 21.1394 111.802C20.8332 112.459 20.3346 113.008 19.7097 113.375C19.0848 113.741 18.3632 113.909 17.6407 113.856C12.2644 113.753 6.88809 113.856 1.5118 113.794C1.03984 113.794 0.342137 113.856 0.136935 113.589C-0.273469 113.055 0.342148 112.562 0.629431 112.13C10.3355 97.2035 20.045 82.2868 29.7579 67.3803C31.143 65.2542 31.0917 65.2337 28.7318 64.5661C16.2863 61.0945 7.6576 53.4222 5.07206 40.5938C2.67119 28.6796 4.79502 17.5254 14.6345 9.14441C20.5443 4.10141 27.6853 1.71857 35.2778 0.80446C47.7335 -0.705359 60.2509 0.444973 72.7374 0.0752212C74.102 0.0752212 74.3893 0.486059 74.0302 1.811C72.7785 6.44317 72.8195 6.45344 77.5494 6.45344C84.6084 6.45344 91.657 6.45344 98.716 6.45344C99.4137 6.45344 100.44 6.10424 100.645 7.16214C100.932 8.64114 101.537 10.2434 100.809 11.6505C100.491 12.3078 99.5265 12.01 98.8493 12.01H74.5432C72.3783 12.01 71.3626 13.5917 72.2244 15.5637C72.6451 16.5908 73.5172 16.2211 74.2149 16.2211C80.6479 16.2211 87.0708 16.2211 93.4936 16.2211C95.5456 16.2211 97.5361 16.3956 99.5676 16.3956C100.912 16.3956 101.548 16.827 101.219 18.265C101.108 18.8125 101.053 19.3701 101.055 19.9288C100.994 21.377 100.358 21.983 98.8186 21.9317C91.0619 21.8495 83.3087 21.8495 75.5589 21.9317C74.6048 21.9317 72.9221 21.0689 72.8913 23.1436C72.84 25.5675 73.5582 26.2249 75.8565 26.2249C83.1104 26.2249 90.3745 26.3892 97.6387 26.3276C99.6907 26.3276 99.7625 27.0363 99.3213 28.6488C98.48 31.7301 98.3466 31.9047 95.1147 31.8944C89.5229 31.8944 83.9312 31.8944 78.3497 31.8944C77.4981 31.8944 76.0514 31.1241 75.8052 32.7161C75.7566 33.5794 76.0365 34.4291 76.5886 35.0942C77.1406 35.7593 77.9239 36.1903 78.7806 36.3006C83.0385 36.3006 87.3068 36.3006 91.5647 36.3006C92.9909 36.3006 95.1147 35.5817 95.6687 36.7012C96.2228 37.8207 94.5093 39.31 93.8835 40.676C93.6943 41.0928 93.3715 41.4343 92.9662 41.6464C92.561 41.8586 92.0966 41.9291 91.6468 41.8469C88.5687 41.8469 85.4907 41.8469 82.4127 41.8469C81.8792 41.8469 81.202 41.6723 80.9558 42.3399C80.7095 43.0075 81.202 43.254 81.4995 43.6238C82.8436 45.3185 84.198 47.0131 85.6036 48.677C86.1576 49.3446 86.486 49.8376 85.6036 50.5669C79.2993 55.9218 74.272 62.6212 70.8906 70.174C70.788 70.3679 70.6604 70.5475 70.511 70.7081ZM54.8438 54.0692C59.3788 54.0692 63.924 54.0076 68.4589 54.0692C70.039 54.0692 70.511 53.4941 70.511 52.015C70.4494 47.198 70.511 42.381 70.511 37.5537C70.4982 36.8592 70.3982 36.169 70.2134 35.4995C68.4852 28.7899 68.1811 21.7922 69.3208 14.9577C69.5055 13.7047 69.1772 13.3144 67.9665 13.3247C59.3172 13.3966 50.6372 13.0576 42.0187 13.602C31.974 14.2388 23.9301 19.3331 22.6784 30.0354C21.8576 37.1017 23.1811 43.6032 28.7421 48.523C32.217 51.4679 36.5185 53.2621 41.0542 53.6584C45.6388 54.0653 50.2425 54.2162 54.8438 54.1103V54.0692Z" fill="white"/>
<path d="M105.541 111.329C106.529 106.327 106.911 101.223 106.68 96.1286C106.048 86.1673 102.437 76.6266 96.3175 68.7464C95.2915 67.4626 95.4557 66.7847 96.6048 65.8706C102.094 61.5055 100.463 61.033 104.115 67.1134C109.615 76.2647 111.39 86.3712 110.097 96.9502C109.528 101.316 108.336 105.577 106.557 109.604C106.258 110.202 105.919 110.778 105.541 111.329Z" fill="white"/>
</svg>
