<svg width="19" height="19" viewBox="0 0 19 19" fill="none" xmlns="http://www.w3.org/2000/svg">
<mask id="path-1-inside-1_623_1924" fill="white">
<path d="M9.5 3.85938C8.85412 3.85938 8.22275 4.0509 7.68572 4.40973C7.14869 4.76856 6.73012 5.27858 6.48296 5.8753C6.23579 6.47201 6.17112 7.12862 6.29712 7.76209C6.42313 8.39556 6.73415 8.97744 7.19086 9.43414C7.64756 9.89085 8.22944 10.2019 8.86291 10.3279C9.49638 10.4539 10.153 10.3892 10.7497 10.142C11.3464 9.89487 11.8564 9.47631 12.2153 8.93928C12.5741 8.40225 12.7656 7.77088 12.7656 7.125C12.7646 6.2592 12.4203 5.42915 11.8081 4.81694C11.1959 4.20473 10.3658 3.86036 9.5 3.85938ZM9.5 9.79687C8.97155 9.79687 8.45497 9.64017 8.01559 9.34658C7.5762 9.05299 7.23374 8.6357 7.03151 8.14748C6.82928 7.65926 6.77637 7.12204 6.87947 6.60374C6.98256 6.08545 7.23703 5.60937 7.6107 5.2357C7.98437 4.86203 8.46045 4.60756 8.97874 4.50446C9.49704 4.40137 10.0343 4.45428 10.5225 4.65651C11.0107 4.85874 11.428 5.2012 11.7216 5.64059C12.0152 6.07997 12.1719 6.59655 12.1719 7.125C12.1711 7.83338 11.8893 8.51253 11.3884 9.01343C10.8875 9.51433 10.2084 9.79609 9.5 9.79687Z"/>
</mask>
<path d="M9.5 3.85938C8.85412 3.85938 8.22275 4.0509 7.68572 4.40973C7.14869 4.76856 6.73012 5.27858 6.48296 5.8753C6.23579 6.47201 6.17112 7.12862 6.29712 7.76209C6.42313 8.39556 6.73415 8.97744 7.19086 9.43414C7.64756 9.89085 8.22944 10.2019 8.86291 10.3279C9.49638 10.4539 10.153 10.3892 10.7497 10.142C11.3464 9.89487 11.8564 9.47631 12.2153 8.93928C12.5741 8.40225 12.7656 7.77088 12.7656 7.125C12.7646 6.2592 12.4203 5.42915 11.8081 4.81694C11.1959 4.20473 10.3658 3.86036 9.5 3.85938ZM9.5 9.79687C8.97155 9.79687 8.45497 9.64017 8.01559 9.34658C7.5762 9.05299 7.23374 8.6357 7.03151 8.14748C6.82928 7.65926 6.77637 7.12204 6.87947 6.60374C6.98256 6.08545 7.23703 5.60937 7.6107 5.2357C7.98437 4.86203 8.46045 4.60756 8.97874 4.50446C9.49704 4.40137 10.0343 4.45428 10.5225 4.65651C11.0107 4.85874 11.428 5.2012 11.7216 5.64059C12.0152 6.07997 12.1719 6.59655 12.1719 7.125C12.1711 7.83338 11.8893 8.51253 11.3884 9.01343C10.8875 9.51433 10.2084 9.79609 9.5 9.79687Z" fill="url(#paint0_linear_623_1924)"/>
<path d="M9.5 3.85938L9.51021 -5.14062H9.5V3.85938ZM12.7656 7.125H21.7656L21.7656 7.11479L12.7656 7.125ZM9.5 9.79687V18.7969L9.50998 18.7969L9.5 9.79687ZM12.1719 7.125L21.1719 7.13498V7.125H12.1719ZM9.5 -5.14062C7.07409 -5.14062 4.70266 -4.42126 2.68559 -3.0735L12.6858 11.893C11.7428 12.5231 10.6342 12.8594 9.5 12.8594V-5.14062ZM2.68559 -3.0735C0.668513 -1.72573 -0.903602 0.189898 -1.83196 2.43115L14.7979 9.31945C14.3639 10.3673 13.6289 11.2629 12.6858 11.893L2.68559 -3.0735ZM-1.83196 2.43115C-2.76031 4.6724 -3.00321 7.13861 -2.52994 9.5179L15.1242 6.00628C15.3455 7.11864 15.2319 8.27163 14.7979 9.31945L-1.83196 2.43115ZM-2.52994 9.5179C-2.05667 11.8972 -0.888486 14.0827 0.826895 15.7981L13.5548 3.07018C14.3568 3.87215 14.9029 4.89392 15.1242 6.00628L-2.52994 9.5179ZM0.826895 15.7981C2.54227 17.5135 4.7278 18.6817 7.1071 19.1549L10.6187 1.50081C11.7311 1.72207 12.7528 2.26822 13.5548 3.07018L0.826895 15.7981ZM7.1071 19.1549C9.4864 19.6282 11.9526 19.3853 14.1939 18.457L7.30555 1.82713C8.35337 1.39311 9.50636 1.27955 10.6187 1.50081L7.1071 19.1549ZM14.1939 18.457C16.4351 17.5286 18.3507 15.9565 19.6985 13.9394L4.73204 3.93915C5.36214 2.99614 6.25773 2.26115 7.30555 1.82713L14.1939 18.457ZM19.6985 13.9394C21.0463 11.9223 21.7656 9.55091 21.7656 7.125H3.76563C3.76563 5.99084 4.10194 4.88216 4.73204 3.93915L19.6985 13.9394ZM21.7656 7.11479C21.7619 3.86559 20.4696 0.750515 18.172 -1.54702L5.4441 11.1809C4.37098 10.1078 3.76735 8.65282 3.76563 7.13521L21.7656 7.11479ZM18.172 -1.54702C15.8745 -3.84456 12.7594 -5.13693 9.51021 -5.14062L9.48979 12.8594C7.97218 12.8576 6.51722 12.254 5.4441 11.1809L18.172 -1.54702ZM9.5 0.796873C10.7516 0.796873 11.9751 1.16801 13.0157 1.86335L3.01546 16.8298C4.93489 18.1123 7.19153 18.7969 9.5 18.7969V0.796873ZM13.0157 1.86335C14.0564 2.5587 14.8675 3.54701 15.3464 4.70333L-1.28341 11.5916C-0.399988 13.7244 1.09603 15.5473 3.01546 16.8298L13.0157 1.86335ZM15.3464 4.70333C15.8254 5.85964 15.9507 7.13202 15.7065 8.35956L-1.9476 4.84793C-2.39796 7.11205 -2.16682 9.45888 -1.28341 11.5916L15.3464 4.70333ZM15.7065 8.35956C15.4624 9.5871 14.8597 10.7147 13.9747 11.5997L1.24674 -1.12826C-0.385597 0.504074 -1.49724 2.5838 -1.9476 4.84793L15.7065 8.35956ZM13.9747 11.5997C13.0897 12.4847 11.9621 13.0874 10.7346 13.3315L7.22293 -4.3226C4.95881 -3.87224 2.87908 -2.7606 1.24674 -1.12826L13.9747 11.5997ZM10.7346 13.3315C9.50702 13.5757 8.23465 13.4504 7.07833 12.9714L13.9666 -3.65841C11.8339 -4.54182 9.48705 -4.77297 7.22293 -4.3226L10.7346 13.3315ZM7.07833 12.9714C5.92202 12.4925 4.9337 11.6814 4.23836 10.6407L19.2048 0.640452C17.9223 -1.27898 16.0994 -2.77499 13.9666 -3.65841L7.07833 12.9714ZM4.23836 10.6407C3.54301 9.60006 3.17188 8.37658 3.17188 7.125H21.1719C21.1719 4.81652 20.4873 2.55988 19.2048 0.640452L4.23836 10.6407ZM3.17188 7.11502C3.17374 5.43991 3.83999 3.83395 5.02447 2.64947L17.7524 15.3774C19.9387 13.1911 21.1684 10.2269 21.1719 7.13498L3.17188 7.11502ZM5.02447 2.64947C6.20895 1.46499 7.81492 0.798737 9.49002 0.796879L9.50998 18.7969C12.6019 18.7934 15.5661 17.5637 17.7524 15.3774L5.02447 2.64947Z" fill="black" mask="url(#path-1-inside-1_623_1924)"/>
<mask id="path-3-inside-2_623_1924" fill="white">
<path d="M9.5 0C7.611 0.00216077 5.79998 0.753522 4.46425 2.08925C3.12852 3.42498 2.37716 5.236 2.375 7.125C2.375 12.2399 9.01235 18.6475 9.29474 18.9177C9.35001 18.9705 9.42353 19 9.5 19C9.57647 19 9.64998 18.9705 9.70526 18.9177C9.98765 18.6475 16.625 12.2399 16.625 7.125C16.6228 5.236 15.8715 3.42498 14.5357 2.08925C13.2 0.753522 11.389 0.00216077 9.5 0ZM9.5 18.2858C8.37018 17.1522 2.96875 11.5022 2.96875 7.125C2.96875 5.39281 3.65686 3.73156 4.88171 2.50671C6.10656 1.28186 7.76781 0.59375 9.5 0.59375C11.2322 0.59375 12.8934 1.28186 14.1183 2.50671C15.3431 3.73156 16.0312 5.39281 16.0312 7.125C16.0312 11.5 10.6298 17.1518 9.5 18.2858Z"/>
</mask>
<path d="M9.5 0L9.50686 -6.00001L9.49314 -6L9.5 0ZM2.375 7.125L-3.625 7.11814V7.125H2.375ZM9.29474 18.9177L5.14656 23.2527L5.14883 23.2549L9.29474 18.9177ZM9.5 19V13V19ZM9.70526 18.9177L13.8512 23.2549L13.8534 23.2527L9.70526 18.9177ZM16.625 7.125H22.625L22.625 7.11814L16.625 7.125ZM9.5 18.2858L5.25035 22.5214L9.50083 26.786L13.7505 22.5206L9.5 18.2858ZM9.5 0.59375V-5.40625V0.59375ZM9.49314 -6C6.01521 -5.99602 2.68088 -4.61265 0.22161 -2.15339L8.70689 6.33189C8.91908 6.1197 9.20678 6.00034 9.50686 6L9.49314 -6ZM0.22161 -2.15339C-2.23765 0.305875 -3.62102 3.64021 -3.625 7.11814L8.375 7.13186C8.37534 6.83178 8.4947 6.54408 8.70689 6.33189L0.22161 -2.15339ZM-3.625 7.125C-3.625 9.63046 -2.83499 11.9041 -2.00687 13.654C-1.15515 15.4538 -0.0747752 17.0906 0.917184 18.4223C2.89818 21.0818 4.89745 23.0143 5.14656 23.2527L13.4429 14.5826C13.4441 14.5838 13.3499 14.4936 13.1846 14.3263C13.0193 14.159 12.7857 13.9173 12.5075 13.6153C11.9447 13.0043 11.2314 12.181 10.5408 11.2539C9.83809 10.3105 9.24147 9.36955 8.83987 8.52091C8.64305 8.10501 8.51919 7.76571 8.44798 7.5055C8.37622 7.24327 8.375 7.12362 8.375 7.125H-3.625ZM5.14883 23.2549C6.32061 24.375 7.87914 25 9.5 25V13C10.9679 13 12.3794 13.566 13.4407 14.5805L5.14883 23.2549ZM9.5 25C11.1209 25 12.6794 24.375 13.8512 23.2549L5.55935 14.5805C6.62057 13.566 8.03206 13 9.5 13V25ZM13.8534 23.2527C14.1026 23.0143 16.1018 21.0818 18.0828 18.4223C19.0748 17.0906 20.1551 15.4538 21.0069 13.654C21.835 11.9041 22.625 9.63046 22.625 7.125H10.625C10.625 7.12362 10.6238 7.24327 10.552 7.5055C10.4808 7.76571 10.3569 8.10501 10.1601 8.52091C9.75853 9.36955 9.16191 10.3105 8.45923 11.2539C7.76862 12.181 7.05534 13.0043 6.49253 13.6153C6.21431 13.9173 5.98069 14.159 5.81539 14.3263C5.65014 14.4936 5.55588 14.5838 5.55707 14.5826L13.8534 23.2527ZM22.625 7.11814C22.621 3.64021 21.2377 0.305875 18.7784 -2.15339L10.2931 6.33189C10.5053 6.54408 10.6247 6.83178 10.625 7.13186L22.625 7.11814ZM18.7784 -2.15339C16.3191 -4.61266 12.9848 -5.99602 9.50686 -6L9.49314 6C9.79322 6.00034 10.0809 6.1197 10.2931 6.33189L18.7784 -2.15339ZM13.7496 14.0502C13.2919 13.5909 11.9199 12.1625 10.7034 10.4488C10.097 9.59453 9.61437 8.78731 9.30065 8.0911C8.96649 7.34953 8.96875 7.05231 8.96875 7.125H-3.03125C-3.03125 11.3461 -0.637381 15.2035 0.917981 17.3947C2.68469 19.8836 4.57826 21.8471 5.25035 22.5214L13.7496 14.0502ZM8.96875 7.125C8.96875 6.9841 9.02472 6.84898 9.12435 6.74935L0.639068 -1.73593C-1.711 0.614133 -3.03125 3.80151 -3.03125 7.125H8.96875ZM9.12435 6.74935C9.22398 6.64972 9.3591 6.59375 9.5 6.59375V-5.40625C6.17651 -5.40625 2.98913 -4.086 0.639068 -1.73593L9.12435 6.74935ZM9.5 6.59375C9.6409 6.59375 9.77602 6.64972 9.87565 6.74935L18.3609 -1.73593C16.0109 -4.086 12.8235 -5.40625 9.5 -5.40625V6.59375ZM9.87565 6.74935C9.97528 6.84898 10.0312 6.9841 10.0312 7.125H22.0312C22.0312 3.80151 20.711 0.614135 18.3609 -1.73593L9.87565 6.74935ZM10.0312 7.125C10.0312 7.05138 10.0337 7.34811 9.69946 8.08988C9.38568 8.78614 8.90292 9.59353 8.29643 10.448C7.07976 12.1623 5.70747 13.5913 5.24952 14.051L13.7505 22.5206C14.4223 21.8462 16.3157 19.8824 18.0822 17.3935C19.637 15.2028 22.0312 11.3453 22.0312 7.125H10.0312Z" fill="url(#paint1_linear_623_1924)" mask="url(#path-3-inside-2_623_1924)"/>
<defs>
<linearGradient id="paint0_linear_623_1924" x1="5.77719" y1="7.125" x2="13.0922" y2="7.125" gradientUnits="userSpaceOnUse">
<stop stop-color="#8F7047"/>
<stop offset="0.509514" stop-color="#DABD9A"/>
<stop offset="1" stop-color="#A58A63"/>
</linearGradient>
<linearGradient id="paint1_linear_623_1924" x1="1.3775" y1="9.5" x2="17.3375" y2="9.5" gradientUnits="userSpaceOnUse">
<stop stop-color="#8F7047"/>
<stop offset="0.509514" stop-color="#DABD9A"/>
<stop offset="1" stop-color="#A58A63"/>
</linearGradient>
</defs>
</svg>
