<svg width="147" height="47" viewBox="0 0 147 47" fill="none" xmlns="http://www.w3.org/2000/svg">
<path d="M35.8262 16.0358C35.8262 12.5913 35.8262 9.13372 35.8262 5.70239C35.8262 5.14694 35.979 4.97603 36.5352 4.9826C39.1922 5.01547 41.8493 4.9826 44.5031 5.02204C46.0934 5.05491 47.6675 5.25869 49.1375 5.98177C49.9229 6.3274 50.5906 6.89847 51.0577 7.62415C51.5249 8.34983 51.7709 9.19815 51.7653 10.0639C51.8433 12.4336 50.8611 14.1492 48.6594 15.0925C48.5098 15.155 48.2431 15.1484 48.2464 15.362C48.2496 15.5757 48.5293 15.6118 48.7049 15.6546C50.0596 15.9317 51.2685 16.6967 52.1067 17.8074C53.8044 20.039 53.1897 24.1934 50.4254 25.7612C49.0971 26.5327 47.599 26.9564 46.0674 26.9937C42.8379 27.0529 39.6052 27.0102 36.3758 27.0364C35.8489 27.0364 35.8262 26.7735 35.8294 26.3791C35.8294 22.9346 35.8294 19.4902 35.8294 16.0457L35.8262 16.0358ZM39.176 20.6208C39.176 21.7153 39.176 22.813 39.176 23.9075C39.176 24.3578 39.3516 24.5648 39.8036 24.5648C41.3322 24.5648 42.8607 24.601 44.3892 24.5451C45.1866 24.5588 45.9825 24.4682 46.7569 24.2756C48.0577 23.8779 49.0692 23.145 49.4367 21.7481C49.8042 20.3513 49.6253 19.0399 48.5065 18.0013C47.8223 17.3882 46.9618 17.0127 46.0511 16.9298C43.9144 16.6669 41.7615 16.8575 39.6183 16.8115C39.2117 16.8115 39.1694 17.0744 39.1727 17.3965C39.1825 18.4713 39.176 19.546 39.176 20.6208ZM39.176 10.9184C39.176 11.8551 39.176 12.7951 39.176 13.7318C39.176 14.1821 39.3646 14.3892 39.8264 14.3892C41.6346 14.33 43.4461 14.4944 45.2511 14.261C47.1666 14.0145 48.3569 12.6932 48.3179 10.7278C48.2789 8.87079 47.2902 7.94393 45.2283 7.66784C43.4266 7.42463 41.6086 7.6054 39.8004 7.54624C39.3418 7.54624 39.1727 7.71715 39.1857 8.18058C39.2052 9.08442 39.1857 10.0014 39.1857 10.9184H39.176Z" fill="url(#paint0_linear_577_3656)"/>
<path d="M16.6612 5.00244C18.0759 5.00244 19.4939 5.00244 20.9086 5.00244C21.3606 5.00244 21.559 5.12734 21.5428 5.60063C21.5233 7.28014 21.5428 8.95635 21.5428 10.6359C21.5449 10.7791 21.5089 10.9202 21.4385 11.0446C21.3682 11.1689 21.266 11.2718 21.1427 11.3425C19.0906 12.8347 18.0727 14.9217 17.8418 17.4196C17.7962 17.8929 17.6369 18.0277 17.1913 18.0211C16.2839 18.0211 15.3766 18.0737 14.4725 18.0474C14.2663 18.027 14.0588 18.0708 13.878 18.1731C13.6972 18.2753 13.5517 18.431 13.461 18.6193C11.9292 21.1829 10.3649 23.7236 8.84613 26.2938C8.52091 26.8525 8.15991 27.1352 7.48345 27.0793C6.66552 27.0366 5.84596 27.0366 5.02803 27.0793C4.59549 27.0793 4.51418 26.9741 4.76135 26.5929C6.17931 24.4017 7.58861 22.2106 8.98923 20.0194C9.386 19.4048 9.76325 18.7738 10.1893 18.1756C10.4852 17.7615 10.3421 17.607 9.92261 17.4821C8.31927 17.0022 6.97285 16.1378 6.1598 14.6161C4.36458 11.2439 5.4313 6.68195 9.91611 5.44615C10.8366 5.20737 11.7822 5.08156 12.7325 5.07146C14.0334 5.03531 15.3343 5.07146 16.6352 5.07146L16.6612 5.00244ZM18.0499 11.5036C18.0499 10.3861 18.0304 9.26859 18.0499 8.1544C18.0499 7.68768 17.9035 7.51678 17.4417 7.52992C15.7831 7.58909 14.1277 7.48062 12.4723 7.62195C9.7535 7.84874 8.18268 10.1987 9.04126 12.8182C9.58113 14.4616 10.921 15.3885 12.9439 15.4476C14.466 15.4903 15.9945 15.4476 17.5198 15.4739C17.9263 15.4739 18.0564 15.3326 18.0499 14.925C18.0336 13.8043 18.0499 12.6539 18.0499 11.5036Z" fill="url(#paint1_linear_577_3656)"/>
<path d="M88.3365 23.9929C87.7414 24.7653 87.2665 25.4588 86.5868 25.9847C85.638 26.7254 84.5019 27.1811 83.3086 27.2993C82.1054 27.4684 80.8806 27.3834 79.7117 27.0496C78.9043 26.7924 78.1913 26.2974 77.664 25.6281C77.1367 24.9588 76.8192 24.1457 76.7522 23.2928C76.4725 20.1507 78.2709 18.537 80.8467 17.8698C83.0192 17.3044 85.2339 17.3899 87.4422 17.3669C88.3235 17.3669 88.3983 17.3045 88.3398 16.4072C88.2422 14.9084 87.8585 13.5707 86.2356 13.0482C84.9622 12.6247 83.5779 12.6985 82.3557 13.2552C82.0161 13.3985 81.7158 13.6228 81.4808 13.909C81.2457 14.1952 81.0828 14.5348 81.006 14.8986C80.8792 15.5033 80.5735 15.6611 80.0304 15.5559C79.3761 15.4362 78.7108 15.3899 78.0465 15.4179C77.5424 15.4409 77.4774 15.1648 77.5912 14.7835C77.761 14.1197 78.069 13.5001 78.4947 12.9662C78.9204 12.4323 79.4539 11.9963 80.0597 11.6875C82.5541 10.4549 85.1981 10.4155 87.8162 11.132C90.3139 11.8156 91.6278 13.7384 91.6375 16.3546C91.6375 18.5457 91.6375 20.7369 91.6375 22.928C91.6322 23.3753 91.7038 23.8201 91.8489 24.2427C91.9192 24.4687 92.0533 24.6691 92.2347 24.8191C92.4161 24.9692 92.637 25.0624 92.8701 25.0874C93.1953 25.1367 93.3579 25.2616 93.2669 25.6165C93.2446 25.7489 93.2369 25.8834 93.2441 26.0175C93.2441 27.112 93.2441 27.1482 92.1579 27.2007C90.161 27.2961 88.8894 26.7242 88.5252 24.5714C88.4714 24.3757 88.4084 24.1826 88.3365 23.9929ZM85.9462 19.3291V19.3521C85.3705 19.3521 84.7949 19.3258 84.2225 19.3521C83.2486 19.374 82.2933 19.625 81.4321 20.085C80.925 20.3837 80.5274 20.8405 80.2987 21.3868C80.0701 21.9331 80.0227 22.5396 80.1637 23.1154C80.4694 24.3577 81.2825 24.9921 82.6159 25.0184C82.9411 25.0184 83.2663 25.0184 83.6111 25.0184C84.2683 25.0077 84.9164 24.8614 85.5157 24.5884C86.1149 24.3154 86.6526 23.9215 87.0957 23.4308C87.5389 22.9402 87.8781 22.3632 88.0926 21.7353C88.3071 21.1074 88.3923 20.4418 88.343 19.7793C88.3203 19.4277 88.1967 19.3093 87.8682 19.3192C87.2275 19.3258 86.5868 19.3159 85.9462 19.3159V19.3291Z" fill="url(#paint2_linear_577_3656)"/>
<path d="M65.4771 24.0819C64.908 24.7129 64.4462 25.4459 63.7502 25.9816C62.2347 27.1484 60.498 27.4212 58.6768 27.3456C57.7676 27.3301 56.8755 27.0945 56.075 26.6587C54.657 25.8633 54.0359 24.6111 53.9025 23.0597C53.6618 20.1707 55.4538 18.5339 57.9678 17.8733C60.1403 17.3047 62.355 17.3967 64.5633 17.3671C65.4804 17.3671 65.4869 17.3671 65.4771 16.4304C65.4479 13.6203 63.7697 12.5981 61.1257 12.8578C60.7059 12.8827 60.2908 12.96 59.8898 13.0878C59.4655 13.2233 59.0833 13.4677 58.7806 13.7973C58.4779 14.1268 58.265 14.5302 58.1629 14.9678C58.0231 15.5101 57.7499 15.6252 57.2588 15.5857C56.5791 15.5167 55.8961 15.4543 55.2132 15.4378C54.7221 15.4378 54.6375 15.1749 54.7546 14.7805C54.9442 14.0896 55.2795 13.4483 55.7376 12.9008C56.1957 12.3533 56.7657 11.9125 57.4084 11.6088C58.2819 11.1771 59.2291 10.9183 60.1988 10.8463C62.1891 10.6951 64.16 10.6392 66.0235 11.5891C67.887 12.539 68.7131 14.0574 68.7651 16.0557C68.8237 18.3827 68.7911 20.7097 68.7846 23.0367C68.7873 23.4621 68.8678 23.8833 69.022 24.2791C69.1814 24.6965 69.4383 25.0548 69.9034 25.0909C70.4237 25.1336 70.4855 25.4196 70.4823 25.8534C70.4823 27.1977 70.44 27.2174 69.1196 27.2569C67.0317 27.3127 65.8284 26.2906 65.6983 24.519C65.7041 24.4327 65.6866 24.3465 65.6477 24.2695C65.6087 24.1925 65.5498 24.1276 65.4771 24.0819ZM63.129 19.3162V19.3392C62.5079 19.3392 61.8867 19.3129 61.2688 19.3392C60.176 19.4016 59.1256 19.6185 58.2247 20.3252C57.249 21.0713 57.2263 22.123 57.3629 23.1846C57.4799 24.095 58.1044 24.6373 58.9369 24.9167C59.5549 25.1271 60.2085 25.0285 60.846 25.0153C63.5486 24.9496 65.656 22.7146 65.5877 19.7894C65.5877 19.4443 65.4576 19.3096 65.1194 19.3194C64.4559 19.326 63.7925 19.3162 63.129 19.3162Z" fill="url(#paint3_linear_577_3656)"/>
<path d="M28.2422 19.6381C26.4047 19.6381 24.5705 19.6381 22.733 19.6381C22.4403 19.6381 22.0338 19.5526 22.0825 20.0489C22.2094 21.7087 22.4826 23.3356 24.0339 24.3217C25.5201 25.2715 27.143 25.2255 28.7691 24.7489C29.2424 24.6299 29.6858 24.4119 30.0707 24.1091C30.4555 23.8062 30.7732 23.4252 31.0034 22.9905C31.0248 22.9339 31.0573 22.8822 31.099 22.8385C31.1407 22.7949 31.1907 22.7602 31.246 22.7366C31.3012 22.7129 31.3607 22.7008 31.4207 22.701C31.4807 22.7011 31.5401 22.7135 31.5953 22.7375C32.2132 22.8985 32.8474 23.007 33.4783 23.1154C33.9043 23.1877 34.0344 23.2995 33.7873 23.7728C33.3918 24.5245 32.8495 25.1874 32.1933 25.7213C31.537 26.2552 30.7804 26.6489 29.9692 26.8787C27.3154 27.6938 24.6713 27.6577 22.1638 26.3693C20.2873 25.3997 19.3019 23.7038 18.9116 21.643C18.6258 20.1924 18.5829 18.7037 18.7848 17.2388C19.3669 13.2783 21.9069 10.9743 25.8714 10.787C27.4227 10.7114 28.9675 10.7607 30.4245 11.4607C32.9319 12.6768 34.0019 14.8493 34.3499 17.4984C34.4117 17.9619 34.4149 18.4352 34.4832 18.8986C34.5678 19.4803 34.3759 19.6841 33.771 19.671C31.914 19.6151 30.0797 19.6381 28.2422 19.6381ZM26.73 17.5905H30.7074C31.0001 17.5905 31.3383 17.5905 31.2928 17.1599C31.1302 15.6349 30.6424 14.2282 29.2049 13.5018C26.8665 12.3219 22.772 12.6735 22.1021 16.7359C21.9817 17.4689 22.0273 17.5806 22.7525 17.5872C24.0664 17.6003 25.4031 17.5905 26.73 17.5905Z" fill="url(#paint4_linear_577_3656)"/>
<path d="M136.213 19.6283C134.398 19.6283 132.583 19.6283 130.768 19.6283C130.284 19.6283 130.118 19.7466 130.118 20.2659C130.16 22.4943 131.123 24.1574 132.996 24.7753C133.869 25.0808 134.802 25.1683 135.715 25.0304C136.629 24.8924 137.496 24.5332 138.242 23.9832C138.456 23.8238 138.63 23.6154 138.749 23.3752C139.075 22.7342 139.549 22.6554 140.174 22.8624C140.572 22.9965 140.985 23.0825 141.403 23.1188C141.998 23.1582 142.008 23.4475 141.767 23.855C141.123 24.9842 140.159 25.893 139 26.4647C136.97 27.4704 134.795 27.5887 132.651 27.2075C129.552 26.6553 127.571 24.9528 126.905 21.4163C126.511 19.5516 126.58 17.6172 127.106 15.7861C127.476 14.4908 128.219 13.3358 129.24 12.4679C130.261 11.6001 131.514 11.0585 132.84 10.9119C134.369 10.7147 135.884 10.6424 137.374 11.073C140.48 11.9703 141.982 14.4024 142.346 17.4163C142.411 17.9488 142.437 18.4845 142.467 19.0203C142.489 19.4541 142.327 19.6579 141.849 19.6546C139.966 19.6283 138.086 19.6546 136.203 19.6546L136.213 19.6283ZM134.743 17.6037H137.995C139.595 17.6037 139.497 17.768 139.094 16.0787C138.486 13.5282 136.492 12.7163 134.043 12.9793C131.38 13.2619 130.251 15.2504 130.141 16.9792C130.111 17.4394 130.235 17.6201 130.716 17.6103C132.04 17.5872 133.396 17.6037 134.743 17.6037Z" fill="url(#paint5_linear_577_3656)"/>
<path d="M94.6716 18.2806C94.6163 16.6603 94.7984 14.0868 94.5903 11.5199C94.561 11.1386 94.8081 11.063 95.0943 11.0564C95.6017 11.0564 96.1123 11.0564 96.6196 11.0564C97.5953 11.0564 97.7579 11.1682 97.6831 12.1575C97.6473 12.6571 97.7709 13.1435 97.7449 13.6266C97.7449 13.7548 97.7449 13.9224 97.8815 13.975C98.0181 14.0276 98.1547 13.8731 98.2392 13.7515C98.6 13.1635 99.0376 12.6274 99.5401 12.1575C101.166 10.7836 103.043 10.57 105.036 10.8428C105.897 10.9312 106.718 11.2527 107.413 11.7733C108.108 12.2939 108.651 12.9944 108.985 13.8008C109.329 14.5516 109.518 15.3661 109.537 16.1936C109.557 19.6183 109.537 23.0398 109.573 26.4645C109.573 26.928 109.388 27.0331 108.975 27.0167C108.324 26.9937 107.648 26.9806 106.984 27.0167C106.487 27.0463 106.334 26.8754 106.334 26.3594C106.357 23.6971 106.357 21.0349 106.35 18.3727C106.372 17.3693 106.227 16.3693 105.921 15.4146C105.326 13.6529 103.41 13.0285 101.953 13.2224C99.3515 13.551 97.9303 15.7236 97.8685 18.2215C97.8034 20.9034 97.8327 23.5887 97.8685 26.2739C97.8685 26.8754 97.6896 27.0594 97.1107 27.0134C96.4913 26.9707 95.8698 26.9707 95.2504 27.0134C94.7756 27.0397 94.652 26.8524 94.6553 26.3922C94.6813 24.0192 94.6716 21.6265 94.6716 18.2806Z" fill="url(#paint6_linear_577_3656)"/>
<path d="M110.754 19.2436C110.712 17.1006 111.06 15.2174 112.279 13.5904C112.817 12.8529 113.499 12.2339 114.282 11.7711C115.064 11.3083 115.932 11.0115 116.832 10.8986C118.562 10.6521 120.26 10.6587 121.925 11.2799C122.838 11.5978 123.66 12.1379 124.318 12.8527C124.976 13.5675 125.45 14.4349 125.698 15.3784C125.799 15.7071 125.724 15.9503 125.32 15.9733C124.524 16.0193 123.73 16.0752 122.937 16.1212C122.831 16.1455 122.72 16.1289 122.625 16.0748C122.531 16.0207 122.46 15.933 122.426 15.8287C121.337 13.4491 119.558 12.657 117.04 13.3932C115.414 13.8665 114.608 15.0563 114.224 16.6306C113.8 18.3789 113.85 20.2104 114.37 21.9321C115.021 24.1901 117.024 25.2188 119.219 24.9395C120.845 24.739 122.078 23.9337 122.517 22.2082C122.527 22.1362 122.552 22.0671 122.589 22.005C122.627 21.943 122.676 21.8894 122.735 21.8475C122.794 21.8056 122.861 21.7764 122.931 21.7615C123.002 21.7467 123.074 21.7466 123.145 21.7612C123.916 21.8335 124.69 21.8762 125.46 21.9321C126.003 21.9748 125.883 22.3068 125.786 22.6552C125.135 24.9033 123.62 26.3133 121.441 26.9279C119.164 27.5853 116.842 27.5655 114.643 26.5434C112.643 25.6132 111.512 23.937 111.001 21.8006C110.802 20.9639 110.719 20.1034 110.754 19.2436Z" fill="url(#paint7_linear_577_3656)"/>
<path d="M71.6851 15.5985C71.6851 12.0423 71.6851 8.48608 71.6851 4.92985C71.6851 4.34482 71.8315 4.13118 72.4266 4.17719C73.0663 4.22978 73.7091 4.22978 74.3487 4.17719C74.9634 4.1246 75.0869 4.37769 75.0707 4.943C75.0349 6.28398 75.0707 7.62496 75.0707 8.96923C75.0707 14.7144 75.0707 20.4727 75.0707 26.2113C75.0707 26.8687 74.9048 27.0823 74.2609 27.0231C73.666 26.9656 73.067 26.9656 72.4722 27.0231C71.8022 27.0922 71.6754 26.8194 71.6819 26.1949C71.7014 22.6781 71.6851 19.1317 71.6851 15.5985Z" fill="url(#paint8_linear_577_3656)"/>
<path d="M111.362 33.896C112.4 33.896 112.533 34.0734 112.253 35.0364C112.009 35.8844 111.278 36.3774 110.266 36.3774C109.144 36.3774 108.204 35.7201 107.99 34.7143C107.791 33.8302 107.879 32.979 108.572 32.292C108.88 31.9847 109.265 31.7681 109.685 31.6656C110.106 31.5631 110.546 31.5785 110.959 31.7103C111.073 31.7288 111.183 31.7678 111.284 31.8253C111.538 32.0028 112.009 32.1376 111.844 32.5123C111.645 32.9625 111.291 32.6897 110.965 32.5123C110.699 32.3704 110.398 32.3122 110.099 32.345C109.799 32.3778 109.517 32.5001 109.287 32.6963C109.039 32.9044 108.858 33.1823 108.766 33.4949C108.675 33.8074 108.677 34.1403 108.773 34.4514C108.825 34.7517 108.973 35.0265 109.195 35.2332C109.416 35.44 109.699 35.5672 110 35.5952C110.552 35.6642 111.122 35.6839 111.47 35.0989C111.616 34.859 111.694 34.6355 111.287 34.596C111.004 34.5664 110.559 34.7242 110.591 34.2378C110.601 33.6626 111.122 34.0011 111.362 33.896Z" fill="url(#paint9_linear_577_3656)"/>
<path d="M11.2983 33.9844C11.3256 33.3637 11.59 32.7778 12.036 32.3502C12.4821 31.9225 13.0748 31.6864 13.6897 31.6915C14.3045 31.6966 14.8933 31.9426 15.3323 32.3776C15.7713 32.8126 16.0262 33.4028 16.0433 34.0239C16.0161 34.6446 15.7516 35.2305 15.3056 35.6581C14.8596 36.0858 14.2668 36.3219 13.652 36.3168C13.0372 36.3117 12.4483 36.0657 12.0093 35.6307C11.5704 35.1957 11.3155 34.6055 11.2983 33.9844ZM15.2498 34.014C15.2589 33.8034 15.2262 33.5932 15.1534 33.3957C15.0807 33.1981 14.9694 33.0174 14.8263 32.8641C14.6831 32.7109 14.511 32.5882 14.32 32.5035C14.1291 32.4187 13.9233 32.3735 13.7147 32.3706C13.4992 32.3633 13.2845 32.4008 13.084 32.4808C12.8834 32.5608 12.7012 32.6816 12.5488 32.8357C12.3963 32.9898 12.2768 33.1739 12.1976 33.3766C12.1185 33.5793 12.0814 33.7962 12.0886 34.014C12.0777 34.2295 12.1101 34.4451 12.1839 34.6476C12.2577 34.8501 12.3713 35.0354 12.5179 35.1923C12.6646 35.3492 12.8411 35.4745 13.0369 35.5605C13.2328 35.6466 13.4438 35.6916 13.6574 35.6929C13.8709 35.6943 14.0825 35.6519 14.2794 35.5683C14.4762 35.4847 14.6543 35.3616 14.8028 35.2066C14.9513 35.0515 15.0672 34.8676 15.1435 34.6661C15.2198 34.4645 15.2548 34.2494 15.2465 34.0337L15.2498 34.014Z" fill="url(#paint10_linear_577_3656)"/>
<path d="M94.4021 31.6016C95.0287 31.6085 95.6274 31.8645 96.0687 32.3141C96.51 32.7638 96.7583 33.3709 96.76 34.0042C96.7371 34.6357 96.4773 35.2347 96.0334 35.6797C95.5895 36.1246 94.9946 36.3823 94.3696 36.4002C93.7327 36.3898 93.1256 36.1257 92.6804 35.6653C92.2352 35.2049 91.9879 34.5855 91.9922 33.9417C91.9982 33.6281 92.0652 33.3187 92.1896 33.0313C92.314 32.7438 92.4932 32.484 92.717 32.2666C92.9408 32.0493 93.2049 31.8787 93.4941 31.7645C93.7832 31.6504 94.0918 31.5951 94.4021 31.6016ZM94.4021 35.5982C94.6123 35.6005 94.8207 35.56 95.015 35.4791C95.2092 35.3982 95.3854 35.2785 95.5329 35.1273C95.6804 34.976 95.7963 34.7963 95.8736 34.5988C95.9508 34.4014 95.988 34.1902 95.9827 33.9779C95.9842 33.7602 95.942 33.5445 95.8587 33.3437C95.7753 33.143 95.6526 32.9614 95.4979 32.81C95.3431 32.6585 95.1596 32.5404 94.9585 32.4626C94.7573 32.3848 94.5426 32.3491 94.3273 32.3575C94.1166 32.3567 93.908 32.4003 93.7148 32.4856C93.5217 32.5708 93.3483 32.6959 93.2057 32.8527C93.063 33.0095 92.9543 33.1947 92.8865 33.3963C92.8187 33.598 92.7933 33.8117 92.8118 34.0239C92.7986 34.2364 92.8307 34.4493 92.9059 34.6481C92.9812 34.847 93.0979 35.0272 93.2481 35.1765C93.3983 35.3258 93.5785 35.4407 93.7765 35.5135C93.9745 35.5862 94.1856 35.6151 94.3956 35.5982H94.4021Z" fill="url(#paint11_linear_577_3656)"/>
<path d="M78.492 34.0667C78.4537 34.6933 78.1791 35.2812 77.7247 35.7092C77.2703 36.1373 76.6707 36.3728 76.0495 36.3674C75.4233 36.3557 74.8274 36.093 74.3928 35.6372C73.9583 35.1814 73.7207 34.5698 73.7323 33.9369C73.744 33.3041 74.0039 32.7018 74.4549 32.2627C74.906 31.8235 75.5111 31.5834 76.1374 31.5951C76.7731 31.6098 77.3774 31.8778 77.8184 32.3408C78.2595 32.8038 78.5016 33.4242 78.492 34.0667ZM76.0821 35.6016C76.299 35.6146 76.5161 35.5809 76.7192 35.5029C76.9222 35.4249 77.1067 35.3042 77.2603 35.149C77.4139 34.9937 77.5332 34.8074 77.6104 34.6021C77.6876 34.3969 77.721 34.1775 77.7082 33.9583C77.7086 33.7466 77.6674 33.5369 77.587 33.3414C77.5065 33.1459 77.3884 32.9686 77.2395 32.8196C77.0906 32.6707 76.9139 32.5532 76.7197 32.4738C76.5255 32.3945 76.3176 32.355 76.1081 32.3577C75.8931 32.3486 75.6785 32.3851 75.4783 32.4648C75.278 32.5445 75.0964 32.6655 74.9452 32.8203C74.7939 32.975 74.6763 33.1599 74.5999 33.3633C74.5235 33.5666 74.49 33.7838 74.5015 34.001C74.4887 34.2143 74.5208 34.4279 74.5957 34.6277C74.6706 34.8275 74.7865 35.009 74.9358 35.1603C75.0852 35.3115 75.2646 35.4291 75.4621 35.5051C75.6597 35.5812 75.871 35.6141 76.0821 35.6016Z" fill="url(#paint12_linear_577_3656)"/>
<path d="M104.344 34.0405C104.344 34.5993 104.344 35.158 104.344 35.7168C104.344 35.8844 104.435 36.1177 104.243 36.2032C104.051 36.2886 103.918 36.0389 103.778 35.9107C103.007 35.1745 102.246 34.4317 101.482 33.6921C101.391 33.6001 101.316 33.4424 101.173 33.4851C101.03 33.5278 101.036 33.7447 101.036 33.8893C101.036 34.5138 101.036 35.1383 101.036 35.7628C101.036 36.0257 101.02 36.2591 100.669 36.2689C100.318 36.2788 100.301 36.0323 100.301 35.7792C100.301 34.55 100.301 33.324 100.301 32.0948C100.301 31.9699 100.253 31.8023 100.396 31.7365C100.539 31.6708 100.675 31.822 100.78 31.9239C101.524 32.6535 102.256 33.3963 103.007 34.1194C103.141 34.2476 103.277 34.4908 103.489 34.4086C103.7 34.3265 103.619 34.057 103.622 33.8663C103.622 33.3306 103.622 32.7949 103.622 32.2591C103.622 31.9732 103.622 31.7135 104.019 31.7168C104.416 31.7201 104.363 31.9831 104.363 32.2328V34.0405H104.344Z" fill="url(#paint13_linear_577_3656)"/>
<path d="M56.1299 33.9941C56.1299 33.3696 56.1299 32.7452 56.1299 32.1174C56.1299 31.838 56.234 31.7099 56.5169 31.7131C56.7998 31.7164 56.9397 31.815 56.9202 32.1075C56.9169 32.1304 56.9169 32.1537 56.9202 32.1766C56.9885 32.5578 56.7023 33.1626 57.0665 33.2875C57.5771 33.4682 58.195 33.3598 58.7674 33.3499C59.0048 33.3499 58.9951 33.1231 59.0016 32.9424C59.0016 32.6137 59.0016 32.3179 59.0244 32.0057C59.0471 31.6934 59.239 31.7131 59.4504 31.7131C59.6618 31.7131 59.7919 31.792 59.7919 32.0221C59.7919 33.3368 59.7919 34.6515 59.7919 35.9661C59.7919 36.2488 59.5837 36.2587 59.3723 36.262C59.1089 36.262 59.0211 36.1042 59.0146 35.8774C59.0146 35.4337 58.9951 34.9867 59.0146 34.5397C59.0146 34.211 58.8845 34.0829 58.543 34.0631C56.9527 33.9678 56.9527 33.9547 56.9169 35.5849C56.9169 35.6736 56.9169 35.7624 56.9169 35.8511C56.9169 36.1272 56.8129 36.2587 56.5299 36.262C56.247 36.2652 56.1331 36.1403 56.1364 35.861C56.1364 35.2365 56.1364 34.612 56.1364 33.9876L56.1299 33.9941Z" fill="url(#paint14_linear_577_3656)"/>
<path d="M19.6108 33.4849C19.6108 33.0149 19.6108 32.5449 19.6108 32.0782C19.6108 31.7495 19.7734 31.7068 20.0304 31.7134C20.2873 31.72 20.3881 31.9007 20.3849 32.1571C20.3849 32.9623 20.3621 33.7676 20.3849 34.5695C20.4174 35.4438 21.1134 35.8842 21.9167 35.5391C22.0933 35.4698 22.2431 35.3447 22.3439 35.1825C22.4447 35.0202 22.491 34.8295 22.476 34.6386C22.476 33.8333 22.4988 33.0314 22.4956 32.2261C22.4956 31.9204 22.5378 31.7035 22.9183 31.7101C23.2989 31.7167 23.2826 31.9435 23.2826 32.2064C23.2826 33.0544 23.3021 33.9023 23.2826 34.7503C23.2501 35.7791 22.5313 36.3937 21.4126 36.374C20.2938 36.3542 19.6369 35.7593 19.6141 34.6911C19.6141 34.2869 19.6141 33.8859 19.6141 33.4849H19.6108Z" fill="url(#paint15_linear_577_3656)"/>
<path d="M30.1381 36.246C28.6485 36.3577 28.6583 34.8853 27.7152 34.4153V35.7924C27.7152 36.0192 27.7379 36.2525 27.3899 36.2657C27.0419 36.2788 26.9932 36.0783 26.9932 35.7957C26.9932 34.5895 26.9932 33.3832 26.9932 32.1803C26.9932 31.8516 27.1135 31.6906 27.4582 31.7136C27.7444 31.7136 28.0339 31.7136 28.3201 31.7136C28.8697 31.7333 29.3478 31.9239 29.4974 32.5024C29.647 33.0809 29.6697 33.6889 29.0453 34.0373C28.6388 34.2608 28.7981 34.4941 28.977 34.7341C29.325 35.1975 29.6795 35.6478 30.1381 36.246ZM27.7672 32.9593C27.8225 33.1893 27.5981 33.5969 28.1412 33.5969C28.5315 33.5969 28.7916 33.4555 28.7721 33.025C28.7526 32.5944 28.512 32.4465 28.1379 32.4071C27.7021 32.3545 27.7704 32.6602 27.7672 32.9527V32.9593Z" fill="url(#paint16_linear_577_3656)"/>
<path d="M115.837 34.0175C115.837 33.416 115.854 32.8113 115.837 32.2098C115.837 31.8285 115.974 31.6938 116.342 31.7069C116.894 31.7299 117.447 31.7069 118 31.7069C118.238 31.7069 118.384 31.8022 118.371 32.0652C118.358 32.3281 118.228 32.3741 118.02 32.3741C117.753 32.3741 117.49 32.3741 117.223 32.3741C116.898 32.3741 116.621 32.3511 116.631 32.8376C116.631 33.2681 116.768 33.4587 117.203 33.4193C117.424 33.3996 117.646 33.4193 117.854 33.4193C118.13 33.4193 118.355 33.4719 118.355 33.8006C118.355 34.1292 118.091 34.1621 117.834 34.1588C117.658 34.1686 117.481 34.1686 117.304 34.1588C116.732 34.0898 116.602 34.3626 116.615 34.895C116.628 35.4275 116.774 35.5918 117.265 35.5294C117.529 35.5031 117.795 35.5031 118.059 35.5294C118.277 35.5294 118.361 35.6904 118.351 35.8975C118.342 36.1045 118.273 36.2492 118.046 36.2524C117.395 36.2524 116.764 36.2524 116.124 36.2524C115.837 36.2524 115.837 36.0257 115.837 35.8219V34.0175Z" fill="url(#paint17_linear_577_3656)"/>
<path d="M47.2676 36.009C47.2904 36.1865 47.2156 36.2456 47.0888 36.2621C46.9594 36.2932 46.8233 36.2774 46.7044 36.2173C46.5855 36.1572 46.4912 36.0567 46.4383 35.9334C46.2987 35.5799 46.0287 35.2951 45.6854 35.1387C45.342 34.9824 44.9521 34.9668 44.5976 35.0953C44.5136 35.1189 44.4368 35.1635 44.3743 35.2249C44.3117 35.2864 44.2655 35.3627 44.2398 35.447C44.1358 35.6672 44.0187 35.8808 43.8951 36.1043C43.8266 36.2092 43.7203 36.2829 43.5989 36.3099C43.4775 36.3369 43.3504 36.315 43.2447 36.2489C42.9845 36.147 43.1894 35.9202 43.2447 35.7986C43.8073 34.5398 44.3894 33.2909 44.9618 32.0386C45.1049 31.71 45.287 31.6377 45.4497 31.9893C46.0481 33.2777 46.627 34.576 47.2124 35.8709C47.2333 35.9159 47.2518 35.962 47.2676 36.009ZM45.2057 33.2843C45.0887 33.6524 44.6724 33.9416 44.835 34.3262C44.913 34.5004 45.5245 34.5004 45.5993 34.3262C45.7716 33.9614 45.4301 33.6327 45.2057 33.2843Z" fill="url(#paint18_linear_577_3656)"/>
<path d="M37.9172 33.9876C37.9172 33.3862 37.9172 32.7847 37.9172 32.1832C37.9172 31.8545 38.0213 31.6869 38.3758 31.7066C38.7303 31.7264 39.1726 31.7066 39.5661 31.7362C39.8679 31.7779 40.1439 31.9305 40.3415 32.1649C40.539 32.3992 40.6442 32.6989 40.6369 33.0067C40.6297 33.3144 40.5105 33.6087 40.3022 33.8333C40.0939 34.0579 39.811 34.1971 39.5075 34.2243C38.6034 34.313 38.6392 34.3163 38.5872 35.253C38.5709 35.5817 38.9124 36.239 38.2359 36.239C37.6538 36.2226 37.9693 35.608 37.9107 35.253C37.883 34.8306 37.883 34.4068 37.9107 33.9843L37.9172 33.9876ZM38.6717 32.9523C38.6717 33.2481 38.5742 33.6096 39.0945 33.5735C39.4588 33.5472 39.7645 33.4683 39.7742 33.0246C39.784 32.5809 39.4718 32.4396 39.0815 32.3936C38.6164 32.341 38.6652 32.6598 38.6717 32.9523Z" fill="url(#paint19_linear_577_3656)"/>
<path d="M123.343 34.4218C123.776 33.8072 123.942 33.0841 124.238 32.4235C124.311 32.2159 124.409 32.0183 124.53 31.8352C124.609 31.755 124.713 31.7047 124.825 31.6927C124.936 31.6807 125.048 31.7078 125.142 31.7694C125.337 31.8713 125.207 32.0521 125.142 32.1836C124.605 33.4522 124.056 34.7143 123.516 35.9863C123.35 36.3774 123.191 36.2131 123.09 35.9863C122.537 34.7012 122.007 33.4095 121.464 32.1178C121.402 31.9667 121.363 31.7892 121.584 31.7432C121.646 31.7184 121.712 31.7063 121.778 31.7077C121.844 31.709 121.91 31.7238 121.97 31.751C122.031 31.7783 122.085 31.8175 122.131 31.8664C122.176 31.9152 122.211 31.9728 122.234 32.0357C122.469 32.6108 122.699 33.1893 122.947 33.7612C123.016 34.0142 123.153 34.2429 123.343 34.4218Z" fill="url(#paint20_linear_577_3656)"/>
<path d="M140.326 33.357C140.647 33.0509 140.912 32.6891 141.107 32.2888C141.193 32.1351 141.289 31.9879 141.396 31.8484C141.472 31.7632 141.575 31.7077 141.688 31.6914C141.8 31.6752 141.914 31.6994 142.011 31.7596C142.284 31.924 142.011 32.0883 141.926 32.2494C141.833 32.4286 141.724 32.5991 141.601 32.7588C140.934 33.6101 140.538 34.5402 140.697 35.661C140.736 35.9338 140.791 36.2657 140.323 36.2756C139.855 36.2854 139.897 35.9469 139.946 35.6774C140.173 34.3627 139.503 33.3767 138.821 32.3644C138.713 32.2099 138.368 31.9667 138.703 31.7596C138.768 31.7255 138.838 31.7047 138.91 31.6986C138.983 31.6926 139.055 31.7013 139.124 31.7243C139.193 31.7473 139.257 31.7841 139.311 31.8326C139.366 31.881 139.41 31.94 139.442 32.0061C139.734 32.4531 139.93 32.9659 140.326 33.357Z" fill="url(#paint21_linear_577_3656)"/>
<path d="M8.34838 31.9241C8.31528 31.9972 8.27837 32.0685 8.23781 32.1377C8.12185 32.3531 7.99372 32.5616 7.85405 32.7622C7.18409 33.6364 6.77106 34.5797 6.94668 35.7202C6.98571 35.9766 7.01823 36.2757 6.59219 36.2724C6.16615 36.2691 6.13038 35.9996 6.17591 35.7334C6.40681 34.376 5.73361 33.3407 5.04739 32.2955C4.94982 32.1476 4.64086 31.9339 4.95308 31.7597C5.01084 31.7248 5.07498 31.702 5.14165 31.6927C5.20833 31.6834 5.27617 31.6878 5.34114 31.7056C5.4061 31.7234 5.46685 31.7543 5.51975 31.7963C5.57266 31.8384 5.61663 31.8908 5.64905 31.9504C5.85394 32.279 6.08159 32.6241 6.27673 32.9692C6.47186 33.3144 6.68 33.4031 6.92717 32.9857C7.13531 32.6209 7.36622 32.2659 7.60038 31.9142C7.66879 31.8262 7.76179 31.7609 7.86733 31.7269C7.97287 31.693 8.08608 31.6918 8.19228 31.7236C8.28009 31.7367 8.33212 31.7992 8.34838 31.9241Z" fill="url(#paint22_linear_577_3656)"/>
<path d="M50.8874 34.3164C50.8874 33.8464 50.8647 33.3764 50.8874 32.9097C50.9167 32.4989 50.7769 32.3477 50.3638 32.3674C50.1134 32.3674 49.7134 32.5252 49.7134 32.0617C49.7134 31.5983 50.1492 31.7331 50.4191 31.7331C51.0695 31.7101 51.746 31.7331 52.4095 31.7331C52.6436 31.7331 52.8713 31.7495 52.868 32.0617C52.8648 32.374 52.6274 32.4266 52.3997 32.3904C51.7655 32.2819 51.6712 32.5975 51.6907 33.1464C51.7232 34.0173 51.6907 34.8883 51.6907 35.7757C51.6907 36.065 51.6907 36.3082 51.2842 36.3016C50.8777 36.295 50.8939 36.0321 50.8939 35.756C50.8939 35.286 50.8939 34.816 50.8939 34.346L50.8874 34.3164Z" fill="url(#paint23_linear_577_3656)"/>
<path d="M68.8785 34.2672C68.8785 33.9779 68.8622 33.6887 68.8785 33.3995C68.9175 32.7816 68.9435 32.2031 68.0362 32.3707C67.8248 32.4102 67.7109 32.2393 67.7109 32.0421C67.7109 31.8448 67.8345 31.7134 68.0362 31.7134H70.4851C70.5278 31.7166 70.5694 31.7283 70.6077 31.7478C70.6459 31.7673 70.68 31.7943 70.7079 31.8271C70.7358 31.8599 70.7571 31.8979 70.7705 31.939C70.7839 31.9802 70.7891 32.0235 70.7859 32.0667C70.7827 32.1099 70.7711 32.152 70.7518 32.1906C70.7325 32.2292 70.7059 32.2637 70.6734 32.2919C70.6409 32.3201 70.6033 32.3416 70.5626 32.3551C70.5219 32.3687 70.479 32.374 70.4363 32.3707C69.6492 32.2261 69.5907 32.6534 69.6297 33.2844C69.6785 34.1061 69.6297 34.9278 69.6297 35.756C69.6297 36.0091 69.6297 36.2523 69.2687 36.2655C68.9077 36.2786 68.8557 36.0223 68.8557 35.7363L68.8785 34.2672Z" fill="url(#paint24_linear_577_3656)"/>
<path d="M134.157 31.7136H135.351C135.588 31.7136 135.721 31.8319 135.712 32.085C135.714 32.1304 135.706 32.1758 135.687 32.2172C135.669 32.2587 135.64 32.295 135.605 32.3231C135.569 32.3511 135.528 32.3701 135.484 32.3785C135.439 32.3868 135.394 32.3842 135.351 32.3709C134.577 32.223 134.551 32.6766 134.573 33.2583C134.606 34.0833 134.573 34.9017 134.573 35.7365C134.573 36.0257 134.573 36.2689 134.167 36.2722C133.76 36.2755 133.777 36.0126 133.773 35.7365C133.773 34.7965 133.744 33.8598 133.773 32.9231C133.773 32.532 133.689 32.3413 133.259 32.3709C133.006 32.3873 132.609 32.5057 132.609 32.0422C132.609 31.5229 133.045 31.7399 133.311 31.7136C133.593 31.6993 133.875 31.6993 134.157 31.7136Z" fill="url(#paint25_linear_577_3656)"/>
<path d="M86.6912 33.9223C86.6912 33.4062 86.6912 32.8935 86.6912 32.3808C86.6912 32.085 86.5936 31.6971 87.0977 31.7234C87.6018 31.7497 87.4555 32.1441 87.4587 32.4235C87.4587 33.2288 87.4587 34.034 87.4424 34.8393C87.4229 35.3388 87.566 35.5689 88.1157 35.559C88.4409 35.559 89.0523 35.2304 89.0328 35.9206C89.0133 36.6108 88.4116 36.2493 88.0864 36.2493C86.6847 36.2821 86.6847 36.2493 86.6879 34.8623L86.6912 33.9223Z" fill="url(#paint26_linear_577_3656)"/>
<path d="M128.508 33.9683C128.508 33.3866 128.508 32.8081 128.508 32.2296C128.508 31.947 128.508 31.7038 128.901 31.7071C129.259 31.7071 129.357 31.8615 129.353 32.1902C129.353 33.4162 129.353 34.6388 129.353 35.8615C129.353 36.1901 129.217 36.2789 128.914 36.2854C128.612 36.292 128.508 36.131 128.514 35.8352C128.514 35.214 128.514 34.5895 128.514 33.9683H128.508Z" fill="url(#paint27_linear_577_3656)"/>
<defs>
<linearGradient id="paint0_linear_577_3656" x1="34.6205" y1="16.0094" x2="53.9109" y2="16.0094" gradientUnits="userSpaceOnUse">
<stop stop-color="#A7A7A7"/>
<stop offset="0.509514" stop-color="#D8D8D8"/>
<stop offset="1" stop-color="#BBBBBB"/>
</linearGradient>
<linearGradient id="paint1_linear_577_3656" x1="3.4386" y1="16.0443" x2="22.3897" y2="16.0443" gradientUnits="userSpaceOnUse">
<stop stop-color="#8F7047"/>
<stop offset="0.509514" stop-color="#DABD9A"/>
<stop offset="1" stop-color="#A58A63"/>
</linearGradient>
<linearGradient id="paint2_linear_577_3656" x1="75.5637" y1="19.0228" x2="94.1204" y2="19.0228" gradientUnits="userSpaceOnUse">
<stop stop-color="#A7A7A7"/>
<stop offset="0.509514" stop-color="#D8D8D8"/>
<stop offset="1" stop-color="#BBBBBB"/>
</linearGradient>
<linearGradient id="paint3_linear_577_3656" x1="52.7188" y1="19.0588" x2="71.3125" y2="19.0588" gradientUnits="userSpaceOnUse">
<stop stop-color="#A7A7A7"/>
<stop offset="0.509514" stop-color="#D8D8D8"/>
<stop offset="1" stop-color="#BBBBBB"/>
</linearGradient>
<linearGradient id="paint4_linear_577_3656" x1="17.5508" y1="19.0935" x2="35.2943" y2="19.0935" gradientUnits="userSpaceOnUse">
<stop stop-color="#8F7047"/>
<stop offset="0.509514" stop-color="#DABD9A"/>
<stop offset="1" stop-color="#A58A63"/>
</linearGradient>
<linearGradient id="paint5_linear_577_3656" x1="125.546" y1="19.0819" x2="143.259" y2="19.0819" gradientUnits="userSpaceOnUse">
<stop stop-color="#A7A7A7"/>
<stop offset="0.509514" stop-color="#D8D8D8"/>
<stop offset="1" stop-color="#BBBBBB"/>
</linearGradient>
<linearGradient id="paint6_linear_577_3656" x1="93.5389" y1="18.8799" x2="110.322" y2="18.8799" gradientUnits="userSpaceOnUse">
<stop stop-color="#A7A7A7"/>
<stop offset="0.509514" stop-color="#D8D8D8"/>
<stop offset="1" stop-color="#BBBBBB"/>
</linearGradient>
<linearGradient id="paint7_linear_577_3656" x1="109.687" y1="19.0609" x2="126.626" y2="19.0609" gradientUnits="userSpaceOnUse">
<stop stop-color="#A7A7A7"/>
<stop offset="0.509514" stop-color="#D8D8D8"/>
<stop offset="1" stop-color="#BBBBBB"/>
</linearGradient>
<linearGradient id="paint8_linear_577_3656" x1="71.4443" y1="15.602" x2="75.2416" y2="15.602" gradientUnits="userSpaceOnUse">
<stop stop-color="#A7A7A7"/>
<stop offset="0.509514" stop-color="#D8D8D8"/>
<stop offset="1" stop-color="#BBBBBB"/>
</linearGradient>
<linearGradient id="paint9_linear_577_3656" x1="107.583" y1="33.988" x2="112.605" y2="33.988" gradientUnits="userSpaceOnUse">
<stop stop-color="#8F7047"/>
<stop offset="0.509514" stop-color="#DABD9A"/>
<stop offset="1" stop-color="#A58A63"/>
</linearGradient>
<linearGradient id="paint10_linear_577_3656" x1="10.9662" y1="34.0041" x2="16.2806" y2="34.0041" gradientUnits="userSpaceOnUse">
<stop stop-color="#8F7047"/>
<stop offset="0.509514" stop-color="#DABD9A"/>
<stop offset="1" stop-color="#A58A63"/>
</linearGradient>
<linearGradient id="paint11_linear_577_3656" x1="91.6584" y1="34.0006" x2="96.9984" y2="34.0006" gradientUnits="userSpaceOnUse">
<stop stop-color="#8F7047"/>
<stop offset="0.509514" stop-color="#DABD9A"/>
<stop offset="1" stop-color="#A58A63"/>
</linearGradient>
<linearGradient id="paint12_linear_577_3656" x1="73.3987" y1="33.9811" x2="78.7303" y2="33.9811" gradientUnits="userSpaceOnUse">
<stop stop-color="#8F7047"/>
<stop offset="0.509514" stop-color="#DABD9A"/>
<stop offset="1" stop-color="#A58A63"/>
</linearGradient>
<linearGradient id="paint13_linear_577_3656" x1="100.008" y1="33.993" x2="104.569" y2="33.993" gradientUnits="userSpaceOnUse">
<stop stop-color="#8F7047"/>
<stop offset="0.509514" stop-color="#DABD9A"/>
<stop offset="1" stop-color="#A58A63"/>
</linearGradient>
<linearGradient id="paint14_linear_577_3656" x1="55.8735" y1="33.9875" x2="59.975" y2="33.9875" gradientUnits="userSpaceOnUse">
<stop stop-color="#8F7047"/>
<stop offset="0.509514" stop-color="#DABD9A"/>
<stop offset="1" stop-color="#A58A63"/>
</linearGradient>
<linearGradient id="paint15_linear_577_3656" x1="19.3532" y1="34.0422" x2="23.4753" y2="34.0422" gradientUnits="userSpaceOnUse">
<stop stop-color="#8F7047"/>
<stop offset="0.509514" stop-color="#DABD9A"/>
<stop offset="1" stop-color="#A58A63"/>
</linearGradient>
<linearGradient id="paint16_linear_577_3656" x1="26.773" y1="33.9889" x2="30.2953" y2="33.9889" gradientUnits="userSpaceOnUse">
<stop stop-color="#8F7047"/>
<stop offset="0.509514" stop-color="#DABD9A"/>
<stop offset="1" stop-color="#A58A63"/>
</linearGradient>
<linearGradient id="paint17_linear_577_3656" x1="115.66" y1="33.9792" x2="118.498" y2="33.9792" gradientUnits="userSpaceOnUse">
<stop stop-color="#8F7047"/>
<stop offset="0.509514" stop-color="#DABD9A"/>
<stop offset="1" stop-color="#A58A63"/>
</linearGradient>
<linearGradient id="paint18_linear_577_3656" x1="42.8248" y1="34.039" x2="47.4795" y2="34.039" gradientUnits="userSpaceOnUse">
<stop stop-color="#8F7047"/>
<stop offset="0.509514" stop-color="#DABD9A"/>
<stop offset="1" stop-color="#A58A63"/>
</linearGradient>
<linearGradient id="paint19_linear_577_3656" x1="37.6837" y1="33.9721" x2="40.7753" y2="33.9721" gradientUnits="userSpaceOnUse">
<stop stop-color="#8F7047"/>
<stop offset="0.509514" stop-color="#DABD9A"/>
<stop offset="1" stop-color="#A58A63"/>
</linearGradient>
<linearGradient id="paint20_linear_577_3656" x1="121.147" y1="33.956" x2="125.436" y2="33.956" gradientUnits="userSpaceOnUse">
<stop stop-color="#8F7047"/>
<stop offset="0.509514" stop-color="#DABD9A"/>
<stop offset="1" stop-color="#A58A63"/>
</linearGradient>
<linearGradient id="paint21_linear_577_3656" x1="138.311" y1="33.9812" x2="142.308" y2="33.9812" gradientUnits="userSpaceOnUse">
<stop stop-color="#8F7047"/>
<stop offset="0.509514" stop-color="#DABD9A"/>
<stop offset="1" stop-color="#A58A63"/>
</linearGradient>
<linearGradient id="paint22_linear_577_3656" x1="4.56969" y1="33.9802" x2="8.52496" y2="33.9802" gradientUnits="userSpaceOnUse">
<stop stop-color="#8F7047"/>
<stop offset="0.509514" stop-color="#DABD9A"/>
<stop offset="1" stop-color="#A58A63"/>
</linearGradient>
<linearGradient id="paint23_linear_577_3656" x1="49.4926" y1="34.0083" x2="53.0258" y2="34.0083" gradientUnits="userSpaceOnUse">
<stop stop-color="#8F7047"/>
<stop offset="0.509514" stop-color="#DABD9A"/>
<stop offset="1" stop-color="#A58A63"/>
</linearGradient>
<linearGradient id="paint24_linear_577_3656" x1="67.4956" y1="33.9897" x2="70.9406" y2="33.9897" gradientUnits="userSpaceOnUse">
<stop stop-color="#8F7047"/>
<stop offset="0.509514" stop-color="#DABD9A"/>
<stop offset="1" stop-color="#A58A63"/>
</linearGradient>
<linearGradient id="paint25_linear_577_3656" x1="132.392" y1="33.9813" x2="135.867" y2="33.9813" gradientUnits="userSpaceOnUse">
<stop stop-color="#8F7047"/>
<stop offset="0.509514" stop-color="#DABD9A"/>
<stop offset="1" stop-color="#A58A63"/>
</linearGradient>
<linearGradient id="paint26_linear_577_3656" x1="86.5191" y1="34.033" x2="89.1507" y2="34.033" gradientUnits="userSpaceOnUse">
<stop stop-color="#8F7047"/>
<stop offset="0.509514" stop-color="#DABD9A"/>
<stop offset="1" stop-color="#A58A63"/>
</linearGradient>
<linearGradient id="paint27_linear_577_3656" x1="128.449" y1="33.9963" x2="129.396" y2="33.9963" gradientUnits="userSpaceOnUse">
<stop stop-color="#8F7047"/>
<stop offset="0.509514" stop-color="#DABD9A"/>
<stop offset="1" stop-color="#A58A63"/>
</linearGradient>
</defs>
</svg>
