<svg width="16" height="16" viewBox="0 0 16 16" fill="none" xmlns="http://www.w3.org/2000/svg">
<g clip-path="url(#clip0_623_1920)">
<path d="M11.5146 16C8.70972 16 5.71444 14.9693 3.3725 12.6275C1.03447 10.2894 0 7.29613 0 4.48541C0 2.00825 2.00413 0 4.48541 0C4.67709 0 4.84944 0.116687 4.92063 0.294656L6.92897 5.3155C7.02513 5.55587 6.90822 5.82866 6.66787 5.92481L4.46172 6.80725C4.61778 9.34531 6.65509 11.3825 9.19275 11.5383L10.0752 9.33219C10.1712 9.09222 10.4438 8.97487 10.6845 9.07106L15.7053 11.0794C15.8833 11.1506 16 11.3229 16 11.5146C16 13.9918 13.9959 16 11.5146 16ZM4.17344 0.950938C2.37819 1.10628 0.9375 2.61172 0.9375 4.48541C0.9375 7.31066 2.03769 9.96681 4.03544 11.9645C6.03316 13.9623 8.68931 15.0625 11.5146 15.0625C13.3877 15.0625 14.8936 13.6226 15.0491 11.8266L10.7716 10.1156L9.94147 12.1908C9.87031 12.3687 9.69794 12.4854 9.50625 12.4854C6.20222 12.4854 3.51459 9.79778 3.51459 6.49425C3.51459 6.30259 3.63128 6.12969 3.80925 6.05853L5.88444 5.22844L4.17344 0.950938Z" fill="url(#paint0_linear_623_1920)"/>
</g>
<defs>
<linearGradient id="paint0_linear_623_1920" x1="-1.12" y1="8" x2="16.8" y2="8" gradientUnits="userSpaceOnUse">
<stop stop-color="#8F7047"/>
<stop offset="0.509514" stop-color="#DABD9A"/>
<stop offset="1" stop-color="#A58A63"/>
</linearGradient>
<clipPath id="clip0_623_1920">
<rect width="16" height="16" fill="white"/>
</clipPath>
</defs>
</svg>
