<svg width="22" height="22" viewBox="0 0 22 22" fill="none" xmlns="http://www.w3.org/2000/svg">
<path d="M7.73796 17.7132C5.51839 17.7132 3.09438 17.1347 1.80936 16.36C2.90941 16.2031 4.76879 15.8207 5.98567 14.9186L6.36533 14.6342L5.83964 14.2813C4.38913 13.3301 0.0473247 10.4767 2.83153 3.14221C4.34046 4.82876 5.87858 6.00541 7.43618 6.64277C8.42915 7.0546 8.78934 7.10363 9.19821 7.15265L9.73364 7.2213L9.74337 6.84869C9.75311 5.99561 10.016 5.18175 10.493 4.48556C10.97 3.78937 11.6417 3.25007 12.4205 2.93629C12.9267 2.73038 13.4621 2.63232 14.0073 2.63232C14.2993 2.63232 14.5914 2.66174 14.8737 2.72057C15.7012 2.89707 16.4508 3.3089 17.0446 3.90704L17.142 4.00509C17.142 4.00509 17.765 4.0149 17.8721 4.0149C18.2615 4.0149 18.7093 3.96587 19.3226 3.69132C19.089 4.76992 18.904 5.29942 18.3783 6.01522L18.3199 6.10347V6.21133C18.3199 15.1049 11.7196 17.1248 9.70443 17.5269C9.12033 17.6543 8.45835 17.7132 7.73796 17.7132ZM3.28907 6.02502C2.71471 9.21181 3.77583 11.5357 6.61844 13.3399L8.26365 14.3793C8.29286 14.3989 8.32207 14.4283 8.34154 14.4577C8.36101 14.4872 8.37074 14.5264 8.37074 14.5656C8.37074 14.6048 8.361 14.6441 8.35127 14.6735C8.3318 14.7029 8.31233 14.7421 8.28312 14.7617L6.05381 16.3992L6.9689 16.4581C7.23175 16.4777 7.49459 16.4777 7.7477 16.4777C8.39021 16.4777 8.97431 16.4287 9.49027 16.3208C14.348 15.3402 17.1322 11.6534 17.1322 6.21133C17.1322 5.60339 16.0711 3.85801 14.0462 3.85801C13.2382 3.85801 12.4789 4.17178 11.9045 4.7405C11.3302 5.30922 11.0089 6.06425 10.9895 6.8781L10.9602 8.36854C10.9602 8.39795 10.9505 8.43717 10.9408 8.46659C10.931 8.49601 10.9116 8.51562 10.8824 8.54504C10.8532 8.56465 10.824 8.58426 10.7948 8.59406L10.6974 8.60387L9.22742 8.40776C7.38751 8.15282 5.5768 7.28994 3.84397 5.83872L3.4059 5.47592L3.28907 6.02502Z" fill="url(#paint0_linear_701_487)"/>
<defs>
<linearGradient id="paint0_linear_701_487" x1="-3.44462" y1="2.63232" x2="21.1782" y2="21.0802" gradientUnits="userSpaceOnUse">
<stop stop-color="#8F7047"/>
<stop offset="0.509514" stop-color="#DABD9A"/>
<stop offset="1" stop-color="#A58A63"/>
</linearGradient>
</defs>
</svg>
