<svg width="98" height="61" viewBox="0 0 98 61" fill="none" xmlns="http://www.w3.org/2000/svg">
<path d="M59.5081 39.7339C58.5961 38.2343 58.1071 36.5918 57.2334 35.1251C56.2583 33.4022 55.1134 31.781 53.8159 30.2857C53.3653 29.7803 52.9642 29.6649 52.4093 30.1868C49.9808 32.4994 47.2775 34.5429 45.3929 37.3828C44.9588 38.031 44.5357 38.6902 44.1127 39.3494C43.6896 40.0086 43.9259 40.3876 44.6951 40.3821C46.1566 40.3821 47.6126 40.3821 49.0906 40.3052C50.1016 40.2612 51.739 41.8762 51.5797 42.8815C51.4972 43.4308 51.0302 43.277 50.6731 43.277C48.2445 43.277 45.8105 43.277 43.3819 43.277C43.1426 43.2569 42.9017 43.2893 42.6762 43.372C42.4508 43.4546 42.2461 43.5856 42.0765 43.7556C41.9069 43.9257 41.7766 44.1307 41.6945 44.3564C41.6125 44.5821 41.5809 44.823 41.6017 45.0622C41.6017 45.7983 42.1951 45.6116 42.5962 45.6116C45.3434 45.6116 48.1291 45.6116 50.8983 45.6116C52.4862 45.6116 53.2884 46.5124 53.1675 48.1164C53.1236 48.6657 52.6895 48.6657 52.3434 48.6657C50.3214 48.6657 48.3049 48.6383 46.2995 48.6108C44.7281 48.6108 43.1566 48.5834 41.5907 48.5504C40.305 48.5504 40.6402 49.5996 40.4918 50.2478C40.327 51.0608 41.0413 50.9784 41.5468 50.9784C45.1786 50.9784 48.8049 50.9784 52.4313 50.9784C53.673 50.9784 53.6071 50.9784 53.6895 52.8186C53.739 53.8403 53.3049 53.9611 52.4478 53.9501C48.8544 53.9117 45.2665 53.9501 41.6731 53.9501C40.2061 53.9501 40.1732 53.9941 40.4094 55.5047C40.5962 56.6748 40.783 57.8503 40.9973 59.2181C40.0578 58.4326 39.9754 57.4163 39.7061 56.5759C37.8998 51.1979 37.9637 45.3676 39.8874 40.0305C41.6072 35.1911 44.6786 31.4447 48.5522 28.1873C52.3544 24.8765 55.1448 20.5601 56.6027 15.7345C58.0607 10.9089 58.1269 5.76992 56.7939 0.908339C56.5851 0.172257 56.8543 0.0678883 57.4697 0.0678883C63.5685 0.0678883 69.6674 -0.0529643 75.7607 0.150282C79.2376 0.169906 82.6805 0.834867 85.9145 2.11134C90.354 4.01746 93.4584 7.00574 94.1891 12.0924C94.8045 16.399 94.1507 20.3321 91.4419 23.7653C89.8409 25.758 87.7012 27.2489 85.2771 28.061L84.6453 28.2862C84.409 28.3796 84.0519 28.396 84.0683 28.7201C84.0848 29.0442 84.453 28.9893 84.6947 29.0442C87.8211 29.7419 90.7771 30.802 93.2496 32.9389C95.2023 34.5838 96.6199 36.7738 97.321 39.2285C98.4184 42.9547 98.1813 46.9468 96.6507 50.5169C94.9089 54.6368 91.6397 57.2241 87.5463 58.8006C83.8378 60.1985 79.8996 60.888 75.9366 60.8331C70.3267 60.8331 64.7169 60.8331 59.107 60.8331C57.8323 60.8331 57.8653 60.8331 58.3378 59.707C58.9616 58.2372 59.4544 56.7151 59.8103 55.1586C59.9917 54.3182 60.2993 53.8348 61.3543 53.8513C65.8432 53.9172 70.3322 53.9337 74.8212 53.8513C77.7387 53.7909 80.6178 53.3898 83.2607 51.9726C86.5244 50.2148 88.1233 47.4463 88.3101 43.8208C88.5848 38.4595 85.6782 34.6692 80.464 33.3838C78.1054 32.8032 75.6843 32.5154 73.2553 32.5269C69.1015 32.5269 64.9532 32.5598 60.7993 32.5269C59.8268 32.5269 59.4697 32.818 59.4971 33.8068C59.5466 35.7788 59.5081 37.7564 59.5081 39.7339ZM68.4202 7.17602H60.9807C59.4862 7.17602 59.4092 7.17602 59.5081 8.62072C59.7275 10.4431 59.7845 12.2814 59.6785 14.1139C59.3158 17.624 59.607 21.1341 59.4971 24.6442C59.4971 25.2759 59.5356 25.7154 60.3653 25.7099C65.1949 25.6714 70.019 25.7483 74.8432 25.633C77.1779 25.5998 79.4464 24.8522 81.3431 23.4907C83.942 21.612 84.7112 18.9259 84.7167 15.8332C84.7167 11.1201 81.7717 8.53283 77.6618 7.64294C74.453 6.92334 71.1949 7.30786 68.4202 7.17602Z" fill="url(#paint0_linear_623_2037)"/>
<path d="M37.7598 37.8166C37.6884 35.8336 37.6884 35.8336 35.628 35.8336C32.7873 35.8336 29.9467 35.8336 27.1006 35.8336C26.7549 35.7954 26.4058 35.8632 26.0997 36.0281C25.7935 36.1929 25.5447 36.4469 25.3863 36.7564C20.716 44.4468 16.0018 52.1098 11.3205 59.7947C11.1565 60.1462 10.8895 60.4396 10.5549 60.6358C10.2202 60.832 9.83379 60.9218 9.44688 60.8933C6.56779 60.8384 3.68869 60.8933 0.809594 60.8603C0.556849 60.8603 0.18322 60.8933 0.0733309 60.7505C-0.146447 60.4648 0.183226 60.2011 0.337071 59.9704C5.53483 51.9871 10.7344 44.0092 15.9358 36.0368C16.6776 34.8997 16.6501 34.8887 15.3864 34.5317C8.72161 32.675 4.10077 28.5716 2.71617 21.7107C1.43047 15.3386 2.56782 9.37308 7.837 4.89068C11.0018 2.19354 14.8259 0.919137 18.8918 0.430247C25.5621 -0.377245 32.2654 0.237984 38.9521 0.0402304C39.6829 0.0402304 39.8367 0.259958 39.6444 0.968573C38.9741 3.44598 38.9961 3.45148 41.529 3.45148C45.3092 3.45148 49.0839 3.45148 52.8641 3.45148C53.2377 3.45148 53.7871 3.26471 53.897 3.83051C54.0509 4.62152 54.375 5.47845 53.9849 6.23101C53.8146 6.58257 53.2981 6.42327 52.9355 6.42327H39.9191C38.7598 6.42327 38.2159 7.26921 38.6774 8.32389C38.9027 8.87321 39.3697 8.67546 39.7433 8.67546C43.1883 8.67546 46.6279 8.67546 50.0674 8.67546C51.1663 8.67546 52.2322 8.76884 53.3201 8.76884C54.0399 8.76884 54.3805 8.99955 54.2047 9.76859C54.1452 10.0615 54.1158 10.3596 54.1168 10.6585C54.0838 11.433 53.7432 11.7571 52.919 11.7296C48.7652 11.6857 44.6132 11.6857 40.4631 11.7296C39.9521 11.7296 39.051 11.2682 39.0345 12.3778C39.007 13.6742 39.3917 14.0258 40.6224 14.0258C44.507 14.0258 48.3971 14.1137 52.2871 14.0807C53.386 14.0807 53.4245 14.4597 53.1882 15.3222C52.7377 16.9701 52.6663 17.0635 50.9355 17.058C47.941 17.058 44.9466 17.058 41.9576 17.058C41.5015 17.058 40.7268 16.646 40.5949 17.4974C40.5689 17.9592 40.7188 18.4136 41.0145 18.7693C41.3101 19.125 41.7295 19.3556 42.1883 19.4146C44.4685 19.4146 46.7542 19.4146 49.0344 19.4146C49.7982 19.4146 50.9355 19.03 51.2322 19.6288C51.5289 20.2275 50.6113 21.024 50.2762 21.7546C50.1749 21.9775 50.002 22.1602 49.785 22.2736C49.568 22.3871 49.3193 22.4248 49.0784 22.3808C47.43 22.3808 45.7817 22.3808 44.1334 22.3808C43.8477 22.3808 43.485 22.2875 43.3532 22.6445C43.2213 23.0016 43.485 23.1334 43.6444 23.3312C44.3642 24.2375 45.0894 25.1439 45.8422 26.0338C46.1389 26.3908 46.3147 26.6545 45.8422 27.0445C42.4661 29.9085 39.7739 33.4915 37.9631 37.5309C37.9082 37.6347 37.8398 37.7307 37.7598 37.8166ZM29.3698 28.9177C31.7983 28.9177 34.2324 28.8847 36.6609 28.9177C37.5071 28.9177 37.7598 28.6101 37.7598 27.8191C37.7268 25.2428 37.7598 22.6665 37.7598 20.0847C37.7529 19.7133 37.6994 19.3442 37.6005 18.9861C36.675 15.3976 36.5121 11.6551 37.1224 7.9998C37.2213 7.32964 37.0455 7.1209 36.3972 7.12639C31.7654 7.16484 27.1171 6.98356 22.5017 7.2747C17.1226 7.61528 12.815 10.3399 12.1447 16.0637C11.7051 19.843 12.4139 23.3202 15.3919 25.9514C17.2528 27.5264 19.5563 28.486 21.9852 28.698C24.4403 28.9156 26.9057 28.9963 29.3698 28.9397V28.9177Z" fill="url(#paint1_linear_623_2037)"/>
<path d="M56.5189 59.542C57.0478 56.8663 57.2526 54.1367 57.1288 51.4121C56.7903 46.0846 54.8567 40.9819 51.5794 36.7674C51.03 36.0808 51.1179 35.7182 51.7333 35.2293C54.6728 32.8948 53.7992 32.6421 55.7552 35.894C58.7002 40.7884 59.6508 46.1936 58.9585 51.8516C58.6537 54.1865 58.0153 56.4656 57.0629 58.6191C56.9029 58.9388 56.7212 59.2472 56.5189 59.542Z" fill="url(#paint2_linear_623_2037)"/>
<defs>
<linearGradient id="paint0_linear_623_2037" x1="34.2242" y1="30.4342" x2="100.981" y2="30.4342" gradientUnits="userSpaceOnUse">
<stop stop-color="#8B8B8B"/>
<stop offset="0.509514" stop-color="#CACACA"/>
<stop offset="1" stop-color="#737373"/>
</linearGradient>
<linearGradient id="paint1_linear_623_2037" x1="-3.79752" y1="30.4492" x2="56.9628" y2="30.4492" gradientUnits="userSpaceOnUse">
<stop stop-color="#8F7047"/>
<stop offset="0.509514" stop-color="#DABD9A"/>
<stop offset="1" stop-color="#A58A63"/>
</linearGradient>
<linearGradient id="paint2_linear_623_2037" x1="50.6577" y1="46.5029" x2="59.5721" y2="46.5029" gradientUnits="userSpaceOnUse">
<stop stop-color="#8F7047"/>
<stop offset="0.509514" stop-color="#DABD9A"/>
<stop offset="1" stop-color="#A58A63"/>
</linearGradient>
</defs>
</svg>
