<svg width="35" height="25" viewBox="0 0 35 25" fill="none" xmlns="http://www.w3.org/2000/svg">
<path d="M28.1117 24.3656H6.8883C3.17296 24.3656 0.15 21.3427 0.15 17.6273V6.8883C0.15 3.17289 3.17296 0.15 6.8883 0.15H28.1117C31.8271 0.15 34.85 3.17289 34.85 6.8883V17.6274C34.85 21.3427 31.8271 24.3656 28.1117 24.3656ZM6.8883 1.90078C4.13808 1.90078 1.90078 4.13801 1.90078 6.8883V17.6274C1.90078 20.3776 4.13808 22.6149 6.8883 22.6149H28.1117C30.862 22.6149 33.0992 20.3776 33.0992 17.6274V6.8883C33.0992 4.13801 30.862 1.90078 28.1117 1.90078H6.8883Z" fill="url(#paint0_linear_744_110)" stroke="#4C4947" stroke-width="0.3"/>
<path d="M13.6782 5.81729L13.6782 5.8173C13.3993 5.97137 13.2262 6.26485 13.2262 6.5835V17.7999C13.2262 18.1167 13.3973 18.4088 13.6737 18.5636C13.8068 18.6382 13.9542 18.6753 14.1016 18.6753C14.2602 18.6753 14.4185 18.6322 14.5587 18.5466L13.6782 5.81729ZM13.6782 5.81729C13.9571 5.66317 14.2978 5.6728 14.5675 5.84244L14.5675 5.84246L23.6058 11.5252C23.8622 11.6863 24.017 11.9686 24.0153 12.2715C24.0135 12.5743 23.8553 12.8547 23.597 13.0129L14.5588 18.5465L13.6782 5.81729ZM15.2068 8.3124L14.977 8.16789V8.43939V15.9698V16.2375L15.2053 16.0977L21.2733 12.3826L21.4795 12.2564L21.2749 12.1277L15.2068 8.3124Z" fill="url(#paint1_linear_744_110)" stroke="#4C4947" stroke-width="0.3"/>
<defs>
<linearGradient id="paint0_linear_744_110" x1="-10.5" y1="-2.79866e-06" x2="31.0666" y2="38.2858" gradientUnits="userSpaceOnUse">
<stop stop-color="#8F7047"/>
<stop offset="0.509514" stop-color="#DABD9A"/>
<stop offset="1" stop-color="#A58A63"/>
</linearGradient>
<linearGradient id="paint1_linear_744_110" x1="9.74943" y1="5.5581" x2="28.608" y2="15.7275" gradientUnits="userSpaceOnUse">
<stop stop-color="#8F7047"/>
<stop offset="0.509514" stop-color="#DABD9A"/>
<stop offset="1" stop-color="#A58A63"/>
</linearGradient>
</defs>
</svg>
