<svg width="85" height="85" viewBox="0 0 85 85" fill="none" xmlns="http://www.w3.org/2000/svg">
<g clip-path="url(#clip0_563_3035)">
<path d="M14.6223 43.4341L1.27568 21.6504C1.07799 21.3262 0.654934 21.2234 0.330722 21.4211C0.329347 21.422 0.328144 21.4227 0.326768 21.4235C0.00513526 21.6219 -0.0961164 22.0425 0.0998546 22.3656L13.4328 44.1974C16.7655 49.6464 17.8689 56.1705 16.5133 62.4124L11.9406 83.4947C11.8602 83.8659 12.0959 84.2318 12.467 84.3123C12.468 84.3125 12.4691 84.3128 12.4701 84.313C12.5181 84.3197 12.5665 84.3197 12.6145 84.313C12.9444 84.3204 13.2328 84.0924 13.3021 83.7698L17.8679 62.6874C19.3146 56.0913 18.1514 49.1914 14.6223 43.4341Z" fill="white"/>
<path d="M53.2049 30.0944L38.0774 0.966946C37.9027 0.628982 37.487 0.496616 37.1491 0.671271C36.8111 0.845926 36.6787 1.26159 36.8534 1.59955L51.981 30.727C56.176 38.8026 57.0613 48.1942 54.4495 56.9115L48.206 83.4673C48.1023 83.8326 48.3146 84.2128 48.6799 84.3163C48.6937 84.3203 48.7076 84.3237 48.7217 84.3268H48.8798C49.2056 84.3356 49.4927 84.1145 49.5674 83.7973L55.8041 57.2759C58.5034 48.2219 57.5711 38.4727 53.2049 30.0944Z" fill="white"/>
<path d="M45.6403 41.2545C44.8564 38.6415 43.0893 36.3449 40.827 33.4363C36.8699 28.5398 33.5584 23.1552 30.9734 17.4148C27.8517 10.4149 27.1022 6.63296 27.0953 6.59858C27.025 6.21884 26.6602 5.96786 26.2805 6.03817C25.9007 6.10848 25.6497 6.47326 25.72 6.853C25.7544 7.01115 26.4971 10.8068 29.7014 17.9718C32.3475 23.8186 35.7355 29.3004 39.7818 34.2821C41.9341 37.0738 43.6325 39.2879 44.3476 41.6602C44.6089 42.5335 45.0352 44.7613 43.66 46.5973C42.2847 48.4332 39.5343 49.2515 35.5805 49.114C33.0157 49.0246 31.331 48.502 30.4302 47.5118C29.3988 46.3841 29.5019 44.6788 29.5913 43.0285C29.5913 42.5885 29.6463 42.1553 29.6463 41.7427C29.7008 38.9683 29.0753 36.2227 27.8242 33.7457L16.3547 11.6388C16.18 11.3009 15.7644 11.1685 15.4264 11.3431C15.0885 11.5178 14.9561 11.9335 15.1307 12.2714L26.5796 34.3783C27.725 36.6542 28.2984 39.1748 28.2505 41.7221C28.2505 42.1209 28.2505 42.5266 28.2023 42.946C28.0923 44.7888 27.9754 46.8792 29.3988 48.447C30.5609 49.7259 32.5618 50.3929 35.5117 50.5098H36.3575C40.3457 50.5098 43.158 49.4784 44.7258 47.443C46.0232 45.6533 46.3647 43.3428 45.6403 41.2545Z" fill="white"/>
<path d="M46.6106 56.0726C45.5881 54.873 43.9524 54.3927 42.4436 54.8486C40.5802 55.3024 36.9771 54.8486 34.2335 54.2641C33.8278 54.1816 33.4152 54.0647 32.9889 53.941C30.8023 53.329 27.8043 52.497 25.9958 56.3751C24.1186 60.3977 27.8661 67.4595 31.3386 72.6717C33.7865 76.3435 31.2905 83.3504 31.2699 83.4191C31.1047 83.761 31.2482 84.1722 31.5901 84.3373C31.932 84.5025 32.3432 84.3591 32.5083 84.017C32.5284 83.9752 32.5444 83.9316 32.5557 83.8867C32.6726 83.5704 35.3062 76.1579 32.4869 71.9084C27.8524 64.936 25.9889 59.6619 27.2473 56.9115C28.5056 54.161 30.1009 54.5254 32.6176 55.2268C33.0714 55.3575 33.5184 55.4812 33.9516 55.5706C35.3268 55.8663 40.1401 56.7808 42.7668 56.1413C43.7821 55.814 44.8943 56.135 45.5792 56.9527C48.034 59.7857 48.034 69.0342 42.478 83.3847C42.3424 83.7378 42.5176 84.1342 42.87 84.2718C42.9484 84.3042 43.0326 84.3206 43.1175 84.3199C43.401 84.319 43.6549 84.1444 43.757 83.8798C48.9073 70.5882 50.0006 59.937 46.6106 56.0726Z" fill="white"/>
<path d="M84.3069 51.5505C84.2995 51.5496 84.2923 51.5488 84.2849 51.5481C83.9072 51.508 83.5686 51.7817 83.5285 52.1594C83.5285 52.1595 83.5285 52.1599 83.5285 52.1601C83.4804 52.607 83.4254 53.054 83.3566 53.494C83.2992 53.8695 83.5571 54.2203 83.9325 54.2776C83.933 54.2778 83.9337 54.2778 83.9342 54.2779H84.0374C84.3803 54.2819 84.6736 54.0324 84.725 53.6935C84.7937 53.2327 84.8556 52.7652 84.9038 52.3182C84.951 51.9414 84.6837 51.5976 84.3069 51.5505Z" fill="white"/>
<path d="M78.2685 66.6688C77.978 66.4238 77.5439 66.4608 77.299 66.7513C77.0102 67.0951 76.7145 67.4389 76.412 67.7552C76.1538 68.0337 76.1701 68.4688 76.4486 68.727C76.5751 68.8444 76.7413 68.9099 76.9139 68.9104C77.1046 68.9097 77.2863 68.8301 77.4159 68.6904C77.7391 68.3465 78.0485 68.0027 78.351 67.6383C78.596 67.3478 78.559 66.9136 78.2685 66.6688Z" fill="white"/>
<path d="M63.368 21.6574C62.9142 21.5473 62.4535 21.4511 61.9928 21.3617C61.6131 21.2895 61.2467 21.5389 61.1745 21.9187C61.1024 22.2984 61.3518 22.6647 61.7315 22.7369C62.1716 22.8194 62.6048 22.9157 63.038 23.0257L63.203 23.0326C63.5828 23.0781 63.9276 22.8072 63.9731 22.4275C64.0187 22.0476 63.7478 21.7029 63.368 21.6574Z" fill="white"/>
<path d="M80.2762 33.5394C80.0149 33.1475 79.7467 32.7624 79.4648 32.3842C79.2624 32.0629 78.8378 31.9665 78.5165 32.1688C78.1953 32.3712 78.0988 32.7958 78.3011 33.117C78.3201 33.1471 78.3412 33.1757 78.3646 33.2023C78.6328 33.5599 78.8872 33.9312 79.1347 34.3025C79.2628 34.4919 79.4768 34.6054 79.7054 34.6051C79.8426 34.6054 79.9767 34.5647 80.0905 34.4882C80.4018 34.2762 80.4847 33.8531 80.2762 33.5394Z" fill="white"/>
<path d="M82.4568 59.5445C82.1131 59.383 81.7035 59.5304 81.5419 59.8741C81.5343 59.8902 81.5275 59.9066 81.5211 59.9232C81.3514 60.3358 81.1658 60.7415 80.9641 61.1403C80.7967 61.4812 80.9373 61.8933 81.2782 62.0607C81.2789 62.0611 81.2798 62.0614 81.2804 62.0617C81.3748 62.1075 81.4783 62.131 81.583 62.1305C81.846 62.131 82.0862 61.9816 82.2018 61.7454C82.4081 61.3191 82.6075 60.8928 82.7863 60.4596C82.9481 60.116 82.8004 59.7063 82.4568 59.5445Z" fill="white"/>
<path d="M59.2003 20.9835C58.7327 20.9423 58.2651 20.9079 57.8251 20.8873C57.4453 20.8721 57.1251 21.1677 57.1099 21.5474C57.0948 21.9271 57.3903 22.2474 57.77 22.2625C58.217 22.2625 58.664 22.3106 59.104 22.3519H59.1384C59.4953 22.3533 59.7939 22.0815 59.826 21.7262C59.8578 21.3483 59.578 21.0162 59.2003 20.9835Z" fill="white"/>
<path d="M84.7734 45.2857C84.7734 45.2851 84.7732 45.2845 84.773 45.2839C84.7111 44.8164 84.6286 44.3557 84.5392 43.9087C84.47 43.5353 84.1112 43.2888 83.7376 43.3581C83.7366 43.3583 83.7356 43.3584 83.7347 43.3586C83.3665 43.4282 83.1219 43.78 83.1846 44.1494C83.2671 44.5894 83.3428 45.0295 83.4047 45.4765C83.453 45.8182 83.7471 46.0713 84.0923 46.0678H84.1954C84.571 46.0114 84.8298 45.6613 84.7734 45.2857Z" fill="white"/>
<path d="M77.6835 30.2113C77.3672 29.8606 77.044 29.5237 76.7071 29.1868C76.4389 28.9202 76.0057 28.9202 75.7375 29.1868C75.468 29.4543 75.4661 29.8895 75.7336 30.1592C75.735 30.1606 75.7362 30.162 75.7375 30.1632C76.0539 30.4795 76.3633 30.7821 76.659 31.1327C76.7889 31.2768 76.9737 31.3591 77.1678 31.3597C77.3381 31.3591 77.5023 31.2955 77.6285 31.1809C77.9109 30.928 77.9355 30.4945 77.6835 30.2113Z" fill="white"/>
<path d="M75.4796 69.684C75.2271 69.3992 74.7915 69.373 74.5066 69.6256C74.1765 69.9212 73.819 70.21 73.482 70.4851C73.1819 70.7178 73.1274 71.1498 73.3602 71.4498C73.4929 71.621 73.6986 71.7195 73.9153 71.7159C74.0703 71.7151 74.2206 71.6618 74.3416 71.5646C74.706 71.269 75.0705 70.9664 75.4211 70.657C75.706 70.4045 75.7321 69.9687 75.4796 69.684Z" fill="white"/>
<path d="M67.3832 22.9776C66.95 22.7988 66.51 22.6338 66.063 22.4757C65.7061 22.3519 65.3163 22.5391 65.1898 22.8951C65.0619 23.2527 65.2482 23.6461 65.6058 23.774C65.607 23.7744 65.608 23.7749 65.6092 23.7752C66.0355 23.9265 66.4481 24.0847 66.8675 24.2497C66.9492 24.2882 67.0386 24.3069 67.1288 24.3047C67.5086 24.3056 67.8171 23.9986 67.8182 23.6188C67.8188 23.3359 67.6463 23.0814 67.3832 22.9776Z" fill="white"/>
<path d="M64.8807 75.8623C64.7779 75.4966 64.3982 75.2836 64.0325 75.3864C64.031 75.3868 64.0294 75.3873 64.028 75.3878C63.6017 75.5116 63.1685 75.6216 62.7353 75.7248C62.3556 75.7665 62.0816 76.1083 62.1233 76.488C62.1651 76.8677 62.5069 77.1418 62.8866 77.1L62.8728 77.0587C62.9253 77.0654 62.9786 77.0654 63.031 77.0587C63.4895 76.9578 63.9478 76.8409 64.4062 76.708C64.7702 76.6046 64.9821 76.2267 64.8807 75.8623Z" fill="white"/>
<path d="M55.742 21.5612C55.72 21.1821 55.3947 20.8926 55.0155 20.9146C55.0147 20.9146 55.0138 20.9148 55.0131 20.9148C54.5111 20.9354 54.0436 20.9767 53.576 21.0248C53.1962 21.0437 52.9038 21.3671 52.9227 21.7468C52.9417 22.1266 53.265 22.419 53.6447 22.4001H53.7204C54.1605 22.3519 54.6074 22.3107 55.0544 22.29C55.4341 22.2907 55.7425 21.9834 55.7432 21.6036C55.7432 21.5894 55.7428 21.5753 55.742 21.5612Z" fill="white"/>
<path d="M82.353 37.2113C82.1536 36.7849 81.9473 36.3655 81.7273 35.9529C81.5492 35.6175 81.1328 35.49 80.7974 35.6681C80.7957 35.6689 80.7938 35.67 80.7921 35.671C80.4586 35.8501 80.3326 36.2649 80.5102 36.5993C80.7233 36.9912 80.9228 37.39 81.1153 37.7957C81.227 38.0373 81.468 38.1925 81.7342 38.1946C81.8363 38.1915 81.9368 38.1681 82.0298 38.1258C82.3709 37.9618 82.5153 37.553 82.353 37.2113Z" fill="white"/>
<path d="M60.8334 76.7665C60.7859 76.3868 60.4395 76.1174 60.0598 76.1648C59.6197 76.2267 59.1728 76.268 58.7258 76.3024C58.3471 76.3314 58.0638 76.662 58.0929 77.0405C58.093 77.0419 58.093 77.0434 58.0932 77.045C58.1188 77.4139 58.4319 77.6965 58.8015 77.6845H58.8565C59.3241 77.6432 59.7916 77.5951 60.2317 77.5401C60.6114 77.4925 60.8808 77.1462 60.8334 76.7665Z" fill="white"/>
<path d="M80.6243 63.2673C80.6229 63.2664 80.6217 63.2658 80.6204 63.2649C80.2974 63.0689 79.8767 63.1702 79.6783 63.4918C79.4445 63.87 79.197 64.2482 78.9426 64.6195C78.728 64.9329 78.8081 65.3607 79.1214 65.5753C79.2382 65.6509 79.3742 65.6915 79.5133 65.6922C79.7383 65.6918 79.9489 65.5813 80.0771 65.3965C80.3453 65.0046 80.5997 64.6126 80.8473 64.2138C81.047 63.891 80.9472 63.4672 80.6243 63.2673Z" fill="white"/>
<path d="M83.6819 55.5918C83.6812 55.5916 83.6803 55.5915 83.6796 55.5913C83.3121 55.4959 82.9367 55.7166 82.8413 56.0842C82.8411 56.0848 82.8409 56.0857 82.8407 56.0864C82.7307 56.5196 82.607 56.9528 82.4763 57.3791C82.335 57.7317 82.5062 58.1319 82.8588 58.2732C82.871 58.278 82.8834 58.2826 82.8958 58.2868C82.9642 58.296 83.0336 58.296 83.102 58.2868C83.4139 58.301 83.6963 58.1033 83.7897 57.8054C83.9272 57.3516 84.0578 56.9046 84.1747 56.4302C84.2701 56.0625 84.0496 55.6872 83.6819 55.5918Z" fill="white"/>
<path d="M71.1654 24.8961V24.8686C70.7597 24.6279 70.354 24.401 69.9346 24.181C69.6002 24.0034 69.1854 24.1294 69.0063 24.4629C68.8287 24.7972 68.9547 25.212 69.2882 25.3912C69.687 25.6066 70.079 25.8359 70.464 26.0788C70.5692 26.1438 70.6909 26.1771 70.8147 26.175C71.1945 26.1749 71.5023 25.867 71.5022 25.4873C71.502 25.2445 71.3741 25.0198 71.1654 24.8961Z" fill="white"/>
<path d="M83.8653 41.1583C83.7277 40.7044 83.5833 40.2575 83.4252 39.8174C83.321 39.4521 82.9406 39.2405 82.5755 39.3447C82.2102 39.4488 81.9985 39.8293 82.1027 40.1944C82.1108 40.2229 82.1208 40.2509 82.1326 40.2781C82.277 40.6976 82.4146 41.1239 82.5452 41.5502C82.6535 41.9148 83.0367 42.1226 83.4013 42.0143C83.7657 41.906 83.9736 41.5227 83.8653 41.1583Z" fill="white"/>
<path d="M68.7528 74.3501C68.6183 73.9949 68.2216 73.8158 67.8664 73.9502C67.8399 73.9602 67.8142 73.9719 67.7891 73.9851C67.3834 74.1708 66.9708 74.3427 66.5514 74.5077C66.1984 74.6478 66.0258 75.0475 66.1658 75.4004C66.1659 75.4007 66.1661 75.4011 66.1663 75.4016C66.2706 75.6634 66.524 75.8351 66.8058 75.8348C66.8929 75.836 66.9796 75.8197 67.0602 75.7867C67.5003 75.6148 67.9266 75.4291 68.3529 75.2366C68.7081 75.1021 68.8872 74.7052 68.7528 74.3501Z" fill="white"/>
<path d="M84.3126 47.4293C83.9329 47.4293 83.625 47.7372 83.625 48.1169C83.625 48.502 83.625 48.8939 83.625 49.2928V49.4509C83.625 49.8307 83.9329 50.1385 84.3126 50.1385C84.6924 50.1385 85.0002 49.8307 85.0002 49.4509V49.3478C85.0002 48.9352 85.0002 48.5226 85.0002 48.1101C84.9965 47.7329 84.6898 47.4291 84.3126 47.4293Z" fill="white"/>
<path d="M74.6235 27.2959C74.2568 26.9979 73.8855 26.7091 73.5096 26.4295C73.2039 26.2036 72.7728 26.2682 72.5469 26.5739C72.321 26.8795 72.3856 27.3106 72.6913 27.5365C73.0489 27.8047 73.3789 28.0797 73.7502 28.3617C74.0445 28.6028 74.4786 28.5597 74.7198 28.2654C74.961 27.9711 74.9178 27.5369 74.6235 27.2959Z" fill="white"/>
<path d="M72.2618 72.2558C72.0549 71.9367 71.6285 71.8459 71.3095 72.0529C70.9382 72.3005 70.5531 72.5342 70.1681 72.7405C69.8377 72.9277 69.7216 73.3473 69.9088 73.6777C70.0317 73.8947 70.2624 74.0281 70.5119 74.0264V74.0401C70.6329 74.0389 70.7515 74.0056 70.8557 73.9439C71.2614 73.7101 71.6671 73.4625 72.059 73.2081C72.378 73.0011 72.4688 72.5746 72.2618 72.2558Z" fill="white"/>
<path d="M66.8267 63.2169C66.6141 62.9017 66.1862 62.8186 65.8709 63.0313C65.5133 63.2788 65.1352 63.5126 64.7501 63.7189C64.4197 63.9061 64.3036 64.3257 64.4909 64.6561C64.6138 64.8731 64.8446 65.0065 65.0939 65.0048C65.2104 65.0054 65.3256 64.9795 65.4308 64.9291C65.8434 64.6884 66.2491 64.434 66.641 64.1727C66.9563 63.9599 67.0393 63.532 66.8267 63.2169Z" fill="white"/>
<path d="M72.1004 56.9527C71.7679 56.7741 71.3536 56.8969 71.1721 57.2278C70.959 57.606 70.732 57.9842 70.4845 58.3555C70.2756 58.6726 70.3635 59.0991 70.6806 59.308C70.7939 59.3826 70.9266 59.422 71.0621 59.4213C71.2921 59.4201 71.5063 59.304 71.6328 59.1119C71.8941 58.7062 72.1417 58.2936 72.3686 57.881C72.5484 57.5503 72.4287 57.1365 72.1004 56.9527Z" fill="white"/>
<path d="M73.4993 53.0239C73.1388 52.9046 72.7498 53.1001 72.6305 53.4607C72.6218 53.4874 72.6145 53.5145 72.609 53.5422C72.499 53.9616 72.3684 54.388 72.2171 54.8005C72.0892 55.1581 72.2755 55.5516 72.6331 55.6795C72.6343 55.6798 72.6353 55.6803 72.6365 55.6807C72.712 55.7068 72.7906 55.7231 72.8703 55.7288C73.1615 55.7276 73.4206 55.5432 73.5167 55.2681C73.6748 54.8212 73.8124 54.3673 73.9361 53.8929C74.0554 53.5322 73.86 53.1434 73.4993 53.0239Z" fill="white"/>
<path d="M69.8278 60.4012C69.5467 60.1449 69.1111 60.1648 68.8548 60.4459C68.5591 60.7691 68.2497 61.0854 67.9334 61.3879C67.6667 61.6561 67.6667 62.0893 67.9334 62.3575C68.063 62.4972 68.2447 62.5768 68.4353 62.5775C68.6114 62.5787 68.7812 62.5122 68.9098 62.3919C69.2192 62.0618 69.5562 61.7249 69.8725 61.3742C70.1288 61.0931 70.1088 60.6575 69.8278 60.4012Z" fill="white"/>
<path d="M63.2677 65.2764C63.1367 64.9194 62.7412 64.7363 62.3841 64.8673C61.9716 65.0186 61.5521 65.1561 61.1258 65.2799C60.7619 65.3833 60.5499 65.7612 60.6513 66.1256C60.7419 66.4036 60.9984 66.5941 61.2908 66.6001C61.3546 66.6101 61.4196 66.6101 61.4833 66.6001C61.9372 66.4763 62.3979 66.325 62.8586 66.16C63.2156 66.0288 63.3987 65.6333 63.2677 65.2764Z" fill="white"/>
<path d="M74.363 46.8242C74.3011 46.3566 74.2118 45.8821 74.1086 45.4489C74.0251 45.0692 73.6495 44.829 73.2697 44.9126C72.89 44.9961 72.6498 45.3717 72.7334 45.7515C72.8572 46.1365 72.9328 46.5972 72.9947 47.0098C73.043 47.3516 73.3371 47.6046 73.6823 47.6012H73.7786C74.1545 47.5479 74.4161 47.2001 74.363 46.8242Z" fill="white"/>
<path d="M73.2626 42.6513C73.2625 42.651 73.2623 42.6505 73.2621 42.6501C73.0833 42.2101 72.8908 41.77 72.6777 41.3437C72.4982 41.009 72.0813 40.8831 71.7466 41.0626C71.4264 41.2343 71.295 41.6254 71.4467 41.9556C71.6392 42.3751 71.818 42.7808 71.983 43.159C72.0873 43.4208 72.3407 43.5925 72.6225 43.5922C72.7096 43.5924 72.7959 43.576 72.8769 43.544C73.23 43.4041 73.4027 43.0044 73.2626 42.6513Z" fill="white"/>
<path d="M71.2168 38.9282C71.2156 38.9265 71.2143 38.925 71.2133 38.9232C70.9383 38.5382 70.6426 38.1531 70.34 37.7955C70.097 37.5031 69.6629 37.4631 69.3705 37.7062C69.0781 37.9492 69.038 38.3833 69.2811 38.6757C69.563 39.0126 69.8381 39.3633 70.0925 39.7209C70.3115 40.0294 70.7385 40.1032 71.0483 39.8859C71.3593 39.6681 71.4347 39.2394 71.2168 38.9282Z" fill="white"/>
<path d="M73.8395 48.9764C73.4598 48.9764 73.1519 49.2843 73.1519 49.6641C73.1519 50.1041 73.1519 50.5442 73.0762 50.9774C73.048 51.3477 73.319 51.6735 73.6882 51.7132H73.757C74.1115 51.7149 74.4092 51.4471 74.4446 51.0943C74.4859 50.6267 74.5134 50.1454 74.5271 49.6641C74.5271 49.2841 74.2192 48.9764 73.8395 48.9764Z" fill="white"/>
<path d="M68.3325 35.7604C67.9749 35.4509 67.6036 35.1484 67.2185 34.8665C66.9129 34.6406 66.4818 34.7052 66.2559 35.0109C66.03 35.3165 66.0946 35.7477 66.4003 35.9735C66.7578 36.2348 67.1016 36.5168 67.4317 36.7987C67.5581 36.9068 67.7193 36.9654 67.8855 36.9637C68.0831 36.9635 68.2709 36.8783 68.4012 36.7299C68.6498 36.443 68.619 36.0091 68.3325 35.7604Z" fill="white"/>
<path d="M60.7751 31.8341C60.3144 31.7241 59.84 31.6278 59.3999 31.559C59.0251 31.4973 58.6714 31.7512 58.6098 32.1258C58.6096 32.1272 58.6095 32.1284 58.6091 32.1298C58.5271 32.5006 58.7614 32.8676 59.1322 32.9496C59.1412 32.9516 59.1501 32.9534 59.1592 32.9549C59.5924 33.0237 60.0256 33.1131 60.4519 33.2093H60.617C60.9967 33.253 61.34 32.9805 61.3837 32.6008C61.4273 32.2209 61.1549 31.8778 60.7751 31.8341Z" fill="white"/>
<path d="M59.2564 66.3546C59.2564 66.3539 59.2562 66.353 59.2562 66.3523C59.2133 65.975 58.8726 65.7039 58.4952 65.7471C58.4945 65.7471 58.4937 65.7472 58.493 65.7472C58.0873 65.8504 57.661 65.8504 57.2071 65.8504C56.8274 65.8504 56.5195 66.1583 56.5195 66.538C56.5195 66.9177 56.8274 67.2256 57.2071 67.2256H57.2278C57.7022 67.2256 58.1767 67.1706 58.6511 67.1156C59.0283 67.0726 59.2994 66.7319 59.2564 66.3546Z" fill="white"/>
<path d="M64.7906 33.3606C64.3643 33.1406 63.9242 32.9411 63.491 32.7555C63.1398 32.6092 62.7365 32.7756 62.5902 33.1268C62.4439 33.478 62.6103 33.8813 62.9615 34.0276C63.3603 34.1926 63.766 34.3851 64.158 34.5846C64.2558 34.6348 64.3643 34.6607 64.4743 34.6602C64.854 34.6617 65.1631 34.3551 65.1646 33.9753C65.1657 33.7163 65.0211 33.4787 64.7906 33.3606Z" fill="white"/>
<path d="M61.5764 53.8757C61.322 53.5928 60.8864 53.5697 60.6034 53.8242C60.2945 54.0856 59.9605 54.316 59.6064 54.5118C59.2798 54.7055 59.1721 55.1274 59.3659 55.454C59.4884 55.6606 59.71 55.7883 59.9502 55.7907V55.8251C60.0707 55.826 60.1891 55.7952 60.294 55.7357C60.7334 55.4827 61.1458 55.1855 61.5248 54.8487C61.8078 54.5941 61.8308 54.1585 61.5764 53.8757Z" fill="white"/>
<path d="M61.7973 44.0433C61.7936 44.0397 61.7899 44.0361 61.7861 44.0324C61.4246 43.6794 61.0283 43.3637 60.6034 43.0904C60.2953 42.8685 59.8656 42.9383 59.6435 43.2465C59.4214 43.5547 59.4913 43.9843 59.7996 44.2064C59.8193 44.2207 59.8396 44.2337 59.8608 44.2458C60.207 44.4691 60.5295 44.7271 60.8234 45.0159C61.0909 45.2855 61.5262 45.2874 61.7959 45.0199C61.7973 45.0185 61.7986 45.0173 61.7998 45.0159C62.0677 44.7464 62.0665 44.3111 61.7973 44.0433Z" fill="white"/>
<path d="M63.8969 48C63.8023 47.4984 63.6571 47.0078 63.4637 46.5354C63.3428 46.1754 62.953 45.9815 62.593 46.1023C62.233 46.2232 62.0391 46.6131 62.16 46.973C62.1689 46.9997 62.1794 47.0258 62.1916 47.0511C62.3444 47.4332 62.4596 47.8293 62.5354 48.2338C62.5959 48.5645 62.8868 48.8031 63.223 48.7976H63.3468C63.7181 48.728 63.9638 48.3718 63.8969 48Z" fill="white"/>
<path d="M63.3338 50.1731C63.3335 50.1731 63.3333 50.1729 63.3329 50.1729C62.9666 50.0729 62.5884 50.2886 62.4884 50.6549C62.4822 50.6773 62.4772 50.7001 62.4734 50.723C62.3796 51.1235 62.2436 51.5131 62.0677 51.8851C61.9165 52.227 62.0662 52.6272 62.4047 52.7859C62.4958 52.8259 62.5939 52.8471 62.6935 52.8477C62.9604 52.8496 63.2044 52.6968 63.3192 52.4558C63.5452 51.9893 63.7226 51.5009 63.8487 50.9981C63.9343 50.6279 63.7037 50.2587 63.3338 50.1731Z" fill="white"/>
<path d="M40.9997 45.167C39.7614 44.3422 38.291 43.9372 36.8052 44.0118C35.3194 43.9372 33.849 44.3422 32.6107 45.167C32.3164 45.4082 32.2733 45.8422 32.5145 46.1365C32.7556 46.4308 33.1897 46.474 33.484 46.2328C34.4786 45.6181 35.6378 45.3229 36.8052 45.387C37.9726 45.3229 39.1317 45.6181 40.1264 46.2328C40.4207 46.474 40.8547 46.4308 41.0959 46.1365C41.3371 45.8422 41.294 45.408 40.9997 45.167Z" fill="white"/>
<path d="M43.3437 58.7406C43.1571 58.4107 42.7389 58.2938 42.4085 58.4793C41.5008 58.9882 39.658 59.2357 37.7946 59.1669C35.9311 59.0982 34.1296 58.5962 33.2838 57.9911C32.9776 57.7709 32.5512 57.8385 32.328 58.1424C32.1039 58.4489 32.1704 58.8792 32.4769 59.1033C32.4778 59.1039 32.4784 59.1045 32.4793 59.1051C33.552 59.8752 35.5117 60.4115 37.7189 60.5422C38.0421 60.5422 38.3653 60.5422 38.6816 60.5422C40.1973 60.5975 41.7045 60.296 43.0824 59.662C43.4042 59.476 43.5199 59.0677 43.3437 58.7406Z" fill="white"/>
<path d="M50.0143 39.4323H49.8974C48.8 39.4285 47.9071 40.3152 47.9033 41.4126C47.9033 41.4148 47.9033 41.4172 47.9033 41.4195V48.8457C47.9033 49.9432 48.7931 50.833 49.8905 50.833C49.8928 50.833 49.8952 50.833 49.8974 50.833H50.0143C51.1117 50.833 52.0015 49.9432 52.0015 48.8457V41.4195C52.0015 40.3219 51.1117 39.4323 50.0143 39.4323ZM50.6263 48.8457C50.6263 49.1837 50.3523 49.4577 50.0143 49.4577H49.8974C49.5594 49.4615 49.2823 49.1906 49.2786 48.8526C49.2786 48.8504 49.2786 48.848 49.2786 48.8457V41.4195C49.2786 41.0815 49.5526 40.8075 49.8905 40.8075C49.8928 40.8075 49.8952 40.8075 49.8974 40.8075H50.0143C50.3523 40.8075 50.6263 41.0815 50.6263 41.4195V48.8457Z" fill="white"/>
<path d="M14.5196 35.5953L12.8762 32.9342C12.6813 32.6083 12.2591 32.5021 11.9332 32.6968C11.9313 32.698 11.9292 32.6992 11.9273 32.7004C11.6081 32.9011 11.5099 33.3212 11.7073 33.6425L13.3507 36.2829C13.5491 36.6046 13.9697 36.7058 14.2927 36.5099C14.5982 36.3128 14.6976 35.9121 14.5196 35.5953Z" fill="white"/>
<path d="M10.403 28.9087C10.4022 28.9073 10.4015 28.9061 10.4006 28.9047L4.74842 19.78C4.56483 19.4476 4.14659 19.3269 3.81412 19.5105C3.80914 19.5132 3.80433 19.516 3.79951 19.5187C3.47685 19.7192 3.37783 20.1431 3.57827 20.4656C3.57862 20.4663 3.57913 20.467 3.57947 20.4677L9.23169 29.6267C9.43007 29.9484 9.85072 30.0496 10.1737 29.8536C10.4979 29.6561 10.6007 29.2331 10.403 28.9087Z" fill="white"/>
</g>
<defs>
<clipPath id="clip0_563_3035">
<rect width="85" height="85" fill="white"/>
</clipPath>
</defs>
</svg>
