<svg width="80" height="80" viewBox="0 0 80 80" fill="none" xmlns="http://www.w3.org/2000/svg">
<g clip-path="url(#clip0_563_3406)">
<path d="M8.89209 27.5789C8.88778 27.5762 8.88346 27.5736 8.87898 27.571C8.57849 27.3887 8.18716 27.4829 8.00261 27.7821C7.44368 28.7164 6.98487 29.707 6.63368 30.7375C6.28953 31.7608 6.03269 32.8115 5.86605 33.8784C5.67191 35.1203 5.58203 36.3763 5.59738 37.6333C5.59738 37.9866 5.8838 38.273 6.23707 38.273C6.59034 38.273 6.87676 37.9866 6.87676 37.6333C6.86045 36.4469 6.94616 35.2612 7.13263 34.0895C7.28584 33.096 7.52572 32.1178 7.84908 31.1661C8.16349 30.2208 8.58185 29.3132 9.09647 28.4602C9.28342 28.1602 9.19179 27.7657 8.89209 27.5789Z" fill="white"/>
<path d="M7.74954 43.8557C7.74842 43.852 7.7473 43.8482 7.74618 43.8445C7.51637 43.0022 7.33278 42.148 7.19605 41.2858C7.13735 40.9381 6.80823 40.7033 6.4604 40.7612C6.11305 40.8169 5.87573 41.1428 5.92946 41.4905C6.07659 42.386 6.2749 43.288 6.51158 44.1771C6.58882 44.4645 6.85397 44.6607 7.15127 44.6505C7.20628 44.6602 7.26257 44.6602 7.31759 44.6505C7.65646 44.5504 7.84981 44.1944 7.74954 43.8557Z" fill="white"/>
<path d="M31.7589 23.7707C31.6788 23.4267 31.3348 23.2127 30.9908 23.2928C30.9766 23.2962 30.9625 23.3 30.9485 23.3042C28.821 23.9688 26.8238 24.9945 25.0441 26.3363C24.3809 26.8484 23.4556 26.8484 22.7924 26.3363C22.1472 25.8439 21.4697 25.3951 20.7646 24.9929C20.4589 24.8193 20.0702 24.925 19.8947 25.2296C19.7123 25.5301 19.8065 25.9214 20.1057 26.106C20.7617 26.4761 21.3902 26.893 21.9864 27.3534C23.1163 28.2283 24.6947 28.2283 25.8246 27.3534C27.4716 26.1142 29.3166 25.1626 31.2811 24.5388C31.6253 24.4586 31.8391 24.1147 31.7589 23.7707Z" fill="white"/>
<path d="M79.7563 48.7445C79.7595 48.7212 79.7595 48.6975 79.7563 48.6741C80.3488 46.3139 79.8484 43.8124 78.3938 41.8615C75.4512 37.6651 69.0863 34.7545 61.3653 34.0765C55.7168 33.5839 50.2667 34.7162 46.435 36.8911C46.3198 28.1018 42.4113 21.4554 36.3471 19.7986C32.7073 18.8199 28.6708 19.8306 25.0182 22.6388C24.3528 23.1442 23.4319 23.1442 22.7665 22.6388C19.1011 19.8306 15.0903 18.8007 11.4376 19.7986C3.23684 21.9992 -0.786799 33.6095 2.45642 45.6996C3.18054 48.4162 4.2557 51.0268 5.65486 53.4654C3.99167 53.5422 2.2965 53.6701 0.569339 53.8748C0.243738 53.9108 -0.00190193 54.187 1.71348e-05 54.5145V68.1974C-0.00254162 68.5507 0.2818 68.8392 0.635067 68.8417C0.662254 68.8419 0.689441 68.8405 0.716467 68.8371L0.710071 68.8307C16.1777 67.0204 29.1122 70.5195 39.5071 73.3085C42.7567 74.1849 45.8336 75.0165 48.6739 75.605C50.8629 76.0549 53.0919 76.2821 55.3266 76.2831C67.4039 76.2831 77.8116 69.6879 79.7563 62.4146C79.7651 62.3596 79.7651 62.3033 79.7563 62.2483V48.7445ZM4.47143 67.2123C3.42235 67.2763 2.36047 67.3594 1.273 67.4746V55.0774C2.35407 54.9623 3.41595 54.8791 4.47143 54.8087V67.2123ZM3.69102 45.367H3.68462C0.620514 33.9677 4.24754 23.0546 11.7639 21.0588C15.0071 20.1824 18.6405 21.1164 21.9989 23.6751C23.1279 24.5523 24.708 24.5523 25.837 23.6751C29.1762 21.1164 32.8032 20.1824 36.072 21.0588C41.6373 22.5557 45.3155 29.2212 45.2323 37.6459C45.2293 37.665 45.2293 37.6845 45.2323 37.7035C43.2109 39.0724 41.7908 40.7804 41.2919 42.6995C41.0984 43.4169 41.0635 44.1677 41.1895 44.9V52.717C40.2364 54.5721 38.8674 56.747 38.1254 57.924C29.4448 55.6148 19.1203 53.0688 7.10695 53.4398C5.59217 50.9239 4.44217 48.2059 3.69102 45.367ZM41.1767 55.3525V58.7492L39.8398 58.391L39.392 58.2695C39.8782 57.5018 40.5306 56.4591 41.1767 55.3525ZM76.3276 66.2975V62.0116C76.3276 61.6584 76.0411 61.3719 75.6879 61.3719C75.3346 61.3719 75.0482 61.6584 75.0482 62.0116V67.4554C75.0488 67.5342 75.064 67.6123 75.093 67.6857C73.1267 69.6066 70.8325 71.16 68.3187 72.2722V67.4298C68.3187 67.0765 68.0323 66.7901 67.679 66.7901C67.3257 66.7901 67.0393 67.0765 67.0393 67.4298V72.8224C64.8746 73.6845 62.6192 74.2983 60.3162 74.6519V69.5344C60.3162 69.1811 60.0298 68.8947 59.6765 68.8947C59.3232 68.8947 59.0368 69.1811 59.0368 69.5344V74.8502C56.8038 75.1033 54.5507 75.1227 52.3137 74.9077V69.5344C52.3137 69.1811 52.0273 68.8947 51.674 68.8947C51.3207 68.8947 51.0343 69.1811 51.0343 69.5344V74.7542C50.3307 74.6583 49.6334 74.5431 48.9297 74.4024C47.4585 74.0953 45.9104 73.7243 44.3048 73.3085V68.0311C44.3048 67.6778 44.0184 67.3914 43.6651 67.3914C43.3118 67.3914 43.0254 67.6778 43.0254 68.0311V72.9759L39.827 72.1251L36.2895 71.1784V66.1312C36.2895 65.778 36.0031 65.4915 35.6498 65.4915C35.2966 65.4915 35.0101 65.778 35.0101 66.1312V70.8393C32.8608 70.2892 30.6155 69.7391 28.2806 69.2465V64.129C28.2806 63.7757 27.9942 63.4893 27.6409 63.4893C27.2877 63.4893 27.0012 63.7757 27.0012 64.129V68.9778C24.8391 68.5428 22.6002 68.1526 20.2781 67.8392V62.5234C20.2781 62.1701 19.9917 61.8837 19.6384 61.8837C19.2852 61.8837 18.9987 62.1701 18.9987 62.5234V67.6409C16.8238 67.385 14.5785 67.1995 12.2692 67.1099V61.8005C12.2692 61.4473 11.9828 61.1608 11.6295 61.1608C11.2763 61.1608 10.9899 61.4473 10.9899 61.8005V67.078C10.4269 67.078 9.85761 67.078 9.28189 67.078C8.11765 67.078 6.93423 67.078 5.73162 67.1675V54.7192C18.986 54.0795 30.2509 57.118 39.4943 59.6192C42.744 60.4956 45.8209 61.3272 48.6611 61.9093C61.6595 64.596 74.1718 58.9347 78.4897 51.6743L78.5025 62.178C78.055 63.6806 77.3159 65.0804 76.3276 66.2975ZM59.5997 45.4885C59.3439 46.4352 57.4696 47.35 55.1795 47.1517C53.4459 47.0429 51.9619 46.4032 51.335 45.4757C51.0802 45.1575 50.9922 44.737 51.0983 44.3435C51.5908 42.4884 54.9364 41.145 58.3779 41.4777C61.2309 41.7271 63.649 42.8082 64.6916 44.2859C65.1449 44.8744 65.3008 45.6395 65.1138 46.3585C64.7108 47.8745 63.1948 49.1731 61.0518 50.0431L60.8791 45.6548C60.881 45.3273 60.6354 45.0511 60.3098 45.0151H60.2394C59.9421 45.0049 59.677 45.2011 59.5997 45.4885ZM59.7916 50.4653C57.7168 51.0704 55.5483 51.2873 53.3948 51.105C52.6415 51.0386 51.8921 50.934 51.1495 50.7915L51.1175 47.0429C52.2883 47.8678 53.6665 48.3485 55.0963 48.4311C56.6946 48.6188 58.3088 48.2531 59.6701 47.3948L59.7916 50.4653ZM53.2476 52.3715V52.3523C58.282 52.7937 62.9389 51.3097 65.1458 48.8085V59.8367C62.6734 60.6323 60.1124 61.1201 57.5207 61.2888V57.5466C57.5207 57.1933 57.2343 56.9069 56.8811 56.9069C56.5278 56.9069 56.2414 57.1933 56.2414 57.5466V61.3272C53.9855 61.3868 51.7297 61.2067 49.5119 60.7898V57.0413C49.5119 56.688 49.2254 56.4016 48.8722 56.4016C48.5189 56.4016 48.2325 56.688 48.2325 57.0413V60.5276C46.403 60.1309 44.4711 59.6448 42.4753 59.1074V47.6826C44.4903 50.1966 48.4628 51.9557 53.2476 52.3715ZM78.5217 48.4119C77.3319 52.8897 72.7005 57.0285 66.4252 59.3697V46.5248C66.4282 46.4886 66.4282 46.4522 66.4252 46.416C66.6149 45.4154 66.3835 44.381 65.7855 43.5566C64.5061 41.7463 61.8067 40.4925 58.5315 40.2047C54.3671 39.84 50.5737 41.4841 49.9021 44.0428C49.8061 44.4314 49.8061 44.8376 49.9021 45.2262V50.5164C46.8572 49.704 44.4903 48.3223 43.2109 46.5568C42.8361 46.0385 42.5727 45.4482 42.4369 44.8232C42.3206 44.2377 42.3426 43.6332 42.5009 43.0577C43.8506 38.0105 52.2625 34.5626 61.2565 35.3494C68.4978 35.9891 74.69 38.759 77.3511 42.5971C78.6053 44.2565 79.0362 46.3965 78.5217 48.4119Z" fill="white"/>
<path d="M43.3513 3.92162C43.2307 3.7916 43.0617 3.71756 42.8843 3.71692C42.4749 3.71692 32.8156 3.79368 28.7472 7.55505C24.6788 11.3164 23.892 20.9885 23.86 21.3659C23.86 21.3659 23.86 21.4235 23.86 21.4555C23.8501 21.5019 23.8501 21.5498 23.86 21.5962C23.8716 21.6347 23.8889 21.6714 23.9112 21.705C23.9265 21.7432 23.9457 21.7796 23.9687 21.8137L24.0711 21.9033C24.0954 21.9261 24.121 21.9476 24.1478 21.9672H24.1862C24.2475 21.9931 24.3121 22.0104 24.3781 22.0184H24.4549C24.5269 22.0176 24.5983 22.0046 24.666 21.98H24.7172C24.7699 21.9541 24.8193 21.9218 24.8643 21.8841C24.9092 21.8428 24.9479 21.7955 24.9794 21.7433C27.9158 17.3021 31.7243 13.5043 36.174 10.5808C36.4503 10.3607 36.4961 9.9582 36.276 9.68185C36.0793 9.43477 35.7316 9.36824 35.4575 9.52529C31.645 12.0896 28.2729 15.2545 25.472 18.8967C25.9709 15.8198 27.1352 10.8239 29.6172 8.52098C32.7261 5.63598 39.8906 5.11784 42.1743 5.02828C41.912 7.29917 40.8949 14.4061 37.7604 17.2911C37.5116 17.5303 37.4975 17.9238 37.7284 18.1803C37.968 18.4398 38.3727 18.456 38.6323 18.2164C38.6337 18.215 38.6352 18.2137 38.6368 18.2123C42.6988 14.4189 43.492 4.82358 43.524 4.40778C43.5373 4.22867 43.4746 4.05228 43.3513 3.92162Z" fill="white"/>
<path d="M24.5956 8.54013C24.4522 8.40884 24.2567 8.34999 24.0647 8.38021L20.9238 8.85998C20.5795 8.91275 20.3407 9.23116 20.3865 9.57643L21.8961 20.4511C21.9411 20.7691 22.2147 21.0045 22.5358 21.0013H22.619C22.9692 20.9552 23.2158 20.6339 23.1698 20.2837C23.1696 20.2819 23.1693 20.2802 23.1691 20.2784L21.7426 10.0434L23.4762 9.77473L23.2587 12.858C23.2403 13.2044 23.5013 13.5025 23.8472 13.5297C24.1984 13.5516 24.5013 13.2858 24.5252 12.9348L24.8003 9.05828C24.8149 8.86334 24.7394 8.67255 24.5956 8.54013Z" fill="white"/>
</g>
<defs>
<clipPath id="clip0_563_3406">
<rect width="80" height="80" fill="white"/>
</clipPath>
</defs>
</svg>
