<svg width="80" height="80" viewBox="0 0 80 80" fill="none" xmlns="http://www.w3.org/2000/svg">
<path d="M45.9333 18.8077L44.6796 11.085C44.6248 10.7433 44.3032 10.5107 43.9612 10.5655C43.7925 10.5927 43.6422 10.6875 43.545 10.828C42.1334 12.752 40.1928 14.2241 37.9599 15.0655C37.0453 15.3715 36.0447 14.9606 35.6092 14.1002C33.7719 10.2686 32.2744 6.28344 31.1336 2.19017C31.1055 1.84509 30.8029 1.58824 30.4578 1.61629C30.1128 1.64434 29.8559 1.94695 29.884 2.29203C29.8909 2.37696 29.915 2.45971 29.9551 2.53493C31.1184 6.70374 32.6455 10.7625 34.5185 14.6643C35.24 16.0781 36.8866 16.7523 38.3924 16.2502C40.4309 15.5148 42.2536 14.2824 43.6955 12.6647L44.6483 18.6886L28.3002 34.8799C28.1644 35.0146 28.0975 35.2039 28.1185 35.394C28.4678 38.6324 30.4597 41.4629 33.3902 42.8847C20.7543 44.8455 11.4286 55.7166 11.4131 68.5037C11.4061 72.1052 12.1578 75.6679 13.6196 78.9594C13.7596 79.2761 14.1297 79.4194 14.4463 79.2794C14.4466 79.2793 14.4467 79.2793 14.447 79.2791C14.7638 79.1392 14.907 78.769 14.7671 78.4525C14.7669 78.4522 14.7669 78.452 14.7667 78.4517C9.26918 65.9913 14.9137 51.4334 27.3741 45.9359C30.5117 44.5515 33.9036 43.8369 37.333 43.8375H37.5462C37.8923 43.8375 38.173 43.5568 38.173 43.2107C38.173 42.8645 37.8923 42.5838 37.5462 42.5838C33.4588 42.5981 29.9843 39.6019 29.3972 35.5569L45.7578 19.3531C45.9009 19.2103 45.9662 19.0072 45.9333 18.8077Z" fill="white"/>
<path d="M64.6376 33.4257C62.4123 31.4762 63.0392 29.2635 63.9105 26.2045C64.5257 24.3232 64.876 22.3654 64.951 20.3874C64.951 11.6116 59.1339 3.81996 56.6454 0.478899L56.4824 0.253236C56.2746 -0.0253947 55.8803 -0.0829074 55.6017 0.124734C55.3231 0.332532 55.2654 0.726815 55.4732 1.00545L55.6424 1.23111C58.0495 4.46561 63.6974 12.0504 63.6974 20.3874C63.6217 22.2489 63.2861 24.0909 62.7007 25.8597C61.8168 28.9688 60.9831 31.9025 63.8039 34.3597C67.565 37.6694 67.5086 39.8383 67.1387 41.6122C66.9695 42.4585 66.1859 43.593 65.2582 44.9094C63.7287 47.1284 61.8607 49.8552 61.4971 53.1461C59.8581 52.7488 58.3623 51.9023 57.1782 50.7014C56.8209 48.006 58.9835 40.5591 60.0554 37.262C60.5716 37.6484 61.0483 38.0851 61.4783 38.5658C61.5984 38.6987 61.7694 38.774 61.9485 38.7726C62.2946 38.7687 62.5722 38.4849 62.5683 38.1387C62.5665 37.9889 62.5112 37.8446 62.4123 37.7321C61.0729 36.3272 59.4743 35.1948 57.7048 34.3973C56.357 33.7015 55.1974 33.106 54.4891 32.0905C52.7088 29.5267 53.6804 27.3955 54.8025 24.932C55.9245 22.4685 57.2284 19.6226 55.2225 16.2628C54.2885 14.6831 52.2575 12.9907 49.9068 11.0286C46.4655 8.15771 42.554 4.89813 40.8553 1.04306C40.715 0.726345 40.3445 0.583112 40.0278 0.723367C39.7111 0.863623 39.5679 1.23409 39.7081 1.5508C41.526 5.66915 45.5566 9.02902 49.1108 12.0002C51.3737 13.8808 53.3231 15.5168 54.1255 16.9084C55.7866 19.7041 54.7523 21.9984 53.6366 24.4305C52.5208 26.9943 51.2671 29.6584 53.461 32.8114C54.3449 34.0651 55.7051 34.7797 57.1343 35.5193C57.7612 35.8328 58.388 36.1462 59.0149 36.5348C58.5196 38.033 55.3792 47.7553 56.006 51.1026C56.5075 53.8168 58.1247 56.1173 59.6918 58.3552C61.0584 60.3046 62.475 62.3168 63.0831 64.5421C64.3367 69.2434 63.4466 75.493 58.5008 78.8529C58.2134 79.0459 58.1371 79.4354 58.3302 79.7228C58.4469 79.8964 58.6427 80.0005 58.8519 80C58.9769 80.0003 59.0992 79.9632 59.2029 79.8934C64.6627 76.1825 65.6907 69.3437 64.2866 64.2224C63.6221 61.784 62.1491 59.6841 60.7199 57.6468C59.6016 56.1697 58.6414 54.5792 57.8552 52.9016C59.1166 53.7264 60.5327 54.2852 62.0174 54.544H62.0989C62.2462 54.5426 62.3882 54.4893 62.5001 54.3935C62.6352 54.2813 62.7171 54.1176 62.7258 53.9422C62.8762 50.6826 64.8006 47.8806 66.3426 45.6303C67.3268 44.2074 68.173 42.9725 68.3987 41.8692C68.8688 39.5938 68.7372 36.9924 64.6376 33.4257Z" fill="white"/>
<path d="M43.0561 60.4676C42.4292 59.9097 42.5734 58.6936 42.6549 57.8035C42.6549 57.4964 42.7113 57.2206 42.7113 56.9949C42.7113 52.7261 39.4454 49.2534 35.4274 49.2534C31.4093 49.2534 28.1623 52.7575 28.1623 57.0263C28.2864 58.2125 28.6263 59.3661 29.1652 60.43C29.3032 60.7622 29.4411 61.1007 29.5727 61.4455C29.1513 61.4908 28.7327 61.5597 28.319 61.6523L28.0871 60.9127C27.7664 59.9462 26.8185 59.3316 25.8054 59.4333C25.303 59.489 24.8507 59.1268 24.7951 58.6244C24.7808 58.4957 24.794 58.3655 24.8338 58.2423L25.1221 57.3459C25.5432 56.3392 25.4326 55.1887 24.8275 54.2807C23.9562 53.0709 22.201 52.7512 21.3047 52.7512C20.9585 52.7512 20.6778 53.0319 20.6778 53.378C20.6778 53.7242 20.9585 54.0049 21.3047 54.0049C22.0193 54.0049 23.2792 54.2744 23.812 55.0141C24.1626 55.6057 24.2024 56.3309 23.9186 56.9573L23.6302 57.86C23.2631 59.0038 23.8927 60.2286 25.0366 60.5958C25.3269 60.689 25.6338 60.7201 25.937 60.687C26.368 60.6414 26.7724 60.9025 26.9086 61.3138L27.1343 62.0222C26.1724 62.3589 25.2771 62.8617 24.489 63.5078C24.1761 63.1157 23.7299 62.8524 23.2353 62.7681C22.4886 62.7238 21.774 63.0764 21.3548 63.6958C19.8692 65.4698 19.8943 68.5977 21.4112 70.0081C21.7389 70.357 22.1872 70.5676 22.6649 70.5974C22.7295 70.6035 22.7947 70.6035 22.8592 70.5974C23.4945 70.4167 24.012 69.9545 24.2633 69.3437C24.2995 69.2788 24.3393 69.2161 24.3824 69.1556C24.6327 68.7389 25.0947 68.497 25.5797 68.5288C25.3489 69.3404 25.1668 70.1652 25.0344 70.9985C24.5078 74.2832 25.9307 76.778 28.9396 77.8437C29.3793 77.9941 29.8415 78.0682 30.3061 78.063C33.1708 78.063 36.7751 75.5996 38.712 73.5184C40.8696 71.3123 42.5079 68.6526 43.5074 65.7331C44.5855 62.7493 43.8584 61.2198 43.0561 60.4676ZM42.3477 65.3382C41.4037 68.098 39.8554 70.6123 37.8157 72.6973C35.4525 75.2046 31.4971 77.4487 29.3721 76.6903C26.9588 75.8378 25.8618 73.8946 26.288 71.2242C26.5687 69.4463 27.096 67.7162 27.8551 66.0841C28.0109 65.7743 27.886 65.3968 27.5762 65.241C27.2664 65.0852 26.8889 65.2101 26.7331 65.52C26.4466 66.1148 26.1954 66.726 25.9809 67.3503C24.9698 67.1577 23.9413 67.5868 23.367 68.441C23.3168 68.5163 23.2604 68.6103 23.1977 68.7168C23.135 68.8234 22.853 69.3437 22.6962 69.3437C22.6461 69.3437 22.5019 69.3061 22.27 69.0867C21.3297 68.2154 21.1667 65.8772 22.3264 64.4982C22.4894 64.3039 22.8028 63.9779 23.0786 64.0093C23.2903 64.0635 23.4752 64.1926 23.5989 64.3728C23.2905 64.7353 23.0195 65.128 22.7903 65.545C22.6274 65.8481 22.7393 66.2258 23.041 66.3913C23.3438 66.5593 23.7254 66.45 23.8932 66.1473C23.8934 66.1471 23.8934 66.147 23.8935 66.1468C25.2475 63.6708 27.9492 62.9436 29.4223 62.7368C29.2525 62.9825 29.1273 63.2563 29.0524 63.5454C28.784 65.228 29.4752 66.92 30.8452 67.9333C31.6077 69.1356 31.6908 70.6477 31.0646 71.9263C30.9027 72.2311 31.0176 72.6092 31.3216 72.7725C31.4122 72.8214 31.5132 72.8473 31.6162 72.8477C31.8495 72.8494 32.0644 72.7214 32.1741 72.5155C32.7671 71.3018 32.8986 69.9138 32.5439 68.6103C32.6881 68.6103 32.8323 68.6103 32.989 68.6103C35.4963 68.6103 38.5679 66.7298 39.0004 66.4477C39.293 66.2624 39.3799 65.8752 39.1947 65.5826C39.0095 65.2901 38.6222 65.2031 38.3297 65.3883C37.076 66.1781 33.1958 68.1652 31.7165 67.0056C30.6758 66.2993 30.119 65.0693 30.2748 63.8212C30.3655 63.4711 30.6098 63.1807 30.9392 63.0314C31.4469 62.8559 32.2305 63.1129 33.1708 63.7523C32.7766 64.0669 32.4229 64.4289 32.1177 64.8304C31.9099 65.1073 31.9661 65.5004 32.243 65.708C32.3515 65.7893 32.4836 65.8334 32.6191 65.8334C32.8164 65.8334 33.0023 65.7404 33.1206 65.5826C35.0513 63.0063 40.0911 62.3419 40.1412 62.3356C40.4874 62.2923 40.733 61.9766 40.6897 61.6304C40.6465 61.2842 40.3307 61.0387 39.9845 61.0819C37.9763 61.3551 36.0346 61.9924 34.2552 62.9624C33.0015 62.041 31.9296 61.6273 31.027 61.7088C30.8076 61.0819 30.5631 60.4864 30.3249 59.9035C29.8682 58.9999 29.5613 58.0283 29.416 57.0263C29.416 53.447 32.1239 50.5384 35.4462 50.5384C38.7685 50.5384 41.4764 53.447 41.4764 57.0263C41.4764 57.2143 41.4764 57.4525 41.4263 57.7158C41.326 58.8002 41.1693 60.4363 42.2161 61.4141C43.2629 62.392 42.7301 64.2788 42.3477 65.3382Z" fill="white"/>
<path d="M38.2857 58.0041C38.082 57.3511 37.5678 56.8415 36.9129 56.6439C36.5822 56.5419 36.2317 56.7271 36.1294 57.0576C36.0269 57.3864 36.2088 57.7361 36.5368 57.8411C36.612 57.8411 37.0069 58.0355 37.0633 58.2799C37.0508 58.4116 37.0633 58.8065 36.2673 59.5211C36.0242 59.7655 36.0242 60.1605 36.2673 60.4049C36.5117 60.648 36.9066 60.648 37.1511 60.4049C38.0726 59.5587 38.4549 58.7501 38.2857 58.0041Z" fill="white"/>
</svg>
