<svg width="85" height="85" viewBox="0 0 85 85" fill="none" xmlns="http://www.w3.org/2000/svg">
<g clip-path="url(#clip0_563_3185)">
<path d="M62.1402 73.3005C61.8147 73.0936 61.3831 73.1898 61.1762 73.5153C61.1657 73.5319 61.1557 73.5488 61.1467 73.5663L61.1327 73.5453C59.4311 76.4503 56.5167 78.4393 53.1915 78.9652C52.8123 79.0259 52.5531 79.3818 52.6118 79.7614C52.664 80.1057 52.9619 80.3591 53.3102 80.3551H53.422C57.1625 79.7677 60.4416 77.532 62.355 74.2647C62.5619 73.9391 62.4657 73.5074 62.1402 73.3005Z" fill="white"/>
<path d="M80.7303 42.4999C86.6613 35.7881 86.0285 25.5393 79.3167 19.6084C76.8505 17.4291 73.7799 16.0518 70.5122 15.6591V15.6661C70.1931 6.92969 63.0229 0.00942994 54.2806 0.000175679C51.6994 -0.00960241 49.1543 0.606242 46.8632 1.79515C46.5208 1.96941 46.3834 2.3876 46.5559 2.73106C46.7325 3.07399 47.1534 3.20896 47.4965 3.0326C47.4972 3.03225 47.4981 3.03173 47.4988 3.03138C54.7933 -0.707339 63.7376 2.1751 67.4763 9.46955C68.4447 11.3588 68.9965 13.4337 69.0944 15.5543H68.5566C68.1709 15.5543 67.8582 15.867 67.8582 16.2527C67.8582 16.6385 68.1709 16.9512 68.5566 16.9512C76.7458 16.9592 83.3779 23.6043 83.3699 31.7934C83.3664 35.364 82.0745 38.8136 79.7316 41.5081C77.6354 39.4956 75.0377 38.0823 72.2094 37.4153V34.9638C72.2133 31.6751 74.8783 29.01 78.1671 29.0062C78.5528 29.0062 78.8655 28.6934 78.8655 28.3077C78.8655 27.922 78.5528 27.6093 78.1671 27.6093C74.1085 27.617 70.8202 30.9052 70.8126 34.9638V37.1429C70.0518 37.0305 69.2837 36.9744 68.5147 36.9753C68.129 36.9753 67.8163 37.288 67.8163 37.6737C67.8163 38.0594 68.129 38.3722 68.5147 38.3722C75.3175 38.3856 81.2419 43.0182 82.8955 49.617V49.9662C82.8917 54.4121 79.2884 58.0153 74.8425 58.0191C74.4568 58.0191 74.1441 58.3319 74.1441 58.7176C74.1441 59.1033 74.4568 59.416 74.8425 59.416C78.4376 59.4116 81.7186 57.3677 83.3076 54.1428C82.8178 61.9573 76.3443 68.0485 68.5147 68.0626C68.129 68.0626 67.8163 68.3754 67.8163 68.7611C67.8163 69.1468 68.129 69.4595 68.5147 69.4595H69.0665C68.694 77.374 62.1759 83.6031 54.2527 83.6168C51.9503 83.6351 49.6837 83.0474 47.6804 81.9126C46.5142 81.273 45.7868 80.0509 45.7807 78.7207V69.7878C45.7807 69.4021 45.4679 69.0893 45.0822 69.0893C44.6965 69.0893 44.3838 69.4021 44.3838 69.7878V78.7068C44.3943 80.5417 45.3925 82.2286 46.9959 83.1209C49.2086 84.3718 51.7109 85.0196 54.2527 84.9997C62.995 84.9904 70.1651 78.0701 70.4843 69.3338C79.3783 68.2762 85.7311 60.2089 84.6737 51.3147C84.2847 48.0441 82.9093 44.9696 80.7303 42.4999Z" fill="white"/>
<path d="M60.175 10.2812C60.0982 10.1066 58.3311 5.95087 51.4445 5.95087C51.0588 5.95087 50.7461 6.26359 50.7461 6.6493C50.7461 7.03501 51.0588 7.34774 51.4445 7.34774V7.3198C57.3254 7.3198 58.813 10.6304 58.8829 10.812C58.9901 11.0728 59.2434 11.2436 59.5254 11.245C59.6168 11.244 59.7069 11.2249 59.7908 11.1891C60.147 11.0439 60.3189 10.6379 60.175 10.2812Z" fill="white"/>
<path d="M66.6145 50.7065H65.2176C59.5362 50.7142 54.9335 55.3201 54.9297 61.0015C54.9297 61.3872 55.2424 61.6999 55.6281 61.6999C56.0138 61.6999 56.3266 61.3872 56.3266 61.0015C56.3304 56.0915 60.3076 52.1111 65.2176 52.1034H66.6145C67.0002 52.1034 67.3129 51.7907 67.3129 51.405C67.3129 51.0191 67.0002 50.7065 66.6145 50.7065Z" fill="white"/>
<path d="M62.6963 35.334H62.5915C61.2158 35.3563 59.9549 34.5688 59.3718 33.3225C59.3131 33.2017 59.224 33.0981 59.1133 33.0222C60.7691 31.1593 61.6836 28.7537 61.6836 26.2613V26.1915C61.6836 25.8058 61.3708 25.493 60.9851 25.493C60.5994 25.493 60.2867 25.8058 60.2867 26.1915V26.2613C60.2829 31.1432 56.3264 35.0996 51.4445 35.1035C51.0588 35.1035 50.7461 35.4162 50.7461 35.8019C50.7461 36.1876 51.0588 36.5004 51.4445 36.5004C53.9042 36.499 56.2807 35.6085 58.1355 33.993C58.9658 35.6877 60.6974 36.7534 62.5846 36.7308H62.6963C63.082 36.7308 63.3947 36.4181 63.3947 36.0324C63.3947 35.6467 63.082 35.334 62.6963 35.334Z" fill="white"/>
<path d="M63.8494 65.639C63.6776 65.294 63.2587 65.1533 62.9135 65.3247C62.5816 65.5011 62.4489 65.9086 62.6132 66.2467C63.123 67.2804 62.4595 68.9007 62.1592 69.4315C61.9691 69.7671 62.0871 70.1933 62.4227 70.3835C62.4257 70.3852 62.4286 70.3868 62.4316 70.3884C62.5292 70.4467 62.6394 70.4802 62.7529 70.4862C63.0059 70.4897 63.2411 70.3561 63.3675 70.1369C63.4234 70.0322 64.7644 67.5527 63.8494 65.639Z" fill="white"/>
<path d="M63.8287 16.8473C63.8287 16.8469 63.8285 16.8466 63.8284 16.8462C63.5624 15.8246 63.1282 14.8545 62.5432 13.9757C62.304 13.6731 61.8647 13.6217 61.5621 13.861C61.5609 13.862 61.5597 13.8629 61.5584 13.8639C61.2611 14.1059 61.2143 14.5423 61.4537 14.8417C61.9059 15.5685 62.245 16.3598 62.4594 17.1885C62.5438 17.5023 62.8333 17.7165 63.1579 17.7053C63.2183 17.7116 63.279 17.7116 63.3395 17.7053C63.7115 17.6035 63.9307 17.2194 63.8287 16.8473Z" fill="white"/>
<path d="M45.1105 57.2089C44.7248 57.2089 44.4121 57.5216 44.4121 57.9074V62.985C44.4121 63.3707 44.7248 63.6834 45.1105 63.6834C45.4963 63.6834 45.809 63.3707 45.809 62.985V57.9074C45.809 57.5215 45.4963 57.2089 45.1105 57.2089Z" fill="white"/>
<path d="M45.1105 7.57819C44.7248 7.57819 44.4121 7.89091 44.4121 8.27662V51.6145C44.4121 52.0002 44.7248 52.3129 45.1105 52.3129C45.4963 52.3129 45.809 52.0002 45.809 51.6145V8.27662C45.809 7.89091 45.4963 7.57819 45.1105 7.57819Z" fill="white"/>
<path d="M31.819 78.9512C28.4938 78.4253 25.5794 76.4363 23.8778 73.5314C23.6709 73.2059 23.2393 73.1097 22.9137 73.3166C22.6074 73.5113 22.5012 73.9082 22.6695 74.2298C24.5752 77.5016 27.8493 79.745 31.5886 80.3411H31.7003C32.0486 80.3451 32.3465 80.0918 32.3987 79.7474C32.4572 79.3677 32.1983 79.012 31.819 78.9512Z" fill="white"/>
<path d="M33.5508 5.89496V5.9229C26.6643 5.9229 24.8972 10.0786 24.8204 10.2532C24.6765 10.6099 24.8483 11.0159 25.2045 11.1612C25.289 11.1945 25.3791 11.2111 25.4699 11.21C25.7502 11.2099 26.0032 11.0421 26.1125 10.784C26.1754 10.6443 27.656 7.29183 33.5508 7.29183C33.9365 7.29183 34.2493 6.9791 34.2493 6.59339C34.2493 6.20768 33.9365 5.89496 33.5508 5.89496Z" fill="white"/>
<path d="M30.0663 47.9128C29.6806 47.9128 29.3678 48.2255 29.3678 48.6112V50.0081C29.364 54.9169 25.3855 58.8953 20.4768 58.8992C20.091 58.8992 19.7783 59.2119 19.7783 59.5976C19.7783 59.9833 20.091 60.296 20.4768 60.296C26.1554 60.2883 30.757 55.6867 30.7647 50.0081V48.6112C30.7647 48.2253 30.452 47.9128 30.0663 47.9128Z" fill="white"/>
<path d="M33.5513 35.1035C28.6722 35.0958 24.72 31.1404 24.7161 26.2613V26.1915C24.7161 25.8058 24.4034 25.493 24.0177 25.493C23.632 25.493 23.3193 25.8058 23.3193 26.1915V26.2613C23.3193 28.7537 24.2337 31.1593 25.8895 33.0222C25.7751 33.0971 25.6852 33.2039 25.6311 33.3295C25.0325 34.6039 23.7272 35.3944 22.3205 35.334C21.9348 35.334 21.6221 35.6467 21.6221 36.0324C21.6221 36.4181 21.9348 36.7308 22.3205 36.7308H22.4323C24.3194 36.7534 26.051 35.6877 26.8813 33.993C28.7362 35.6085 31.1126 36.499 33.5723 36.5004C33.9498 36.489 34.2499 36.1796 34.2498 35.8019C34.2498 35.4162 33.937 35.1035 33.5513 35.1035Z" fill="white"/>
<path d="M22.855 69.452C22.8538 69.4499 22.8526 69.4476 22.8514 69.4455C22.8514 69.4455 21.7688 67.4969 22.3834 66.2467C22.5549 65.9015 22.4141 65.4826 22.0691 65.3108C21.7239 65.1393 21.305 65.28 21.1332 65.6251C20.1833 67.5388 21.5593 70.0182 21.6151 70.123C21.7403 70.3521 21.9829 70.4921 22.2437 70.4862C22.3628 70.4849 22.4798 70.4561 22.586 70.4024C22.9226 70.2141 23.0431 69.7886 22.855 69.452Z" fill="white"/>
<path d="M23.4588 13.8711C23.1593 13.6278 22.7195 13.6736 22.4763 13.9729C22.4756 13.9737 22.4747 13.9748 22.474 13.9758C21.8985 14.8496 21.4714 15.8124 21.2098 16.8255C21.1073 17.1974 21.326 17.5819 21.6977 17.6842C21.698 17.6842 21.6984 17.6844 21.6987 17.6845C21.7506 17.7015 21.8047 17.7109 21.8594 17.7125C22.184 17.7236 22.4735 17.5094 22.5578 17.1956C22.7691 16.3659 23.1084 15.574 23.5636 14.8489C23.8028 14.5494 23.7562 14.1129 23.4588 13.8711Z" fill="white"/>
<path d="M39.8859 35.1035C39.5002 35.1035 39.1875 35.4162 39.1875 35.8019V68.8798C39.1875 69.2655 39.5002 69.5782 39.8859 69.5782C40.2716 69.5782 40.5844 69.2655 40.5844 68.8798V35.8019C40.5844 35.4162 40.2716 35.1035 39.8859 35.1035Z" fill="white"/>
<path d="M39.8859 9.67346C39.5002 9.67346 39.1875 9.98619 39.1875 10.3719V26.1914C39.1875 26.5772 39.5002 26.8899 39.8859 26.8899C40.2716 26.8899 40.5844 26.5772 40.5844 26.1914V10.3719C40.5844 9.98619 40.2716 9.67346 39.8859 9.67346Z" fill="white"/>
<path d="M39.8854 75.8222C39.4997 75.8222 39.1869 76.135 39.1869 76.5207V78.7068C39.1808 80.0369 38.4534 81.259 37.2872 81.8986C35.2839 83.0334 33.0173 83.6211 30.7149 83.6028C22.7917 83.5892 16.2736 77.36 15.9011 69.4455H16.4529C16.8386 69.4455 17.1513 69.1328 17.1513 68.7471C17.1513 68.3614 16.8386 68.0487 16.4529 68.0487C8.62816 68.035 2.15681 61.9517 1.66005 54.1428C3.24899 57.3677 6.53006 59.4115 10.1251 59.416C10.5108 59.416 10.8235 59.1033 10.8235 58.7176C10.8235 58.3319 10.5108 58.0191 10.1251 58.0191C5.67919 58.0153 2.07597 54.4121 2.07213 49.9662V49.617C3.72567 43.0182 9.65014 38.3856 16.4529 38.3722C16.8386 38.3722 17.1513 38.0594 17.1513 37.6737C17.1513 37.288 16.8386 36.9753 16.4529 36.9753C15.6839 36.9744 14.9158 37.0305 14.155 37.1429V34.9638C14.1474 30.9052 10.8591 27.617 6.80053 27.6093C6.41482 27.6093 6.10209 27.922 6.10209 28.3077C6.10209 28.6934 6.41482 29.0062 6.80053 29.0062C10.0893 29.01 12.7543 31.6751 12.7582 34.9638V37.4013C9.92986 38.0684 7.33221 39.4816 5.23603 41.4942C-0.137196 35.3144 0.516539 25.9488 6.69629 20.5755C9.39085 18.2325 12.8402 16.9407 16.411 16.9372C16.7967 16.9372 17.1094 16.6245 17.1094 16.2388C17.1094 15.8531 16.7967 15.5403 16.411 15.5403H15.8732C16.2512 7.35225 23.1956 1.02094 31.3837 1.39897C33.5149 1.49744 35.5999 2.0541 37.4967 3.03138C37.8391 3.20913 38.2606 3.07573 38.4384 2.73333C38.4387 2.73263 38.4393 2.73175 38.4396 2.73106C38.6121 2.3876 38.4747 1.96941 38.1323 1.79515C35.8413 0.606242 33.2962 -0.00960241 30.7149 0.000175679C21.9726 0.00942994 14.8025 6.92969 14.4833 15.6661C5.59084 16.7375 -0.749374 24.8149 0.322199 33.7073C0.715418 36.9701 2.09029 40.0362 4.26521 42.4999C-1.65873 49.2178 -1.0153 59.4661 5.70259 65.3901C8.16387 67.5605 11.2255 68.9331 14.4833 69.3268C14.8025 78.0632 21.9726 84.9834 30.7149 84.9927C33.2567 85.0128 35.759 84.3648 37.9717 83.1139C39.5751 82.2216 40.5733 80.5348 40.5838 78.6998V76.5207C40.5838 76.135 40.2711 75.8222 39.8854 75.8222Z" fill="white"/>
</g>
<defs>
<clipPath id="clip0_563_3185">
<rect width="85" height="85" fill="white"/>
</clipPath>
</defs>
</svg>
