<svg width="85" height="85" viewBox="0 0 85 85" fill="none" xmlns="http://www.w3.org/2000/svg">
<path d="M57.0541 56.7764L57.3736 56.4507C65.197 48.5422 65.1516 35.7865 57.2722 27.9338L56.9858 27.5962C50.0377 20.6682 49.5675 9.56008 55.9051 2.06841L56.7188 1.17399C56.9785 0.885466 56.9554 0.440897 56.6672 0.180853C56.379 -0.0791913 55.9349 -0.0560402 55.6752 0.232482L54.8517 1.14411C48.0382 9.17729 48.522 21.1004 55.9639 28.5538L56.2485 28.8846C63.6114 36.1857 63.6683 48.0803 56.3757 55.4517L56.3734 55.454L56.0538 55.7796C52.2478 59.6287 46.9844 61.6727 41.5814 61.3997C41.1948 61.3792 40.8648 61.6759 40.8438 62.0629C40.8409 62.1367 40.8485 62.2105 40.8662 62.2822C40.9332 62.592 41.1991 62.8186 41.5153 62.8352C47.3194 63.116 52.9689 60.9132 57.0541 56.7764Z" fill="white"/>
<path d="M29.4698 84.7954C37.202 77.0418 37.4213 64.5536 29.9665 56.5325L29.4569 55.8767L29.4388 55.8088C23.9868 50.3651 22.3361 42.1745 25.2528 35.0401L35.2874 45.1008C35.5646 45.3718 36.0085 45.3665 36.2792 45.0892C36.5489 44.8147 36.5475 44.374 36.2762 44.1012L25.8206 33.6882C26.4927 32.3586 27.3231 31.1154 28.2936 29.9857L29.0888 29.1035C29.3112 28.8766 29.5441 28.6614 29.7838 28.4445L49.5569 48.0563C49.8192 48.3418 50.263 48.3602 50.548 48.0976C50.8332 47.8349 50.8515 47.3907 50.5892 47.1054C50.5759 47.0908 50.562 47.0769 50.5474 47.0635L30.8539 27.5321C32.5172 26.2247 34.3869 25.2046 36.386 24.514L49.6342 37.6823C49.9114 37.9533 50.3553 37.948 50.626 37.6707C50.8917 37.3975 50.8913 36.9619 50.6249 36.6895L37.924 24.1014C40.5045 23.4342 43.1968 23.3217 45.8238 23.7708C46.2064 23.8368 46.5701 23.5797 46.636 23.1966C46.702 22.8136 46.4452 22.4495 46.0626 22.3835C42.8143 21.8233 39.4786 22.0594 36.3413 23.0719C36.3203 23.0741 36.2996 23.0796 36.2803 23.0882C33.1819 24.0968 30.3697 25.8335 28.0789 28.153L27.2418 29.0682C20.3505 37.2032 20.8449 49.2703 28.3784 56.8131L28.9101 57.4702C35.8488 64.9264 35.6599 76.5401 28.4825 83.7661C28.3064 83.9424 28.2369 84.1992 28.2998 84.4404C28.3246 84.5752 28.3882 84.6995 28.4828 84.7985C28.7573 85.0684 29.1974 85.067 29.4698 84.7954Z" fill="white"/>
<path d="M23.6479 73.514C23.6496 73.5123 23.6515 73.5105 23.6532 73.5087C23.9263 73.2335 23.9248 72.789 23.6501 72.5155L23.6484 72.514L4.6005 53.631C6.49517 52.4011 8.57062 51.4763 10.7515 50.8903L20.253 60.316C20.5384 60.5783 20.9821 60.5594 21.2442 60.2737C21.4907 60.0049 21.4906 59.5918 21.2437 59.3232L12.3533 50.5261C14.7998 50.051 17.3183 50.091 19.7485 50.6434C20.1279 50.7425 20.5156 50.5147 20.6145 50.1348C20.7135 49.7549 20.486 49.3668 20.1065 49.2677C13.4181 47.6666 5.42321 50.1385 0.199772 55.4222C0.0266424 55.5996 -0.0401837 55.8552 0.0239043 56.0947C0.0548743 56.2138 0.116464 56.3225 0.202761 56.4102C0.477645 56.6837 0.921679 56.6821 1.19483 56.4071L1.19638 56.4054C1.8931 55.6976 2.63937 55.0406 3.4298 54.4394L22.6559 73.5C22.926 73.778 23.3702 73.7842 23.6479 73.514Z" fill="white"/>
<path d="M84.7961 28.8314C85.0692 28.5562 85.0677 28.1116 84.793 27.8381L84.7913 27.8366C84.5164 27.5632 84.0724 27.5647 83.7992 27.8397L83.7977 27.8414C83.2007 28.4414 82.5644 29.0007 81.8929 29.5157L63.1766 10.9218C62.9074 10.6428 62.4634 10.6349 62.1848 10.9043C62.1748 10.9139 62.1653 10.9237 62.1558 10.9339C61.9797 11.1102 61.9103 11.3669 61.9732 11.6081C62.0058 11.7299 62.0706 11.8407 62.1606 11.9287L80.7209 30.3463C78.9786 31.4931 77.0605 32.3466 75.0427 32.8728L64.6083 22.5123C64.346 22.2268 63.9023 22.2084 63.6172 22.471C63.3322 22.7336 63.3137 23.1779 63.576 23.4632C63.5893 23.4778 63.6032 23.4917 63.6179 23.505L73.4121 33.2376C71.2921 33.5942 69.1267 33.5874 67.0089 33.2176C66.629 33.1549 66.2696 33.4101 66.2035 33.79C66.1816 33.8901 66.1846 33.9942 66.212 34.093C66.2822 34.3581 66.5002 34.5581 66.7702 34.6049C73.3604 35.7501 80.0936 33.5936 84.7961 28.8314Z" fill="white"/>
<path d="M61.2504 20.2231C61.5356 19.9605 61.554 19.5163 61.2917 19.2309C61.2783 19.2163 61.2644 19.2024 61.2498 19.1891L61.248 19.1823L58.6974 16.6529C58.4225 16.3795 57.9785 16.381 57.7053 16.6561L57.7038 16.6577C57.5289 16.8368 57.4626 17.0956 57.5297 17.337C57.5606 17.457 57.6249 17.5659 57.7154 17.6507L60.2592 20.1819C60.5214 20.4672 60.9652 20.4858 61.2504 20.2231Z" fill="white"/>
<path d="M42.5667 51.2776L42.5683 51.2759C42.8379 51.0014 42.8365 50.5607 42.5653 50.2879L39.8677 47.6162C39.5823 47.354 39.1386 47.3729 38.8765 47.6586C38.63 47.9274 38.6301 48.3405 38.877 48.609L41.5746 51.2807C41.8495 51.5541 42.2938 51.5527 42.5667 51.2776Z" fill="white"/>
<path d="M27.4039 66.4473L27.4055 66.4456C27.6751 66.1711 27.6737 65.7304 27.4025 65.4576L24.8605 62.9332C24.5856 62.6598 24.1416 62.6613 23.8684 62.9363L23.8669 62.938C23.7005 63.1081 23.6316 63.3511 23.6837 63.5833C23.7147 63.7024 23.7763 63.8112 23.8626 63.8989L26.4118 66.4504C26.6867 66.7238 27.131 66.7225 27.4039 66.4473Z" fill="white"/>
</svg>
