<svg width="80" height="80" viewBox="0 0 80 80" fill="none" xmlns="http://www.w3.org/2000/svg">
<path d="M41.7802 14.9648C41.7789 14.9635 41.7778 14.9622 41.7765 14.9611C39.7529 12.9396 37.2713 11.4364 34.5427 10.5787C34.2062 10.4749 33.8495 10.6634 33.7453 10.9997C33.6415 11.3362 33.83 11.693 34.1663 11.7971C36.6963 12.5938 38.9964 13.99 40.8707 15.8669C41.1188 16.117 41.5226 16.1187 41.7728 15.8706C41.7741 15.8693 41.7754 15.8682 41.7765 15.8669C42.0267 15.6188 42.0283 15.215 41.7802 14.9648Z" fill="white"/>
<path d="M50.3311 30.9151C49.9788 30.8481 49.639 31.0795 49.572 31.4318C47.3913 42.6397 36.5377 49.9579 25.3298 47.7773C14.1218 45.5966 6.8036 34.743 8.98412 23.535C11.1646 12.327 22.0184 5.00884 33.2265 7.18951C41.3708 8.77407 47.7789 15.074 49.5019 23.1901C49.5741 23.5423 49.9182 23.7694 50.2705 23.6972C50.6228 23.6249 50.8499 23.2808 50.7777 22.9285C48.2393 11.0672 36.566 3.50961 24.7048 6.04814C12.8436 8.58668 5.28587 20.2598 7.82425 32.121C8.66134 36.0322 10.5505 39.6406 13.2881 42.5568L6.52627 49.3186L1.09133 43.8773C0.843189 43.6272 0.439396 43.6255 0.189178 43.8736C0.187903 43.8749 0.186627 43.876 0.18551 43.8773C-0.0618368 44.1261 -0.0618368 44.5279 0.18551 44.7767L5.62683 50.2117L0.191889 55.6402C-0.0581689 55.8884 -0.0599231 56.2922 0.188221 56.5424C0.189497 56.5437 0.190614 56.5449 0.191889 56.5461C0.312294 56.6655 0.475278 56.732 0.644801 56.731C0.812091 56.7304 0.972524 56.6639 1.09133 56.5461L6.5199 51.1111L11.9357 56.5461C12.0545 56.6639 12.2149 56.7304 12.3822 56.731C12.5518 56.732 12.7147 56.6655 12.8351 56.5461C13.0852 56.2979 13.087 55.8941 12.8388 55.6439C12.8375 55.6426 12.8364 55.6413 12.8351 55.6402L7.42572 50.2117L14.1939 43.4499C22.9992 51.7874 36.8962 51.4082 45.2336 42.6031C48.1069 39.5686 50.0546 35.7772 50.8477 31.6743C50.9148 31.3219 50.6834 30.9821 50.3311 30.9151Z" fill="white"/>
<path d="M79.9488 20.1154C79.8841 19.9595 79.7601 19.8356 79.6043 19.7709C79.5286 19.7352 79.4457 19.7176 79.3619 19.7199H70.9352C70.5829 19.7199 70.2973 20.0055 70.2973 20.3578C70.2973 20.71 70.5829 20.9957 70.9352 20.9957H77.8246L65.8129 32.9883C56.9924 24.6668 43.0961 25.0712 34.7745 33.8917C31.9196 36.9177 29.9832 40.6927 29.1908 44.7767C29.1238 45.129 29.3552 45.4688 29.7075 45.5358C30.0598 45.6028 30.3996 45.3714 30.4666 45.0191C32.6441 33.7997 43.5042 26.4697 54.7237 28.6472C65.9431 30.8246 73.2731 41.6848 71.0957 52.9042C68.9182 64.1237 58.058 71.4537 46.8386 69.2762C38.3739 67.6334 31.8151 60.9142 30.3773 52.4124C30.3191 52.0601 29.9864 51.8216 29.6341 51.8798C29.2818 51.938 29.0434 52.2706 29.1015 52.6229C31.1267 64.579 42.4608 72.6295 54.4167 70.6043C66.3728 68.5791 74.4233 57.2452 72.3981 45.2891C71.6749 41.0199 69.7057 37.0598 66.7378 33.907L78.724 21.8953V28.7846C78.724 29.1369 79.0097 29.4225 79.3619 29.4225C79.7142 29.4225 79.9998 29.1369 79.9998 28.7846V20.3579C79.9989 20.2744 79.9815 20.1921 79.9488 20.1154Z" fill="white"/>
<path d="M16.345 4.30843C16.1817 3.99634 15.7962 3.87561 15.4841 4.03892C15.4682 4.04721 15.4527 4.05614 15.4376 4.06587V4.04673C14.9719 4.32103 14.4871 4.60171 14.0597 4.92066C13.7686 5.11538 13.6889 5.50817 13.8811 5.80097C13.9984 5.9791 14.1972 6.08691 14.4105 6.08802C14.5349 6.08898 14.6569 6.05342 14.7614 5.98596C15.1888 5.70528 15.6353 5.43098 16.0755 5.16944C16.3877 5.00598 16.5083 4.62053 16.345 4.30843Z" fill="white"/>
<path d="M12.752 6.61092C12.5283 6.3379 12.1256 6.29787 11.8526 6.52161C8.87946 8.93991 6.45128 11.9594 4.72718 15.3821C4.56962 15.6958 4.69513 16.0777 5.00786 16.2369C5.09717 16.2812 5.19525 16.3051 5.29492 16.3071C5.53748 16.3088 5.75995 16.1728 5.86903 15.9562C7.52136 12.6989 9.8352 9.82229 12.6627 7.51037C12.9357 7.28662 12.9758 6.88394 12.752 6.61092Z" fill="white"/>
<path d="M37.2159 70.867C36.3616 70.3324 35.5374 69.751 34.7472 69.1255C34.4721 68.9085 34.0732 68.9539 33.8541 69.2276C33.6337 69.5025 33.6779 69.9039 33.9528 70.1243C33.9539 70.1253 33.9551 70.1261 33.9562 70.127C34.7835 70.7847 35.6482 71.3937 36.5461 71.9514C36.6457 72.0132 36.7606 72.0463 36.8778 72.0471C37.2301 72.0482 37.5166 71.7636 37.5178 71.4113C37.5186 71.1898 37.4042 70.9837 37.2159 70.867Z" fill="white"/>
<path d="M50.9184 74.7582V74.771C47.2919 74.7754 43.7053 74.0146 40.393 72.5383C40.0709 72.3955 39.694 72.5408 39.5513 72.8628C39.5511 72.8631 39.5511 72.8633 39.551 72.8636C39.4082 73.1858 39.5535 73.5626 39.8755 73.7053C39.8758 73.7055 39.876 73.7055 39.8763 73.7056C43.3526 75.2487 47.1151 76.0421 50.9184 76.034C51.2707 76.034 51.5563 75.7484 51.5563 75.3961C51.5563 75.0438 51.2707 74.7582 50.9184 74.7582Z" fill="white"/>
</svg>
