<svg width="72" height="73" viewBox="0 0 72 73" fill="none" xmlns="http://www.w3.org/2000/svg">
<path d="M13.4033 59.7345C14.5848 61.7156 18.3654 65.3381 24.0363 63.9797" stroke="white" stroke-linecap="round"/>
<path d="M58.751 59.3445L71.001 70.8134" stroke="white" stroke-width="1.5" stroke-linecap="round"/>
<path d="M36.4431 21.5278L24.038 2L4.63061 37.0464C2.24931 41.3466 1 46.1814 1 51.097V51.097C1 54.5567 1.5599 58.056 3.37446 61.0017C8.10289 68.6776 17.612 76.3539 36.4431 69.0736" stroke="white" stroke-width="1.5" stroke-linecap="round"/>
<path d="M64.6567 45.3144C64.6567 56.1241 55.502 64.9412 44.1409 64.9412C32.7798 64.9412 23.625 56.1241 23.625 45.3144C23.625 34.5047 32.7798 25.6876 44.1409 25.6876C55.502 25.6876 64.6567 34.5047 64.6567 45.3144Z" stroke="white" stroke-width="1.5"/>
<ellipse cx="39.613" cy="35.4582" rx="1.77216" ry="1.69807" fill="white"/>
<ellipse cx="32.5222" cy="47.3447" rx="1.77216" ry="1.69807" fill="white"/>
<ellipse cx="44.9255" cy="43.9487" rx="1.77216" ry="1.69807" fill="white"/>
<ellipse cx="53.7888" cy="38.8541" rx="1.77216" ry="1.69807" fill="white"/>
<ellipse cx="41.3845" cy="55.8352" rx="1.77216" ry="1.69807" fill="white"/>
<ellipse cx="55.5593" cy="52.4388" rx="1.77216" ry="1.69807" fill="white"/>
</svg>
