<svg width="80" height="80" viewBox="0 0 80 80" fill="none" xmlns="http://www.w3.org/2000/svg">
<g clip-path="url(#clip0_563_3246)">
<path d="M10.543 49.1073V49.0685C10.543 49.0685 10.543 49.0168 10.4977 48.991L8.32579 46.9419C8.08129 46.6812 7.67178 46.6683 7.41112 46.9128C7.15045 47.1573 7.13752 47.5668 7.38203 47.8274L8.37104 48.7647H0.646412C0.289431 48.7647 0 49.0542 0 49.4112C0 49.7681 0.289431 50.0576 0.646412 50.0576V50.0317H8.40336L7.41435 50.9625C7.1637 51.2146 7.1637 51.6219 7.41435 51.874C7.66645 52.1246 8.07369 52.1246 8.32579 51.874L10.4977 49.8249C10.4977 49.8249 10.4977 49.7731 10.543 49.7537V49.715C10.5617 49.6901 10.579 49.6642 10.5947 49.6374C10.6007 49.5988 10.6007 49.5597 10.5947 49.521C10.5947 49.4823 10.5947 49.4435 10.5947 49.4047C10.5947 49.3659 10.5947 49.3336 10.5947 49.2948C10.6007 49.2562 10.6007 49.2171 10.5947 49.1784C10.5947 49.1784 10.5559 49.1332 10.543 49.1073Z" fill="white"/>
<path d="M13.8789 40.6781C13.8678 40.6501 13.8526 40.624 13.8337 40.6005L11.6617 38.5449C11.4103 38.2915 11.0011 38.2898 10.7475 38.5412C10.7462 38.5425 10.745 38.5436 10.7438 38.5449C10.4932 38.797 10.4932 39.2043 10.7438 39.4564L11.7393 40.3872H3.98235C3.62537 40.3872 3.33594 40.6766 3.33594 41.0336C3.33594 41.3906 3.62537 41.68 3.98235 41.68V41.5701H11.7393L10.7438 42.5074C10.4932 42.7595 10.4932 43.1668 10.7438 43.4189C10.8668 43.5478 11.0375 43.6204 11.2157 43.6193C11.3812 43.6204 11.5409 43.5579 11.6617 43.4447L13.8337 41.3956C13.8511 41.3712 13.8663 41.3452 13.8789 41.318C13.8807 41.3051 13.8807 41.2922 13.8789 41.2793C13.8983 41.2571 13.9156 41.2334 13.9306 41.2082C13.9337 41.1694 13.9337 41.1306 13.9306 41.0918C13.9337 41.0553 13.9337 41.0184 13.9306 40.9819C13.9337 40.9431 13.9337 40.9043 13.9306 40.8656C13.9344 40.829 13.9344 40.7922 13.9306 40.7557C13.9172 40.7276 13.8998 40.7014 13.8789 40.6781Z" fill="white"/>
<path d="M79.354 48.5902H71.6294L72.6184 47.8274C72.8949 47.6015 72.9358 47.1943 72.7099 46.9179C72.4839 46.6414 72.0767 46.6006 71.8004 46.8265C71.7764 46.846 71.7538 46.8674 71.733 46.8902L69.5546 48.9393C69.5546 48.9393 69.5546 48.991 69.5093 49.0169C69.5093 49.0169 69.4705 49.0686 69.4576 49.0944C69.4516 49.133 69.4516 49.1722 69.4576 49.2108C69.4576 49.2496 69.4576 49.2819 69.4576 49.3207C69.4576 49.3595 69.4576 49.3982 69.4576 49.437C69.4516 49.4756 69.4516 49.5148 69.4576 49.5534C69.4733 49.5802 69.4906 49.6061 69.5093 49.6309C69.5093 49.6309 69.5093 49.6891 69.5546 49.7085L71.733 51.7576C71.9936 52.0022 72.4031 51.9892 72.6476 51.7286C72.8922 51.4679 72.8792 51.0584 72.6186 50.8139L71.6296 49.883H79.3542C79.7111 49.883 80.0006 49.5936 80.0006 49.2366C80.0004 48.8797 79.711 48.5902 79.354 48.5902Z" fill="white"/>
<path d="M75.9855 40.1997H68.2285L69.2175 39.2689C69.4682 39.0168 69.4682 38.6095 69.2175 38.3574C68.9661 38.104 68.5569 38.1023 68.3034 38.3537C68.3021 38.355 68.3008 38.3561 68.2996 38.3574L66.1277 40.413C66.109 40.4379 66.0917 40.4638 66.076 40.4906C66.0551 40.5139 66.0377 40.5399 66.0243 40.5682C66.0206 40.6047 66.0206 40.6415 66.0243 40.6781C66.0212 40.7168 66.0212 40.7556 66.0243 40.7944V40.9366C66.0212 40.9731 66.0212 41.01 66.0243 41.0465C66.0212 41.0853 66.0212 41.1241 66.0243 41.1629C66.0393 41.1902 66.0566 41.2162 66.076 41.2404L66.1277 41.318L68.2996 43.3671C68.4205 43.4803 68.5802 43.5428 68.7457 43.5417C68.9239 43.5428 69.0946 43.4702 69.2175 43.3413C69.4682 43.0892 69.4682 42.6819 69.2175 42.4298L68.2285 41.4925H75.9855C76.3425 41.4925 76.6319 41.2031 76.6319 40.8461C76.6319 40.4891 76.3425 40.1997 75.9855 40.1997Z" fill="white"/>
<path d="M10.6918 70.148C10.6806 70.1201 10.6654 70.0939 10.6465 70.0705L8.47456 68.0213C8.2231 67.7679 7.81392 67.7662 7.56037 68.0176C7.55908 68.0189 7.55778 68.02 7.55665 68.0213C7.306 68.2734 7.306 68.6807 7.55665 68.9328L8.46809 69.8054H0.749928C0.392947 69.8054 0.103516 70.0949 0.103516 70.4518C0.103516 70.8088 0.392947 71.0983 0.749928 71.0983H8.50688L7.5114 72.0356C7.26076 72.2877 7.26076 72.6949 7.5114 72.947C7.63325 73.0784 7.80407 73.1532 7.98328 73.1539C8.14973 73.1532 8.3094 73.0884 8.42931 72.9729L10.6013 70.9237C10.6202 70.9003 10.6354 70.8741 10.6465 70.8462C10.6659 70.8219 10.6832 70.7959 10.6982 70.7686C10.7013 70.7298 10.7013 70.691 10.6982 70.6522C10.7013 70.6157 10.7013 70.5789 10.6982 70.5423L10.7435 70.4518C10.747 70.4153 10.747 70.3785 10.7435 70.342C10.747 70.3032 10.747 70.2642 10.7435 70.2256C10.7286 70.1983 10.7111 70.1724 10.6918 70.148Z" fill="white"/>
<path d="M79.2821 69.8054H71.5251L72.5141 68.8746C72.7648 68.6225 72.7648 68.2153 72.5141 67.9632C72.2627 67.7098 71.8535 67.708 71.5999 67.9594C71.5986 67.9607 71.5974 67.9619 71.5962 67.9632L69.4243 70.0123C69.4055 70.0372 69.3882 70.063 69.3726 70.0898C69.3532 70.1141 69.3359 70.1401 69.3208 70.1674C69.3173 70.2062 69.3173 70.245 69.3208 70.2838C69.3173 70.3203 69.3173 70.3571 69.3208 70.3937L69.2562 70.4518C69.2531 70.4884 69.2531 70.5252 69.2562 70.5617C69.2531 70.6005 69.2531 70.6393 69.2562 70.6781C69.2712 70.7054 69.2885 70.7314 69.3079 70.7557C69.3236 70.7825 69.3409 70.8083 69.3596 70.8332L71.5316 72.8823C71.6515 72.9979 71.8112 73.0627 71.9776 73.0633C72.1568 73.0627 72.3276 72.9879 72.4495 72.8565C72.7001 72.6044 72.7001 72.1972 72.4495 71.9451L71.5251 71.0982H79.2821C79.6391 71.0982 79.9285 70.8088 79.9285 70.4518C79.9285 70.0949 79.6391 69.8054 79.2821 69.8054Z" fill="white"/>
<path d="M49.0497 52.6238C48.6928 52.6238 48.4033 52.9132 48.4033 53.2702V53.9877C48.4033 54.3447 48.6928 54.6341 49.0497 54.6341C49.4067 54.6341 49.6961 54.3447 49.6961 53.9877V53.2702C49.6961 52.9132 49.4067 52.6238 49.0497 52.6238Z" fill="white"/>
<path d="M49.0497 48.7454C48.6928 48.7454 48.4033 49.0348 48.4033 49.3918V50.6846C48.4033 51.0416 48.6928 51.331 49.0497 51.331C49.4067 51.331 49.6961 51.0416 49.6961 50.6846V49.3918C49.6961 49.0348 49.4067 48.7454 49.0497 48.7454Z" fill="white"/>
<path d="M34.2958 37.5204C34.0496 37.2544 33.6342 37.2386 33.3682 37.4849C33.0347 37.8034 32.7236 38.1447 32.4374 38.5062C32.2158 38.7834 32.2592 39.1872 32.5344 39.4112C32.6472 39.5109 32.7912 39.568 32.9416 39.5728C33.1383 39.5718 33.3238 39.4815 33.4458 39.3272C33.695 39.0143 33.9673 38.7205 34.2603 38.448C34.5263 38.2017 34.5421 37.7864 34.2958 37.5204Z" fill="white"/>
<path d="M49.0497 44.8668C48.6928 44.8668 48.4033 45.1563 48.4033 45.5132V46.8061C48.4033 47.163 48.6928 47.4525 49.0497 47.4525C49.4067 47.4525 49.6961 47.163 49.6961 46.8061V45.5132C49.6961 45.1563 49.4067 44.8668 49.0497 44.8668Z" fill="white"/>
<path d="M41.0151 34.9444C40.6854 34.9121 40.3687 34.8927 40.0196 34.8927H39.6318C39.2748 34.8927 38.9854 35.1821 38.9854 35.5391C38.9814 35.8961 39.2676 36.1888 39.6245 36.1928C39.6378 36.193 39.651 36.1926 39.6641 36.192H40.0003C40.296 36.1905 40.5917 36.2057 40.8858 36.2372H40.9505C41.3074 36.255 41.6114 35.9801 41.6292 35.6231C41.6471 35.2662 41.3721 34.9623 41.0151 34.9444Z" fill="white"/>
<path d="M44.9465 36.2109C44.9354 36.2043 44.9241 36.198 44.9126 36.192C44.5157 35.9455 44.1009 35.7295 43.6715 35.5456C43.3413 35.41 42.9635 35.5677 42.8279 35.8979C42.6923 36.228 42.8501 36.6057 43.1802 36.7414V36.7867C43.5516 36.9368 43.9103 37.1162 44.2532 37.3232C44.353 37.3824 44.4669 37.4137 44.5829 37.4137C44.8226 37.4255 45.049 37.3035 45.1711 37.097C45.3538 36.7902 45.2532 36.3935 44.9465 36.2109Z" fill="white"/>
<path d="M30.9501 48.1699C30.5931 48.1699 30.3037 48.4594 30.3037 48.8163V50.1092C30.3037 50.4661 30.5931 50.7556 30.9501 50.7556C31.3071 50.7556 31.5965 50.4661 31.5965 50.1092V48.8163C31.5965 48.4594 31.3071 48.1699 30.9501 48.1699Z" fill="white"/>
<path d="M30.9501 44.2915C30.5931 44.2915 30.3037 44.5809 30.3037 44.9379V46.2307C30.3037 46.5877 30.5931 46.8772 30.9501 46.8772C31.3071 46.8772 31.5965 46.5877 31.5965 46.2307V44.9379C31.5965 44.5809 31.3071 44.2915 30.9501 44.2915Z" fill="white"/>
<path d="M49.5347 42.8312C49.5347 42.831 49.5347 42.8308 49.5345 42.8307C49.45 42.3775 49.3356 41.9306 49.1919 41.4926C49.0794 41.1534 48.7134 40.9697 48.3742 41.0821C48.035 41.1946 47.8513 41.5606 47.9637 41.8998L47.9508 41.8869C48.0786 42.2669 48.178 42.6558 48.2482 43.0505C48.305 43.3614 48.5785 43.5857 48.8946 43.5805C48.933 43.587 48.9725 43.587 49.0109 43.5805C49.3624 43.5183 49.5969 43.1828 49.5347 42.8312Z" fill="white"/>
<path d="M31.8942 40.523C31.5644 40.3864 31.1862 40.543 31.0497 40.873C31.0489 40.8748 31.0482 40.8767 31.0474 40.8785C30.8745 41.2987 30.732 41.7308 30.6208 42.1713C30.507 42.5097 30.6891 42.8763 31.0275 42.99C31.0447 42.9959 31.0621 43.0009 31.0797 43.0052C31.1313 43.0115 31.1833 43.0115 31.2349 43.0052C31.5392 43.0141 31.8084 42.8095 31.8813 42.5139C31.9763 42.1227 32.0972 41.7384 32.2433 41.3633C32.3772 41.0349 32.2215 40.6599 31.8942 40.523Z" fill="white"/>
<path d="M47.9354 39.0163C47.9341 39.0143 47.9327 39.0122 47.9312 39.0103C47.6679 38.6328 47.3785 38.2742 47.065 37.9373C46.8205 37.6748 46.4095 37.6604 46.1471 37.9049C45.8847 38.1494 45.8703 38.5604 46.1148 38.8228C46.39 39.1136 46.6429 39.4248 46.8711 39.7537C46.9916 39.9274 47.1896 40.0313 47.4011 40.0316C47.533 40.0313 47.6615 39.9907 47.7696 39.9153C48.0636 39.7128 48.1379 39.3104 47.9354 39.0163Z" fill="white"/>
<path d="M37.6882 35.7636C37.5664 35.4477 37.2215 35.2793 36.8975 35.3776C36.4536 35.5232 36.0213 35.7025 35.6047 35.9141C35.287 36.0768 35.1614 36.4664 35.3242 36.7841C35.4352 37.0009 35.6585 37.1368 35.902 37.1358H35.9214C36.0226 37.1351 36.1223 37.1109 36.2123 37.0647C36.5691 36.8832 36.9386 36.7276 37.3177 36.5993C37.6508 36.4708 37.8167 36.0967 37.6882 35.7636Z" fill="white"/>
<path d="M30.9501 52.0485C30.5931 52.0485 30.3037 52.3379 30.3037 52.6949V53.9877C30.3037 54.3447 30.5931 54.6341 30.9501 54.6341C31.3071 54.6341 31.5965 54.3447 31.5965 53.9877V52.6949C31.5965 52.3379 31.3071 52.0485 30.9501 52.0485Z" fill="white"/>
<path d="M39.9999 38.3445C39.6429 38.3445 39.3535 38.6339 39.3535 38.9909V39.3787C39.3535 39.7357 39.6429 40.0251 39.9999 40.0251C40.3569 40.0251 40.6463 39.7357 40.6463 39.3787V38.9909C40.6463 38.6339 40.3569 38.3445 39.9999 38.3445Z" fill="white"/>
<path d="M39.9999 49.075C39.6429 49.075 39.3535 49.3644 39.3535 49.7214V51.0142C39.3535 51.3712 39.6429 51.6606 39.9999 51.6606C40.3569 51.6606 40.6463 51.3712 40.6463 51.0142V49.7214C40.6463 49.3644 40.3569 49.075 39.9999 49.075Z" fill="white"/>
<path d="M39.9999 45.1965C39.6429 45.1965 39.3535 45.486 39.3535 45.8429V47.1358C39.3535 47.4927 39.6429 47.7822 39.9999 47.7822C40.3569 47.7822 40.6463 47.4927 40.6463 47.1358V45.8429C40.6463 45.486 40.3569 45.1965 39.9999 45.1965Z" fill="white"/>
<path d="M39.9999 41.318C39.6429 41.318 39.3535 41.6074 39.3535 41.9644V43.2572C39.3535 43.6142 39.6429 43.9037 39.9999 43.9037C40.3569 43.9037 40.6463 43.6142 40.6463 43.2572V41.9644C40.6463 41.6074 40.3569 41.318 39.9999 41.318Z" fill="white"/>
<path d="M59.4441 76.1597C59.1121 76.0321 58.7395 76.1968 58.6102 76.5281L58.5197 76.7544C58.3922 77.0863 58.5569 77.4589 58.8882 77.5882C58.9618 77.6188 59.041 77.6341 59.1209 77.6335C59.3873 77.6327 59.626 77.4685 59.722 77.2198L59.8125 76.9935C59.94 76.6616 59.7753 76.2889 59.4441 76.1597Z" fill="white"/>
<path d="M62.3662 64.9185C62.0092 64.8722 61.6821 65.1239 61.6357 65.4809L61.4741 66.7737C61.4285 67.1278 61.6787 67.4518 62.0329 67.4972C62.0342 67.4974 62.0354 67.4976 62.0365 67.4977H62.1141C62.441 67.5042 62.7212 67.2655 62.7669 66.9418L62.9285 65.649C62.9749 65.292 62.7231 64.9649 62.3662 64.9185Z" fill="white"/>
<path d="M61.8855 68.7464C61.5426 68.6474 61.1841 68.845 61.0851 69.1881C61.0804 69.2041 61.0765 69.2203 61.0731 69.2366C60.9762 69.6244 60.8663 70.0317 60.737 70.4583C60.637 70.8011 60.8338 71.1598 61.1766 71.2598C61.2365 71.2692 61.2976 71.2692 61.3575 71.2598C61.6328 71.2661 61.8818 71.0976 61.9781 70.8397C62.1074 70.4001 62.2302 69.9735 62.3272 69.5469C62.4262 69.2039 62.2286 68.8455 61.8855 68.7464Z" fill="white"/>
<path d="M60.7725 72.5042C60.435 72.3864 60.0661 72.5643 59.9483 72.9017C59.8061 73.3154 59.6574 73.7227 59.5152 74.1105C59.394 74.4462 59.5675 74.8164 59.903 74.9379C59.9727 74.9664 60.0477 74.9795 60.1228 74.9767C60.3933 74.9775 60.6357 74.81 60.7304 74.5566L61.17 73.3284C61.2878 72.9911 61.1099 72.622 60.7725 72.5042Z" fill="white"/>
<path d="M20.4851 74.117C20.3429 73.7292 20.1942 73.3219 20.052 72.9082C19.9342 72.5708 19.5653 72.3929 19.2278 72.5107C18.8904 72.6285 18.7125 72.9974 18.8303 73.3348L19.2699 74.563C19.3646 74.8164 19.607 74.984 19.8775 74.9832C19.9526 74.986 20.0276 74.9729 20.0973 74.9444C20.4328 74.8229 20.6063 74.4527 20.4851 74.117Z" fill="white"/>
<path d="M21.3967 76.5281C21.2683 76.1943 20.8935 76.028 20.5596 76.1565C20.2258 76.2849 20.0595 76.6597 20.1879 76.9936L20.2784 77.2263L21.4743 76.7415L21.3967 76.5281Z" fill="white"/>
<path d="M19.2886 70.5036C19.1594 70.077 19.0495 69.6697 18.9525 69.2819C18.8803 68.9323 18.5383 68.7074 18.1886 68.7796C17.8391 68.8518 17.6141 69.1938 17.6863 69.5435C17.6897 69.5598 17.6938 69.576 17.6983 69.5921C17.7823 69.9735 17.8987 70.4002 18.0215 70.8397C18.1044 71.1249 18.3711 71.3169 18.6679 71.3051C18.7279 71.3145 18.789 71.3145 18.8489 71.3051C19.1918 71.2053 19.3887 70.8463 19.2886 70.5036Z" fill="white"/>
<path d="M18.521 66.791C18.5205 66.7875 18.52 66.7838 18.5195 66.7802L18.3579 65.4874C18.3115 65.1304 17.9844 64.8786 17.6275 64.925C17.2705 64.9714 17.0187 65.2985 17.0651 65.6554L17.2331 66.9483C17.2756 67.2721 17.553 67.5134 17.8796 67.5106H17.9571C18.3115 67.4677 18.5639 67.1454 18.521 66.791Z" fill="white"/>
<path d="M62.0508 7.92734C61.6203 6.90423 61.0328 5.95465 60.3098 5.11253C60.3129 5.06955 60.3129 5.02624 60.3098 4.98325V1.79644C60.3098 1.43946 60.0204 1.15002 59.6634 1.15002C59.3064 1.15002 59.017 1.43946 59.017 1.79644V3.87142C58.7385 3.63968 58.4472 3.42394 58.1443 3.22501C57.9024 2.9624 57.4934 2.94576 57.231 3.18768C56.9685 3.4296 56.9517 3.83862 57.1936 4.10106C57.2647 4.17831 57.3538 4.23697 57.4527 4.2722C60.0382 6.018 61.5865 8.93526 61.5832 12.055C61.5786 17.2387 57.3723 21.437 52.1888 21.4323C48.4229 21.429 45.0236 19.1749 43.5548 15.7072C43.4283 15.3734 43.0551 15.2053 42.7213 15.3318C42.3874 15.4584 42.2193 15.8315 42.3458 16.1654C42.3518 16.1811 42.3583 16.1964 42.3654 16.2116C44.6531 21.6476 50.9142 24.1998 56.3502 21.9123C61.7862 19.6245 64.3384 13.3633 62.0508 7.92734Z" fill="white"/>
<path d="M54.4345 35.9141C54.0775 35.9141 53.7881 36.2035 53.7881 36.5605V37.8533C53.7881 38.2103 54.0775 38.4997 54.4345 38.4997C54.7915 38.4997 55.0809 38.2103 55.0809 37.8533V36.5605C55.0809 36.2035 54.7915 35.9141 54.4345 35.9141Z" fill="white"/>
<path d="M55.2814 41.6191C55.2813 41.6179 55.2811 41.6166 55.2809 41.6155C55.2357 41.2018 55.1969 40.7881 55.1711 40.3679C55.137 40.0155 54.8257 39.7563 54.4729 39.7862C54.1168 39.8102 53.8475 40.1184 53.8716 40.4746C53.8716 40.4757 53.8718 40.4767 53.8718 40.4778C53.9041 40.9239 53.9429 41.3634 53.9946 41.7707C54.034 42.0971 54.3123 42.3419 54.641 42.3395H54.7186C55.073 42.2959 55.3249 41.9733 55.2814 41.6191Z" fill="white"/>
<path d="M58.0135 48.4274C58.0122 48.4256 58.0107 48.4239 58.0094 48.4222C57.7508 48.0926 57.5052 47.7758 57.2919 47.4138C57.0973 47.1139 56.6966 47.0286 56.3966 47.2231C56.0967 47.4177 56.0114 47.8185 56.2059 48.1184C56.4451 48.4869 56.7037 48.8553 56.9816 49.2173C57.1064 49.3752 57.2976 49.466 57.4987 49.463C57.6408 49.4644 57.7795 49.419 57.8931 49.3337C58.1765 49.1165 58.2305 48.7109 58.0135 48.4274Z" fill="white"/>
<path d="M56.1641 45.2506C56.1629 45.2477 56.1616 45.2446 56.1605 45.2417C56.0078 44.8613 55.8762 44.473 55.7662 44.0782C55.6695 43.7345 55.3126 43.5342 54.9688 43.6309C54.9674 43.6314 54.9659 43.6317 54.9646 43.6322C54.6219 43.7322 54.425 44.0909 54.5251 44.4337C54.6479 44.8733 54.7966 45.2999 54.9582 45.7265C55.0563 45.9726 55.2945 46.1341 55.5593 46.1338C55.6413 46.1349 55.7227 46.1195 55.7985 46.0885C56.1308 45.9581 56.2945 45.583 56.1641 45.2506Z" fill="white"/>
<path d="M37.2586 15.3778C36.943 15.2582 36.5883 15.4016 36.4446 15.7072C34.4248 20.4811 28.9172 22.7138 24.1433 20.6937C19.3693 18.6737 17.1366 13.1663 19.1565 8.39235C19.8642 6.71992 21.0418 5.2886 22.5466 4.27195C22.874 4.12958 23.024 3.74884 22.8816 3.42144C22.7392 3.09403 22.3585 2.94406 22.0311 3.08643C21.9556 3.11924 21.887 3.16626 21.8291 3.22477C21.5263 3.4237 21.2349 3.63944 20.9564 3.87118V1.79619C20.9564 1.43921 20.667 1.14978 20.31 1.14978C19.953 1.14978 19.6636 1.43921 19.6636 1.79619V4.98301C19.6605 5.02599 19.6605 5.0693 19.6636 5.11229C15.8294 9.58886 16.3501 16.3261 20.8267 20.1603C22.7674 21.8225 25.2402 22.7333 27.7955 22.727C32.0872 22.7324 35.964 20.1647 37.6339 16.2112C37.7606 15.8775 37.5925 15.5043 37.2586 15.3778Z" fill="white"/>
<path d="M67.6596 62.0355C67.6596 62.0355 67.6596 62.0355 67.6596 61.9903C67.4075 55.468 64.2659 50.2127 62.0228 46.4764C61.5833 45.7395 61.176 45.0608 60.8335 44.4402C56.0306 35.7524 59.1916 23.6128 59.2239 23.49C59.3147 23.1475 59.1129 22.7959 58.7714 22.7014C58.427 22.6075 58.0717 22.8106 57.9778 23.155C57.9773 23.1568 57.9768 23.1585 57.9763 23.1603C57.9763 23.2573 57.8018 23.8067 57.6208 24.7505H22.3784C22.1974 23.8326 22.0487 23.2637 22.0229 23.1603C21.9529 22.8103 21.6126 22.5831 21.2624 22.653C20.9123 22.7229 20.6851 23.0633 20.7551 23.4135C20.7603 23.4394 20.767 23.4649 20.7753 23.4901C20.8076 23.613 24.0073 35.7397 19.1657 44.4404C18.8231 45.0868 18.4159 45.7332 17.9763 46.4766C15.7333 50.2128 12.5917 55.4682 12.3396 61.9904C12.3396 61.9904 12.3396 61.9905 12.3396 62.0357C12.2751 63.808 12.4272 65.5814 12.7921 67.3169C13.4902 70.6136 16.0242 78.2089 16.134 78.5321C16.2223 78.7931 16.4661 78.9696 16.7417 78.9717C16.8102 78.9816 16.8798 78.9816 16.9485 78.9717C17.2871 78.8586 17.4699 78.4924 17.3567 78.1538C17.3564 78.1529 17.3561 78.1519 17.3558 78.1508C17.3558 78.0732 14.7701 70.3098 14.0591 67.0777C13.7515 65.6375 13.604 64.1677 13.6195 62.695C21.3764 62.9536 34.615 67.7177 39.2885 71.2729L39.3532 78.2865C39.3532 78.6435 39.6426 78.9329 39.9996 78.9329C40.3566 78.9329 40.646 78.6435 40.646 78.2865L40.5878 71.3764C45.1127 67.8146 58.571 62.973 66.3797 62.7015C66.3947 64.1719 66.2472 65.6396 65.9401 67.0777C65.2937 70.3098 62.6693 78.0667 62.6434 78.1508C62.5287 78.4888 62.7097 78.8558 63.0476 78.9707C63.0485 78.9711 63.0495 78.9714 63.0506 78.9717C63.1192 78.9816 63.189 78.9816 63.2575 78.9717C63.533 78.9696 63.7769 78.7931 63.8651 78.5321C63.975 78.2089 66.5089 70.6136 67.2071 67.3169C67.5721 65.5813 67.724 63.8078 67.6596 62.0355ZM19.0817 47.1357V47.1422C19.5342 46.3924 19.9479 45.6942 20.2969 45.0672C23.9362 38.4867 23.3028 30.3096 22.6111 26.0433H57.3881C56.6964 30.3096 56.0629 38.4867 59.7022 45.0672C60.0513 45.7136 60.465 46.36 60.9175 47.1422C61.5639 48.267 62.3461 49.5275 63.0765 50.9237C63.0422 50.9177 63.0073 50.9177 62.9731 50.9237C57.582 53.5546 49.7863 55.0608 41.5962 55.0608H40.6072C40.6306 55.001 40.6437 54.9374 40.646 54.8733V53.5805C40.646 53.2235 40.3566 52.9341 39.9996 52.9341C39.6426 52.9341 39.3532 53.2235 39.3532 53.5805V54.8733C39.3554 54.9374 39.3685 55.001 39.392 55.0608H38.4029C30.2129 55.0608 22.4172 53.5546 17.0261 50.9237C16.9918 50.9177 16.9569 50.9177 16.9227 50.9237C17.6531 49.521 18.4094 48.2605 19.0817 47.1357ZM39.9996 70.1933C35.0222 66.4505 21.719 61.6671 13.6712 61.4021C13.955 58.1336 14.8682 54.9509 16.3603 52.0291C16.3907 52.0599 16.4256 52.0861 16.4637 52.1066C22.0229 54.8216 30.0384 56.373 38.4029 56.373H41.5962C49.9996 56.373 57.9763 54.8216 63.5355 52.1066C63.5736 52.0861 63.6085 52.0599 63.6389 52.0291C65.131 54.9509 66.0442 58.1336 66.328 61.4021C58.2801 61.6735 44.9964 66.457 39.9996 70.1933Z" fill="white"/>
<path d="M25.5595 35.9141C25.2025 35.9141 24.9131 36.2035 24.9131 36.5605V37.8533C24.9131 38.2103 25.2025 38.4997 25.5595 38.4997C25.9165 38.4997 26.2059 38.2103 26.2059 37.8533V36.5605C26.2059 36.2035 25.9165 35.9141 25.5595 35.9141Z" fill="white"/>
<path d="M23.6035 47.223C23.3036 47.0284 22.9028 47.1138 22.7083 47.4137C22.4949 47.7498 22.2493 48.0601 21.9907 48.4221C21.7708 48.7033 21.8206 49.1096 22.1019 49.3295C22.1037 49.3308 22.1055 49.3323 22.1071 49.3336C22.2207 49.4189 22.3594 49.4643 22.5014 49.4628C22.7026 49.4659 22.8938 49.3751 23.0185 49.2172C23.2965 48.8552 23.555 48.4868 23.7942 48.1183C23.9888 47.8185 23.9035 47.4176 23.6035 47.223Z" fill="white"/>
<path d="M25.5304 39.8151C25.1735 39.7918 24.8653 40.0625 24.842 40.4195C24.842 40.8397 24.7774 41.2534 24.7321 41.6671C24.7012 42.011 24.9461 42.3182 25.288 42.3652H25.3656C25.6943 42.3676 25.9726 42.1228 26.012 41.7964C26.0637 41.3633 26.1025 40.9237 26.1348 40.5035C26.1581 40.1466 25.8874 39.8384 25.5304 39.8151Z" fill="white"/>
<path d="M25.0344 43.6199C24.6923 43.5206 24.3343 43.717 24.2341 44.0588C24.1178 44.4595 23.9885 44.8474 23.8398 45.2223C23.7013 45.5513 23.856 45.9303 24.185 46.0688C24.1905 46.071 24.1962 46.0733 24.2018 46.0756C24.2776 46.1066 24.3591 46.1219 24.441 46.1208C24.7036 46.1184 24.9386 45.9574 25.0357 45.7136C25.2068 45.2913 25.3536 44.8597 25.4752 44.4208C25.5746 44.0778 25.3773 43.7194 25.0344 43.6199Z" fill="white"/>
<path d="M52.6727 1.21611C52.3599 1.04432 51.9668 1.15857 51.7949 1.4716C51.7888 1.48275 51.7829 1.49422 51.7774 1.5057C49.7348 5.51345 45.1065 8.0991 39.9804 8.0991C34.8544 8.0991 30.2261 5.51345 28.1834 1.5057C28.0939 1.16003 27.7411 0.95253 27.3956 1.04206C27.0499 1.13159 26.8424 1.48437 26.932 1.82987C26.9573 1.92764 27.0052 2.01798 27.0716 2.09393C29.3146 6.52832 34.3954 9.39193 39.9998 9.39193C45.6042 9.39193 50.6915 6.52832 52.9281 2.09393C53.1 1.78091 52.9858 1.38789 52.6727 1.21611Z" fill="white"/>
</g>
<defs>
<clipPath id="clip0_563_3246">
<rect width="80" height="80" fill="white"/>
</clipPath>
</defs>
</svg>
