<svg width="80" height="80" viewBox="0 0 80 80" fill="none" xmlns="http://www.w3.org/2000/svg">
<g clip-path="url(#clip0_563_3446)">
<path d="M62.5432 51.2496C62.2686 51.0027 61.8459 51.0251 61.599 51.2996C61.2769 51.6578 60.9845 52.0416 60.7249 52.4473C60.5259 52.7574 60.616 53.1703 60.9262 53.3693C61.0335 53.4381 61.1581 53.4748 61.2854 53.4749C61.5146 53.4768 61.7288 53.361 61.8526 53.168C62.0698 52.8217 62.3177 52.4957 62.5932 52.1938C62.8401 51.9192 62.8178 51.4965 62.5432 51.2496Z" fill="white"/>
<path d="M69.0721 47.6763V47.6497C68.5962 47.684 68.1234 47.7531 67.6575 47.8565C67.289 47.897 67.0231 48.2287 67.0637 48.5972C67.1042 48.9657 67.4358 49.2316 67.8043 49.191C67.8509 49.1975 67.8979 49.1975 67.9444 49.191C68.349 49.1026 68.7593 49.0424 69.1722 49.0109C69.5407 48.9832 69.8171 48.6621 69.7894 48.2936C69.7617 47.9251 69.4406 47.6487 69.0721 47.6763Z" fill="white"/>
<path d="M65.9516 49.0898C65.8136 48.748 65.4248 48.5828 65.0832 48.7206C65.0528 48.7328 65.0236 48.7473 64.9954 48.7638V48.7905C64.571 48.988 64.1588 49.2109 63.761 49.4578C63.4542 49.6593 63.3678 50.0706 63.5675 50.3786C63.6899 50.5696 63.9011 50.6852 64.128 50.6855C64.2558 50.6852 64.3809 50.6482 64.4883 50.5788C64.8409 50.3512 65.2063 50.144 65.5826 49.9582C65.9243 49.8204 66.0896 49.4316 65.9516 49.0898Z" fill="white"/>
<path d="M60.4346 54.6409C60.4268 54.639 60.419 54.6374 60.411 54.6357C60.0498 54.5626 59.6976 54.7962 59.6246 55.1575C59.6242 55.1593 59.6239 55.1612 59.6236 55.1628C59.5285 55.6486 59.4815 56.1425 59.4835 56.6375C59.4835 57.006 59.7822 57.3048 60.1507 57.3048C60.5192 57.3048 60.818 57.006 60.818 56.6375C60.8187 56.2366 60.8567 55.8368 60.9314 55.4431C61.0158 55.0844 60.7935 54.7253 60.4346 54.6409Z" fill="white"/>
<path d="M36.5838 52.4674C36.3205 52.0578 36.0284 51.6676 35.7096 51.2996C35.4628 51.0251 35.04 51.0027 34.7655 51.2496C34.4909 51.4965 34.4685 51.9192 34.7154 52.1938C34.989 52.4974 35.2367 52.8232 35.4561 53.168C35.5799 53.361 35.7941 53.4768 36.0233 53.4749C36.151 53.4746 36.2762 53.4376 36.3836 53.3682C36.6807 53.1698 36.7689 52.7728 36.5838 52.4674Z" fill="white"/>
<path d="M37.6847 55.183C37.6254 54.8194 37.2824 54.5727 36.9187 54.6321C36.9115 54.6332 36.9045 54.6346 36.8974 54.6359C36.5362 54.7095 36.3032 55.0619 36.3769 55.4229C36.3769 55.4229 36.3769 55.4231 36.3769 55.4233C36.453 55.8236 36.4908 56.2302 36.4903 56.6377C36.4903 57.0062 36.7891 57.305 37.1576 57.305C37.5261 57.305 37.8249 57.0062 37.8249 56.6377C37.8255 56.1494 37.7787 55.6621 37.6847 55.183Z" fill="white"/>
<path d="M29.6442 47.8565C29.1806 47.7527 28.7101 47.6835 28.2363 47.6496C27.87 47.6228 27.5507 47.8972 27.5223 48.2635C27.4955 48.6299 27.7699 48.9491 28.1362 48.9775C28.5491 49.009 28.9594 49.0693 29.364 49.1577C29.4105 49.1642 29.4576 49.1642 29.5041 49.1577C29.8242 49.1648 30.1041 48.9436 30.1714 48.6305C30.2368 48.2717 30.0019 47.9271 29.6442 47.8565Z" fill="white"/>
<path d="M33.5403 49.4646V49.4846C33.1456 49.2364 32.7356 49.0135 32.3125 48.8173C32.039 48.5704 31.6171 48.592 31.3702 48.8655C31.1233 49.1391 31.1448 49.561 31.4184 49.8079C31.5051 49.8863 31.6111 49.9405 31.7255 49.965C32.101 50.1524 32.4663 50.3594 32.8198 50.5856C32.9272 50.655 33.0524 50.692 33.1801 50.6924C33.5486 50.6914 33.8466 50.3919 33.8457 50.0234C33.8451 49.7974 33.7301 49.587 33.5403 49.4646Z" fill="white"/>
<path d="M70.2681 33.3276C70.2401 33.3107 70.2108 33.2959 70.1806 33.2834H70.1539L69.5734 32.9898C67.9704 32.1639 66.0253 32.4019 64.669 33.5903C62.1785 35.633 58.6951 35.9528 55.8744 34.3977C55.5302 34.2661 55.1444 34.4386 55.0128 34.7827C54.9112 35.0485 54.9893 35.3492 55.2071 35.5321C56.5498 36.3256 58.085 36.7343 59.6444 36.7131C59.938 36.7131 60.2383 36.7131 60.5319 36.6731C61.7121 36.5728 62.8625 36.249 63.9216 35.7189C63.9216 35.7189 63.9683 35.7189 63.9883 35.7189C64.9724 35.5539 65.9691 35.9312 66.5974 36.7064C66.7233 36.8744 66.9211 36.9734 67.1312 36.9734C67.2755 36.9734 67.4161 36.9265 67.5315 36.8399C67.8263 36.6187 67.886 36.2005 67.665 35.9057C67.1612 35.246 66.4599 34.7644 65.6632 34.5312C66.606 33.7593 67.918 33.6228 68.9995 34.1842L69.58 34.4711C69.8958 34.6611 70.3058 34.5592 70.4959 34.2434C70.6859 33.9276 70.5839 33.5176 70.2681 33.3276Z" fill="white"/>
<path d="M69.5793 23.7615C62.2861 21.7597 56.234 23.0142 54.5525 26.8443C54.4032 27.1812 54.5552 27.5754 54.892 27.7247C54.8922 27.7249 54.8925 27.7249 54.8928 27.725C54.9767 27.7626 55.0678 27.7808 55.1597 27.7784C55.422 27.7779 55.6595 27.6238 55.7669 27.3847C57.1682 24.2353 62.6998 23.2744 69.2257 25.0493C69.5814 25.1469 69.9489 24.9379 70.0464 24.5822C70.1442 24.2266 69.935 23.8591 69.5793 23.7615Z" fill="white"/>
<path d="M42.4937 34.6771C42.362 34.333 41.9764 34.1605 41.632 34.2921C41.5627 34.3186 41.4983 34.3565 41.4414 34.4044C38.6095 35.968 35.1087 35.637 32.6201 33.5703C31.2624 32.4043 29.3337 32.1774 27.7424 32.9965L27.1619 33.2901C26.8217 33.4317 26.6608 33.8224 26.8024 34.1625C26.944 34.5026 27.3347 34.6636 27.6748 34.522C27.705 34.5095 27.7344 34.4946 27.7624 34.4778H27.7558L28.3363 34.1909C29.4187 33.6295 30.7318 33.7688 31.6726 34.5445C30.8799 34.764 30.1784 35.2318 29.6708 35.879C29.4498 36.1738 29.5095 36.5922 29.8043 36.8132C29.9197 36.8998 30.0602 36.9467 30.2046 36.9467C30.4146 36.9467 30.6125 36.8477 30.7384 36.6798C31.3715 35.9216 32.3606 35.5579 33.3341 35.7256C33.3341 35.7256 33.3741 35.7256 33.3942 35.7256C34.4554 36.2564 35.6081 36.5803 36.7905 36.6798C37.0841 36.6798 37.3844 36.7198 37.6713 36.7198C39.2311 36.7427 40.7666 36.334 42.1086 35.5387C42.453 35.4071 42.6253 35.0214 42.4937 34.6771Z" fill="white"/>
<path d="M42.7555 26.8449C42.7554 26.8445 42.7554 26.8444 42.7552 26.844C41.0604 23.0139 35.0216 21.7795 27.7284 23.7613C27.3727 23.8589 27.1637 24.2264 27.2613 24.582C27.3589 24.9377 27.7264 25.1467 28.082 25.0491C34.6079 23.2742 40.1395 24.235 41.5341 27.3845C41.6425 27.6259 41.8834 27.7802 42.148 27.7782C42.2397 27.7789 42.3305 27.7607 42.4149 27.7248C42.752 27.576 42.9045 27.182 42.7555 26.8449Z" fill="white"/>
<path d="M58.6702 41.6109L58.6902 41.6509C58.2765 41.5709 57.8562 41.4708 57.4558 41.3573C57.102 41.2541 56.7316 41.4573 56.6284 41.8111C56.5341 42.1626 56.739 42.5247 57.0888 42.6251C57.5337 42.7497 57.9784 42.8565 58.4233 42.9454C58.463 42.9521 58.5037 42.9521 58.5434 42.9454C58.9119 42.9805 59.2391 42.71 59.2741 42.3416C59.3091 41.9729 59.0389 41.6458 58.6702 41.6109Z" fill="white"/>
<path d="M55.1064 40.4165C54.79 40.2555 54.4825 40.0774 54.1856 39.8827C53.876 39.6842 53.4641 39.7738 53.2648 40.0829C53.0663 40.3925 53.1558 40.8043 53.4649 41.0037C53.7919 41.2172 54.1322 41.4174 54.4925 41.6042C54.5874 41.6529 54.6927 41.6781 54.7995 41.6776C55.168 41.6791 55.4679 41.3815 55.4694 41.013C55.4706 40.7616 55.3301 40.5311 55.1064 40.4165Z" fill="white"/>
<path d="M69.6834 38.4657C69.6799 38.4642 69.6764 38.4627 69.6729 38.4613C69.336 38.312 68.9418 38.464 68.7925 38.8008C68.7923 38.801 68.7923 38.8013 68.7921 38.8016C68.6385 39.1373 68.4287 39.4442 68.1716 39.7091C67.9129 39.9694 67.9129 40.3897 68.1716 40.65C68.4318 40.9087 68.8522 40.9087 69.1124 40.65C69.4976 40.2748 69.8099 39.8314 70.0333 39.3421C70.1787 39.0035 70.0221 38.6111 69.6834 38.4657Z" fill="white"/>
<path d="M67.1431 41.4192C67.0253 41.07 66.6468 40.8824 66.2975 41.0001C66.2628 41.0118 66.2291 41.0263 66.1969 41.0435L66.1769 41.0168C65.7935 41.1768 65.4015 41.3149 65.0025 41.4305C64.6476 41.5303 64.441 41.8988 64.5407 42.2536C64.541 42.2551 64.5415 42.2566 64.542 42.2579C64.6276 42.5524 64.9029 42.7505 65.2093 42.7384C65.269 42.748 65.3298 42.748 65.3895 42.7384C65.8441 42.6094 66.29 42.4513 66.724 42.2646C67.0733 42.147 67.2608 41.7683 67.1431 41.4192Z" fill="white"/>
<path d="M62.5262 41.8645H62.5062C62.1525 41.8645 61.7856 41.9112 61.4186 41.9112H61.2317C60.8632 41.9112 60.5645 42.2099 60.5645 42.5784C60.5645 42.9469 60.8632 43.2457 61.2317 43.2457H61.4386C61.8389 43.2457 62.2393 43.2457 62.6263 43.199C62.9948 43.1713 63.2712 42.8502 63.2435 42.4817C63.216 42.113 62.8949 41.8368 62.5262 41.8645Z" fill="white"/>
<path d="M32.3377 41.4318C32.3362 41.4313 32.3347 41.431 32.3333 41.4305C31.9343 41.3149 31.5423 41.1768 31.1589 41.0168C30.8338 40.8435 30.4296 40.9666 30.2563 41.2917C30.083 41.6168 30.2061 42.021 30.5312 42.1943C30.5636 42.2115 30.5971 42.226 30.6318 42.2377C31.0658 42.4244 31.5117 42.5825 31.9663 42.7115C32.0182 42.7281 32.0721 42.7372 32.1265 42.7382C32.4329 42.7503 32.7082 42.5522 32.7937 42.2577C32.8958 41.9039 32.6916 41.5341 32.3377 41.4318Z" fill="white"/>
<path d="M29.1235 39.7092C28.8665 39.4443 28.6566 39.1373 28.503 38.8017C28.354 38.4645 27.96 38.3121 27.623 38.461C27.6227 38.4612 27.6225 38.4612 27.6222 38.4614C27.3026 38.6275 27.1726 39.0174 27.3286 39.3422C27.5328 39.8161 27.8197 40.25 28.176 40.6233C28.3018 40.7589 28.4781 40.8362 28.6631 40.8368C28.835 40.8362 28.9998 40.7693 29.1235 40.65C29.3823 40.3896 29.3823 39.9694 29.1235 39.7092Z" fill="white"/>
<path d="M43.9949 40.0455C43.7954 39.7686 43.4192 39.6868 43.1228 39.856C42.8258 40.0507 42.5184 40.2288 42.2019 40.3898C41.8743 40.5584 41.7454 40.9606 41.9138 41.2884C41.9142 41.2891 41.9147 41.2899 41.915 41.2906C42.0299 41.5125 42.2592 41.6514 42.5089 41.6509C42.6153 41.6496 42.7202 41.6246 42.8158 41.5775C43.1695 41.3907 43.5165 41.1905 43.8434 40.977C44.1425 40.7615 44.2102 40.3444 43.9949 40.0455Z" fill="white"/>
<path d="M36.0961 41.9112H35.9026C35.5356 41.9112 35.1686 41.9112 34.8149 41.8645C34.4464 41.8368 34.1253 42.1132 34.0976 42.4817C34.0699 42.8502 34.3463 43.1713 34.7148 43.199C35.0885 43.2257 35.4889 43.2457 35.8892 43.2457H36.0961C36.4646 43.2457 36.7633 42.9469 36.7633 42.5784C36.7633 42.2098 36.4647 41.9112 36.0961 41.9112Z" fill="white"/>
<path d="M40.6879 41.8615C40.6839 41.8444 40.6793 41.8276 40.6738 41.8111C40.5705 41.4573 40.2002 41.2541 39.8464 41.3573C39.446 41.4708 39.0256 41.5709 38.6119 41.6509C38.2434 41.6841 37.9715 42.0098 38.0047 42.3783C38.0379 42.7468 38.3635 43.0187 38.732 42.9855C38.7741 42.9925 38.8168 42.9925 38.8588 42.9855C39.3037 42.9009 39.7484 42.7941 40.1933 42.6652C40.5518 42.5798 40.7734 42.2199 40.6879 41.8615Z" fill="white"/>
<path d="M51.8575 47.3494C51.6076 47.1353 51.2393 47.1353 50.9894 47.3494C49.7159 48.6245 47.65 48.6258 46.3749 47.3524C46.3739 47.3514 46.3729 47.3504 46.3719 47.3494C46.092 47.1096 45.6707 47.1422 45.431 47.4221C45.217 47.672 45.217 48.0403 45.431 48.2902C46.2923 49.1515 47.4627 49.6321 48.6806 49.6247C49.8985 49.6312 51.0684 49.1508 51.9302 48.2902C52.1699 48.0103 52.1374 47.5891 51.8575 47.3494Z" fill="white"/>
<path d="M69.9196 17.4425C67.7577 15.7277 60.5779 10.2294 58.496 8.64798C58.7763 8.32769 59.0498 7.98071 59.3101 7.64708C60.8314 5.64528 62.3261 1.64169 62.3862 1.48155C62.4849 1.12656 62.2771 0.758563 61.9221 0.659975C61.6076 0.572563 61.2762 0.725367 61.1384 1.02113C61.1384 1.06117 59.6504 5.02473 58.2491 6.83969C54.3456 11.9309 48.3869 15.2673 40.5332 16.6819L25.8067 19.7246C15.6997 21.8036 9.19174 31.6822 11.2706 41.7892C11.857 44.6396 13.1009 47.3137 14.9035 49.5981C14.9189 49.6143 14.9324 49.6321 14.9436 49.6515C16.2047 51.1395 17.5192 52.6208 18.787 54.0554C25.3796 61.5021 31.6052 68.5351 28.0086 74.3069C27.4882 75.141 24.9859 77.4965 21.9298 77.323C21.5613 77.3028 21.2461 77.585 21.2259 77.9535C21.2055 78.322 21.4879 78.6373 21.8564 78.6575C21.9966 78.6575 22.1367 78.6575 22.2768 78.6575C25.0006 78.5517 27.5269 77.2075 29.1363 75.0076C33.2667 68.3883 26.7141 60.995 19.7946 53.168C18.5335 51.74 17.2256 50.2654 15.9645 48.764C10.0357 41.2371 11.3312 30.3289 18.8581 24.4001C20.2065 23.338 21.7048 22.4819 23.3046 21.8598V42.5451C23.3161 48.0255 25.5906 53.2579 29.5902 57.0047L41.8746 68.4684C43.3794 69.8681 45.3577 70.6476 47.4129 70.6503H49.8951C51.969 70.6526 53.9659 69.8653 55.4801 68.4483L63.187 61.3086V64.318C63.177 69.6082 64.8218 74.7692 67.8913 79.0779C68.0157 79.2572 68.2201 79.3645 68.4384 79.3648C68.5757 79.3658 68.7095 79.3213 68.8188 79.238C69.1182 79.0257 69.1898 78.6111 68.9789 78.3105C66.0686 74.2187 64.5101 69.3193 64.5216 64.2979V60.4612C64.5184 60.3431 64.4837 60.228 64.4215 60.1275L67.7578 57.0114C71.7556 53.2639 74.0278 48.0313 74.0368 42.5518V23.7749C79.4096 31.5606 80.1523 41.6429 75.9785 50.1319C75.8211 50.4637 75.9612 50.8602 76.2921 51.0194C76.3817 51.0694 76.4832 51.0948 76.5857 51.0928C76.8385 51.0908 77.0683 50.9461 77.1796 50.7191C82.8312 39.2888 79.7751 25.2762 69.9196 17.4425ZM72.7021 22.2469V42.5518C72.6941 47.6628 70.5738 52.5432 66.8435 56.0372L54.5658 67.5008C53.2993 68.6857 51.6293 69.3443 49.8949 69.3425H47.4127C45.6783 69.3443 44.0083 68.6857 42.7419 67.5008L30.4575 56.0372C26.7253 52.5439 24.6027 47.6637 24.5922 42.5518V21.4128C25.0793 21.266 25.5731 21.1325 26.0736 21.0324L40.7934 17.9964C47.9065 16.6618 53.5449 13.8793 57.5952 9.64221C59.5369 11.1235 66.9369 16.7553 69.0922 18.4902C70.4297 19.5546 71.655 20.753 72.7488 22.0667C72.7238 22.1237 72.7081 22.1846 72.7021 22.2469Z" fill="white"/>
<path d="M16.185 4.52428C15.8954 4.29874 15.478 4.34945 15.2508 4.63771C11.2395 9.95916 9.67294 16.7321 10.9402 23.2744C10.996 23.5981 11.2791 23.8331 11.6075 23.8283H11.7276C12.0904 23.7641 12.3325 23.4177 12.2683 23.0547C12.2683 23.0546 12.2683 23.0544 12.2681 23.0542C11.0544 16.8829 12.5195 10.4863 16.2984 5.45845C16.5241 5.16885 16.4734 4.75131 16.185 4.52428Z" fill="white"/>
<path d="M15.8872 18.351C15.8863 18.3507 15.8857 18.3503 15.8848 18.35C15.5442 18.2095 15.154 18.3718 15.0135 18.7125C15.0102 18.7207 15.007 18.7288 15.004 18.737C14.3419 20.3213 13.8433 21.9691 13.516 23.6548C13.4466 24.0157 13.6823 24.3649 14.0432 24.4355C14.0852 24.442 14.1279 24.442 14.1699 24.4355C14.4941 24.4413 14.7757 24.2133 14.8372 23.895C15.1482 22.2945 15.6199 20.7298 16.2451 19.2241C16.3873 18.8841 16.2271 18.4931 15.8872 18.351Z" fill="white"/>
<path d="M49.1238 7.34939C48.8931 7.06197 48.4731 7.01609 48.1858 7.24697C48.1653 7.26348 48.1458 7.28117 48.1273 7.30002C45.5782 9.55237 42.4477 11.0435 39.0925 11.6039C38.7302 11.6711 38.491 12.0193 38.5582 12.3817C38.5584 12.3827 38.5585 12.3837 38.5587 12.3846C38.6202 12.7029 38.9018 12.9309 39.226 12.9251L39.3394 12.9184C42.9375 12.3144 46.2928 10.7096 49.0214 8.28757C49.3087 8.0567 49.3545 7.63682 49.1238 7.34939Z" fill="white"/>
<path d="M52.4378 2.73592C52.1172 2.55159 51.708 2.66219 51.5236 2.98281C51.1453 3.64857 50.7264 4.29031 50.2692 4.90453C50.0482 5.1993 50.1079 5.61767 50.4026 5.8387C50.5189 5.92295 50.6594 5.96749 50.803 5.96549C51.0154 5.97283 51.2185 5.87874 51.3502 5.71192C51.8393 5.05433 52.285 4.36555 52.6847 3.65007C52.869 3.32945 52.7584 2.92008 52.4378 2.73592Z" fill="white"/>
<path d="M14.1032 61.9358L7.70415 59.1533C4.25438 57.6253 2.04573 55.1497 1.31841 52.0002C1.23551 51.6409 0.877016 51.4169 0.517694 51.4998C0.158371 51.5827 -0.0656634 51.9412 0.0172444 52.3005C0.58442 54.8028 2.29262 58.2258 7.15699 60.3811L13.5627 63.1703C20.4489 66.1596 23.6651 69.6494 23.1247 73.5396C23.0736 73.9046 23.328 74.2419 23.693 74.2929C23.6948 74.2932 23.6967 74.2934 23.6985 74.2936H23.7919C24.1291 74.2964 24.4153 74.0474 24.4592 73.7131C25.0864 69.1623 21.6033 65.1988 14.1032 61.9358Z" fill="white"/>
<path d="M48.6809 34.8715C48.3124 34.8715 48.0137 35.1702 48.0137 35.5387V36.8733C48.0137 37.2418 48.3124 37.5405 48.6809 37.5405C49.0494 37.5405 49.3482 37.2418 49.3482 36.8733V35.5387C49.3482 35.1701 49.0496 34.8715 48.6809 34.8715Z" fill="white"/>
<path d="M48.6809 30.8679C48.3124 30.8679 48.0137 31.1667 48.0137 31.5352V32.8697C48.0137 33.2382 48.3124 33.537 48.6809 33.537C49.0494 33.537 49.3482 33.2382 49.3482 32.8697V31.5352C49.3482 31.1665 49.0496 30.8679 48.6809 30.8679Z" fill="white"/>
<path d="M48.6809 38.8751C48.3124 38.8751 48.0137 39.1739 48.0137 39.5424V40.8769C48.0137 41.2454 48.3124 41.5442 48.6809 41.5442C49.0494 41.5442 49.3482 41.2454 49.3482 40.8769V39.5424C49.3482 39.1737 49.0496 38.8751 48.6809 38.8751Z" fill="white"/>
<path d="M56.1205 56.1572C55.1063 54.4043 53.5068 53.0648 51.6031 52.3738C50.8006 52.0867 49.9114 52.1748 49.181 52.614C48.8533 52.797 48.4543 52.797 48.1267 52.614C47.3982 52.1698 46.5077 52.0791 45.7045 52.3671C43.7998 53.0598 42.2002 54.4018 41.1871 56.1572C41.0678 56.3637 41.0678 56.618 41.1871 56.8245C43.5819 60.9482 48.8662 62.3498 52.9899 59.9551C54.2877 59.2014 55.3668 58.1223 56.1205 56.8245C56.2398 56.618 56.2398 56.3636 56.1205 56.1572ZM48.6805 59.7938C46.2198 59.7943 43.9246 58.555 42.575 56.4975C43.435 55.1745 44.7021 54.1674 46.1849 53.6283C46.6103 53.478 47.0807 53.527 47.4661 53.7617C48.2176 54.1956 49.1434 54.1956 49.8949 53.7617C50.2803 53.527 50.7507 53.478 51.1761 53.6283C52.6589 54.1674 53.926 55.1745 54.786 56.4975C53.4364 58.555 51.1412 59.7941 48.6805 59.7938Z" fill="white"/>
</g>
<defs>
<clipPath id="clip0_563_3446">
<rect width="80" height="80" fill="white"/>
</clipPath>
</defs>
</svg>
