<svg width="322" height="227" viewBox="0 0 322 227" fill="none" xmlns="http://www.w3.org/2000/svg">
<path d="M174.763 72.9317C173.581 70.9891 172.947 68.8614 171.814 66.9614C170.55 64.7295 169.065 62.6293 167.383 60.6922C166.799 60.0376 166.279 59.8881 165.559 60.5641C162.41 63.56 158.905 66.2071 156.462 69.8861C155.899 70.7258 155.351 71.5797 154.802 72.4336C154.253 73.2875 154.56 73.7785 155.557 73.7714C157.452 73.7714 159.34 73.7714 161.256 73.6718C162.567 73.6149 164.69 75.707 164.483 77.0092C164.377 77.7208 163.771 77.5216 163.308 77.5216C160.159 77.5216 157.003 77.5216 153.855 77.5216C153.544 77.4955 153.232 77.5375 152.94 77.6446C152.647 77.7517 152.382 77.9213 152.162 78.1416C151.942 78.3619 151.773 78.6276 151.667 78.9199C151.56 79.2123 151.519 79.5244 151.546 79.8342C151.546 80.7878 152.316 80.5458 152.836 80.5458C156.398 80.5458 160.01 80.5458 163.6 80.5458C165.659 80.5458 166.699 81.7129 166.542 83.7907C166.485 84.5023 165.922 84.5023 165.474 84.5023C162.852 84.5023 160.238 84.4668 157.637 84.4312C155.6 84.4312 153.562 84.3956 151.532 84.3529C149.865 84.3529 150.3 85.7121 150.107 86.5517C149.894 87.6049 150.82 87.4982 151.475 87.4982C156.184 87.4982 160.886 87.4982 165.588 87.4982C167.198 87.4982 167.112 87.4982 167.219 89.882C167.283 91.2056 166.72 91.3621 165.609 91.3479C160.95 91.2981 156.298 91.3479 151.639 91.3479C149.737 91.3479 149.694 91.4049 150.001 93.3618C150.243 94.8775 150.485 96.4003 150.763 98.1721C149.545 97.1546 149.438 95.8381 149.089 94.7494C146.747 87.7826 146.829 80.2298 149.324 73.316C151.554 67.0468 155.536 62.1937 160.558 57.9739C165.488 53.685 169.106 48.0935 170.996 41.8422C172.886 35.591 172.972 28.9338 171.244 22.6359C170.973 21.6824 171.322 21.5472 172.12 21.5472C180.028 21.5472 187.935 21.3906 195.836 21.6539C200.344 21.6793 204.808 22.5407 209.001 24.1943C214.757 26.6636 218.782 30.5347 219.729 37.1241C220.527 42.703 219.679 47.7981 216.167 52.2456C214.091 54.8269 211.317 56.7583 208.174 57.8102L207.355 58.102C207.049 58.223 206.586 58.2443 206.607 58.6642C206.628 59.084 207.106 59.0129 207.419 59.084C211.473 59.9878 215.305 61.3611 218.511 64.1293C221.043 66.2602 222.881 69.0971 223.79 72.2771C225.213 77.104 224.905 82.2755 222.921 86.9004C220.662 92.2374 216.424 95.5891 211.116 97.6313C206.308 99.4423 201.202 100.335 196.064 100.264C188.79 100.264 181.517 100.264 174.243 100.264C172.59 100.264 172.633 100.264 173.246 98.8055C174.055 96.9014 174.693 94.9298 175.155 92.9134C175.39 91.8247 175.789 91.1985 177.157 91.2198C182.977 91.3052 188.797 91.3266 194.617 91.2198C198.4 91.1416 202.133 90.6221 205.56 88.7862C209.791 86.509 211.864 82.9226 212.107 78.226C212.463 71.2808 208.694 66.3708 201.934 64.7056C198.876 63.9535 195.736 63.5807 192.587 63.5956C187.201 63.5956 181.823 63.6382 176.437 63.5956C175.176 63.5956 174.713 63.9727 174.749 65.2536C174.813 67.8082 174.763 70.37 174.763 72.9317ZM186.318 30.7553H176.672C174.735 30.7553 174.635 30.7553 174.763 32.6268C175.048 34.9876 175.122 37.3689 174.984 39.7428C174.514 44.2899 174.891 48.837 174.749 53.3841C174.749 54.2024 174.799 54.7717 175.875 54.7646C182.136 54.7148 188.391 54.8144 194.646 54.665C197.673 54.622 200.614 53.6535 203.074 51.8898C206.443 49.4561 207.44 45.9764 207.448 41.9701C207.448 35.8646 203.629 32.5129 198.301 31.3601C194.14 30.4279 189.916 30.9261 186.318 30.7553Z" fill="url(#paint0_linear_563_2924)"/>
<path d="M146.567 70.4482C146.475 67.8794 146.475 67.8794 143.803 67.8794C140.12 67.8794 136.437 67.8794 132.747 67.8794C132.299 67.8299 131.846 67.9178 131.449 68.1313C131.052 68.3449 130.73 68.6739 130.524 69.0749C124.469 79.0372 118.357 88.9641 112.287 98.9193C112.074 99.3747 111.728 99.7547 111.294 100.009C110.861 100.263 110.359 100.379 109.858 100.343C106.125 100.271 102.392 100.343 98.6591 100.3C98.3314 100.3 97.8469 100.343 97.7045 100.157C97.4195 99.7875 97.8469 99.4459 98.0464 99.147C104.786 88.8051 111.527 78.4703 118.271 68.1427C119.233 66.6697 119.197 66.6554 117.559 66.1929C108.917 63.7877 102.926 58.472 101.131 49.5842C99.4641 41.3296 100.939 33.6017 107.771 27.795C111.874 24.3011 116.832 22.6502 122.104 22.0168C130.752 20.9708 139.443 21.7678 148.113 21.5116C149.061 21.5116 149.26 21.7962 149.011 22.7142C148.142 25.9235 148.17 25.9306 151.454 25.9306C156.355 25.9306 161.25 25.9306 166.151 25.9306C166.635 25.9306 167.348 25.6887 167.49 26.4216C167.69 27.4463 168.11 28.5564 167.604 29.5313C167.383 29.9867 166.714 29.7804 166.243 29.7804H149.367C147.864 29.7804 147.159 30.8762 147.757 32.2425C148.049 32.9541 148.655 32.6979 149.139 32.6979C153.606 32.6979 158.065 32.6979 162.525 32.6979C163.95 32.6979 165.332 32.8189 166.742 32.8189C167.675 32.8189 168.117 33.1178 167.889 34.114C167.812 34.4934 167.774 34.8797 167.775 35.2668C167.732 36.2701 167.291 36.69 166.222 36.6544C160.836 36.5975 155.453 36.5975 150.072 36.6544C149.41 36.6544 148.241 36.0567 148.22 37.4941C148.184 39.1735 148.683 39.6289 150.279 39.6289C155.315 39.6289 160.359 39.7428 165.403 39.7001C166.828 39.7001 166.877 40.1911 166.571 41.3083C165.987 43.4431 165.894 43.564 163.65 43.5569C159.768 43.5569 155.885 43.5569 152.01 43.5569C151.419 43.5569 150.414 43.0232 150.243 44.1262C150.209 44.7244 150.404 45.3131 150.787 45.7738C151.17 46.2346 151.714 46.5333 152.309 46.6097C155.265 46.6097 158.229 46.6097 161.185 46.6097C162.176 46.6097 163.65 46.1116 164.035 46.8872C164.42 47.6629 163.23 48.6947 162.795 49.6411C162.664 49.9298 162.44 50.1665 162.159 50.3134C161.877 50.4604 161.555 50.5093 161.242 50.4523C159.105 50.4523 156.968 50.4523 154.831 50.4523C154.461 50.4523 153.99 50.3314 153.819 50.7939C153.648 51.2564 153.99 51.4272 154.197 51.6834C155.13 52.8575 156.071 54.0317 157.046 55.1844C157.431 55.647 157.659 55.9886 157.046 56.4938C152.669 60.2038 149.179 64.8454 146.831 70.0782C146.76 70.2126 146.671 70.337 146.567 70.4482ZM135.689 58.9203C138.838 58.9203 141.994 58.8776 145.142 58.9203C146.24 58.9203 146.567 58.5218 146.567 57.4971C146.524 54.1597 146.567 50.8223 146.567 47.4778C146.558 46.9967 146.489 46.5185 146.361 46.0546C145.161 41.406 144.95 36.5578 145.741 31.8227C145.869 30.9545 145.641 30.6841 144.801 30.6912C138.795 30.741 132.768 30.5062 126.784 30.8833C119.81 31.3245 114.225 34.8541 113.356 42.2689C112.786 47.1647 113.705 51.6691 117.566 55.0777C119.979 57.1181 122.965 58.3611 126.115 58.6357C129.298 58.9176 132.494 59.0222 135.689 58.9488V58.9203Z" fill="url(#paint1_linear_563_2924)"/>
<path d="M78.4766 159.96C78.4766 152.503 78.4766 145.017 78.4766 137.588C78.4766 136.385 78.8114 136.015 80.0296 136.029C85.8498 136.1 91.67 136.029 97.4831 136.115C100.967 136.186 104.415 136.627 107.635 138.192C109.355 138.941 110.818 140.177 111.841 141.748C112.864 143.319 113.403 145.156 113.391 147.031C113.562 152.161 111.41 155.876 106.587 157.918C106.26 158.053 105.676 158.039 105.683 158.501C105.69 158.964 106.302 159.042 106.687 159.135C109.655 159.735 112.303 161.391 114.139 163.796C117.857 168.628 116.511 177.622 110.456 181.016C107.546 182.687 104.265 183.604 100.91 183.685C93.8357 183.813 86.7545 183.721 79.6805 183.777C78.5264 183.777 78.4766 183.208 78.4837 182.354C78.4837 174.897 78.4837 167.439 78.4837 159.982L78.4766 159.96ZM85.8142 169.887C85.8142 172.257 85.8142 174.633 85.8142 177.003C85.8142 177.978 86.1989 178.426 87.1891 178.426C90.5373 178.426 93.8856 178.505 97.2338 178.384C98.9805 178.413 100.724 178.217 102.42 177.8C105.27 176.939 107.485 175.352 108.29 172.328C109.095 169.304 108.703 166.464 106.253 164.216C104.754 162.888 102.869 162.075 100.874 161.896C96.1937 161.327 91.4777 161.739 86.783 161.64C85.8925 161.64 85.7999 162.209 85.807 162.906C85.8284 165.233 85.8142 167.56 85.8142 169.887ZM85.8142 148.881C85.8142 150.909 85.8142 152.944 85.8142 154.972C85.8142 155.947 86.2274 156.395 87.239 156.395C91.1998 156.267 95.1678 156.623 99.1216 156.118C103.318 155.584 105.925 152.723 105.839 148.468C105.754 144.447 103.588 142.441 99.0717 141.843C95.1251 141.316 91.1428 141.708 87.182 141.58C86.1775 141.58 85.8071 141.95 85.8355 142.953C85.8783 144.91 85.8355 146.895 85.8355 148.881H85.8142Z" fill="url(#paint2_linear_563_2924)"/>
<path d="M36.4962 136.072C39.5951 136.072 42.7011 136.072 45.8 136.072C46.7903 136.072 47.2248 136.343 47.1892 137.367C47.1464 141.004 47.1892 144.633 47.1892 148.269C47.1939 148.579 47.115 148.885 46.9609 149.154C46.8067 149.423 46.5829 149.646 46.313 149.799C41.8178 153.03 39.588 157.548 39.0822 162.956C38.9825 163.981 38.6334 164.273 37.6574 164.259C35.6699 164.259 33.6823 164.373 31.7018 164.316C31.2502 164.271 30.7958 164.366 30.3997 164.588C30.0036 164.809 29.6849 165.146 29.4863 165.554C26.131 171.104 22.7044 176.605 19.3775 182.17C18.6651 183.379 17.8744 183.991 16.3926 183.87C14.6009 183.778 12.8057 183.778 11.0141 183.87C10.0666 183.87 9.88848 183.643 10.4299 182.817C13.5359 178.073 16.6229 173.329 19.691 168.585C20.5601 167.255 21.3864 165.888 22.3197 164.593C22.968 163.697 22.6545 163.362 21.7355 163.092C18.2234 162.053 15.2741 160.181 13.4932 156.887C9.56079 149.586 11.8974 139.709 21.7213 137.033C23.7376 136.516 25.809 136.244 27.8906 136.222C30.7401 136.143 33.5897 136.222 36.4392 136.222L36.4962 136.072ZM39.5381 150.148C39.5381 147.728 39.4954 145.309 39.5381 142.896C39.5381 141.886 39.2176 141.516 38.206 141.544C34.5728 141.673 30.9467 141.438 27.3207 141.744C21.3651 142.235 17.9242 147.323 19.8049 152.994C20.9875 156.552 23.9226 158.559 28.3536 158.687C31.6876 158.779 35.0358 158.687 38.3769 158.744C39.2674 158.744 39.5524 158.438 39.5381 157.555C39.5025 155.129 39.5381 152.638 39.5381 150.148Z" fill="url(#paint3_linear_563_2924)"/>
<path d="M193.499 177.188C192.195 178.86 191.155 180.362 189.666 181.5C187.588 183.104 185.099 184.091 182.485 184.347C179.85 184.713 177.167 184.529 174.606 183.806C172.837 183.249 171.276 182.177 170.121 180.728C168.966 179.279 168.27 177.519 168.123 175.672C167.511 168.869 171.45 165.375 177.092 163.931C181.851 162.707 186.702 162.892 191.54 162.842C193.47 162.842 193.634 162.707 193.506 160.764C193.292 157.519 192.451 154.623 188.897 153.492C186.107 152.575 183.075 152.735 180.398 153.94C179.654 154.25 178.996 154.736 178.481 155.356C177.966 155.975 177.609 156.71 177.441 157.498C177.164 158.807 176.494 159.149 175.304 158.921C173.871 158.662 172.414 158.562 170.959 158.622C169.854 158.672 169.712 158.074 169.961 157.249C170.333 155.812 171.008 154.47 171.94 153.314C172.873 152.158 174.041 151.214 175.368 150.546C180.832 147.877 186.624 147.792 192.359 149.343C197.83 150.823 200.708 154.986 200.729 160.65C200.729 165.394 200.729 170.138 200.729 174.882C200.718 175.851 200.874 176.814 201.192 177.729C201.346 178.218 201.64 178.652 202.038 178.977C202.435 179.302 202.919 179.504 203.429 179.558C204.142 179.664 204.498 179.935 204.298 180.703C204.25 180.99 204.233 181.281 204.249 181.571C204.249 183.941 204.249 184.019 201.869 184.133C197.495 184.34 194.71 183.101 193.912 178.44C193.794 178.017 193.656 177.599 193.499 177.188ZM188.263 167.09V167.14C187.002 167.14 185.741 167.083 184.487 167.14C182.354 167.188 180.261 167.731 178.375 168.727C177.264 169.374 176.393 170.363 175.892 171.546C175.391 172.728 175.287 174.041 175.596 175.288C176.266 177.978 178.047 179.351 180.968 179.408C181.68 179.408 182.392 179.408 183.148 179.408C184.587 179.385 186.007 179.068 187.32 178.477C188.632 177.886 189.81 177.033 190.781 175.971C191.751 174.909 192.494 173.66 192.964 172.3C193.434 170.941 193.621 169.499 193.513 168.065C193.463 167.304 193.192 167.048 192.473 167.069C191.069 167.083 189.666 167.062 188.263 167.062V167.09Z" fill="url(#paint4_linear_563_2924)"/>
<path d="M143.425 177.38C142.178 178.747 141.166 180.334 139.642 181.494C136.322 184.02 132.518 184.61 128.529 184.447C126.537 184.413 124.583 183.903 122.83 182.959C119.724 181.237 118.363 178.526 118.071 175.167C117.544 168.912 121.469 165.369 126.976 163.938C131.734 162.707 136.586 162.907 141.423 162.843C143.432 162.843 143.446 162.843 143.425 160.814C143.361 154.73 139.685 152.517 133.893 153.079C132.974 153.133 132.064 153.301 131.186 153.577C130.257 153.871 129.419 154.4 128.756 155.113C128.093 155.827 127.627 156.7 127.403 157.648C127.097 158.822 126.498 159.071 125.423 158.986C123.934 158.836 122.438 158.701 120.942 158.665C119.866 158.665 119.681 158.096 119.937 157.242C120.353 155.746 121.087 154.358 122.091 153.173C123.094 151.987 124.343 151.033 125.75 150.375C127.664 149.441 129.739 148.88 131.863 148.724C136.223 148.397 140.54 148.276 144.622 150.333C148.704 152.389 150.513 155.677 150.627 160.003C150.755 165.041 150.684 170.079 150.67 175.118C150.676 176.039 150.852 176.951 151.19 177.807C151.539 178.711 152.102 179.487 153.12 179.565C154.26 179.658 154.396 180.277 154.388 181.216C154.388 184.126 154.296 184.169 151.404 184.255C146.83 184.376 144.194 182.162 143.909 178.327C143.922 178.14 143.884 177.953 143.798 177.787C143.713 177.62 143.584 177.479 143.425 177.38ZM138.281 167.062V167.112C136.921 167.112 135.56 167.055 134.206 167.112C131.813 167.247 129.512 167.717 127.539 169.247C125.401 170.862 125.351 173.139 125.651 175.438C125.907 177.409 127.275 178.583 129.099 179.188C130.452 179.643 131.884 179.43 133.28 179.401C139.2 179.259 143.817 174.42 143.667 168.087C143.667 167.34 143.382 167.048 142.641 167.069C141.188 167.084 139.735 167.062 138.281 167.062Z" fill="url(#paint5_linear_563_2924)"/>
<path d="M61.8632 167.76C57.8382 167.76 53.8203 167.76 49.7953 167.76C49.1541 167.76 48.2636 167.575 48.3705 168.649C48.6483 172.243 49.2467 175.765 52.6448 177.9C55.9005 179.957 59.4553 179.857 63.0172 178.825C64.0541 178.567 65.0253 178.096 65.8683 177.44C66.7112 176.784 67.4072 175.959 67.9113 175.018C67.9583 174.895 68.0295 174.783 68.1209 174.689C68.2122 174.594 68.3217 174.519 68.4428 174.468C68.5638 174.417 68.694 174.391 68.8255 174.391C68.957 174.391 69.0871 174.418 69.2079 174.47C70.5614 174.819 71.9506 175.054 73.3326 175.288C74.2659 175.445 74.5508 175.687 74.0094 176.712C73.1431 178.339 71.9553 179.774 70.5178 180.93C69.0802 182.086 67.4228 182.939 65.6459 183.436C59.8328 185.201 54.0411 185.123 48.5486 182.333C44.4381 180.234 42.2796 176.562 41.4247 172.1C40.7986 168.96 40.7047 165.737 41.1469 162.565C42.4221 153.99 47.9858 149.002 56.6698 148.596C60.0679 148.433 63.4518 148.539 66.6433 150.055C72.1358 152.688 74.4796 157.392 75.2418 163.127C75.3772 164.131 75.3843 165.155 75.5339 166.159C75.7191 167.418 75.2988 167.859 73.9738 167.831C69.906 167.71 65.8882 167.76 61.8632 167.76ZM58.5505 163.326H67.2631C67.9042 163.326 68.6451 163.326 68.5454 162.394C68.1892 159.092 67.1206 156.047 63.9718 154.474C58.8498 151.92 49.8808 152.681 48.4132 161.476C48.1497 163.063 48.2494 163.305 49.838 163.319C52.7161 163.348 55.644 163.326 58.5505 163.326Z" fill="url(#paint6_linear_563_2924)"/>
<path d="M298.37 167.738C294.395 167.738 290.42 167.738 286.445 167.738C285.383 167.738 285.02 167.994 285.02 169.118C285.113 173.943 287.221 177.544 291.325 178.881C293.236 179.543 295.28 179.732 297.281 179.434C299.282 179.135 301.181 178.357 302.815 177.167C303.285 176.821 303.665 176.37 303.927 175.85C304.639 174.462 305.679 174.292 307.047 174.74C307.92 175.03 308.824 175.217 309.74 175.295C311.044 175.38 311.065 176.007 310.538 176.889C309.126 179.334 307.015 181.301 304.475 182.539C300.03 184.717 295.264 184.973 290.569 184.147C283.78 182.952 279.442 179.266 277.982 171.609C277.118 167.572 277.27 163.384 278.423 159.419C279.234 156.615 280.86 154.114 283.097 152.235C285.333 150.356 288.078 149.183 290.983 148.866C294.331 148.439 297.651 148.283 300.913 149.215C307.717 151.158 311.008 156.423 311.806 162.949C311.948 164.102 312.005 165.261 312.069 166.421C312.119 167.361 311.763 167.802 310.716 167.795C306.591 167.738 302.473 167.795 298.349 167.795L298.37 167.738ZM295.15 163.354H302.274C305.779 163.354 305.565 163.71 304.682 160.053C303.35 154.531 298.983 152.773 293.619 153.342C287.784 153.954 285.312 158.259 285.07 162.002C285.006 162.999 285.276 163.39 286.331 163.369C289.23 163.319 292.201 163.354 295.15 163.354Z" fill="url(#paint7_linear_563_2924)"/>
<path d="M207.375 164.821C207.254 161.313 207.653 155.741 207.197 150.183C207.132 149.358 207.674 149.194 208.301 149.18C209.412 149.18 210.531 149.18 211.642 149.18C213.779 149.18 214.135 149.422 213.971 151.564C213.893 152.645 214.164 153.698 214.107 154.744C214.107 155.022 214.107 155.385 214.406 155.499C214.705 155.613 215.004 155.278 215.19 155.015C215.98 153.742 216.938 152.581 218.039 151.564C221.601 148.589 225.712 148.127 230.079 148.717C231.964 148.909 233.762 149.605 235.284 150.732C236.806 151.859 237.996 153.376 238.727 155.122C239.482 156.747 239.894 158.511 239.938 160.302C239.981 167.717 239.938 175.125 240.016 182.54C240.016 183.543 239.61 183.771 238.706 183.735C237.281 183.685 235.799 183.657 234.346 183.735C233.256 183.799 232.921 183.429 232.921 182.312C232.971 176.548 232.971 170.784 232.957 165.02C233.005 162.848 232.687 160.683 232.016 158.616C230.713 154.801 226.517 153.449 223.325 153.869C217.626 154.581 214.513 159.284 214.377 164.693C214.235 170.499 214.299 176.313 214.377 182.127C214.377 183.429 213.986 183.828 212.718 183.728C211.361 183.635 209.999 183.635 208.643 183.728C207.603 183.785 207.332 183.379 207.339 182.383C207.396 177.245 207.375 172.065 207.375 164.821Z" fill="url(#paint8_linear_563_2924)"/>
<path d="M242.603 166.905C242.51 162.266 243.272 158.188 245.944 154.666C247.123 153.069 248.616 151.729 250.33 150.727C252.045 149.725 253.946 149.082 255.917 148.838C259.707 148.304 263.426 148.318 267.073 149.663C269.074 150.352 270.874 151.521 272.315 153.069C273.757 154.616 274.794 156.494 275.337 158.537C275.558 159.249 275.394 159.775 274.511 159.825C272.765 159.925 271.027 160.046 269.289 160.145C269.057 160.198 268.814 160.162 268.607 160.045C268.4 159.928 268.244 159.738 268.171 159.512C265.784 154.36 261.887 152.645 256.373 154.239C252.811 155.264 251.045 157.84 250.204 161.248C249.275 165.033 249.386 168.999 250.525 172.726C251.949 177.615 256.338 179.842 261.146 179.237C264.708 178.803 267.408 177.06 268.37 173.324C268.392 173.168 268.446 173.018 268.528 172.884C268.61 172.75 268.719 172.634 268.848 172.543C268.977 172.452 269.123 172.389 269.277 172.357C269.431 172.325 269.591 172.325 269.745 172.356C271.433 172.513 273.129 172.605 274.817 172.726C276.007 172.819 275.743 173.537 275.529 174.292C274.105 179.159 270.785 182.212 266.012 183.543C261.025 184.966 255.939 184.923 251.123 182.71C246.742 180.696 244.263 177.067 243.144 172.442C242.709 170.63 242.527 168.767 242.603 166.905Z" fill="url(#paint9_linear_563_2924)"/>
<path d="M157.025 159.014C157.025 151.314 157.025 143.615 157.025 135.915C157.025 134.649 157.346 134.186 158.649 134.286C160.051 134.4 161.459 134.4 162.86 134.286C164.206 134.172 164.477 134.72 164.441 135.944C164.363 138.847 164.441 141.75 164.441 144.661C164.441 157.1 164.441 169.567 164.441 181.991C164.441 183.414 164.078 183.877 162.667 183.749C161.364 183.624 160.052 183.624 158.749 183.749C157.282 183.898 157.004 183.308 157.018 181.956C157.061 174.342 157.025 166.663 157.025 159.014Z" fill="url(#paint10_linear_563_2924)"/>
<path d="M170.889 98.592C171.575 95.1258 171.84 91.5898 171.68 88.0603C171.241 81.1588 168.734 74.5487 164.484 69.0891C163.772 68.1996 163.886 67.7299 164.684 67.0966C168.495 64.0723 167.362 63.745 169.899 67.9576C173.717 74.298 174.949 81.3001 174.052 88.6296C173.657 91.6543 172.829 94.6067 171.594 97.3965C171.387 97.8106 171.151 98.2101 170.889 98.592Z" fill="url(#paint11_linear_563_2924)"/>
<path d="M243.938 198.628C246.211 198.628 246.503 199.013 245.89 201.098C245.356 202.934 243.753 204.001 241.537 204.001C239.08 204.001 237.021 202.578 236.551 200.4C236.116 198.486 236.308 196.643 237.826 195.156C238.5 194.49 239.343 194.021 240.265 193.799C241.186 193.578 242.151 193.611 243.055 193.896C243.305 193.936 243.546 194.021 243.767 194.145C244.323 194.53 245.356 194.821 244.992 195.633C244.558 196.608 243.781 196.017 243.069 195.633C242.486 195.326 241.825 195.199 241.17 195.27C240.515 195.341 239.896 195.606 239.393 196.031C238.849 196.482 238.452 197.083 238.252 197.76C238.051 198.437 238.057 199.158 238.268 199.831C238.381 200.481 238.705 201.076 239.19 201.524C239.676 201.971 240.295 202.247 240.953 202.307C242.164 202.457 243.411 202.5 244.173 201.233C244.494 200.713 244.665 200.23 243.774 200.144C243.155 200.08 242.179 200.422 242.25 199.369C242.271 198.123 243.411 198.856 243.938 198.628Z" fill="white"/>
<path d="M24.75 198.821C24.8097 197.477 25.3889 196.208 26.3659 195.282C27.3429 194.356 28.6414 193.845 29.9881 193.856C31.3348 193.867 32.6247 194.4 33.5863 195.342C34.5479 196.283 35.1062 197.561 35.1438 198.906C35.0841 200.25 34.5048 201.518 33.5278 202.444C32.5509 203.37 31.2524 203.881 29.9057 203.87C28.5589 203.859 27.269 203.327 26.3074 202.385C25.3458 201.443 24.7875 200.165 24.75 198.821ZM33.4055 198.885C33.4256 198.429 33.3538 197.973 33.1945 197.546C33.0351 197.118 32.7914 196.727 32.4779 196.395C32.1643 196.063 31.7872 195.798 31.3689 195.614C30.9507 195.431 30.4998 195.333 30.0431 195.327C29.571 195.311 29.1007 195.392 28.6614 195.565C28.2221 195.738 27.823 196 27.489 196.333C27.1551 196.667 26.8933 197.066 26.7199 197.504C26.5465 197.943 26.4652 198.413 26.4811 198.885C26.4572 199.351 26.5282 199.818 26.6898 200.256C26.8515 200.695 27.1004 201.096 27.4215 201.436C27.7427 201.775 28.1294 202.047 28.5584 202.233C28.9873 202.419 29.4497 202.517 29.9174 202.52C30.3852 202.522 30.8486 202.431 31.2799 202.25C31.7111 202.069 32.1012 201.802 32.4265 201.467C32.7518 201.131 33.0057 200.733 33.1727 200.296C33.3398 199.86 33.4165 199.394 33.3984 198.927L33.4055 198.885Z" fill="white"/>
<path d="M206.787 193.661C208.159 193.676 209.471 194.23 210.437 195.204C211.404 196.177 211.948 197.492 211.952 198.863C211.901 200.23 211.332 201.527 210.36 202.491C209.388 203.454 208.085 204.012 206.716 204.051C205.32 204.028 203.991 203.456 203.015 202.46C202.04 201.463 201.498 200.122 201.508 198.728C201.521 198.049 201.668 197.379 201.94 196.757C202.213 196.134 202.605 195.572 203.096 195.101C203.586 194.631 204.164 194.261 204.798 194.014C205.431 193.767 206.107 193.647 206.787 193.661ZM206.787 202.314C207.247 202.319 207.704 202.232 208.129 202.056C208.555 201.881 208.941 201.622 209.264 201.295C209.587 200.967 209.841 200.578 210.01 200.151C210.179 199.723 210.26 199.266 210.249 198.806C210.252 198.335 210.16 197.868 209.977 197.433C209.795 196.999 209.526 196.605 209.187 196.278C208.848 195.95 208.446 195.694 208.005 195.525C207.565 195.357 207.094 195.28 206.623 195.298C206.161 195.296 205.704 195.391 205.281 195.575C204.858 195.76 204.478 196.03 204.166 196.37C203.853 196.709 203.615 197.11 203.467 197.547C203.318 197.984 203.263 198.446 203.303 198.906C203.274 199.366 203.344 199.827 203.509 200.257C203.674 200.688 203.93 201.078 204.259 201.401C204.588 201.724 204.983 201.973 205.416 202.131C205.85 202.288 206.312 202.351 206.773 202.314H206.787Z" fill="white"/>
<path d="M171.935 198.999C171.851 200.355 171.249 201.628 170.254 202.555C169.258 203.481 167.945 203.991 166.584 203.98C165.213 203.954 163.907 203.386 162.956 202.399C162.004 201.412 161.483 200.088 161.509 198.718C161.534 197.347 162.104 196.043 163.092 195.093C164.08 194.142 165.405 193.622 166.777 193.647C168.169 193.679 169.493 194.259 170.459 195.262C171.425 196.264 171.956 197.607 171.935 198.999ZM166.656 202.322C167.131 202.35 167.606 202.277 168.051 202.108C168.496 201.939 168.9 201.678 169.237 201.342C169.573 201.006 169.835 200.602 170.004 200.158C170.173 199.713 170.246 199.238 170.218 198.764C170.219 198.305 170.128 197.851 169.952 197.428C169.776 197.005 169.517 196.621 169.191 196.298C168.865 195.976 168.478 195.722 168.052 195.55C167.627 195.378 167.172 195.293 166.713 195.298C166.242 195.279 165.772 195.358 165.333 195.53C164.894 195.703 164.497 195.965 164.165 196.3C163.834 196.635 163.576 197.035 163.409 197.476C163.242 197.916 163.168 198.386 163.194 198.856C163.166 199.318 163.236 199.78 163.4 200.213C163.564 200.646 163.818 201.039 164.145 201.366C164.472 201.694 164.865 201.948 165.298 202.113C165.731 202.278 166.193 202.349 166.656 202.322Z" fill="white"/>
<path d="M228.562 198.942C228.562 200.152 228.562 201.361 228.562 202.571C228.562 202.934 228.761 203.439 228.341 203.624C227.921 203.809 227.629 203.268 227.322 202.991C225.634 201.397 223.967 199.789 222.293 198.188C222.094 197.988 221.93 197.647 221.616 197.739C221.303 197.832 221.317 198.301 221.317 198.615C221.317 199.967 221.317 201.319 221.317 202.671C221.317 203.24 221.281 203.745 220.512 203.767C219.743 203.788 219.707 203.254 219.707 202.706C219.707 200.045 219.707 197.391 219.707 194.729C219.707 194.459 219.6 194.096 219.914 193.954C220.227 193.811 220.526 194.139 220.754 194.359C222.386 195.939 223.988 197.547 225.634 199.113C225.926 199.39 226.225 199.917 226.688 199.739C227.151 199.561 226.973 198.978 226.98 198.565C226.98 197.405 226.98 196.245 226.98 195.085C226.98 194.466 226.98 193.904 227.85 193.911C228.719 193.918 228.605 194.487 228.605 195.028V198.942H228.562Z" fill="white"/>
<path d="M122.953 198.842C122.953 197.49 122.953 196.138 122.953 194.779C122.953 194.174 123.181 193.896 123.801 193.903C124.421 193.91 124.727 194.124 124.684 194.757C124.677 194.807 124.677 194.857 124.684 194.907C124.834 195.732 124.207 197.042 125.005 197.312C126.123 197.703 127.477 197.468 128.731 197.447C129.251 197.447 129.229 196.956 129.244 196.565C129.244 195.853 129.244 195.213 129.293 194.537C129.343 193.861 129.764 193.903 130.227 193.903C130.69 193.903 130.975 194.074 130.975 194.572C130.975 197.419 130.975 200.265 130.975 203.111C130.975 203.723 130.519 203.745 130.056 203.752C129.479 203.752 129.286 203.41 129.272 202.919C129.272 201.959 129.229 200.991 129.272 200.023C129.272 199.312 128.987 199.034 128.239 198.991C124.755 198.785 124.755 198.756 124.677 202.286C124.677 202.478 124.677 202.67 124.677 202.862C124.677 203.46 124.449 203.745 123.829 203.752C123.21 203.759 122.96 203.489 122.967 202.884C122.967 201.532 122.967 200.18 122.967 198.828L122.953 198.842Z" fill="white"/>
<path d="M42.957 197.739C42.957 196.722 42.957 195.704 42.957 194.694C42.957 193.982 43.3132 193.889 43.876 193.904C44.4388 193.918 44.6596 194.309 44.6525 194.864C44.6525 196.608 44.6026 198.351 44.6525 200.087C44.7238 201.98 46.2483 202.934 48.0079 202.187C48.3948 202.036 48.723 201.766 48.9437 201.414C49.1645 201.063 49.266 200.65 49.2332 200.237C49.2332 198.493 49.283 196.757 49.2759 195.014C49.2759 194.352 49.3685 193.882 50.202 193.897C51.0355 193.911 50.9999 194.402 50.9999 194.971C50.9999 196.807 51.0426 198.643 50.9999 200.479C50.9287 202.706 49.3543 204.037 46.9037 203.994C44.453 203.951 43.014 202.663 42.9642 200.351C42.9642 199.475 42.9642 198.607 42.9642 197.739H42.957Z" fill="white"/>
<path d="M66.0177 203.716C62.755 203.958 62.7763 200.77 60.7104 199.753V202.734C60.7104 203.225 60.7603 203.731 59.998 203.759C59.2358 203.788 59.1289 203.353 59.1289 202.741C59.1289 200.13 59.1289 197.518 59.1289 194.914C59.1289 194.202 59.3925 193.854 60.1476 193.903C60.7745 193.903 61.4086 193.903 62.0355 193.903C63.2394 193.946 64.2866 194.359 64.6143 195.611C64.942 196.864 64.9919 198.18 63.6241 198.934C62.7336 199.418 63.0827 199.924 63.4745 200.443C64.2367 201.446 65.0132 202.421 66.0177 203.716ZM60.8244 196.6C60.9455 197.098 60.4539 197.981 61.6436 197.981C62.4985 197.981 63.0684 197.675 63.0257 196.743C62.9829 195.81 62.4558 195.49 61.6365 195.405C60.6819 195.291 60.8315 195.953 60.8244 196.586V196.6Z" fill="white"/>
<path d="M253.738 198.892C253.738 197.59 253.774 196.28 253.738 194.978C253.738 194.153 254.037 193.861 254.843 193.889C256.054 193.939 257.265 193.889 258.476 193.889C258.996 193.889 259.316 194.096 259.288 194.665C259.259 195.234 258.974 195.334 258.518 195.334C257.934 195.334 257.357 195.334 256.773 195.334C256.061 195.334 255.455 195.284 255.477 196.337C255.477 197.269 255.776 197.682 256.73 197.597C257.215 197.554 257.699 197.597 258.155 197.597C258.761 197.597 259.252 197.711 259.252 198.422C259.252 199.134 258.675 199.205 258.112 199.198C257.726 199.219 257.338 199.219 256.951 199.198C255.697 199.048 255.412 199.639 255.441 200.792C255.469 201.945 255.79 202.3 256.866 202.165C257.444 202.108 258.026 202.108 258.604 202.165C259.081 202.165 259.266 202.514 259.245 202.962C259.224 203.411 259.074 203.724 258.575 203.731C257.151 203.731 255.769 203.731 254.365 203.731C253.738 203.731 253.738 203.24 253.738 202.799V198.892Z" fill="white"/>
<path d="M103.538 203.204C103.588 203.588 103.424 203.716 103.146 203.752C102.863 203.819 102.565 203.785 102.304 203.655C102.044 203.525 101.837 203.307 101.721 203.04C101.416 202.275 100.824 201.658 100.072 201.32C99.3201 200.981 98.4658 200.948 97.6893 201.226C97.5053 201.277 97.3371 201.374 97.2002 201.507C97.0632 201.64 96.962 201.805 96.9057 201.987C96.6777 202.464 96.4213 202.927 96.1506 203.41C96.0005 203.637 95.7677 203.797 95.5017 203.856C95.2357 203.914 94.9574 203.867 94.7258 203.724C94.1559 203.503 94.6047 203.012 94.7258 202.749C95.9582 200.023 97.2334 197.319 98.4872 194.608C98.8006 193.896 99.1996 193.74 99.5558 194.501C100.867 197.291 102.135 200.101 103.417 202.905C103.463 203.002 103.503 203.102 103.538 203.204ZM99.0215 197.305C98.765 198.102 97.8532 198.728 98.2094 199.561C98.3803 199.938 99.7196 199.938 99.8835 199.561C100.261 198.771 99.513 198.059 99.0215 197.305Z" fill="white"/>
<path d="M83.0569 198.828C83.0569 197.526 83.0569 196.223 83.0569 194.921C83.0569 194.21 83.2849 193.847 84.0614 193.889C84.8379 193.932 85.8068 193.889 86.6688 193.953C87.3299 194.044 87.9345 194.374 88.3672 194.882C88.7999 195.389 89.0303 196.038 89.0144 196.704C88.9986 197.37 88.7375 198.008 88.2812 198.494C87.8249 198.98 87.2052 199.281 86.5405 199.34C84.5601 199.532 84.6384 199.539 84.5245 201.568C84.4888 202.279 85.2369 203.702 83.7551 203.702C82.4799 203.667 83.1709 202.336 83.0427 201.568C82.982 200.653 82.982 199.735 83.0427 198.821L83.0569 198.828ZM84.7097 196.586C84.7097 197.227 84.496 198.01 85.6358 197.931C86.4337 197.874 87.1033 197.704 87.1247 196.743C87.1461 195.782 86.4622 195.476 85.6073 195.377C84.5886 195.263 84.6954 195.953 84.7097 196.586Z" fill="white"/>
<path d="M270.18 199.767C271.128 198.436 271.491 196.871 272.139 195.44C272.3 194.991 272.515 194.563 272.78 194.167C272.953 193.993 273.181 193.884 273.425 193.858C273.669 193.832 273.914 193.891 274.12 194.024C274.547 194.245 274.262 194.636 274.12 194.921C272.944 197.668 271.74 200.4 270.558 203.154C270.195 204.001 269.845 203.645 269.625 203.154C268.414 200.372 267.252 197.575 266.063 194.779C265.927 194.451 265.842 194.067 266.326 193.967C266.461 193.914 266.606 193.888 266.751 193.891C266.896 193.894 267.039 193.925 267.172 193.984C267.305 194.044 267.424 194.128 267.524 194.234C267.623 194.34 267.701 194.465 267.751 194.601C268.264 195.846 268.77 197.099 269.311 198.337C269.463 198.885 269.764 199.38 270.18 199.767Z" fill="white"/>
<path d="M307.382 197.461C308.085 196.799 308.664 196.015 309.091 195.149C309.279 194.816 309.491 194.497 309.725 194.195C309.892 194.011 310.118 193.89 310.364 193.855C310.61 193.82 310.86 193.873 311.072 194.003C311.67 194.359 311.072 194.715 310.886 195.063C310.682 195.451 310.444 195.82 310.174 196.166C308.714 198.009 307.845 200.023 308.194 202.45C308.279 203.04 308.4 203.759 307.374 203.78C306.349 203.802 306.441 203.069 306.548 202.485C307.047 199.639 305.579 197.504 304.083 195.312C303.848 194.978 303.093 194.451 303.827 194.003C303.967 193.929 304.122 193.884 304.28 193.871C304.438 193.858 304.598 193.877 304.749 193.927C304.9 193.976 305.039 194.056 305.159 194.161C305.278 194.266 305.375 194.394 305.444 194.537C306.085 195.505 306.512 196.615 307.382 197.461Z" fill="white"/>
<path d="M18.2864 194.359C18.2139 194.517 18.1331 194.672 18.0442 194.822C17.7902 195.288 17.5095 195.739 17.2036 196.174C15.7361 198.066 14.8313 200.109 15.216 202.578C15.3015 203.133 15.3728 203.781 14.4395 203.774C13.5063 203.766 13.4279 203.183 13.5277 202.606C14.0335 199.668 12.5588 197.426 11.0557 195.163C10.842 194.843 10.1652 194.38 10.8491 194.003C10.9756 193.928 11.1161 193.878 11.2622 193.858C11.4082 193.838 11.5568 193.848 11.6991 193.886C11.8414 193.925 11.9745 193.991 12.0904 194.082C12.2063 194.173 12.3026 194.287 12.3736 194.416C12.8224 195.128 13.3211 195.875 13.7485 196.622C14.1759 197.369 14.6319 197.561 15.1733 196.658C15.6292 195.868 16.135 195.099 16.6479 194.338C16.7978 194.147 17.0015 194.006 17.2327 193.932C17.4639 193.859 17.7118 193.856 17.9445 193.925C18.1368 193.953 18.2508 194.089 18.2864 194.359Z" fill="white"/>
<path d="M111.468 199.54C111.468 198.522 111.418 197.505 111.468 196.494C111.532 195.605 111.226 195.277 110.321 195.32C109.773 195.32 108.896 195.662 108.896 194.658C108.896 193.655 109.851 193.947 110.442 193.947C111.867 193.897 113.349 193.947 114.802 193.947C115.315 193.947 115.814 193.982 115.807 194.658C115.8 195.334 115.279 195.448 114.781 195.37C113.392 195.135 113.185 195.818 113.228 197.007C113.299 198.892 113.228 200.778 113.228 202.699C113.228 203.326 113.228 203.852 112.337 203.838C111.447 203.824 111.482 203.254 111.482 202.657C111.482 201.639 111.482 200.621 111.482 199.604L111.468 199.54Z" fill="white"/>
<path d="M150.878 199.432C150.878 198.806 150.842 198.18 150.878 197.554C150.963 196.216 151.02 194.964 149.033 195.327C148.57 195.412 148.32 195.042 148.32 194.615C148.32 194.188 148.591 193.903 149.033 193.903H154.397C154.491 193.91 154.582 193.936 154.666 193.978C154.749 194.02 154.824 194.078 154.885 194.149C154.946 194.221 154.993 194.303 155.022 194.392C155.051 194.481 155.063 194.575 155.056 194.668C155.049 194.762 155.024 194.853 154.981 194.937C154.939 195.02 154.881 195.095 154.81 195.156C154.738 195.217 154.656 195.263 154.567 195.293C154.478 195.322 154.384 195.334 154.29 195.327C152.566 195.013 152.438 195.938 152.523 197.305C152.63 199.084 152.523 200.863 152.523 202.656C152.523 203.204 152.523 203.731 151.733 203.759C150.942 203.787 150.828 203.232 150.828 202.613L150.878 199.432Z" fill="white"/>
<path d="M293.868 193.903H296.482C297.002 193.903 297.294 194.16 297.273 194.707C297.278 194.806 297.26 194.904 297.219 194.994C297.178 195.084 297.117 195.162 297.039 195.223C296.961 195.284 296.87 195.325 296.773 195.343C296.676 195.361 296.576 195.355 296.482 195.327C294.786 195.006 294.73 195.988 294.779 197.248C294.851 199.034 294.779 200.806 294.779 202.613C294.779 203.24 294.779 203.766 293.889 203.773C292.998 203.78 293.034 203.211 293.027 202.613C293.027 200.578 292.963 198.55 293.027 196.522C293.027 195.675 292.842 195.263 291.901 195.327C291.346 195.362 290.477 195.618 290.477 194.615C290.477 193.491 291.431 193.96 292.015 193.903C292.632 193.873 293.251 193.873 293.868 193.903Z" fill="white"/>
<path d="M189.896 198.685C189.896 197.568 189.896 196.458 189.896 195.348C189.896 194.707 189.682 193.868 190.786 193.925C191.89 193.982 191.57 194.835 191.577 195.44C191.577 197.184 191.577 198.927 191.541 200.671C191.498 201.752 191.812 202.25 193.016 202.229C193.728 202.229 195.067 201.517 195.025 203.012C194.982 204.506 193.664 203.723 192.952 203.723C189.881 203.794 189.881 203.723 189.888 200.72L189.896 198.685Z" fill="white"/>
<path d="M281.492 198.785C281.492 197.526 281.492 196.273 281.492 195.021C281.492 194.409 281.492 193.882 282.354 193.889C283.138 193.889 283.352 194.224 283.344 194.936C283.344 197.59 283.344 200.237 283.344 202.884C283.344 203.596 283.045 203.788 282.383 203.802C281.72 203.816 281.492 203.468 281.506 202.827C281.506 201.482 281.506 200.13 281.506 198.785H281.492Z" fill="white"/>
<defs>
<linearGradient id="paint0_linear_563_2924" x1="141.981" y1="60.8846" x2="228.535" y2="60.8846" gradientUnits="userSpaceOnUse">
<stop stop-color="#8B8B8B"/>
<stop offset="0.509514" stop-color="#CACACA"/>
<stop offset="1" stop-color="#737373"/>
</linearGradient>
<linearGradient id="paint1_linear_563_2924" x1="92.6857" y1="60.9043" x2="171.465" y2="60.9043" gradientUnits="userSpaceOnUse">
<stop stop-color="#8F7047"/>
<stop offset="0.509514" stop-color="#DABD9A"/>
<stop offset="1" stop-color="#A58A63"/>
</linearGradient>
<linearGradient id="paint2_linear_563_2924" x1="75.8356" y1="159.903" x2="118.091" y2="159.903" gradientUnits="userSpaceOnUse">
<stop stop-color="#8B8B8B"/>
<stop offset="0.509514" stop-color="#CACACA"/>
<stop offset="1" stop-color="#737373"/>
</linearGradient>
<linearGradient id="paint3_linear_563_2924" x1="7.53246" y1="159.979" x2="49.0444" y2="159.979" gradientUnits="userSpaceOnUse">
<stop stop-color="#8F7047"/>
<stop offset="0.509514" stop-color="#DABD9A"/>
<stop offset="1" stop-color="#A58A63"/>
</linearGradient>
<linearGradient id="paint4_linear_563_2924" x1="165.52" y1="166.427" x2="206.168" y2="166.427" gradientUnits="userSpaceOnUse">
<stop stop-color="#8B8B8B"/>
<stop offset="0.509514" stop-color="#CACACA"/>
<stop offset="1" stop-color="#737373"/>
</linearGradient>
<linearGradient id="paint5_linear_563_2924" x1="115.478" y1="166.505" x2="156.207" y2="166.505" gradientUnits="userSpaceOnUse">
<stop stop-color="#8B8B8B"/>
<stop offset="0.509514" stop-color="#CACACA"/>
<stop offset="1" stop-color="#737373"/>
</linearGradient>
<linearGradient id="paint6_linear_563_2924" x1="38.4439" y1="166.581" x2="77.3105" y2="166.581" gradientUnits="userSpaceOnUse">
<stop stop-color="#8F7047"/>
<stop offset="0.509514" stop-color="#DABD9A"/>
<stop offset="1" stop-color="#A58A63"/>
</linearGradient>
<linearGradient id="paint7_linear_563_2924" x1="275.005" y1="166.555" x2="313.806" y2="166.555" gradientUnits="userSpaceOnUse">
<stop stop-color="#8B8B8B"/>
<stop offset="0.509514" stop-color="#CACACA"/>
<stop offset="1" stop-color="#737373"/>
</linearGradient>
<linearGradient id="paint8_linear_563_2924" x1="204.894" y1="166.118" x2="241.658" y2="166.118" gradientUnits="userSpaceOnUse">
<stop stop-color="#8B8B8B"/>
<stop offset="0.509514" stop-color="#CACACA"/>
<stop offset="1" stop-color="#737373"/>
</linearGradient>
<linearGradient id="paint9_linear_563_2924" x1="240.267" y1="166.51" x2="277.37" y2="166.51" gradientUnits="userSpaceOnUse">
<stop stop-color="#8B8B8B"/>
<stop offset="0.509514" stop-color="#CACACA"/>
<stop offset="1" stop-color="#737373"/>
</linearGradient>
<linearGradient id="paint10_linear_563_2924" x1="156.498" y1="159.021" x2="164.815" y2="159.021" gradientUnits="userSpaceOnUse">
<stop stop-color="#8B8B8B"/>
<stop offset="0.509514" stop-color="#CACACA"/>
<stop offset="1" stop-color="#737373"/>
</linearGradient>
<linearGradient id="paint11_linear_563_2924" x1="163.289" y1="81.7008" x2="174.847" y2="81.7008" gradientUnits="userSpaceOnUse">
<stop stop-color="#8F7047"/>
<stop offset="0.509514" stop-color="#DABD9A"/>
<stop offset="1" stop-color="#A58A63"/>
</linearGradient>
</defs>
</svg>
