<svg width="52" height="38" viewBox="0 0 52 38" fill="none" xmlns="http://www.w3.org/2000/svg">
<path d="M28.8464 8.91504H4.91634C2.20553 8.91504 0 11.1205 0 13.8314V26.1913C0 28.9022 2.20543 31.1077 4.91634 31.1077H5.08808L4.60078 34.907C4.50775 35.4236 4.75566 35.9384 5.21767 36.1876C5.68537 36.4399 6.25077 36.357 6.62665 36L12.8699 31.2683C12.9791 31.1646 13.122 31.1077 13.2725 31.1077H28.8463C31.5572 31.1077 33.7626 28.9022 33.7626 26.1913V13.8314C33.7628 11.1205 31.5573 8.91504 28.8464 8.91504ZM32.2393 26.1913C32.2393 28.0621 30.7172 29.5842 28.8464 29.5842H13.2726C12.73 29.5842 12.2146 29.7899 11.8211 30.1634L6.26905 34.2389L6.62665 31.1599C6.77462 30.3383 6.1428 29.5841 5.30938 29.5841H4.91634C3.04555 29.5841 1.52354 28.062 1.52354 26.1912V13.8314C1.52354 11.9606 3.04555 10.4385 4.91634 10.4385H28.8464C30.7172 10.4385 32.2393 11.9606 32.2393 13.8314V26.1913Z" fill="white"/>
<path d="M47.5477 0.29541H26.2985C23.8443 0.29541 21.8477 2.29213 21.8477 4.74629V6.11596C21.8477 6.53673 22.1887 6.87768 22.6094 6.87768C23.03 6.87768 23.3711 6.53673 23.3711 6.11596V4.74629C23.3711 3.13205 24.6843 1.81885 26.2984 1.81885H47.5477C49.162 1.81885 50.4752 3.13205 50.4752 4.74629V15.5778C50.4752 17.1921 49.162 18.5053 47.5477 18.5053H47.1987C46.404 18.5053 45.8044 19.2242 45.945 20.0048L45.5033 22.1807L41.4753 19.0431C41.1101 18.6963 40.6314 18.5053 40.1276 18.5053H36.5637C36.1429 18.5053 35.8019 18.8462 35.8019 19.267C35.8019 19.6878 36.1429 20.0287 36.5637 20.0287H40.1276C40.2393 20.0287 40.3454 20.0711 40.4264 20.1479L45.2571 24.0476C45.6211 24.393 46.1639 24.467 46.6077 24.2273C47.0505 23.9883 47.2879 23.495 47.1987 23L47.4972 20.0288H47.5476C50.0019 20.0288 51.9985 18.0321 51.9985 15.5779V4.74629C51.9986 2.29203 50.002 0.29541 47.5477 0.29541Z" fill="white"/>
<circle cx="11.1954" cy="19.7701" r="1.1954" fill="white"/>
<ellipse cx="17.586" cy="19.7701" rx="1.1954" ry="1.1954" fill="white"/>
<circle cx="23.9767" cy="19.7701" r="1.1954" fill="white"/>
</svg>
