<svg width="112" height="69" viewBox="0 0 112 69" fill="none" xmlns="http://www.w3.org/2000/svg">
<path d="M67.4251 45.0199C66.3917 43.3208 65.8376 41.4599 64.8478 39.7981C63.7429 37.8459 62.4458 36.0091 60.9756 34.3148C60.4651 33.7422 60.0106 33.6115 59.3819 34.2028C56.6302 36.823 53.5674 39.1383 51.432 42.3561C50.9402 43.0905 50.4609 43.8374 49.9815 44.5843C49.5022 45.3311 49.7699 45.7606 50.6414 45.7544C52.2974 45.7544 53.9471 45.7544 55.6217 45.6672C56.7672 45.6174 58.6224 47.4473 58.4419 48.5862C58.3485 49.2086 57.8193 49.0344 57.4146 49.0344C54.663 49.0344 51.9052 49.0344 49.1535 49.0344C48.8824 49.0116 48.6095 49.0483 48.354 49.142C48.0985 49.2357 47.8666 49.384 47.6744 49.5767C47.4823 49.7694 47.3346 50.0017 47.2417 50.2574C47.1488 50.5132 47.1129 50.7861 47.1365 51.0571C47.1365 51.8911 47.8089 51.6795 48.2633 51.6795C51.376 51.6795 54.5323 51.6795 57.6699 51.6795C59.469 51.6795 60.3779 52.7002 60.241 54.5176C60.1912 55.14 59.6994 55.14 59.3072 55.14C57.0162 55.14 54.7315 55.1089 52.4592 55.0778C50.6788 55.0778 48.8983 55.0467 47.1241 55.0093C45.6673 55.0093 46.0471 56.1981 45.879 56.9325C45.6922 57.8537 46.5015 57.7603 47.0743 57.7603C51.1893 57.7603 55.298 57.7603 59.4068 57.7603C60.8137 57.7603 60.739 57.7603 60.8324 59.8453C60.8884 61.003 60.3966 61.1399 59.4255 61.1274C55.354 61.0839 51.2889 61.1274 47.2174 61.1274C45.5553 61.1274 45.5179 61.1772 45.7856 62.8888C45.9973 64.2145 46.2089 65.5464 46.4517 67.0962C45.3872 66.2061 45.2938 65.0547 44.9888 64.1025C42.9421 58.0091 43.0145 51.4031 45.1942 45.356C47.1427 39.8728 50.6227 35.628 55.0117 31.9373C59.3196 28.186 62.4813 23.2954 64.1332 17.8278C65.7851 12.3603 65.8602 6.53761 64.3498 1.02929C64.1132 0.195281 64.4182 0.077027 65.1155 0.077027C72.0257 0.077027 78.9359 -0.059903 85.8398 0.170382C89.7792 0.192616 93.6802 0.94604 97.3444 2.39233C102.375 4.55202 105.892 7.93784 106.72 13.7012C107.417 18.5807 106.676 23.0371 103.607 26.927C101.793 29.1847 99.3687 30.8741 96.6222 31.7941L95.9063 32.0493C95.6386 32.1551 95.234 32.1738 95.2526 32.541C95.2713 32.9082 95.6884 32.846 95.9623 32.9082C99.5046 33.6986 102.854 34.8998 105.655 37.3209C107.868 39.1848 109.474 41.666 110.268 44.4473C111.512 48.6692 111.243 53.1924 109.509 57.2375C107.535 61.9054 103.831 64.8369 99.1933 66.6232C94.9914 68.2071 90.5293 68.9882 86.039 68.926C79.6829 68.926 73.3268 68.926 66.9706 68.926C65.5263 68.926 65.5637 68.926 66.0991 67.6501C66.8059 65.9848 67.3642 64.2603 67.7675 62.4967C67.9729 61.5444 68.3216 60.9967 69.5168 61.0154C74.603 61.0901 79.6891 61.1088 84.7753 61.0154C88.081 60.9469 91.3431 60.4926 94.3375 58.8868C98.0354 56.8952 99.847 53.7583 100.059 49.6505C100.37 43.576 97.0767 39.2815 91.1688 37.8251C88.4964 37.1672 85.7532 36.8411 83.001 36.8542C78.2946 36.8542 73.5945 36.8915 68.8881 36.8542C67.7862 36.8542 67.3815 37.184 67.4126 38.3043C67.4687 40.5387 67.4251 42.7793 67.4251 45.0199ZM77.5227 8.13078H69.0935C67.4002 8.13078 67.313 8.13078 67.4251 9.76767C67.6737 11.8325 67.7383 13.9153 67.6181 15.9916C67.2072 19.9687 67.5371 23.9457 67.4126 27.9228C67.4126 28.6386 67.4562 29.1365 68.3963 29.1303C73.8684 29.0867 79.3343 29.1738 84.8002 29.0431C87.4455 29.0056 90.0158 28.1584 92.1648 26.6158C95.1095 24.4872 95.981 21.4437 95.9872 17.9397C95.9872 12.5996 92.6504 9.66809 87.9938 8.65981C84.3582 7.84448 80.6665 8.28015 77.5227 8.13078Z" fill="url(#paint0_linear_563_3017)"/>
<path d="M42.7831 42.8475C42.7022 40.6006 42.7022 40.6006 40.3677 40.6006C37.1491 40.6006 33.9306 40.6006 30.7058 40.6006C30.3142 40.5574 29.9187 40.6342 29.5718 40.821C29.2249 41.0077 28.943 41.2956 28.7635 41.6462C23.4719 50.3597 18.1305 59.0421 12.8265 67.7493C12.6407 68.1476 12.3382 68.48 11.959 68.7024C11.5799 68.9247 11.142 69.0265 10.7036 68.9941C7.44152 68.9319 4.17941 68.9941 0.917298 68.9568C0.630929 68.9568 0.207594 68.9941 0.0830863 68.8323C-0.16593 68.5087 0.207601 68.2099 0.381913 67.9485C6.27114 58.9031 12.1624 49.8639 18.0558 40.8309C18.8963 39.5426 18.8651 39.5301 17.4333 39.1255C9.88188 37.0219 4.64631 32.3726 3.07751 24.5989C1.62077 17.3792 2.90942 10.62 8.87958 5.5413C12.4654 2.48536 16.7983 1.04141 21.4051 0.487485C28.9627 -0.427431 36.5577 0.269643 44.134 0.0455823C44.962 0.0455823 45.1363 0.294541 44.9184 1.09743C44.159 3.90441 44.1838 3.91064 47.0538 3.91064C51.3368 3.91064 55.6137 3.91064 59.8968 3.91064C60.3201 3.91064 60.9426 3.69903 61.0671 4.34009C61.2414 5.23633 61.6087 6.20726 61.1667 7.05994C60.9737 7.45827 60.3886 7.27778 59.9777 7.27778H45.2297C43.9162 7.27778 43.2998 8.23626 43.8228 9.43125C44.078 10.0536 44.6072 9.82959 45.0305 9.82959C48.9338 9.82959 52.8309 9.82959 56.728 9.82959C57.9731 9.82959 59.1808 9.93538 60.4135 9.93538C61.229 9.93538 61.615 10.1968 61.4158 11.0681C61.3484 11.4 61.315 11.7378 61.3162 12.0764C61.2788 12.954 60.8928 13.3212 59.959 13.2901C55.2526 13.2403 50.5483 13.2403 45.846 13.2901C45.2671 13.2901 44.2461 12.7673 44.2274 14.0245C44.1963 15.4933 44.6321 15.8917 46.0266 15.8917C50.4279 15.8917 54.8355 15.9913 59.2431 15.9539C60.4882 15.9539 60.5318 16.3834 60.2641 17.3605C59.7536 19.2277 59.6726 19.3335 57.7116 19.3273C54.3188 19.3273 50.926 19.3273 47.5393 19.3273C47.0226 19.3273 46.1448 18.8605 45.9954 19.8252C45.966 20.3484 46.1358 20.8633 46.4708 21.2663C46.8057 21.6693 47.281 21.9305 47.8008 21.9973C50.3843 21.9973 52.9741 21.9973 55.5577 21.9973C56.423 21.9973 57.7117 21.5617 58.0478 22.2401C58.384 22.9185 57.3443 23.8209 56.9646 24.6487C56.8498 24.9013 56.6539 25.1082 56.4081 25.2368C56.1622 25.3653 55.8804 25.4081 55.6075 25.3582C53.7398 25.3582 51.8722 25.3582 50.0046 25.3582C49.6809 25.3582 49.27 25.2524 49.1206 25.657C48.9712 26.0616 49.27 26.2109 49.4505 26.435C50.2661 27.4619 51.0878 28.4889 51.9407 29.4971C52.2769 29.9017 52.4761 30.2005 51.9407 30.6424C48.1155 33.8873 45.0652 37.947 43.0135 42.5238C42.9512 42.6413 42.8738 42.7502 42.7831 42.8475ZM33.2769 32.7647C36.0286 32.7647 38.7864 32.7274 41.538 32.7647C42.4968 32.7647 42.7831 32.4162 42.7831 31.5199C42.7458 28.6009 42.7831 25.6819 42.7831 22.7567C42.7754 22.3358 42.7147 21.9176 42.6026 21.5119C41.554 17.446 41.3695 13.2056 42.061 9.06404C42.173 8.30472 41.9738 8.06822 41.2392 8.07444C35.9912 8.11801 30.7245 7.91261 25.4952 8.24248C19.4005 8.62836 14.5198 11.7154 13.7603 18.2007C13.2623 22.4828 14.0653 26.4225 17.4395 29.4038C19.548 31.1884 22.1579 32.2756 24.91 32.5158C27.6917 32.7623 30.485 32.8538 33.2769 32.7896V32.7647Z" fill="url(#paint1_linear_563_3017)"/>
<path d="M64.038 67.4632C64.6373 64.4315 64.8693 61.3388 64.729 58.2518C64.3455 52.2154 62.1547 46.434 58.4414 41.6588C57.8189 40.8808 57.9185 40.47 58.6157 39.9161C61.9463 37.2709 60.9564 36.9846 63.1727 40.6692C66.5095 46.2147 67.5865 52.339 66.8021 58.7497C66.4568 61.3952 65.7335 63.9775 64.6543 66.4175C64.4731 66.7798 64.2672 67.1291 64.038 67.4632Z" fill="url(#paint2_linear_563_3017)"/>
<defs>
<linearGradient id="paint0_linear_563_3017" x1="38.7775" y1="34.483" x2="114.415" y2="34.483" gradientUnits="userSpaceOnUse">
<stop stop-color="#8B8B8B"/>
<stop offset="0.509514" stop-color="#CACACA"/>
<stop offset="1" stop-color="#737373"/>
</linearGradient>
<linearGradient id="paint1_linear_563_3017" x1="-4.30272" y1="34.5" x2="64.5408" y2="34.5" gradientUnits="userSpaceOnUse">
<stop stop-color="#8F7047"/>
<stop offset="0.509514" stop-color="#DABD9A"/>
<stop offset="1" stop-color="#A58A63"/>
</linearGradient>
<linearGradient id="paint2_linear_563_3017" x1="57.3971" y1="52.6895" x2="67.4973" y2="52.6895" gradientUnits="userSpaceOnUse">
<stop stop-color="#8F7047"/>
<stop offset="0.509514" stop-color="#DABD9A"/>
<stop offset="1" stop-color="#A58A63"/>
</linearGradient>
</defs>
</svg>
