<svg width="540" height="380" viewBox="0 0 540 380" fill="none" xmlns="http://www.w3.org/2000/svg">
<path d="M293.025 121.96C291.047 118.712 289.986 115.154 288.091 111.977C285.976 108.244 283.493 104.732 280.679 101.493C279.702 100.398 278.832 100.148 277.628 101.279C272.361 106.288 266.497 110.715 262.409 116.867C261.468 118.271 260.55 119.699 259.633 121.127C258.715 122.555 259.228 123.376 260.896 123.365C264.066 123.365 267.224 123.365 270.43 123.198C272.623 123.103 276.174 126.601 275.828 128.779C275.65 129.969 274.637 129.636 273.862 129.636C268.595 129.636 263.315 129.636 258.048 129.636C257.529 129.592 257.006 129.662 256.517 129.841C256.028 130.021 255.584 130.304 255.216 130.673C254.848 131.041 254.566 131.485 254.388 131.974C254.21 132.463 254.141 132.985 254.186 133.503C254.186 135.098 255.474 134.693 256.344 134.693C262.302 134.693 268.344 134.693 274.351 134.693C277.795 134.693 279.535 136.645 279.273 140.119C279.177 141.309 278.236 141.309 277.485 141.309C273.099 141.309 268.726 141.25 264.376 141.19C260.967 141.19 257.559 141.131 254.163 141.059C251.374 141.059 252.101 143.332 251.779 144.736C251.422 146.498 252.971 146.319 254.067 146.319C261.945 146.319 269.81 146.319 277.676 146.319C280.369 146.319 280.226 146.319 280.405 150.306C280.512 152.519 279.571 152.781 277.711 152.757C269.917 152.674 262.135 152.757 254.341 152.757C251.159 152.757 251.088 152.852 251.6 156.125C252.006 158.659 252.411 161.206 252.876 164.169C250.838 162.467 250.659 160.266 250.075 158.445C246.157 146.795 246.296 134.165 250.468 122.603C254.198 112.119 260.86 104.004 269.262 96.9471C277.509 89.7749 283.561 80.4245 286.724 69.9708C289.886 59.5171 290.029 48.3846 287.138 37.853C286.685 36.2584 287.269 36.0323 288.604 36.0323C301.832 36.0323 315.061 35.7705 328.277 36.2108C335.818 36.2533 343.286 37.6938 350.3 40.459C359.93 44.5882 366.663 51.0617 368.248 62.0809C369.583 71.4103 368.165 79.9305 362.289 87.3678C358.817 91.6845 354.176 94.9143 348.918 96.6734L347.547 97.1613C347.035 97.3636 346.26 97.3993 346.296 98.1014C346.332 98.8035 347.13 98.6845 347.655 98.8035C354.436 100.315 360.847 102.611 366.21 107.24C370.445 110.804 373.52 115.548 375.041 120.866C377.421 128.937 376.907 137.586 373.587 145.32C369.809 154.244 362.718 159.849 353.84 163.264C345.796 166.293 337.254 167.786 328.658 167.667C316.491 167.667 304.323 167.667 292.155 167.667C289.39 167.667 289.462 167.667 290.487 165.228C291.84 162.044 292.909 158.747 293.681 155.375C294.074 153.554 294.741 152.507 297.03 152.543C306.766 152.686 316.503 152.721 326.239 152.543C332.567 152.412 338.812 151.543 344.544 148.473C351.623 144.665 355.091 138.668 355.496 130.814C356.092 119.2 349.788 110.989 338.478 108.204C333.363 106.946 328.111 106.323 322.843 106.348C313.833 106.348 304.835 106.419 295.826 106.348C293.717 106.348 292.942 106.979 293.001 109.121C293.109 113.393 293.025 117.676 293.025 121.96ZM312.355 51.4306H296.219C292.978 51.4306 292.811 51.4306 293.025 54.5602C293.501 58.5081 293.625 62.4903 293.395 66.46C292.608 74.0639 293.24 81.6678 293.001 89.2718C293.001 90.6402 293.085 91.5922 294.884 91.5803C305.36 91.497 315.823 91.6636 326.287 91.4137C331.351 91.3419 336.271 89.7222 340.385 86.7729C346.022 82.7031 347.69 76.8842 347.702 70.1846C347.702 59.9746 341.315 54.3698 332.4 52.4421C325.441 50.8832 318.374 51.7162 312.355 51.4306Z" fill="url(#paint0_linear_743_4193)"/>
<path d="M245.858 117.807C245.703 113.512 245.703 113.512 241.234 113.512C235.072 113.512 228.911 113.512 222.738 113.512C221.988 113.429 221.231 113.576 220.567 113.933C219.903 114.29 219.363 114.84 219.02 115.511C208.89 132.17 198.665 148.771 188.511 165.418C188.155 166.18 187.576 166.815 186.85 167.24C186.125 167.665 185.286 167.86 184.447 167.798C178.202 167.679 171.958 167.798 165.713 167.727C165.165 167.727 164.354 167.798 164.116 167.489C163.639 166.87 164.354 166.299 164.688 165.799C175.962 148.505 187.24 131.222 198.522 113.952C200.13 111.489 200.071 111.465 197.33 110.691C182.874 106.669 172.852 97.7801 169.848 82.9174C167.06 69.1137 169.527 56.1906 180.955 46.4804C187.82 40.6376 196.114 37.8769 204.933 36.8178C219.401 35.0685 233.94 36.4013 248.444 35.9729C250.029 35.9729 250.362 36.4489 249.945 37.984C248.491 43.3507 248.539 43.3626 254.033 43.3626C262.232 43.3626 270.419 43.3626 278.618 43.3626C279.429 43.3626 280.621 42.9581 280.859 44.1837C281.193 45.8973 281.896 47.7536 281.05 49.3839C280.68 50.1455 279.56 49.8004 278.773 49.8004H250.541C248.027 49.8004 246.847 51.633 247.848 53.9177C248.336 55.1077 249.349 54.6793 250.16 54.6793C257.632 54.6793 265.092 54.6793 272.553 54.6793C274.936 54.6793 277.248 54.8816 279.608 54.8816C281.169 54.8816 281.908 55.3814 281.526 57.0473C281.397 57.6818 281.333 58.3277 281.336 58.9751C281.264 60.653 280.525 61.3551 278.738 61.2956C269.728 61.2004 260.723 61.2004 251.721 61.2956C250.613 61.2956 248.658 60.296 248.622 62.6997C248.563 65.5081 249.397 66.2696 252.067 66.2696C260.492 66.2696 268.93 66.46 277.367 66.3886C279.751 66.3886 279.834 67.2097 279.322 69.078C278.344 72.6479 278.189 72.8502 274.435 72.8383C267.94 72.8383 261.446 72.8383 254.962 72.8383C253.973 72.8383 252.293 71.9458 252.007 73.7903C251.951 74.7905 252.276 75.775 252.917 76.5455C253.558 77.3161 254.468 77.8155 255.463 77.9433C260.409 77.9433 265.366 77.9433 270.312 77.9433C271.969 77.9433 274.435 77.1103 275.079 78.4074C275.723 79.7045 273.732 81.4299 273.005 83.0126C272.786 83.4954 272.411 83.8911 271.94 84.1369C271.469 84.3827 270.93 84.4644 270.407 84.3691C266.832 84.3691 263.257 84.3691 259.682 84.3691C259.062 84.3691 258.275 84.1669 257.989 84.9403C257.703 85.7138 258.275 85.9994 258.621 86.4278C260.182 88.3913 261.755 90.3547 263.388 92.2825C264.032 93.0559 264.413 93.6272 263.388 94.472C256.065 100.676 250.226 108.438 246.298 117.189C246.179 117.413 246.031 117.621 245.858 117.807ZM227.66 98.5298C232.927 98.5298 238.207 98.4584 243.474 98.5298C245.309 98.5298 245.858 97.8634 245.858 96.1499C245.786 90.5689 245.858 84.9879 245.858 79.3951C245.843 78.5904 245.727 77.7908 245.512 77.0151C243.505 69.2415 243.151 61.134 244.475 53.2156C244.69 51.7639 244.308 51.3117 242.902 51.3236C232.856 51.4069 222.774 51.0142 212.763 51.6448C201.096 52.3826 191.753 58.2849 190.299 70.6844C189.345 78.8715 190.883 86.404 197.342 92.104C201.378 95.5159 206.374 97.5946 211.643 98.0538C216.968 98.5253 222.315 98.7001 227.66 98.5774V98.5298Z" fill="url(#paint1_linear_743_4193)"/>
<path d="M131.949 267.495C131.949 255.024 131.949 242.505 131.949 230.082C131.949 228.071 132.509 227.452 134.547 227.476C144.284 227.595 154.02 227.476 163.745 227.619C169.572 227.738 175.34 228.475 180.727 231.093C183.605 232.345 186.052 234.412 187.764 237.04C189.476 239.667 190.377 242.738 190.356 245.873C190.642 254.452 187.043 260.664 178.975 264.079C178.427 264.305 177.45 264.282 177.462 265.055C177.474 265.829 178.499 265.96 179.142 266.114C184.106 267.118 188.536 269.888 191.608 273.909C197.829 281.988 195.576 297.03 185.446 302.706C180.579 305.499 175.09 307.033 169.477 307.168C157.643 307.382 145.797 307.228 133.963 307.323C132.033 307.323 131.949 306.371 131.961 304.943C131.961 292.472 131.961 280.001 131.961 267.53L131.949 267.495ZM144.224 284.095C144.224 288.057 144.224 292.032 144.224 295.994C144.224 297.625 144.868 298.374 146.524 298.374C152.125 298.374 157.727 298.505 163.328 298.303C166.25 298.353 169.166 298.025 172.004 297.327C176.771 295.887 180.477 293.234 181.824 288.176C183.17 283.119 182.515 278.371 178.415 274.611C175.908 272.391 172.755 271.031 169.418 270.731C161.588 269.779 153.698 270.469 145.845 270.303C144.355 270.303 144.2 271.255 144.212 272.421C144.248 276.312 144.224 280.203 144.224 284.095ZM144.224 248.967C144.224 252.358 144.224 255.761 144.224 259.153C144.224 260.783 144.915 261.533 146.608 261.533C153.234 261.319 159.872 261.914 166.486 261.069C173.505 260.176 177.867 255.393 177.724 248.277C177.581 241.553 173.958 238.197 166.402 237.198C159.8 236.317 153.138 236.972 146.512 236.758C144.832 236.758 144.212 237.376 144.26 239.054C144.331 242.327 144.26 245.647 144.26 248.967H144.224Z" fill="url(#paint2_linear_743_4193)"/>
<path d="M61.722 227.547C66.906 227.547 72.102 227.547 77.2861 227.547C78.9426 227.547 79.6696 227.999 79.61 229.713C79.5385 235.794 79.61 241.862 79.61 247.943C79.6178 248.462 79.4859 248.973 79.228 249.423C78.9701 249.873 78.5958 250.246 78.1441 250.502C70.6243 255.904 66.8941 263.461 66.048 272.504C65.8811 274.218 65.2972 274.706 63.6645 274.682C60.3395 274.682 57.0146 274.872 53.7015 274.777C52.9459 274.703 52.1858 274.862 51.5232 275.232C50.8606 275.602 50.3274 276.166 49.9952 276.848C44.3821 286.129 38.6499 295.328 33.0844 304.634C31.8927 306.657 30.5699 307.68 28.091 307.478C25.0938 307.323 22.0906 307.323 19.0934 307.478C17.5084 307.478 17.2104 307.097 18.1162 305.716C23.3122 297.783 28.4764 289.85 33.6088 281.917C35.0627 279.692 36.4451 277.407 38.0063 275.241C39.0908 273.742 38.5664 273.183 37.0291 272.73C31.1538 270.993 26.22 267.863 23.2407 262.354C16.6622 250.145 20.5712 233.628 37.0053 229.154C40.3783 228.289 43.8435 227.834 47.3257 227.797C52.0927 227.666 56.8597 227.797 61.6266 227.797L61.722 227.547ZM66.8107 251.085C66.8107 247.039 66.7392 242.993 66.8107 238.959C66.8107 237.269 66.2744 236.65 64.5821 236.698C58.5043 236.912 52.4383 236.52 46.3723 237.031C36.4094 237.852 30.6533 246.361 33.7995 255.845C35.7778 261.795 40.6877 265.15 48.1004 265.364C53.6777 265.519 59.2789 265.364 64.8682 265.46C66.3578 265.46 66.8345 264.948 66.8107 263.472C66.7511 259.415 66.8107 255.25 66.8107 251.085Z" fill="url(#paint3_linear_743_4193)"/>
<path d="M324.367 296.303C322.186 299.1 320.446 301.611 317.956 303.515C314.479 306.197 310.316 307.846 305.943 308.275C301.534 308.887 297.046 308.579 292.762 307.37C289.804 306.439 287.191 304.647 285.259 302.224C283.327 299.801 282.163 296.856 281.917 293.769C280.893 282.393 287.483 276.55 296.921 274.134C304.882 272.087 312.998 272.397 321.09 272.313C324.32 272.313 324.594 272.087 324.379 268.839C324.022 263.412 322.615 258.569 316.669 256.677C312.002 255.144 306.93 255.411 302.451 257.427C301.207 257.946 300.106 258.758 299.245 259.794C298.384 260.83 297.787 262.06 297.505 263.377C297.041 265.566 295.92 266.137 293.93 265.757C291.533 265.323 289.095 265.156 286.661 265.257C284.813 265.34 284.575 264.341 284.992 262.96C285.614 260.557 286.743 258.314 288.303 256.38C289.863 254.447 291.818 252.869 294.037 251.751C303.178 247.288 312.867 247.146 322.46 249.74C331.613 252.215 336.428 259.176 336.463 268.648C336.463 276.582 336.463 284.515 336.463 292.448C336.444 294.067 336.706 295.678 337.238 297.208C337.496 298.026 337.987 298.751 338.652 299.295C339.317 299.838 340.126 300.176 340.98 300.266C342.172 300.444 342.768 300.897 342.434 302.182C342.352 302.661 342.324 303.148 342.351 303.634C342.351 307.596 342.351 307.727 338.37 307.918C331.053 308.263 326.393 306.192 325.058 298.398C324.861 297.689 324.631 296.99 324.367 296.303ZM315.608 279.418V279.501C313.499 279.501 311.389 279.406 309.292 279.501C305.723 279.58 302.222 280.489 299.067 282.155C297.209 283.236 295.751 284.89 294.913 286.868C294.076 288.846 293.902 291.041 294.419 293.126C295.539 297.624 298.518 299.921 303.405 300.016C304.596 300.016 305.788 300.016 307.051 300.016C309.46 299.977 311.835 299.448 314.031 298.459C316.226 297.471 318.197 296.045 319.821 294.268C321.444 292.492 322.687 290.403 323.473 288.13C324.259 285.856 324.572 283.446 324.391 281.048C324.308 279.775 323.855 279.346 322.651 279.382C320.303 279.406 317.956 279.37 315.608 279.37V279.418Z" fill="url(#paint4_linear_743_4193)"/>
<path d="M240.601 296.625C238.515 298.91 236.823 301.564 234.273 303.503C228.719 307.728 222.355 308.715 215.681 308.442C212.35 308.385 209.081 307.532 206.148 305.955C200.952 303.075 198.675 298.541 198.187 292.924C197.305 282.464 203.871 276.538 213.084 274.147C221.044 272.088 229.16 272.421 237.252 272.314C240.613 272.314 240.636 272.314 240.601 268.923C240.493 258.748 234.344 255.047 224.655 255.987C223.117 256.078 221.596 256.358 220.127 256.82C218.572 257.311 217.171 258.196 216.062 259.389C214.953 260.582 214.173 262.043 213.799 263.627C213.286 265.591 212.285 266.007 210.486 265.864C207.995 265.614 205.492 265.388 202.989 265.329C201.19 265.329 200.88 264.377 201.309 262.949C202.004 260.447 203.233 258.126 204.911 256.143C206.59 254.161 208.679 252.565 211.034 251.466C214.235 249.903 217.705 248.966 221.259 248.705C228.552 248.157 235.774 247.955 242.603 251.394C249.432 254.833 252.459 260.331 252.649 267.566C252.864 275.991 252.745 284.416 252.721 292.841C252.731 294.381 253.026 295.906 253.591 297.339C254.175 298.85 255.116 300.147 256.82 300.278C258.727 300.433 258.954 301.468 258.942 303.039C258.942 307.906 258.787 307.977 253.948 308.12C246.297 308.323 241.888 304.622 241.411 298.208C241.433 297.895 241.369 297.583 241.226 297.304C241.083 297.025 240.867 296.791 240.601 296.625ZM231.996 279.37V279.454C229.72 279.454 227.444 279.359 225.18 279.454C221.175 279.68 217.326 280.465 214.025 283.024C210.45 285.725 210.366 289.533 210.867 293.377C211.296 296.673 213.584 298.636 216.635 299.648C218.899 300.409 221.295 300.052 223.63 300.005C233.534 299.767 241.256 291.675 241.006 281.084C241.006 279.835 240.529 279.347 239.29 279.382C236.859 279.406 234.428 279.37 231.996 279.37Z" fill="url(#paint5_linear_743_4193)"/>
<path d="M104.157 280.537C97.4235 280.537 90.7021 280.537 83.9688 280.537C82.8962 280.537 81.4065 280.227 81.5853 282.024C82.0501 288.034 83.0511 293.924 88.7357 297.494C94.182 300.933 100.129 300.766 106.087 299.041C107.822 298.61 109.447 297.821 110.857 296.724C112.267 295.628 113.431 294.248 114.275 292.675C114.353 292.469 114.472 292.282 114.625 292.124C114.778 291.966 114.961 291.841 115.164 291.755C115.366 291.669 115.584 291.626 115.804 291.626C116.024 291.627 116.242 291.672 116.444 291.758C118.708 292.341 121.032 292.734 123.344 293.127C124.905 293.388 125.382 293.793 124.476 295.507C123.027 298.228 121.04 300.628 118.635 302.561C116.23 304.494 113.458 305.92 110.485 306.752C100.76 309.703 91.0715 309.572 81.8832 304.907C75.0069 301.397 71.3959 295.257 69.9658 287.796C68.9184 282.544 68.7613 277.154 69.5011 271.85C71.6343 257.511 80.9418 249.169 95.4691 248.491C101.154 248.217 106.814 248.396 112.153 250.93C121.342 255.333 125.263 263.199 126.538 272.79C126.764 274.468 126.776 276.181 127.026 277.859C127.336 279.966 126.633 280.703 124.416 280.656C117.612 280.453 110.89 280.537 104.157 280.537ZM98.6153 273.123H113.19C114.263 273.123 115.502 273.123 115.335 271.564C114.74 266.043 112.952 260.95 107.684 258.32C99.1158 254.048 84.1118 255.321 81.6568 270.029C81.2159 272.683 81.3827 273.088 84.0403 273.111C88.8549 273.159 93.753 273.123 98.6153 273.123Z" fill="url(#paint6_linear_743_4193)"/>
<path d="M499.804 280.501C493.154 280.501 486.504 280.501 479.855 280.501C478.079 280.501 477.471 280.929 477.471 282.809C477.626 290.877 481.154 296.898 488.018 299.136C491.216 300.242 494.635 300.559 497.982 300.059C501.329 299.56 504.506 298.259 507.241 296.268C508.025 295.69 508.662 294.936 509.1 294.066C510.292 291.746 512.031 291.46 514.32 292.21C515.779 292.695 517.291 293.007 518.824 293.138C521.005 293.281 521.041 294.328 520.159 295.804C517.797 299.892 514.265 303.182 510.017 305.252C502.581 308.893 494.608 309.322 486.755 307.941C475.397 305.942 468.14 299.778 465.697 286.974C464.252 280.223 464.506 273.219 466.436 266.59C467.791 261.9 470.512 257.718 474.253 254.576C477.994 251.434 482.586 249.473 487.446 248.943C493.047 248.229 498.601 247.967 504.059 249.526C515.44 252.774 520.946 261.58 522.28 272.492C522.519 274.42 522.614 276.36 522.721 278.299C522.805 279.87 522.209 280.608 520.457 280.596C513.557 280.501 506.669 280.596 499.768 280.596L499.804 280.501ZM494.418 273.17H506.335C512.198 273.17 511.841 273.765 510.363 267.649C508.134 258.415 500.829 255.475 491.855 256.427C482.095 257.451 477.96 264.65 477.555 270.909C477.447 272.575 477.9 273.23 479.664 273.194C484.514 273.111 489.484 273.17 494.418 273.17Z" fill="url(#paint7_linear_743_4193)"/>
<path d="M347.582 275.622C347.379 269.755 348.047 260.438 347.284 251.144C347.177 249.764 348.082 249.49 349.131 249.466C350.99 249.466 352.861 249.466 354.72 249.466C358.296 249.466 358.892 249.871 358.617 253.453C358.486 255.261 358.939 257.022 358.844 258.772C358.844 259.236 358.844 259.843 359.344 260.033C359.845 260.224 360.346 259.664 360.655 259.224C361.977 257.095 363.581 255.154 365.422 253.453C371.381 248.478 378.257 247.705 385.563 248.693C388.716 249.013 391.725 250.177 394.271 252.062C396.817 253.947 398.807 256.483 400.03 259.402C401.294 262.121 401.984 265.07 402.056 268.065C402.128 280.465 402.056 292.853 402.188 305.252C402.188 306.93 401.508 307.311 399.995 307.251C397.611 307.168 395.132 307.12 392.701 307.251C390.878 307.358 390.318 306.74 390.318 304.871C390.401 295.233 390.401 285.594 390.377 275.955C390.458 272.322 389.926 268.702 388.804 265.245C386.623 258.867 379.604 256.606 374.265 257.308C364.731 258.498 359.523 266.364 359.297 275.408C359.058 285.118 359.166 294.84 359.297 304.562C359.297 306.74 358.641 307.406 356.52 307.239C354.25 307.085 351.973 307.085 349.703 307.239C347.963 307.335 347.51 306.656 347.522 304.99C347.618 296.399 347.582 287.736 347.582 275.622Z" fill="url(#paint8_linear_743_4193)"/>
<path d="M406.517 279.109C406.362 271.35 407.637 264.531 412.106 258.641C414.079 255.971 416.575 253.73 419.444 252.054C422.312 250.378 425.492 249.304 428.79 248.895C435.13 248.003 441.351 248.026 447.453 250.276C450.8 251.426 453.811 253.382 456.222 255.97C458.633 258.558 460.369 261.698 461.277 265.114C461.647 266.304 461.372 267.185 459.895 267.268C456.975 267.435 454.067 267.637 451.159 267.804C450.771 267.892 450.364 267.832 450.018 267.636C449.672 267.44 449.412 267.122 449.288 266.745C445.296 258.129 438.777 255.261 429.553 257.927C423.594 259.641 420.639 263.948 419.232 269.648C417.679 275.978 417.864 282.609 419.769 288.843C422.152 297.018 429.493 300.742 437.538 299.731C443.496 299.005 448.013 296.089 449.622 289.842C449.659 289.581 449.749 289.331 449.886 289.107C450.024 288.882 450.206 288.688 450.421 288.536C450.637 288.385 450.881 288.279 451.139 288.225C451.397 288.171 451.664 288.171 451.922 288.224C454.746 288.486 457.583 288.64 460.407 288.843C462.397 288.997 461.956 290.199 461.599 291.46C459.215 299.6 453.662 304.705 445.677 306.93C437.335 309.31 428.826 309.239 420.77 305.538C413.441 302.17 409.293 296.101 407.422 288.367C406.694 285.337 406.389 282.221 406.517 279.109Z" fill="url(#paint9_linear_743_4193)"/>
<path d="M263.353 265.912C263.353 253.036 263.353 240.161 263.353 227.285C263.353 225.167 263.889 224.393 266.07 224.56C268.414 224.75 270.769 224.75 273.113 224.56C275.365 224.37 275.818 225.286 275.759 227.333C275.627 232.188 275.759 237.043 275.759 241.91C275.759 262.711 275.759 283.559 275.759 304.336C275.759 306.716 275.151 307.489 272.791 307.275C270.611 307.067 268.416 307.067 266.237 307.275C263.782 307.525 263.317 306.537 263.341 304.276C263.412 291.544 263.353 278.704 263.353 265.912Z" fill="url(#paint10_linear_743_4193)"/>
<path d="M286.544 164.871C287.691 159.075 288.135 153.162 287.866 147.259C287.132 135.718 282.938 124.664 275.83 115.535C274.638 114.047 274.829 113.262 276.164 112.203C282.539 107.145 280.644 106.598 284.887 113.643C291.275 124.245 293.336 135.955 291.835 148.211C291.174 153.269 289.789 158.207 287.723 162.872C287.376 163.564 286.982 164.232 286.544 164.871Z" fill="url(#paint11_linear_743_4193)"/>
<path d="M408.745 332.157C412.546 332.157 413.035 332.8 412.01 336.287C411.116 339.357 408.435 341.142 404.729 341.142C400.617 341.142 397.173 338.762 396.386 335.12C395.66 331.919 395.981 328.837 398.52 326.35C399.648 325.238 401.059 324.453 402.6 324.082C404.141 323.711 405.755 323.767 407.267 324.244C407.686 324.311 408.089 324.452 408.459 324.661C409.388 325.303 411.116 325.791 410.509 327.148C409.782 328.778 408.483 327.79 407.291 327.148C406.316 326.634 405.21 326.423 404.114 326.542C403.018 326.661 401.983 327.104 401.142 327.814C400.232 328.567 399.567 329.574 399.232 330.705C398.897 331.837 398.906 333.042 399.259 334.169C399.448 335.256 399.99 336.251 400.802 336.999C401.614 337.748 402.651 338.208 403.751 338.31C405.777 338.56 407.863 338.631 409.138 336.513C409.674 335.644 409.96 334.835 408.471 334.692C407.434 334.585 405.801 335.156 405.92 333.395C405.956 331.313 407.863 332.538 408.745 332.157Z" fill="url(#paint12_linear_743_4193)"/>
<path d="M42.0703 332.479C42.1701 330.231 43.1392 328.11 44.7736 326.562C46.4079 325.013 48.5801 324.159 50.833 324.177C53.0859 324.196 55.2437 325.086 56.8524 326.661C58.461 328.236 59.395 330.373 59.4578 332.622C59.358 334.869 58.3889 336.99 56.7546 338.538C55.1202 340.087 52.948 340.942 50.6951 340.923C48.4422 340.905 46.2844 340.014 44.6757 338.439C43.0671 336.864 42.1331 334.727 42.0703 332.479ZM56.55 332.586C56.5835 331.824 56.4635 331.062 56.1969 330.347C55.9303 329.632 55.5226 328.978 54.9981 328.423C54.4735 327.868 53.8427 327.424 53.143 327.117C52.4433 326.81 51.6891 326.646 50.9249 326.636C50.1353 326.609 49.3486 326.745 48.6136 327.035C47.8786 327.324 47.2111 327.762 46.6524 328.32C46.0937 328.878 45.6557 329.544 45.3657 330.278C45.0756 331.012 44.9397 331.797 44.9662 332.586C44.9263 333.366 45.045 334.146 45.3154 334.88C45.5858 335.613 46.0022 336.284 46.5394 336.852C47.0767 337.42 47.7236 337.874 48.4412 338.185C49.1589 338.497 49.9323 338.66 50.7147 338.665C51.4972 338.669 52.2726 338.516 52.994 338.213C53.7154 337.91 54.3679 337.465 54.9122 336.904C55.4564 336.342 55.8811 335.676 56.1605 334.947C56.4399 334.217 56.5684 333.438 56.538 332.657L56.55 332.586Z" fill="url(#paint13_linear_743_4193)"/>
<path d="M346.597 323.851C348.893 323.876 351.087 324.803 352.704 326.43C354.321 328.058 355.231 330.257 355.237 332.549C355.153 334.836 354.201 337.005 352.574 338.616C350.947 340.227 348.768 341.159 346.477 341.224C344.144 341.187 341.919 340.231 340.288 338.564C338.656 336.897 337.75 334.654 337.766 332.323C337.788 331.188 338.033 330.068 338.489 329.027C338.945 327.986 339.601 327.046 340.422 326.259C341.242 325.472 342.21 324.854 343.269 324.441C344.329 324.028 345.459 323.827 346.597 323.851ZM346.597 338.321C347.367 338.329 348.13 338.182 348.842 337.889C349.554 337.596 350.2 337.163 350.74 336.616C351.281 336.068 351.705 335.417 351.989 334.703C352.272 333.988 352.408 333.223 352.388 332.454C352.394 331.666 352.239 330.885 351.934 330.158C351.629 329.432 351.179 328.774 350.612 328.226C350.045 327.677 349.372 327.25 348.635 326.968C347.898 326.687 347.111 326.557 346.323 326.588C345.55 326.585 344.786 326.743 344.078 327.051C343.37 327.36 342.735 327.813 342.212 328.38C341.69 328.948 341.291 329.619 341.043 330.349C340.794 331.079 340.701 331.853 340.769 332.621C340.72 333.39 340.838 334.161 341.114 334.881C341.39 335.601 341.817 336.253 342.368 336.794C342.918 337.334 343.578 337.751 344.304 338.014C345.03 338.277 345.803 338.382 346.573 338.321H346.597Z" fill="url(#paint14_linear_743_4193)"/>
<path d="M288.296 332.776C288.156 335.045 287.149 337.173 285.484 338.723C283.819 340.273 281.622 341.126 279.346 341.106C277.051 341.063 274.868 340.112 273.275 338.462C271.683 336.812 270.812 334.597 270.855 332.306C270.898 330.015 271.85 327.834 273.503 326.244C275.156 324.654 277.373 323.785 279.668 323.828C281.998 323.881 284.212 324.851 285.828 326.527C287.444 328.204 288.331 330.45 288.296 332.776ZM279.465 338.333C280.26 338.38 281.056 338.258 281.8 337.976C282.544 337.693 283.22 337.257 283.783 336.695C284.346 336.132 284.783 335.458 285.066 334.715C285.349 333.972 285.471 333.177 285.424 332.384C285.426 331.617 285.275 330.858 284.98 330.15C284.685 329.442 284.252 328.8 283.707 328.261C283.161 327.722 282.514 327.296 281.802 327.009C281.09 326.722 280.328 326.579 279.561 326.588C278.773 326.556 277.987 326.688 277.253 326.976C276.519 327.265 275.854 327.703 275.299 328.263C274.745 328.823 274.314 329.493 274.034 330.229C273.754 330.965 273.631 331.752 273.673 332.538C273.627 333.31 273.744 334.084 274.019 334.807C274.293 335.531 274.718 336.188 275.265 336.735C275.812 337.283 276.47 337.709 277.194 337.984C277.918 338.259 278.692 338.379 279.465 338.333Z" fill="url(#paint15_linear_743_4193)"/>
<path d="M383.026 332.681C383.026 334.704 383.026 336.727 383.026 338.75C383.026 339.357 383.36 340.202 382.657 340.511C381.954 340.821 381.465 339.916 380.953 339.452C378.128 336.787 375.34 334.098 372.539 331.42C372.205 331.087 371.931 330.516 371.407 330.67C370.882 330.825 370.906 331.61 370.906 332.134C370.906 334.395 370.906 336.656 370.906 338.917C370.906 339.869 370.847 340.714 369.56 340.749C368.273 340.785 368.213 339.893 368.213 338.976C368.213 334.526 368.213 330.087 368.213 325.637C368.213 325.185 368.034 324.578 368.559 324.34C369.083 324.102 369.583 324.649 369.965 325.018C372.694 327.66 375.375 330.349 378.128 332.967C378.617 333.431 379.117 334.312 379.892 334.014C380.667 333.717 380.369 332.741 380.381 332.051C380.381 330.111 380.381 328.171 380.381 326.232C380.381 325.197 380.381 324.257 381.835 324.268C383.288 324.28 383.098 325.232 383.098 326.137V332.681H383.026Z" fill="url(#paint16_linear_743_4193)"/>
<path d="M206.352 332.514C206.352 330.253 206.352 327.992 206.352 325.719C206.352 324.708 206.733 324.244 207.77 324.256C208.807 324.267 209.319 324.624 209.247 325.684C209.236 325.766 209.236 325.851 209.247 325.933C209.498 327.314 208.449 329.503 209.784 329.956C211.655 330.61 213.919 330.217 216.017 330.182C216.887 330.182 216.851 329.361 216.875 328.706C216.875 327.516 216.875 326.445 216.958 325.315C217.041 324.184 217.745 324.256 218.519 324.256C219.294 324.256 219.771 324.541 219.771 325.374C219.771 330.134 219.771 334.894 219.771 339.654C219.771 340.677 219.008 340.713 218.233 340.725C217.268 340.725 216.946 340.154 216.922 339.333C216.922 337.726 216.851 336.108 216.922 334.489C216.922 333.299 216.446 332.835 215.194 332.764C209.367 332.419 209.367 332.371 209.236 338.273C209.236 338.595 209.236 338.916 209.236 339.237C209.236 340.237 208.854 340.713 207.817 340.725C206.781 340.737 206.363 340.284 206.375 339.273C206.375 337.012 206.375 334.751 206.375 332.49L206.352 332.514Z" fill="url(#paint17_linear_743_4193)"/>
<path d="M72.5312 330.67C72.5312 328.968 72.5312 327.267 72.5312 325.577C72.5312 324.387 73.1271 324.232 74.0686 324.256C75.0101 324.28 75.3795 324.934 75.3676 325.863C75.3676 328.778 75.2842 331.693 75.3676 334.597C75.4868 337.762 78.0371 339.357 80.9807 338.107C81.628 337.856 82.177 337.403 82.5463 336.816C82.9155 336.229 83.0853 335.538 83.0305 334.847C83.0305 331.931 83.1139 329.028 83.102 326.112C83.102 325.006 83.2569 324.22 84.6512 324.244C86.0456 324.268 85.986 325.089 85.986 326.041C85.986 329.111 86.0575 332.181 85.986 335.251C85.8668 338.976 83.2331 341.201 79.1335 341.13C75.0339 341.058 72.6266 338.905 72.5432 335.037C72.5432 333.574 72.5432 332.122 72.5432 330.67H72.5312Z" fill="url(#paint18_linear_743_4193)"/>
<path d="M111.106 340.665C105.648 341.07 105.684 335.739 102.228 334.037V339.023C102.228 339.844 102.311 340.689 101.036 340.737C99.7608 340.784 99.582 340.059 99.582 339.035C99.582 334.668 99.582 330.301 99.582 325.945C99.582 324.755 100.023 324.172 101.286 324.256C102.335 324.256 103.396 324.256 104.444 324.256C106.458 324.327 108.21 325.017 108.758 327.112C109.307 329.206 109.39 331.407 107.102 332.669C105.612 333.478 106.196 334.323 106.852 335.192C108.127 336.869 109.426 338.5 111.106 340.665ZM102.418 328.766C102.621 329.599 101.799 331.074 103.789 331.074C105.219 331.074 106.172 330.563 106.101 329.004C106.029 327.445 105.147 326.909 103.777 326.767C102.18 326.576 102.43 327.683 102.418 328.742V328.766Z" fill="url(#paint19_linear_743_4193)"/>
<path d="M425.141 332.598C425.141 330.42 425.2 328.23 425.141 326.053C425.141 324.672 425.641 324.185 426.988 324.232C429.014 324.315 431.04 324.232 433.066 324.232C433.936 324.232 434.472 324.577 434.424 325.529C434.377 326.481 433.9 326.648 433.137 326.648C432.16 326.648 431.195 326.648 430.217 326.648C429.026 326.648 428.013 326.565 428.048 328.326C428.048 329.885 428.549 330.575 430.146 330.432C430.956 330.361 431.767 330.432 432.529 330.432C433.542 330.432 434.365 330.622 434.365 331.812C434.365 333.002 433.399 333.121 432.458 333.109C431.811 333.145 431.162 333.145 430.515 333.109C428.418 332.859 427.941 333.847 427.989 335.775C428.037 337.703 428.573 338.298 430.372 338.072C431.339 337.976 432.313 337.976 433.28 338.072C434.079 338.072 434.389 338.655 434.353 339.404C434.317 340.154 434.067 340.678 433.233 340.689C430.849 340.689 428.537 340.689 426.189 340.689C425.141 340.689 425.141 339.868 425.141 339.131V332.598Z" fill="url(#paint20_linear_743_4193)"/>
<path d="M173.874 339.809C173.958 340.452 173.684 340.666 173.219 340.725C172.745 340.838 172.246 340.781 171.811 340.563C171.375 340.346 171.029 339.982 170.836 339.535C170.324 338.256 169.335 337.224 168.076 336.658C166.818 336.092 165.389 336.036 164.09 336.501C163.782 336.586 163.501 336.748 163.272 336.97C163.043 337.193 162.873 337.469 162.779 337.774C162.398 338.571 161.969 339.345 161.516 340.154C161.265 340.534 160.876 340.801 160.431 340.899C159.986 340.996 159.52 340.917 159.133 340.678C158.179 340.309 158.93 339.488 159.133 339.047C161.194 334.49 163.328 329.968 165.425 325.434C165.949 324.244 166.617 323.982 167.213 325.256C169.405 329.92 171.527 334.621 173.672 339.309C173.749 339.472 173.816 339.639 173.874 339.809ZM166.319 329.944C165.89 331.277 164.364 332.324 164.96 333.716C165.246 334.347 167.487 334.347 167.761 333.716C168.392 332.395 167.141 331.206 166.319 329.944Z" fill="url(#paint21_linear_743_4193)"/>
<path d="M139.612 332.491C139.612 330.313 139.612 328.135 139.612 325.958C139.612 324.768 139.994 324.161 141.293 324.232C142.592 324.304 144.213 324.232 145.655 324.339C146.76 324.49 147.772 325.043 148.496 325.891C149.22 326.74 149.605 327.825 149.579 328.939C149.552 330.053 149.115 331.119 148.352 331.932C147.589 332.745 146.552 333.249 145.44 333.347C142.127 333.669 142.258 333.681 142.067 337.072C142.008 338.262 143.259 340.642 140.78 340.642C138.647 340.582 139.803 338.357 139.589 337.072C139.487 335.543 139.487 334.008 139.589 332.479L139.612 332.491ZM142.377 328.742C142.377 329.813 142.02 331.122 143.926 330.991C145.261 330.896 146.381 330.61 146.417 329.004C146.453 327.398 145.309 326.886 143.879 326.719C142.175 326.529 142.353 327.683 142.377 328.742Z" fill="url(#paint22_linear_743_4193)"/>
<path d="M452.647 334.061C454.232 331.836 454.84 329.218 455.924 326.826C456.192 326.075 456.553 325.359 456.997 324.696C457.286 324.406 457.667 324.224 458.075 324.18C458.483 324.137 458.893 324.235 459.237 324.458C459.952 324.827 459.476 325.482 459.237 325.958C457.271 330.551 455.257 335.12 453.279 339.726C452.671 341.142 452.087 340.547 451.717 339.726C449.691 335.073 447.749 330.396 445.759 325.72C445.532 325.172 445.389 324.53 446.2 324.363C446.426 324.273 446.667 324.23 446.91 324.235C447.153 324.239 447.393 324.293 447.615 324.391C447.837 324.49 448.037 324.632 448.203 324.809C448.369 324.986 448.499 325.195 448.583 325.422C449.441 327.505 450.287 329.599 451.193 331.669C451.447 332.586 451.95 333.414 452.647 334.061Z" fill="url(#paint23_linear_743_4193)"/>
<path d="M514.879 330.206C516.056 329.097 517.024 327.788 517.739 326.338C518.053 325.782 518.408 325.249 518.799 324.744C519.078 324.435 519.456 324.234 519.867 324.176C520.279 324.117 520.698 324.204 521.052 324.422C522.053 325.017 521.052 325.612 520.742 326.195C520.4 326.844 520.002 327.462 519.55 328.04C517.107 331.122 515.653 334.49 516.237 338.547C516.38 339.535 516.583 340.737 514.867 340.773C513.151 340.808 513.306 339.583 513.484 338.607C514.319 333.847 511.864 330.277 509.361 326.612C508.968 326.053 507.704 325.172 508.932 324.422C509.167 324.299 509.425 324.224 509.69 324.202C509.955 324.18 510.222 324.211 510.474 324.295C510.727 324.378 510.96 324.511 511.16 324.686C511.36 324.862 511.522 325.076 511.637 325.315C512.71 326.933 513.425 328.79 514.879 330.206Z" fill="url(#paint24_linear_743_4193)"/>
<path d="M31.2591 325.018C31.1378 325.282 31.0026 325.541 30.854 325.791C30.429 326.571 29.9595 327.326 29.4477 328.052C26.9927 331.217 25.4792 334.633 26.1227 338.762C26.2658 339.69 26.3849 340.773 24.8237 340.761C23.2626 340.749 23.1315 339.773 23.2983 338.809C24.1445 333.895 21.6776 330.146 19.163 326.362C18.8055 325.827 17.6733 325.053 18.8174 324.423C19.0291 324.296 19.2641 324.214 19.5084 324.18C19.7527 324.146 20.0013 324.162 20.2394 324.227C20.4774 324.291 20.7001 324.403 20.8939 324.555C21.0878 324.707 21.2489 324.897 21.3677 325.113C22.1185 326.303 22.9527 327.552 23.6678 328.802C24.3828 330.051 25.1455 330.372 26.0512 328.861C26.814 327.54 27.6601 326.255 28.5181 324.982C28.7688 324.663 29.1096 324.427 29.4964 324.304C29.8831 324.181 30.2979 324.177 30.6871 324.292C31.0089 324.339 31.1996 324.565 31.2591 325.018Z" fill="url(#paint25_linear_743_4193)"/>
<path d="M187.14 333.681C187.14 331.979 187.057 330.278 187.14 328.588C187.247 327.101 186.735 326.553 185.221 326.625C184.304 326.625 182.838 327.196 182.838 325.518C182.838 323.84 184.435 324.328 185.424 324.328C187.807 324.245 190.286 324.328 192.717 324.328C193.575 324.328 194.41 324.387 194.398 325.518C194.386 326.648 193.516 326.839 192.682 326.708C190.358 326.315 190.012 327.458 190.084 329.445C190.203 332.598 190.084 335.752 190.084 338.965C190.084 340.012 190.084 340.892 188.594 340.869C187.104 340.845 187.164 339.893 187.164 338.893C187.164 337.192 187.164 335.49 187.164 333.788L187.14 333.681Z" fill="url(#paint26_linear_743_4193)"/>
<path d="M253.067 333.502C253.067 332.455 253.008 331.407 253.067 330.36C253.21 328.123 253.306 326.029 249.981 326.636C249.206 326.778 248.789 326.16 248.789 325.446C248.789 324.732 249.242 324.256 249.981 324.256H258.955C259.111 324.267 259.264 324.31 259.404 324.38C259.544 324.451 259.669 324.548 259.771 324.667C259.873 324.786 259.951 324.924 260 325.073C260.049 325.222 260.069 325.379 260.057 325.535C260.045 325.691 260.003 325.844 259.932 325.983C259.861 326.123 259.764 326.248 259.645 326.35C259.526 326.452 259.388 326.53 259.239 326.579C259.09 326.628 258.932 326.647 258.776 326.636C255.892 326.112 255.677 327.659 255.82 329.944C255.999 332.919 255.82 335.894 255.82 338.892C255.82 339.809 255.82 340.689 254.497 340.737C253.175 340.784 252.984 339.856 252.984 338.821L253.067 333.502Z" fill="url(#paint27_linear_743_4193)"/>
<path d="M492.274 324.256H496.648C497.518 324.256 498.007 324.684 497.971 325.601C497.98 325.765 497.949 325.929 497.881 326.079C497.813 326.23 497.71 326.361 497.58 326.463C497.45 326.564 497.297 326.633 497.135 326.663C496.973 326.693 496.806 326.684 496.648 326.636C493.812 326.1 493.716 327.743 493.8 329.849C493.919 332.836 493.8 335.799 493.8 338.821C493.8 339.868 493.8 340.749 492.31 340.761C490.82 340.773 490.88 339.821 490.868 338.821C490.868 335.418 490.761 332.026 490.868 328.635C490.868 327.219 490.558 326.529 488.985 326.636C488.055 326.695 486.602 327.124 486.602 325.446C486.602 323.566 488.198 324.351 489.176 324.256C490.208 324.204 491.242 324.204 492.274 324.256Z" fill="url(#paint28_linear_743_4193)"/>
<path d="M318.338 332.252C318.338 330.384 318.338 328.528 318.338 326.671C318.338 325.6 317.981 324.196 319.828 324.291C321.675 324.387 321.139 325.815 321.151 326.826C321.151 329.742 321.151 332.657 321.091 335.572C321.02 337.381 321.544 338.214 323.558 338.178C324.75 338.178 326.99 336.988 326.919 339.487C326.847 341.986 324.643 340.677 323.451 340.677C318.315 340.796 318.315 340.677 318.326 335.656L318.338 332.252Z" fill="url(#paint29_linear_743_4193)"/>
<path d="M471.57 332.419C471.57 330.313 471.57 328.219 471.57 326.124C471.57 325.101 471.57 324.22 473.012 324.232C474.323 324.232 474.681 324.792 474.669 325.982C474.669 330.42 474.669 334.847 474.669 339.274C474.669 340.464 474.168 340.785 473.06 340.809C471.952 340.832 471.57 340.249 471.594 339.178C471.594 336.929 471.594 334.668 471.594 332.419H471.57Z" fill="url(#paint30_linear_743_4193)"/>
<defs>
<linearGradient id="paint0_linear_743_4193" x1="238.185" y1="101.814" x2="382.979" y2="101.814" gradientUnits="userSpaceOnUse">
<stop stop-color="#8B8B8B"/>
<stop offset="0.509514" stop-color="#CACACA"/>
<stop offset="1" stop-color="#737373"/>
</linearGradient>
<linearGradient id="paint1_linear_743_4193" x1="155.72" y1="101.848" x2="287.509" y2="101.848" gradientUnits="userSpaceOnUse">
<stop stop-color="#8F7047"/>
<stop offset="0.509514" stop-color="#DABD9A"/>
<stop offset="1" stop-color="#A58A63"/>
</linearGradient>
<linearGradient id="paint2_linear_743_4193" x1="127.531" y1="267.399" x2="198.219" y2="267.399" gradientUnits="userSpaceOnUse">
<stop stop-color="#8B8B8B"/>
<stop offset="0.509514" stop-color="#CACACA"/>
<stop offset="1" stop-color="#737373"/>
</linearGradient>
<linearGradient id="paint3_linear_743_4193" x1="13.2691" y1="267.525" x2="82.7136" y2="267.525" gradientUnits="userSpaceOnUse">
<stop stop-color="#8F7047"/>
<stop offset="0.509514" stop-color="#DABD9A"/>
<stop offset="1" stop-color="#A58A63"/>
</linearGradient>
<linearGradient id="paint4_linear_743_4193" x1="277.563" y1="278.309" x2="345.562" y2="278.309" gradientUnits="userSpaceOnUse">
<stop stop-color="#8B8B8B"/>
<stop offset="0.509514" stop-color="#CACACA"/>
<stop offset="1" stop-color="#737373"/>
</linearGradient>
<linearGradient id="paint5_linear_743_4193" x1="193.849" y1="278.439" x2="261.984" y2="278.439" gradientUnits="userSpaceOnUse">
<stop stop-color="#8B8B8B"/>
<stop offset="0.509514" stop-color="#CACACA"/>
<stop offset="1" stop-color="#737373"/>
</linearGradient>
<linearGradient id="paint6_linear_743_4193" x1="64.9793" y1="278.565" x2="129.998" y2="278.565" gradientUnits="userSpaceOnUse">
<stop stop-color="#8F7047"/>
<stop offset="0.509514" stop-color="#DABD9A"/>
<stop offset="1" stop-color="#A58A63"/>
</linearGradient>
<linearGradient id="paint7_linear_743_4193" x1="460.717" y1="278.522" x2="525.627" y2="278.522" gradientUnits="userSpaceOnUse">
<stop stop-color="#8B8B8B"/>
<stop offset="0.509514" stop-color="#CACACA"/>
<stop offset="1" stop-color="#737373"/>
</linearGradient>
<linearGradient id="paint8_linear_743_4193" x1="343.432" y1="277.792" x2="404.933" y2="277.792" gradientUnits="userSpaceOnUse">
<stop stop-color="#8B8B8B"/>
<stop offset="0.509514" stop-color="#CACACA"/>
<stop offset="1" stop-color="#737373"/>
</linearGradient>
<linearGradient id="paint9_linear_743_4193" x1="402.609" y1="278.447" x2="464.678" y2="278.447" gradientUnits="userSpaceOnUse">
<stop stop-color="#8B8B8B"/>
<stop offset="0.509514" stop-color="#CACACA"/>
<stop offset="1" stop-color="#737373"/>
</linearGradient>
<linearGradient id="paint10_linear_743_4193" x1="262.47" y1="265.924" x2="276.385" y2="265.924" gradientUnits="userSpaceOnUse">
<stop stop-color="#8B8B8B"/>
<stop offset="0.509514" stop-color="#CACACA"/>
<stop offset="1" stop-color="#737373"/>
</linearGradient>
<linearGradient id="paint11_linear_743_4193" x1="273.831" y1="136.625" x2="293.166" y2="136.625" gradientUnits="userSpaceOnUse">
<stop stop-color="#8F7047"/>
<stop offset="0.509514" stop-color="#DABD9A"/>
<stop offset="1" stop-color="#A58A63"/>
</linearGradient>
<linearGradient id="paint12_linear_743_4193" x1="394.897" y1="332.491" x2="413.298" y2="332.491" gradientUnits="userSpaceOnUse">
<stop stop-color="#8F7047"/>
<stop offset="0.509514" stop-color="#DABD9A"/>
<stop offset="1" stop-color="#A58A63"/>
</linearGradient>
<linearGradient id="paint13_linear_743_4193" x1="40.8532" y1="332.55" x2="60.3272" y2="332.55" gradientUnits="userSpaceOnUse">
<stop stop-color="#8F7047"/>
<stop offset="0.509514" stop-color="#DABD9A"/>
<stop offset="1" stop-color="#A58A63"/>
</linearGradient>
<linearGradient id="paint14_linear_743_4193" x1="336.543" y1="332.537" x2="356.11" y2="332.537" gradientUnits="userSpaceOnUse">
<stop stop-color="#8F7047"/>
<stop offset="0.509514" stop-color="#DABD9A"/>
<stop offset="1" stop-color="#A58A63"/>
</linearGradient>
<linearGradient id="paint15_linear_743_4193" x1="269.632" y1="332.466" x2="289.169" y2="332.466" gradientUnits="userSpaceOnUse">
<stop stop-color="#8F7047"/>
<stop offset="0.509514" stop-color="#DABD9A"/>
<stop offset="1" stop-color="#A58A63"/>
</linearGradient>
<linearGradient id="paint16_linear_743_4193" x1="367.139" y1="332.509" x2="383.852" y2="332.509" gradientUnits="userSpaceOnUse">
<stop stop-color="#8F7047"/>
<stop offset="0.509514" stop-color="#DABD9A"/>
<stop offset="1" stop-color="#A58A63"/>
</linearGradient>
<linearGradient id="paint17_linear_743_4193" x1="205.412" y1="332.49" x2="220.441" y2="332.49" gradientUnits="userSpaceOnUse">
<stop stop-color="#8F7047"/>
<stop offset="0.509514" stop-color="#DABD9A"/>
<stop offset="1" stop-color="#A58A63"/>
</linearGradient>
<linearGradient id="paint18_linear_743_4193" x1="71.5872" y1="332.688" x2="86.6921" y2="332.688" gradientUnits="userSpaceOnUse">
<stop stop-color="#8F7047"/>
<stop offset="0.509514" stop-color="#DABD9A"/>
<stop offset="1" stop-color="#A58A63"/>
</linearGradient>
<linearGradient id="paint19_linear_743_4193" x1="98.7753" y1="332.493" x2="111.682" y2="332.493" gradientUnits="userSpaceOnUse">
<stop stop-color="#8F7047"/>
<stop offset="0.509514" stop-color="#DABD9A"/>
<stop offset="1" stop-color="#A58A63"/>
</linearGradient>
<linearGradient id="paint20_linear_743_4193" x1="424.491" y1="332.459" x2="434.892" y2="332.459" gradientUnits="userSpaceOnUse">
<stop stop-color="#8F7047"/>
<stop offset="0.509514" stop-color="#DABD9A"/>
<stop offset="1" stop-color="#A58A63"/>
</linearGradient>
<linearGradient id="paint21_linear_743_4193" x1="157.594" y1="332.677" x2="174.651" y2="332.677" gradientUnits="userSpaceOnUse">
<stop stop-color="#8F7047"/>
<stop offset="0.509514" stop-color="#DABD9A"/>
<stop offset="1" stop-color="#A58A63"/>
</linearGradient>
<linearGradient id="paint22_linear_743_4193" x1="138.757" y1="332.434" x2="150.086" y2="332.434" gradientUnits="userSpaceOnUse">
<stop stop-color="#8F7047"/>
<stop offset="0.509514" stop-color="#DABD9A"/>
<stop offset="1" stop-color="#A58A63"/>
</linearGradient>
<linearGradient id="paint23_linear_743_4193" x1="444.6" y1="332.375" x2="460.317" y2="332.375" gradientUnits="userSpaceOnUse">
<stop stop-color="#8F7047"/>
<stop offset="0.509514" stop-color="#DABD9A"/>
<stop offset="1" stop-color="#A58A63"/>
</linearGradient>
<linearGradient id="paint24_linear_743_4193" x1="507.493" y1="332.466" x2="522.14" y2="332.466" gradientUnits="userSpaceOnUse">
<stop stop-color="#8F7047"/>
<stop offset="0.509514" stop-color="#DABD9A"/>
<stop offset="1" stop-color="#A58A63"/>
</linearGradient>
<linearGradient id="paint25_linear_743_4193" x1="17.4125" y1="332.462" x2="31.9062" y2="332.462" gradientUnits="userSpaceOnUse">
<stop stop-color="#8F7047"/>
<stop offset="0.509514" stop-color="#DABD9A"/>
<stop offset="1" stop-color="#A58A63"/>
</linearGradient>
<linearGradient id="paint26_linear_743_4193" x1="182.029" y1="332.566" x2="194.976" y2="332.566" gradientUnits="userSpaceOnUse">
<stop stop-color="#8F7047"/>
<stop offset="0.509514" stop-color="#DABD9A"/>
<stop offset="1" stop-color="#A58A63"/>
</linearGradient>
<linearGradient id="paint27_linear_743_4193" x1="248" y1="332.497" x2="260.624" y2="332.497" gradientUnits="userSpaceOnUse">
<stop stop-color="#8F7047"/>
<stop offset="0.509514" stop-color="#DABD9A"/>
<stop offset="1" stop-color="#A58A63"/>
</linearGradient>
<linearGradient id="paint28_linear_743_4193" x1="485.806" y1="332.466" x2="498.541" y2="332.466" gradientUnits="userSpaceOnUse">
<stop stop-color="#8F7047"/>
<stop offset="0.509514" stop-color="#DABD9A"/>
<stop offset="1" stop-color="#A58A63"/>
</linearGradient>
<linearGradient id="paint29_linear_743_4193" x1="317.708" y1="332.653" x2="327.351" y2="332.653" gradientUnits="userSpaceOnUse">
<stop stop-color="#8F7047"/>
<stop offset="0.509514" stop-color="#DABD9A"/>
<stop offset="1" stop-color="#A58A63"/>
</linearGradient>
<linearGradient id="paint30_linear_743_4193" x1="471.353" y1="332.521" x2="474.824" y2="332.521" gradientUnits="userSpaceOnUse">
<stop stop-color="#8F7047"/>
<stop offset="0.509514" stop-color="#DABD9A"/>
<stop offset="1" stop-color="#A58A63"/>
</linearGradient>
</defs>
</svg>
